<svg xmlns="http://www.w3.org/2000/svg" width="1920" height="243"><defs><clipPath id="a"><path data-name="Rectangle 4212" transform="translate(0 986)" fill="#fff" stroke="#707070" d="M0 0h1920v243H0z"/></clipPath><clipPath id="b"><path data-name="Rectangle 4165" fill="none" d="M0 0h42.402v21.873H0z"/></clipPath><clipPath id="c"><path data-name="Rectangle 4165" fill="none" d="M0 0h77.162v39.803H0z"/></clipPath><clipPath id="d"><path data-name="Rectangle 4164" fill="none" d="M0 0h170.082v261.662H0z"/></clipPath><clipPath id="e"><path data-name="Rectangle 4163" fill="none" d="M0 0h117.274v138.345H0z"/></clipPath><clipPath id="f"><path data-name="Rectangle 4173" fill="none" d="M0 0h285.032v186.23H0z"/></clipPath></defs><g transform="translate(0 -986)" clip-path="url(#a)"><g data-name="bg-about"><g data-name="Group 8247"><g data-name="Group 8228" transform="translate(1794.348 1043.127)" clip-path="url(#b)" opacity=".801"><path data-name="Path 1869" d="M0 10.522c.073 4.339 7.861 5.447 16.477 5.585l4.5 5.716c2.587.534 1.4-3.426.524-5.731h.1a24.333 24.333 0 0014.511-4.938l4.714 5.982c3.633.745-.137-7.353-.137-7.353s3.471-8.226-.135-7.35l-4.494 6.16a24.234 24.234 0 00-14.681-4.414c-.213 0-.423.005-.638.013.591-1.792 1.252-4.6-.625-4.143l-3.138 4.3C8.093 4.877-.072 6.617 0 10.522" fill="#4674b6"/></g></g><g data-name="Component 11 – 1"><g data-name="Group 8246"><g data-name="Group 8228" clip-path="url(#c)" transform="translate(1825.588 994.394)"><path data-name="Path 1869" d="M0 19.148c.132 7.9 14.3 9.912 29.985 10.164l8.182 10.4c4.707.971 2.554-6.234.954-10.429.054 0 .123.006.18.006a44.281 44.281 0 0026.407-8.986l8.578 10.886c6.612 1.355-.249-13.381-.249-13.381s6.317-14.969-.245-13.376l-8.172 11.2A44.1 44.1 0 0038.9 7.605c-.388 0-.77.01-1.161.023 1.08-3.261 2.282-8.367-1.133-7.539L30.9 7.921C14.728 8.875-.132 12.041 0 19.148" fill="#4674b6"/></g></g><g data-name="Component 10 – 1"><g data-name="Component 9 – 1"><g data-name="Group 8227"><g data-name="Group 8226" clip-path="url(#d)" transform="translate(1383.918 1007.571)"><path data-name="Path 1868" d="M92.741 70.76c1.672-.885 1.573-.873 3.439-.633a10.9 10.9 0 011.2.2 1611.34 1611.34 0 01-1.42-9.154 1286.782 1286.782 0 01-2.472-17.02c-.373.037-1.092.075-1.187.066a3.285 3.285 0 01-2.015-.778c.386-.378-.187-.305.853-.6a4.217 4.217 0 012.176.042 720.845 720.845 0 01-1.417-10.951c-3.662.111-3.571.85-5.485-.034a11.175 11.175 0 013.77-1.461 8.512 8.512 0 011.509-.239 146.011 146.011 0 01-1.249-15.021c0-.371 0-.735-.016-1.09l-1.855-.344c.194-.315-1.145-1.2 1.217-.958a1.622 1.622 0 01.552.138A13.038 13.038 0 0086.537 4.7C82.771 1.026 77.272.151 74.784 0 73.3-.082 71.3 1.209 69.261 3.073a43.64 43.64 0 00-7.339 9.13c-.392.661-.093 2.144.7 4.332a7.1 7.1 0 011.754-.684 5.585 5.585 0 013.293-.014l-4.6 1.876c.953 2.427 2.368 5.541 4.042 9.229.7 1.544 1.446 3.182 2.218 4.913 2.888-1.79 7.453-1.549 9.176.3-2.026.271-2.807-.42-5.03-.106-1.618.227-2.594.717-3.679.851 5.715 12.89 12.783 30.587 15.371 51.38a259.745 259.745 0 004.8 28.039c.087-.067.185-.139.293-.221a5.587 5.587 0 011.42-.72 11.494 11.494 0 013.7-.443l-2.72 1.546a24.7 24.7 0 01-2.45.852 101.224 101.224 0 003.148 10.51 48.146 48.146 0 008.63 15.216 60.363 60.363 0 017.867 12.757 83.814 83.814 0 015.746 18.093c1.909 9.211 1.4 24.745 1.032 36.092-.2 6.078-.357 10.934-.09 12.79a85.978 85.978 0 015.044 11.718 1.222 1.222 0 11-2.329.741 83.034 83.034 0 00-4.879-11.336c-.835.744-.8.5-2.1.091.55-.71-.439-.57 1.29-.978.123-.03.229-.054.323-.074a133.906 133.906 0 00-6.793-11.641c-1.95.348-2.814.525-4.368-.222a3.662 3.662 0 013.663-.849c-1.431-2.153-3-4.39-4.722-6.687a128.464 128.464 0 01-6.058-8.782 4.214 4.214 0 01-2.1-.053c.487-.676.234-.9 1.309-1.229a78.068 78.068 0 01-5.857-11.518 49.148 49.148 0 01-2.6-8.55 3.777 3.777 0 01-.551.3c-3.206 1.464-.971.205-2.118-.319l2.416-1.327a65.072 65.072 0 01-.315-2.065c-.247-1.775.248-4.853.82-8.4.39-2.419.817-5.073 1.064-7.6l-3.81-.779c1.307-1.145 2.544-.973 3.874.072.366-4.318.129-8.135-1.84-9.538-2.048-1.455-4.4-3.934-7.26-7.837a5.919 5.919 0 01-4.866.607 4.536 4.536 0 014.4-1.249 118.085 118.085 0 01-3.73-5.542c-3.438-5.4-7.527-12.494-12.489-21.74l-3.168.206c-.135-.168-.329-.064-.492-.1 1.2-1.117 2.107-1.505 2.986-1.362q-2.673-5.004-5.687-10.842a92.478 92.478 0 01-7.034-17.6 5.354 5.354 0 01-4.77 1.092l2.681-1.594a6.078 6.078 0 011.663-.161l.263.067a78.5 78.5 0 01-2.682-19.237c-2.127.173-2.309.184-3.451-1.572 1.565-.049 2.453-.059 3.429.653q-.018-.985-.03-1.891c-.077-5.117-.122-8.219-2.3-9.237a30.212 30.212 0 00-13.176-2.6 9.546 9.546 0 00-2.839.54 1.982 1.982 0 00-1.122.838.937.937 0 00-.077.468 19.526 19.526 0 00.876 3.654 12.3 12.3 0 014.632-.727c-.8 1.168-2.1 1.479-4.193 2.134.209.655.432 1.345.662 2.052.975 3 2.051 6.313 2.656 9.162 1.971 5.452 4.412 14.015 5.066 16.628-.056-.125-.285-.17-.345-.226-1.687-1.559-3.264-6.136-4.495-10.737-.465 1.522-1.538 2.285-3.457 1.937-1.955-.356-4.064-1.983-6.206-4.144a5.127 5.127 0 01-2.226 1.481c-2.825 1.016-3.024-.306-3.346-.551 2.985-.637 3.72-1.481 5-1.52-1.6-1.675-3.209-3.609-4.78-5.494-1.441-1.732-2.847-3.42-4.1-4.778.008.469-.195.739-1.918 1.494-.243-1.338-.057-1.67 1.026-2.426C9.6 48.2 8.45 47.367 7.749 47.591a3.612 3.612 0 00-.7.334C5.235 49 3.161 51.633 1.722 54.641.3 57.6-.465 60.865.3 63.224a4.5 4.5 0 00.41.907c.827 1.4 2.781 2.439 5.662 3.973a79.489 79.489 0 0116.808 11.47c.42-.685 1.217-1 2.594-.81l-1.4 1.889a131.011 131.011 0 0116.638 18.874c.831-.721 1.005-.969 2.742-.668-.381.491.984.55-1.588 1.225-.254.067-.461.117-.63.154.012.015.023.033.037.049 9.564 13.069 16.294 24.566 20.418 33.447 1.235-1.676 1.071-1.651 4.013-2.213-2.155 3.487-3.222 3.359-3.708 2.872a75.1 75.1 0 013.485 8.917c.06.2.12.392.176.586a1 1 0 00.287-.485 81.6 81.6 0 013.288 12.471c.582 2.735 2.5 8.755 1.693 11.027l-4.186-16.74c-.037 2.1-.748 3.444-2.1 3.927a3.016 3.016 0 01-1.086.169c-.022 1-.327 1.217-2.778 1.539a14.784 14.784 0 011.329-1.831c-3.49-1.254-7.08-6.192-10.561-10.98l-.085-.115c-.075.021-.155.044-.238.065-1.895.49-.069.3-1.481-.378.383-.273.718-.489 1.011-.66a56.655 56.655 0 00-5.16-6.411c-.541 1.352-.985 1.021-3.225 3.568-1.488 1.695-2.175 3.333-4.307 4.671.357-2.814 4.015-6.993 6.978-8.757-1.03-.907-1.94-1.369-2.672-1.155-2.491.729-5.19 4.008-7.047 7.957-1.795 3.819-2.749 8.193-1.931 11.455.914 3.641 5.043 6.6 10.844 10.267a3.96 3.96 0 011.857-2.463c.058 1.922.267 2.244-.67 3.209l1.445.9c2.165 1.348 4.5 2.8 6.934 4.417.091-1.115.827-1.6 2.507-2.569-.295 2.327.521.623-1.127 2.7-.183.23-.314.387-.424.508a123.801 123.801 0 016.286 4.5c7.543 5.769 17.029 15.832 26.386 28.689q.634.87 1.265 1.759c2.838-2.544 3.173-.6 3.179-.6a14.862 14.862 0 01-1.6.927c-.5.15-.851.264-1.094.345a227.875 227.875 0 0120.895 36.191c.009.014 1.168 2.362 2.681 5.257 2.286-1.386 3.622-2.12 7.165-.926l-1.813.782a19.293 19.293 0 00-4.826 1.147 88.428 88.428 0 004.975 8.568 1.372 1.372 0 01.073.116c.4.62 5.222 7.6 17.079 3.336a53.747 53.747 0 017.362-1.948c8.224-1.738 13.12-2.773 10.148-26.308-.924.711-1.232.541-2.518.2.5-.636-.287-.593 1.325-1.094.434-.136.773-.237 1.038-.31l-.165-1.2q-.617-4.418-1.044-8.808c-.241.04-.52.078-.844.114a2.03 2.03 0 01-2.132-1.02l2.86-.3q-.275-2.992-.47-5.954c-.394.036-.28-.232-.557-.294.044-.075-.575-1.105.472-1.066-.281-4.7-.411-9.32-.411-13.83-.366.062-.737-.219-1.586-.5.639-.661-1.274-.362 1.516-.869l.074-.013c.027-4.193.168-8.281.407-12.227a188.766 188.766 0 012.515-21.658 28.57 28.57 0 00-2.735-1.45c-1.924-.781-2.582-.328-4.466-1.726a9.766 9.766 0 017.471 1.714 100.012 100.012 0 014.01-15.263q.266-.735.542-1.454c-1.2-.149-1.53-.433-2.211-2.074 1.571-.144 1.848.119 2.488 1.348 1.971-5.081 4.1-9.55 5.986-13.5 1.019-2.136 1.963-4.113 2.764-5.943a6.726 6.726 0 01-2.965-2.22 5.779 5.779 0 013.612.695c1.628-3.986 2.406-7.218 1.535-9.826-1.066-3.19-4.227-6.362-7.794-8.616-3.691-2.329-7.731-3.64-10.222-2.913-2.07.606-2.427 6.528-2.8 12.671-.376 6.24-.766 12.684-3.387 15.4a3.877 3.877 0 01-.918.717c-1.731 4.639-3.942 10.248-4.7 10.874-.009-1.277 1.157-6.2 2.9-10.544a4.507 4.507 0 01-2.874-2.262 23.608 23.608 0 01-2.6-6.413q-.6-2.165-1.119-4.882a10.842 10.842 0 01-5.784-.147c2.374-1.442 4.166-1.177 5.738-.095-1.557-8.287-2.474-20.262-2.016-35.186a5.9 5.9 0 01-1.4.37 3.028 3.028 0 01-1.9-.285 3.164 3.164 0 013.335-1.09q.134-3.86.392-7.974.2-3.132.482-6c-.983.261-2.077-.055-2.839-1.642l2.973.327c1.655-15.532 5.032-25.279 8.118-31.873-2.3-.1-2.937-.2-4.149-1.435 2.32-.7 2.58-.46 4.167 1.394 1.3-2.77 2.546-4.986 3.59-6.839 1.6-2.845 2.686-4.773 2.633-6.4a4.64 4.64 0 00-.141-.981c-.622-2.4-3.028-4.737-5.819-6.473-2.832-1.76-6-2.865-8.1-2.794a3.658 3.658 0 00-.772.1c-1.024.27-1.65 2.9-2.171 6.334a3.775 3.775 0 013.209 1.56 7.635 7.635 0 01-3.408-.184 265.993 265.993 0 00-.422 3.25c-.759 6-1.565 12.363-4.234 14.837a2.73 2.73 0 01-3.016.821c.95 4.015 1.117 8.7-.293 10.558-.283-3.2-.1-5.131-.907-8.751-.248-1.119-.822-2.695-1.2-4.226-1.506-2.6-2.72-6.973-3.779-11.021a4.07 4.07 0 01-3.47.022c1.62-1 2.155-1.244 3.173-1.164l-.015-.059a43.423 43.423 0 00-2.162-7.059.962.962 0 00-.316-.352 1.994 1.994 0 00-1.4-.1 9.578 9.578 0 00-2.68 1.075 30.2 30.2 0 00-9.7 9.284c-1.291 2.032.339 4.671 3.03 9.023 1.207 1.952 2.6 4.216 4.04 6.9 1.111-1.2 2.539-1.717 4.57-2.136-.582 1.517-.259 1.213-2.323 2.257-.959.484-1.29.724-1.8.734 3.668 7.067 7.461 16.951 8.8 31.5.757 8.245 1.32 15.388 1.7 21.575a4.291 4.291 0 013.324.725 5.343 5.343 0 01-3.234.754c.359 6.128.531 11.283.536 15.618a95.131 95.131 0 01-.507 10.864 1.227 1.227 0 01-.032.26 27.386 27.386 0 01-1.567 6.859c-1 2.473 1.359 6.285 4.415 10.092 1.585-.661 2.122.036 2.122.036-.5.607-.453.939-1.069 1.244a182.087 182.087 0 003.535 4.048c2.393 2.683 4.466 5.011 5.213 6.639a47.73 47.73 0 013.766 11.783 70.815 70.815 0 011.005 7.657c1.243-.695 2.3-.653 2.974 1.239l-2.906-.326a115.732 115.732 0 01-.164 16.458c-.2 2.709-.32 5.3-.372 7.765a1.3 1.3 0 010 .158c-.346 17.351 2.6 28.218 2.612 28.255a1.221 1.221 0 11-2.359.629c-.012-.037-3.023-11.142-2.7-28.754q-.628-1.537-1.185-3.107c-.859.464-1.341.539-2.763-.192.3-.329-.192-.643 1.594-.923.286-.045.533-.08.745-.1a112.489 112.489 0 01-3.785-14.914c-.488.633-.226.672-1.84 1.173l-2.731.052a4.04 4.04 0 014.533-1.421c-1-5.274-1.8-10.759-2.629-16.445q-.333-2.287-.677-4.618l-1.838-.148c.031-.041-.553-1.106 1.669-.98-.5-3.308-1.029-6.677-1.636-10.1-.9-1.028-1.815-2.089-2.689-3.167-.737.07-.434-.217-.365-.457-2.743-3.448-5-7.028-5.125-10.123a9.172 9.172 0 01-.919.171c-1.61.231-1.672-.369-2.076-.6 1.751-.85 1.937-.956 3.061-.773a5.274 5.274 0 01.32-1.16 23.974 23.974 0 001.357-5.791 62.518 62.518 0 00-6.866-6.018c-1.127-.886-2.155-1.7-3.028-2.478l.047.314c.349 2.235.693 3.905.155 5.925-.137-.144-.322-.022-.706-1l-.938-6.686a7.194 7.194 0 01-1.032-1.532c-.566-1.174-1.715-6.53-3.133-14.19-.74-.046-1.112-.324-1.714-1.3a5.992 5.992 0 011.426-.269c-1.276-6.991-2.743-15.662-4.187-24.737a10.007 10.007 0 01-4.842-.829m47.4 88.558c1.211-1.338.486-.739 2.339-.869-.247.492 1.234 2.666-2.339.869m5.369 14.181c1.16-1.52.624-1.011 2.853-.975-.276.587 1.019 2.281-2.853.975m-21.644-53.478c.3-.568-.877-2.457 2.27-.571zM82.135 60.581c2.073-1.525 4.2-.67 5.722.232l-6.932 1.519c.8-1.586-1.294.09 1.209-1.751m24.883 70.369a4.247 4.247 0 00.868-.216c1.979-.617.742.192 1.382.557a4.836 4.836 0 01-2.164.387c.3-.682-.038-.726-.087-.728m9.746 34.989c1.511-.066.692.215 1.381.532-1.232 1.317-1.523.882-2.862.2.7-.618-1.739-.593 1.481-.736m-39.8-14.051c.674-1.34-2.209-.242 1.326-1.242 1.381-.391 1.252.354 1.349.553zm13.26-91.372c2.643-.657 1.4-.632 2.9.856-3.067.1-1.332.73-2.9-.856m59.495 46.946c2.656-.463 4.351.121 5.4 2.522a16.009 16.009 0 01-3.239-.989c-1.366-.436-1.1.22-2.161-1.533m-21.1-42.933c.288-.425 1.011-.6 0 0m-1.162.581c-.133.03-.039-.058 0 0m-.216.657c.238-.445.247-.605.216-.657a2.853 2.853 0 00.592-.263c.232-.124.42-.229.57-.318-.164.241-.188.563.321.872zm.923 35.683c.258-.349-.712-1.414 2.135-.624-.077.122 1 1.762-2.135.624M86.839 14.32c-2.521 1.131-1.072.731-2.428-.442 2.238-.308.935-.631 2.428.442m2.5 176.3c1.725-.433 1.087.319 1.208.385-1.34 1.47-1.162 1.083-2.641.77.62-.931-1.853-.327 1.432-1.155m51.428 45.91c.427-.442-1.333-.281 1.582-1.023l3.99.664c-.659.711 1.4.2-1.234.709zM112.651 25.6l-2.687.7c.762-1.454-2.269-.193 1.348-1.237 1.31-.378 1.255.338 1.339.539M65.933 120.26c.08-.167-1.527-.776 1.853-1.52 1.745-.385 1.452.172 1.921.572zm-13.27-28.309c.974-.982-.7-.526 1.221-.814 1.586-.236 1.412.43 1.563.5-.742 1.12-1.475.9-2.783.31M30.757 72.293c-.253.944 1.008.228-.435 1.67-1.58 1.577-1.5.121-1.524.117.763-1.358.224-.97 1.96-1.787m95.878 138.588c1.336-1.216 3.652-1.229 5.273-.906a3.51 3.51 0 01-2.684 1.367 3.273 3.273 0 01-2.588-.461m1.153 41.019c3.511-.919 17.55-3.674 20.262-2.921-1.723 1.753-18.236 4.172-20.262 2.921m10.969-38.225c1.126-1.053 1.876-.821 3.438-.449-.1.146.75 1-1.858 1.117-1.77.077-1.4-.551-1.58-.668m-31.74-82.725c-.008 0-.006 0 0 0m-31.124 42.572c1.3-1.436 1.748-1.133 3.335-1.1-.761 1.186.305.784-1.575 1.349-1.191.358-.843-.016-1.76-.254m52.559 53.035c3.366-.794 1.033-.108 1.921.34-1.576 1.37-2.23 1.337-3.768.942.674-.835.357-.931 1.846-1.283m-7.087-14.334c1.861-2.432 1.911-.619 2.3-.474-1.254 1.165-1.512.649-2.3.474m20.98-12.9c1.489-2.669 1.951-.693 2.123-.62-.945.879.1 1.214-2.123.62m-9.71 37.364c2.371-.064 2.958.044 4.266 1.55a4.461 4.461 0 01-2.356.037c-2.019-.6-.725-.006-1.91-1.587M121.167 254.3c.655-.57-1.661-.631 1.525-.755 2.032-.078.376.088 1.331.554-.7.7 1.8.608-1.488.733-2.5.094.107.124-1.368-.532m37.128-135.871c2.582-.468 1.919-1.03 3.258 1.9-1.53-.285-.571.14-1.8-.584-1.744-1.024-.43-.334-1.455-1.315m-15.953-97.4c-2.243.058-1.069.793-2.661-1.03 2.275-.226 1.9-.657 2.661 1.03m-93.62 137.7c1.058-2.481.03-1.007 1.935-2.51.116 2.463.107 2.957-1.935 2.51M12.864 65.492c-.195.039-.067-.072 0 0m.977-.4c-.064.207.024.479.474.8l-1.558.2c.172-.394.156-.549.106-.6a3.22 3.22 0 00.6-.221c.144-.064.27-.123.378-.178m0 0c.159-.514 1.251-.622 0 0m33.032 83.419c.084-1.856-.048-1.591 1.536-2.695.568 2.436.222 2.2-1.536 2.695" fill="#bee4f2" fill-rule="evenodd"/></g></g><g data-name="Group 8225"><g data-name="Group 8224" clip-path="url(#e)" fill="#bee4f2" fill-rule="evenodd" transform="translate(1296.5 1106)"><path data-name="Path 1703" d="M44.703 42.031a161.772 161.772 0 01-3.077-3.172 27.35 27.35 0 01-2-2.312 22.9 22.9 0 01-2.883-6.416c-.72-2.438-1.075-4.829-.766-6.132a3.846 3.846 0 01.268-.745 9.544 9.544 0 013.27-3.477 6.252 6.252 0 014.567-1.241 3.007 3.007 0 01.6.209c2.17 1.025 4.322 5.261 6.633 9.808a183.82 183.82 0 002.025 3.912c1.637 3.043 4.177 7.431 6.376 11.007 1.275 2.072 2.424 3.859 3.2 4.926-.021-.452-.068-1-.138-1.63a105.1 105.1 0 00-4.255-18.869c-.238-.7-.5-1.464-.765-2.217-2.843-8.219-5.276-15.237-2.833-20.788 1.457-3.326 3.736-3.719 5.87-3.095a13.568 13.568 0 014.539 2.733c1.257 1.058 1.9 7.277 2.605 14.116.322 3.127.659 6.388 1.07 9.379l.463 3.447c1.25 9.314 3.018 22.5 5.013 26.666 1.271 2.659 4.532 8.059 7.437 12.859 2.339 3.866 4.448 7.354 5.136 8.782 1.259 2.615 3.367 9.273 4.652 13.358a71.4 71.4 0 00-1.744-16.211c-1.207-4.522-5.363-13.058-8.857-20.232a120.925 120.925 0 01-5.182-11.366c-.693-2.28-1.9-7.423-2.954-12.318-1.079-5.01-2-9.781-2.063-11a7.373 7.373 0 01.723-3.388 7.486 7.486 0 012.149-2.835c.8-.568 2.107-.294 3.463.461a13.219 13.219 0 013.676 3.122c1.194 1.5 2.469 8.513 3.635 14.928.747 4.111 1.449 7.974 2.013 9.845a4.063 4.063 0 00.5 1.184 3.084 3.084 0 00.387-.745 29.8 29.8 0 001.271-9.347c.038-4.142-1.857-9.523-3.626-14.547-1.587-4.507-3.075-8.734-3.045-11.728a22.727 22.727 0 01.557-6.127A4.335 4.335 0 0184.812.251l.036-.022c1.242-.734 3.317.379 5.37 2.2a29.477 29.477 0 015 5.843c.083.131.154.247.213.346.936 1.586 1.432 5.767 1.66 10.736.335 7.275.122 16.358-.112 21.23a70.341 70.341 0 01-1.873 11.235c-1.08 4.88-2.092 9.455-1.361 12.194a59.978 59.978 0 002.937 7.444c2 4.542 4.2 9.533 4.377 13.031.134 2.586.109 7.521.086 12.259-.025 4.993-.049 9.766.1 11.179a5.367 5.367 0 00.985-.764c1.428-1.338 3.141-3.719 3.418-5.465.287-1.806-.56-10.687-1.292-18.361-.5-5.271-.952-9.979-.943-11.546.012-2.147-.413-10.357-.765-17.158-.249-4.8-.46-8.9-.456-9.721a5.83 5.83 0 011.452-3.174 21.9 21.9 0 013.623-3.588 1.594 1.594 0 01.509-.26c.889-.272 2.126.213 3.41 1.162a18.478 18.478 0 013.483 3.5 14.449 14.449 0 012.389 4.339c.672 2.189-.359 8.021-1.5 14.463-1.222 6.917-2.572 14.552-2.059 18.747.551 4.5 1.094 10.111 1.408 14.953a71.409 71.409 0 01.173 9.6 32.427 32.427 0 01-1.655 6.335c-1.007 3.067-2.089 6.367-2 9.175a43.645 43.645 0 00.726 6.561c.337 1.808.7 3.186.894 3.9a1.064 1.064 0 01-.019.579c-.217.742-1.585 2.015-3.624 3.25a29.111 29.111 0 01-7.36 3.141 17.719 17.719 0 01-9.435.2.7.7 0 01-.387-.287 3.141 3.141 0 01-.335-1.194c-.344-2.078-1.22-7.371-10.012-16.143-5.764-5.752-9.782-6.233-14.162-6.759a27.306 27.306 0 01-13.651-4.748c-10.529-7.025-20.046-18.312-24.556-23.664a128.777 128.777 0 00-1.8-2.11 7.815 7.815 0 01-2.316-4.916 6.58 6.58 0 01.84-3.22c.421-.864 2.07-1.458 3.928-1.8a16.993 16.993 0 015.923-.2c.864.292 2.757 3.3 5.224 7.217 2.9 4.611 6.629 10.525 9.983 14.436a64.869 64.869 0 007.496 7.703 13.321 13.321 0 004.72 2.763c.114-1.717-2.7-7.916-5.39-13.843a329.882 329.882 0 01-2.736-6.13 105.6 105.6 0 01-3.578-10.73q-.347-.117-.734-.241-.6-.194-1.091-.341c-20.227-6.063-31.691-4.933-37.582-4.352-2.3.226-3.8.374-4.786-.022a15.074 15.074 0 01-4-2.3 11.236 11.236 0 01-2.644-3.124c-.033-.057-.058-.1-.074-.136-.656-1.331-.128-3.361.879-5.214a11.291 11.291 0 013.605-4.14c.085-.048.157-.088.214-.116 1.714-.846 12.515 2.223 21 4.635 3.693 1.05 6.941 1.972 8.731 2.385-1.3-1.125-4.516-3.563-8-6.2-5.082-3.848-10.71-8.109-12.2-10.223a18.165 18.165 0 01-2.847-6.531 22.931 22.931 0 01-.52-4.727 1.589 1.589 0 01.148-.688c.421-.931 1.842-1.747 3.537-2.316a17.533 17.533 0 014.935-.906 5.165 5.165 0 012.121.32c1.019.46 3.794 3.686 6.989 7.754 4.223 5.379 9.26 12.294 11.843 16.108a24.273 24.273 0 003.617 4.148 35.5 35.5 0 003.2 2.617c-1.871-7.47-3.321-14.06-3.494-15.865a11.246 11.246 0 01.054-2.66m-2.059-4.121c.691.737 1.512 1.585 2.429 2.516.051-.158.106-.311.163-.46a4.809 4.809 0 012.65-3.035 10.258 10.258 0 015.28 1.046 8.15 8.15 0 012.888 2.093c-1.465-2.491-2.886-5-3.937-6.951-.687-1.278-1.369-2.621-2.038-3.936-2.2-4.328-4.247-8.358-5.985-9.18a1.711 1.711 0 00-.325-.112 4.944 4.944 0 00-3.483 1.046 8.082 8.082 0 00-2.777 2.91 2.368 2.368 0 00-.172.471 13.137 13.137 0 00.745 5.42 21.459 21.459 0 002.679 5.99 26.057 26.057 0 001.888 2.18m15.886 6.288a226.228 226.228 0 01-1.742-2.882c.69 1.83 1.66 7.109 2.8 13.5a237.615 237.615 0 013.258 3.323 154.71 154.71 0 0114.232 17.6 27.327 27.327 0 011.52 2.48c.518 1.009.531 1.7-.066 1.982a.858.858 0 01-.506.063c-.753-.121-1.609-.892-2.884-2.044a42.1 42.1 0 00-12.028-8.012l-.794-.349c.6 3.081 1.206 6.018 1.812 8.575.158.1.308.192.451.282a56.6 56.6 0 0118.123 18.5c3.6 6.011 4.788 11.055 4.136 12.31l-.039.068a2.287 2.287 0 01-.8.75 6.447 6.447 0 01-4.385.23 17.079 17.079 0 01-5.279-2.211 12.017 12.017 0 01-4-3.923 68.218 68.218 0 01-4.48-9.218 117.593 117.593 0 01-4.7-14.885q-.156-.615-.311-1.263a1.538 1.538 0 01-.016-.065c-1.481-6.187-2.958-14.527-4.248-21.815-1.37-7.736-2.529-14.28-3.2-15.605a5.762 5.762 0 00-2.803-2.342 8.833 8.833 0 00-4.337-.964 3.507 3.507 0 00-1.709 2.186 8.962 8.962 0 00-.5 4.09c.183 1.9 1.839 9.333 3.906 17.445l.012.044c.395 1.549.8 3.122 1.222 4.686a335.984 335.984 0 001.851 6.68l.011.037a106.832 106.832 0 003.618 10.9c.8 1.863 1.753 3.965 2.723 6.1 2.9 6.379 5.931 13.064 5.446 14.947a1.092 1.092 0 01-1.519.865 14.324 14.324 0 01-5.414-3.082 66.074 66.074 0 01-7.664-7.861c-3.426-3.995-7.18-9.956-10.106-14.6-2.314-3.675-4.092-6.5-4.492-6.633a15.8 15.8 0 00-5.22.247c-1.476.268-2.735.633-2.929 1.032a5.383 5.383 0 00-.7 2.567 6.5 6.5 0 001.964 4.038c.465.525 1.075 1.25 1.823 2.137 4.466 5.29 13.89 16.47 24.271 23.39a26.093 26.093 0 0013.043 4.529c4.633.555 8.882 1.065 14.985 7.155 9.107 9.086 10.035 14.7 10.4 16.9.033.194.059.355.081.469a16.66 16.66 0 008.343-.31 27.711 27.711 0 007-2.983 9.328 9.328 0 002.984-2.383c-.2-.746-.554-2.1-.887-3.891a45.051 45.051 0 01-.749-6.776c-.1-3.047 1.027-6.47 2.07-9.651a31.693 31.693 0 001.594-6.037 70.793 70.793 0 00-.18-9.375 278.078 278.078 0 00-1.4-14.876c-.54-4.413.829-12.151 2.067-19.161 1.109-6.272 2.113-11.952 1.541-13.814a13.1 13.1 0 00-2.164-3.9 17.082 17.082 0 00-3.207-3.228c-.94-.694-1.743-1.081-2.172-.95a.228.228 0 00-.067.035 20.35 20.35 0 00-3.369 3.334 4.665 4.665 0 00-1.163 2.329c0 .727.209 4.832.457 9.642.352 6.793.776 15 .764 17.237-.008 1.47.439 6.157.94 11.406.739 7.749 1.595 16.716 1.278 18.71-.327 2.058-2.249 4.774-3.843 6.267a6.742 6.742 0 01-1.266.969 1.485 1.485 0 01-1.434.156 1.055 1.055 0 01-.533-.7c-.252-.945-.225-6.271-.2-11.869.024-4.736.049-9.669-.081-12.181-.168-3.251-2.31-8.116-4.258-12.543a61.381 61.381 0 01-3.014-7.641c-.816-3.06.232-7.8 1.35-12.852a69.572 69.572 0 001.844-11c.233-4.824.442-13.837.108-21.1-.22-4.771-.663-8.729-1.467-10.091-.07-.119-.134-.225-.193-.318a27.971 27.971 0 00-4.748-5.539c-1.625-1.444-3.12-2.411-3.735-2.048l-.014.008a3.143 3.143 0 00-1.6 1.824 21.822 21.822 0 00-.492 5.715c-.029 2.741 1.422 6.863 2.969 11.256 1.806 5.13 3.741 10.625 3.7 15.019a31.158 31.158 0 01-1.363 9.857 3.533 3.533 0 01-.864 1.373 1.134 1.134 0 01-1.6.042 4.049 4.049 0 01-1.059-1.973c-.6-1.976-1.3-5.858-2.053-9.993-1.137-6.254-2.38-13.095-3.353-14.314a11.742 11.742 0 00-3.267-2.773c-.9-.5-1.673-.758-1.976-.543a6.052 6.052 0 00-1.69 2.283 5.974 5.974 0 00-.6 2.734c.057 1.152.967 5.833 2.031 10.776 1.05 4.87 2.245 9.974 2.926 12.213.551 1.812 2.667 6.156 5.1 11.161 3.523 7.233 7.713 15.837 8.951 20.478a73.109 73.109 0 011.779 16.922 17.5 17.5 0 01-.139 2.121c-.189 1.217-.653 1.62-1.411 1.009a1.556 1.556 0 01-.433-.752c-.158-.493-.374-1.179-.626-1.979-1.261-4.008-3.43-10.9-4.685-13.507-.664-1.38-2.754-4.835-5.07-8.665-2.926-4.837-6.21-10.268-7.5-12.975-2.086-4.363-3.873-17.675-5.134-27.08-.111-.832-.212-1.577-.467-3.441-.4-2.9-.742-6.235-1.072-9.428-.675-6.546-1.29-12.5-2.117-13.2a12.35 12.35 0 00-4.031-2.462c-1.502-.432-3.122-.127-4.2 2.326-2.216 5.047.131 11.831 2.884 19.771.245.707.492 1.422.766 2.223a106.728 106.728 0 014.322 19.167 19.817 19.817 0 01.156 2.489c-.025 1.033-.346 1.588-1 1.541a.882.882 0 01-.484-.191.678.678 0 01-.059-.047 43.88 43.88 0 01-4.247-6.2m-7.2 28.348a381.9 381.9 0 01-1.5-5.457c-.4-1.49-.788-2.987-1.166-4.466a39.074 39.074 0 01-4.669-3.667 25.567 25.567 0 01-3.821-4.388c-2.566-3.787-7.579-10.668-11.79-16.032-3.071-3.911-5.67-6.981-6.465-7.341a3.9 3.9 0 00-1.523-.2 16.074 16.074 0 00-4.514.834c-1.362.457-2.463 1.025-2.709 1.568a.22.22 0 00-.024.092 21.564 21.564 0 00.482 4.443 16.807 16.807 0 002.63 6.035c1.366 1.945 6.9 6.133 11.892 9.915 4.914 3.721 9.332 7.066 9.142 8.18-.1.578-.533.824-1.357.683-1.515-.258-5.307-1.336-9.733-2.593-8.258-2.347-18.765-5.333-20-4.722a3.43 3.43 0 00-.141.075 9.854 9.854 0 00-3.073 3.6c-.813 1.5-1.28 3.053-.848 3.93l.032.063a9.848 9.848 0 002.321 2.735 13.712 13.712 0 003.631 2.085c.664.268 2.029.133 4.129-.074 5.987-.59 17.626-1.737 38.12 4.408q.527.158.959.295m8.679-15.32c.627 3.542 1.3 7.318 1.987 10.958l.666.3 1 .441a43.376 43.376 0 0112.4 8.256c.237.214.458.413.661.594a45.84 45.84 0 00-.82-1.266A153.12 153.12 0 0061.84 59.104c-.443-.46-.994-1.025-1.633-1.675zm4.6 23.163a115.354 115.354 0 004.535 14.302 66.808 66.808 0 004.386 9.033 10.645 10.645 0 003.545 3.446 15.615 15.615 0 004.829 2.026 5.206 5.206 0 003.388-.072.9.9 0 00.319-.294c.518-.867-.748-5.284-4.12-10.914a55.184 55.184 0 00-16.89-17.532m22.2 29.164z"/><path data-name="Path 1704" d="M109.639 96.743c.928 1.17-.174 1.144 1.573.8-.684-.835-.431-.613-1.573-.8"/><path data-name="Path 1705" d="M53.901 62.953c.051.021.056 1.19 1.252-.334-.433-.214.148-.289-.637-.148-1.019.183-.365.22-.615.482"/><path data-name="Path 1706" d="M45.371 94.536c-2.007-.817-.855.2-.972.363.985.183.318.285.972-.363"/><path data-name="Path 1707" d="M95.741 131.772c.568.341-.244.283.6.165 1.8-.252-.273.5.253-.566z"/><path data-name="Path 1708" d="M88.175 70.305s.436 1.136 1.546-.412c-.23-.095.07-.385-.921-.105-1.441.406-.123-.047-.625.518"/><path data-name="Path 1709" d="M36.352 51.853a1.54 1.54 0 002.132-.569 1.481 1.481 0 00-2.132.569"/><path data-name="Path 1710" d="M68.535 49.004c.458.188-.047.282.724.147 1.184-.209.3-.179.527-.481-1.137-.381-.655-.312-1.251.333"/><path data-name="Path 1711" d="M83.686 58.233a1.706 1.706 0 002.264-.962 2.266 2.266 0 00-2.264.962"/><path data-name="Path 1712" d="M40.018 88.441c1.084-.847.56-.01.7-1.214-1.524.71-.97.134-.7 1.214"/><path data-name="Path 1713" d="M111.143 103.396c.655 1.1.512 1.048 1.812.794-.615-.8-.75-1.09-1.812-.794"/><path data-name="Path 1714" d="M79.339 93.108c.839.446.964.494 1.59-.065-.266-.159.27-.362-.881-.341-.992.017-.7.4-.71.406"/><path data-name="Path 1715" d="M97.847 87.452c.408.161.01.258.7.135 1.286-.23.211-.049.55-.468-.907-.317-.541-.512-1.245.332"/><path data-name="Path 1716" d="M94.416 90.334c-.054-.081-.1.153-.108.39l.934-.362c-.619-.351.157-.257-.655-.184-.035 0-.125.224-.17.156"/><path data-name="Path 1717" d="M90.658 21.053c-.162-.317-.091-.443-.481-.684-.715-.44-.388-.323-1.217-.08.6.84.63 1.023 1.7.764"/><path data-name="Path 1718" d="M60.842 34.637c.879-.627.921-.044.8-1.149-1.14.222-1.046-.311-.8 1.149"/><path data-name="Path 1719" d="M81.92 53.32c-.427-.077.394-.722-.882.087-.517.327-.2.359-.268.578 1.259.214 1.132-.637 1.15-.665"/><path data-name="Path 1720" d="M34.13 65.344c.506-1.467-.224-1.159-.334-1.25-.272.536-.354-.522-.139.687.239 1.342.008.179.473.563"/><path data-name="Path 1721" d="M96.814 107.814c1.03.358.623.377 1.249-.333-.423-.163 0-.261-.71-.134-1.214.217-.259.115-.539.467"/><path data-name="Path 1722" d="M63.385 41.166l2.462-.989c-.208-.13.32-.974-1.463-.158-1.413.647-.868.913-1 1.147"/><path data-name="Path 1723" d="M73.931 30.825c1.3-.287 1.178-.171 1.7-.931-.243-.061.417-.771-.921.017-1.759 1.036-.172-.077-.783.913"/><path data-name="Path 1724" d="M48.108 103.828a2.3 2.3 0 001.787-2.082c-1.263.582-1.579.872-1.787 2.082"/><path data-name="Path 1725" d="M107.28 119.016c.064.033 1.007.725 1.239.825.679.294.175.232 1.078.228-.417-1.21-.988-1.409-2.316-1.053"/><path data-name="Path 1726" d="M110.224 54.783c.409.426-.134.728 1.228.807.894.052.665-.131.921-.344-.848-.607-.788-.572-2.149-.463"/><path data-name="Path 1727" d="M31.046 52.07c1.061-.613 1.124-.334 1.23-1.613-1.463.61-1.583.486-1.23 1.613"/><path data-name="Path 1728" d="M59.577 51.374c1.207.18.944-.054 1.1-1.289z"/><path data-name="Path 1729" d="M50.079 64.689c.448.368.943 1.075 2.073-.553a2.531 2.531 0 00-2.073.553"/><path data-name="Path 1730" d="M111.633 80.547c-.818-.144-1.07.1-1.958.433.174.136-.153.756 1.181.4.631-.171.674-.641.776-.828"/><path data-name="Path 1731" d="M93.88 80.678c.8 1.162.361 1.291 1.987.843-.72-.8.149-.257-1.041-.679a2.233 2.233 0 00-.946-.164"/><path data-name="Path 1732" d="M109.367 61.783c.253.124.105.311.856.318 1.652.017.482-.1.8-.4-.915-.553-1-.723-1.652.082"/><path data-name="Path 1733" d="M86.344 19.04l.809-1.565c-1.113.347-1.955.519-.809 1.565"/><path data-name="Path 1734" d="M10.329 62.179c-.131.187-.353.092-.343.775.022 1.474-.081.086.352.6-.008-.109.928-.561-.01-1.379"/><path data-name="Path 1735" d="M106.755 90.64c-.555-.931-.589-.471-.735-.546-.254.95.186 1.254.831 1.77.058-.171 1 .619-.1-1.224"/><path data-name="Path 1736" d="M64.639 78.206c.957-.42.9-.912.916-1.838-1.156.624-1.181.4-.916 1.838"/><path data-name="Path 1737" d="M102.545 46.028c.047.019.1 1.089 1.668-.445-.441-.186-.023-.389-1.049-.068-.706.221-.562.46-.618.513"/><path data-name="Path 1738" d="M103.192 51.236c.7.383 1.016.043 1.474-.686-1.036-.172-.854-.127-1.474.686"/><path data-name="Path 1739" d="M93.908 46.103c.323-.683 1-.258-.36-1.117-.555 1.05-.023.769.36 1.117"/><path data-name="Path 1740" d="M100.389 104.83c-.4-.64-.559-.638-1.381-.908-1.969-.65-1.619.123-1.8.4.9.162 2.306.769 3.177.51"/><path data-name="Path 1741" d="M90.796 76.063c.4.276-.359.292 1.171.434a4.88 4.88 0 001.382-.091c-.758-1.062-1.562-1.011-2.553-.344"/><path data-name="Path 1742" d="M57.411 58.07c.967.262 1.525-.229 2.172-.78-.525-.265.6-.893-1.3-.065a1.729 1.729 0 00-.869.845"/><path data-name="Path 1743" d="M77.444 48.779a2.147 2.147 0 002.613-.7c-.322-.135 0-.223-.752-.172l-1.693.7c-.054-.055-.112.111-.168.167"/><path data-name="Path 1744" d="M79.928 21.933c-.341-.249.038-.286-.633-.388-.977-.148-.312-.068-1.082.157.686.574.838.942 1.715.231"/><path data-name="Path 1745" d="M57.369 107.377c.235-.885.043-.251.066-1.032-.994.877-1.18.773-.413 1.783z"/><path data-name="Path 1746" d="M92.921 97.017c1.845.909 1.14-.308 1.254-.52-1.043.112-.646-.133-1.254.52"/><path data-name="Path 1747" d="M40.219 34.68c.65.11-.536.672.669 0 .625-.349.418-.484.515-.674-.555-.2-1.288-.092-1.184.675"/><path data-name="Path 1748" d="M19.598 33.725c.457.154-.1.331.717.1.724-.209.212-.066.58-.374-.613-.319-.192-.982-1.3.277"/><path data-name="Path 1749" d="M114.319 47.255l-.165-.62c-1.113-.4-.906-.528-2.223-.389.738.935.918 1.143 2.388 1.01"/><path data-name="Path 1750" d="M94.117 37.848c.16-.283.945-.186-.141-1.473-.548-.65-.653-.516-1.208-.51z"/><path data-name="Path 1751" d="M67.73 81.14a1.334 1.334 0 001.431-.307c1.047-.967.452-.176.237-1.048a3.259 3.259 0 00-1.668 1.355"/><path data-name="Path 1752" d="M21.834 39.558l2.783-.98c-.279-.171-.051-.78-1.592-.275-.764.25-1.05.507-1.191 1.254"/><path data-name="Path 1753" d="M39.114 79.059c-1.47-.536-2.606.863-2.819 1.89z"/><path data-name="Path 1754" d="M60.871 9.802c2.731.8 2.161-.2 2.185-.224-.195-.077-.059-.325-1.038-.321-2.285.011-.986.368-1.147.545"/><path data-name="Path 1755" d="M88.265 9.792l-.844-2.1c-.257.334-.991-.655-.282 1.192.464 1.208.509.706 1.126.912"/><path data-name="Path 1756" d="M103.686 71.336c.691.749 1.016.772 2.375.844-.891-1.018-1.153-1.278-2.375-.844"/><path data-name="Path 1757" d="M82.777 13.177l2.161-1c-.389-.23.414-1.168-1.337-.068a4.326 4.326 0 00-.824 1.067"/><path data-name="Path 1758" d="M90.01 34.858a3.075 3.075 0 001.1-1.9c-1.235.453-1.491.656-1.1 1.9"/><path data-name="Path 1759" d="M112.336 87.891c1.255.7 1.549-.221 1.622-.251l-.375-1c-.5.885-.376.45-1.246 1.248"/><path data-name="Path 1760" d="M55.962 18.285c.025 0 .533 1.059 1.48-.754-1.591-.472-1.343.534-1.48.754"/><path data-name="Path 1761" d="M10.271 67.625c.1-.35.281-.422.152-1-.436-1.948.083-.363-.741-.909-.043 1.064-.3 1.144.589 1.908"/><path data-name="Path 1762" d="M106.233 52.217c.312.135.089.193 1.046.3a5.268 5.268 0 001.02-.033c-.9-1.023-1.021-1.07-2.066-.268"/><path data-name="Path 1763" d="M43.266 37.399c.993-.335.9-.335 1.417-1.04-.026-.008.166-.729-.94.012-.561.374-.451.5-.477 1.029"/><path data-name="Path 1764" d="M45.919 70.428c.982-.939.7-.057.823-1.73-1.148.765-1.032-.066-.823 1.73"/><path data-name="Path 1765" d="M59.034 14.833c.258.157.326 1.315 1.609-.306-.4-.155.08-.265-.678-.119a3.49 3.49 0 00-.931.426"/><path data-name="Path 1766" d="M48.334 45.787c.2.08.237.655 1.589-.373 0 0-.256-1.157-1.589.373"/><path data-name="Path 1767" d="M85.233 45.556c.912.841.042.543 1.629.5-.826-.879-.142-.844-1.629-.5"/><path data-name="Path 1768" d="M35.442 63.213c1.459.2 2.6-.54 4.065.213a20.1 20.1 0 003.064 1.714c-.794-1.9-5.181-4.367-7.128-1.929"/><path data-name="Path 1769" d="M92.552 101.811c.42-.616.529-.278.221-1.859-.134-.686-.293-1.392-.434-2.081a11.854 11.854 0 01-.444-3.66c-.894.23-.775-.054-.706 1.3z"/><path data-name="Path 1770" d="M72.439 102.481c-.659-.228 1.047-.7-1.118-.079a6.241 6.241 0 00-.963.622 1.645 1.645 0 00-.47 1.817z"/><path data-name="Path 1771" d="M71.533 84.18c.341.458-.022.783 1.053.96 1.516.251 1.094-.267 1.354-.74z"/><path data-name="Path 1772" d="M33.151 56.292c.107.043-.07 1.221 2.03-.542-.678-.32.952-.708-1.116-.142-.73.2-.7.47-.914.683"/><path data-name="Path 1773" d="M86.557 105.296c1.06.6.05.942 2.351 1.014-.662-1.085-.728-.939-2.351-1.014"/><path data-name="Path 1774" d="M40.824 96.98c1.124-.36 1.185-.389 1.692-1.221-1.146-.309-1.44.3-1.692 1.221"/><path data-name="Path 1775" d="M42.157 62.789c.65-.344.394.034.779-.561.581-.9.209.05.131-.966-1.258.515-.9.14-.91 1.526"/><path data-name="Path 1776" d="M64.847 29.903c.122.049.064 1.143 1.491-.4-.331-.058-.08-.94-1.491.4"/><path data-name="Path 1777" d="M111.757 50.78c.589.753.581.907 1.65.437-.673-.658-.509-.689-1.65-.437"/><path data-name="Path 1778" d="M107.406 95.425c-.1-.252-.538-.384-.861-.445l.68 1.593c.494-.918.658.049.181-1.148"/><path data-name="Path 1779" d="M93.356 29.563l1.606.062-2.286-2a2.651 2.651 0 00.68 1.936"/><path data-name="Path 1780" d="M73.966 65.482c.629-.156 1.023-.078 1.473-.567.594-.645.231-.51.32-1.221-1.9 1.291-1.514 1.1-1.793 1.788"/><path data-name="Path 1781" d="M96.458 96.947c.433.722-.012 1.513 2.71.641l-1.632-.462a24.386 24.386 0 01-1.078-.179"/><path data-name="Path 1782" d="M95.028 21.983c-.723-.986-.954-1.215-2.544-.5a4.218 4.218 0 002.544.5"/><path data-name="Path 1783" d="M56.049 82.083c1.89-.8.616-.364.971-1-1.25.227-1.494.32-2.087 1.092a1.3 1.3 0 001.116-.093"/><path data-name="Path 1784" d="M41.482 30.276c-.861-1.181-1.811-1.948-2.764-3.168-1.616-2.067-1.169-2.433-1.829-4.672-1.299 2.825 2.475 7.84 4.593 7.84"/><path data-name="Path 1785" d="M12.872 32.651l1.4.437c.967.687 2.484 3.283 4.467 4.018a15.028 15.028 0 00-2.626-3.209c-.948-1.027-2.063-2.575-3.239-1.246"/><path data-name="Path 1786" d="M84.323 80.344c-.587-.2.644-.523-.918-.057-.746.223-3.7 2.357-4.059 4.346z"/><path data-name="Path 1787" d="M78.055 111.648a1.3 1.3 0 00.206-.7c.393-2.9-.362-1.817-.7-2.078-.071 1.02-.373 1.849.494 2.777"/><path data-name="Path 1788" d="M91.626 6.659a3.115 3.115 0 00-2.927-.9c.3.719-.3.433.98.8a4.366 4.366 0 001.947.095"/><path data-name="Path 1789" d="M63.667 91.551a2.817 2.817 0 002.671-.713 2.115 2.115 0 00-2.494.492c-.067-.062-.118.147-.177.221"/><path data-name="Path 1790" d="M83.257 45.454a2.168 2.168 0 00-1.352-.607c-2.074-.059-.812.227-1.1.667a3.718 3.718 0 002.448-.06"/><path data-name="Path 1791" d="M53.552 42.242a1.445 1.445 0 00.989.021c2.015-.452.812-.224 1.171-.717-.526-.145.356-.423-1.059-.1-1.568.355-.988.6-1.1.8"/><path data-name="Path 1792" d="M22.232 65.661c.423 1.769.53.731.738.877a1.816 1.816 0 00-.543-2.036c-.228.517-.685-.9-.195 1.159"/><path data-name="Path 1793" d="M23.707 61.233c.056-.092.8.479.171-1.364-.314-.922-.371-.554-.687-.788a2.308 2.308 0 00.516 2.153"/><path data-name="Path 1794" d="M26.489 67.467c1.375-.524 1.533-.758 1.644-1.969-1.185.748-1.307.8-1.644 1.969"/><path data-name="Path 1795" d="M16.859 42.29a1.714 1.714 0 00.089-1.06c-.361-1.093-.17-.55-.834-1.022.011.195.051 1.112.1 1.249.554 1.657.165.514.649.833"/><path data-name="Path 1796" d="M62.406 55.347c.458.168.3.469 1.3.012.926-.425.69-.742.745-1.178z"/><path data-name="Path 1797" d="M101.541 117.68c.232-1.088.229-.929-.467-1.752-.223.545-.718-.86-.127 1.146.467 1.581.026.18.594.606"/><path data-name="Path 1798" d="M100.387 119.055c-1.018-.286-.869-.1-1.844.347.819.385.1.512 1.305.222.9-.218.525-.55.539-.568"/><path data-name="Path 1799" d="M92.257 50.892c-.334-.16.436-.594-1.015-.138-1.606.5-.114-.046-.62.607 1.107.243.783.181 1.635-.469"/><path data-name="Path 1800" d="M46.195 52.811c.566.3-.966.823 1.111.2 1.763-.527.112.1.54-.8z"/><path data-name="Path 1801" d="M87.813 110.932c1.89.76 1.275-.151 1.4-.373-.879-.112-.777-.13-1.4.373"/><path data-name="Path 1802" d="M91.921 122.031a4.031 4.031 0 003.461-1.282c-1.08-.344-2.815.6-3.461 1.282"/><path data-name="Path 1803" d="M56.695 103.723c.719-.348.539.346.774-1.055a6.4 6.4 0 00-.025-1.768c-.918 1.013-.887 1.407-.749 2.822"/><path data-name="Path 1804" d="M91.135 133.36a3.438 3.438 0 002.7-.965 2.119 2.119 0 00-2.7.965"/><path data-name="Path 1805" d="M82.958 92.499a2.624 2.624 0 002.674-.713c-.31-.128-.089-.215-.772-.2-.027 0-.619.079-.658.089z"/><path data-name="Path 1806" d="M109.471 109.812c.678 1.258.61 1.674 2.062 1.465a2.541 2.541 0 00-2.062-1.465"/><path data-name="Path 1807" d="M51.792 49.527c.628.23-.878.594 1.066.054a1.8 1.8 0 00.922-.584c-.015-.008-.1-1.388-1.988.531"/><path data-name="Path 1808" d="M109.917 42.391c.607.823.393 1.254 1.7.741-.743-.775-.5-.857-1.7-.741"/><path data-name="Path 1809" d="M80.82 75.672c-.081-.045-.3-1.714-1.657.51z"/><path data-name="Path 1810" d="M64.785 109.797c-1.068.766-1.107.575-.5 2.013z"/><path data-name="Path 1811" d="M107.476 87.693c-.555-1.111-.113-.683-1.16-.912.217 1.088-.293.922 1.16.912"/><path data-name="Path 1812" d="M113.529 99.602l-1.43.644c.488.22.007.462.948.142 1.033-.351.23-.057.482-.786"/><path data-name="Path 1813" d="M105.213 118.844c1.726 1.028 1.092-.16 1.232-.508z"/><path data-name="Path 1814" d="M106.492 82.663l-.422-.446c-.442 1.176.308 1.177.317 1.188.236-.581.275.224.105-.742"/><path data-name="Path 1815" d="M69.669 65.56s.888.9 1.013-.4z"/><path data-name="Path 1816" d="M41.784 86.052l1.04-.418c-1.372-.707-.5.587-.92.022-.064-.087-.1.177-.12.4"/><path data-name="Path 1817" d="M107.96 48.211c.492-.9.409-.124.323-2.533a58.4 58.4 0 01.427-6.931c-1.6 1.02-1.427 7.161-.75 9.464"/><path data-name="Path 1818" d="M112.564 58.685c-1.051-.368-2.372-.128-3.656-.22-1.479-.106-2.163-.521-3.292-.615-.231 1.417-.153.1-1.3 1.332 1.165.463 1.075-.037 2.353-.206 1.158-.155 3.547.988 5.9-.291"/><path data-name="Path 1819" d="M48.694 40.295c.34 1.682.823 1.865 1.256 2.139-.122-1.924-1-3.243-.827-5.021.011-.108.133-.38.134-.46.005-1.231-.205-.531-1.047-.523z"/><path data-name="Path 1820" d="M26.163 45.246c1.326.211 4.818-1.657 6.1-2.194-.74-.34.725-.722-1.593-.13a13.227 13.227 0 00-4.5 2.324"/><path data-name="Path 1821" d="M106.012 127.075c.439.169-.217 1.148 3.008-.819 2.466-1.5 1.709-1.43 1.918-2.057z"/><path data-name="Path 1822" d="M104.908 65.884c2.34-1.648 3.29-.821 5.717-.8-1.267-1.316-5.328-1.741-5.717.8"/><path data-name="Path 1823" d="M65.038 61.368c.429.2.541.769 2.784-.591 1.171-.71 1.3-.834 1.587-2.158-1.541.959-2.643 1.776-4.371 2.749"/><path data-name="Path 1824" d="M15.315 56.114l-1.1.492c.086.078.034.249.061.3.533 1.132.532-.353.221 3.049.7-.818.156.207.72-1.04a3.564 3.564 0 00.1-2.806"/><path data-name="Path 1825" d="M66.785 15.546c-.779-1.23-2.207-1.611-3.919-1.742a5.893 5.893 0 003.919 1.742"/><path data-name="Path 1826" d="M58.73 82.602c.321-.634.175-.065.336-.869.016-.076-.05-.7-.062-.807l1.88-.751c-2.049-1.021-3.052.2-2.153 2.428"/><path data-name="Path 1827" d="M60.376 6.347a6.984 6.984 0 003.115-.371c-.3-.235-.819-1.036-2.519-.16-1.22.629-.181.06-.6.531"/><path data-name="Path 1828" d="M83.67 101.636c.376.146-.009.158.688.089 2.209-.218 1.878-1.079 1.975-1.235-1.381.161-1.754.087-2.663 1.146"/><path data-name="Path 1829" d="M40.72 66.302c-.033-.068-.7-.972-.8-1.127 0 .007-1.53.13.895 2.373.229-.615 1.047 1.032-.1-1.246"/><path data-name="Path 1830" d="M46.449 31.145c-.53-1.345-1.055-1.523-2.483-1.464a4 4 0 002.483 1.464"/><path data-name="Path 1831" d="M18.88 67.345a2.921 2.921 0 00.36-2.583c-.5.474-.558.377-.729 1.219-.247 1.215.369 1.363.369 1.364"/><path data-name="Path 1832" d="M92.706 13.374l-2.569.727c.553.374.558.531 1.43.308 1.36-.347.965-.617 1.139-1.035"/><path data-name="Path 1833" d="M6.996 56.621a3.862 3.862 0 001.131-2.253c-1.249.453-1.294.887-1.131 2.253"/><path data-name="Path 1834" d="M73.692 26.346c.146.176.057.578 1.08.347 1.871-.423.986-.664 1.148-.972z"/><path data-name="Path 1835" d="M77.006 43.098c-.624-.264.049-.007-.864-.187.375 1.4.451 1.66 1.7.742-.332-.259.052-.177-.835-.554"/><path data-name="Path 1836" d="M72.582 68.98l-.42-.271c-.056-.106-.142-.108-.28-.148l.288 1.686.821-1.072c-.056-.023-.155-.061-.208-.085s-.153-.084-.2-.11"/><path data-name="Path 1837" d="M75.117 36.538l1.467-.267c-.206-.251.452-.924-.825-.4-1.095.453-.045-.252-.642.663"/><path data-name="Path 1838" d="M70.605 53.897c-1.431.042.057-.168-.317.378.7.35.252.3 1.017-.144-1.048-.633.343-.264-.7-.234"/><path data-name="Path 1839" d="M101.197 109.212a3.221 3.221 0 002.6 1.43c-.94-1.352-.625-.438-1.593-1.457-.473-.5-.648-.931-1.15-1.4a4.526 4.526 0 00-.726 2.681c-.1 2.038.138 2.4.814 2.941z"/><path data-name="Path 1840" d="M20.858 47.459c.153-2.276 1.125-2.932 1.169-4.74a4.535 4.535 0 00-1.745 3.339c-.144 1.825.355 1.211.577 1.4"/><path data-name="Path 1841" d="M57.608 25.914a6.455 6.455 0 002.743-1.983 2.674 2.674 0 00-2.292.891c-.853 1.05-.174.029-.45 1.092"/><path data-name="Path 1842" d="M61.521 98.327c.764-.273.228.065.869-.429a4.425 4.425 0 00.377-.385c.634-.733.3-.55.421-.814-2.18-.338-1.668 1.627-1.667 1.628"/><path data-name="Path 1843" d="M79.402 39.153c1.143.857.331 1.2 2.511.961-.673-.944-.984-.9-2.511-.961"/><path data-name="Path 1844" d="M85.799 51.319c.51.381.339.408.937.486 2.065.272 1.033-.349 1.1-.418-1.089-.649-.791-.7-2.036-.068"/><path data-name="Path 1845" d="M67.772 35.219a22.528 22.528 0 00-2.323-.4c.672 1.167 1.377 1.578 2.323.4"/><path data-name="Path 1846" d="M41.146 25.447a3.382 3.382 0 001.29-.287c1.307-.549.555-.284.843-.621-1.143-.419-1.791-.207-2.134.908"/><path data-name="Path 1847" d="M81.224 33.73l-1.957-.443c.513.689-.027.682.978.931 1.321.33.969-.474.979-.488"/><path data-name="Path 1848" d="M93.194 108.062c.455.155-.669.608 1.116.09 1.644-.477.129.026.667-.566-.322-.08.271-.439-1.124-.037s-.209.07-.658.512"/><path data-name="Path 1849" d="M64.716 21.33c1.877.255 1.658-.135 2.032-.708-1.89.066-1.615.061-2.032.708"/><path data-name="Path 1850" d="M91.518 42.516c-1.825-.5-1.5.235-1.79.64 1.429-.051 1.316-.072 1.79-.64"/><path data-name="Path 1851" d="M109.481 91.909c.767.776.368.568 1.69.643-.7-1.032-.381-1.033-1.69-.643"/><path data-name="Path 1852" d="M85.243 107.315c.574 2.151 1.7 6.958 3.851 7.192a29.708 29.708 0 01-2.166-4.392c-.811-2.2-.938-4.073-2.035-4.576z"/><path data-name="Path 1853" d="M58.66 12.078c.343-.98-1.08-6.346-1.415-7.073-.8-1.723-.266-.539-.719-.925-.155 1.346 1.217 7.053 2.134 8"/><path data-name="Path 1854" d="M0 62.627c1.166.618 2.252.415 3.855.206a13.474 13.474 0 004.17-.938c-1.093-.5-2.786.03-4.216.183-1.922.205-2.641-.5-3.809.549"/><path data-name="Path 1855" d="M30.018 77.845l-1.774-2.761c-.444-.5-.221-.211-.687-.473.737 2.911 3.069 5.947 5.23 6.109-.766-.967-1.79-1.605-2.769-2.875"/><path data-name="Path 1856" d="M74.965 20.03c.341 1.278.593 2.822 1.473 3.56l-1.6-7.513c-.161.279-.473.163-.365 1.568a14.6 14.6 0 00.492 2.386"/><path data-name="Path 1857" d="M46.717 36.206c1.32-.835 1.231-1.222 2.3-2.155.954-.829 2.108-1.265 2.687-2.085a6.019 6.019 0 00-4.99 4.239"/><path data-name="Path 1858" d="M62.41 106.012c1.113 1 1.389.757 3.121.994a10.96 10.96 0 003.163.212c-.562-.459-.075-.213-.726-.519a10.299 10.299 0 00-.755-.206z"/><path data-name="Path 1859" d="M86.078 5.924c.254-.466.225.173.277-.629.038-.583-.217-2.779-1.213-3.544a10.26 10.26 0 00.936 4.174"/><path data-name="Path 1860" d="M85.031 63.58a2.435 2.435 0 003.442-1.11z"/><path data-name="Path 1861" d="M83.337 87.633c.682.311-.718 1.183 1.863-.117.832-.419.638-.482.85-.842a4.893 4.893 0 00-2.714.96"/><path data-name="Path 1862" d="M107.676 104.883c.374-.7.277.184.262-.8a2.433 2.433 0 00-1.133-2.02 3.981 3.981 0 00.872 2.822"/><path data-name="Path 1863" d="M104.229 77.15c.519.666.038.752 1.171 1.111a1.657 1.657 0 001.252-.064 2.761 2.761 0 00-2.423-1.048"/><path data-name="Path 1864" d="M93.592 12.91l-1.628-1.174c.327 1.945-.122 1.988 1.628 1.178"/><path data-name="Path 1865" d="M87.663 25.332c1.292-.626 1.272-.671 1.652-1.682-1.344.429-1.631.577-1.652 1.682"/><path data-name="Path 1866" d="M27.562 50.8c-.046-1.6.219-1.256-.336-1.922a1.293 1.293 0 00-.449.974c.356 2.236-.245.258.785.948"/><path data-name="Path 1867" d="M52.446 36.12c1.519-.842.971-.243 1.095-1.547-.866.462-1.238.553-1.095 1.547"/></g></g></g><g data-name="Group 8253"><g data-name="Group 8252" clip-path="url(#f)" transform="translate(0 1041.003)" opacity=".433"><path data-name="Path 1879" d="M1.961 56.828a7.9 7.9 0 004.256 8.233C23.784 86.793 45.049 80.3 48.237 79.41s10.126-.729 10.126-.729l4.178.266.222-.559C93.654 76.2 112.137 83.4 112.137 83.4l7.419 2.97c-8.039.891-23.788 21.785-23.788 21.785l-.3-.313-.688.8-.119.606c-1.137.531-4.893 5.175-4.893 5.175s.8-1.048-3.456-2.193-6.467 6.559-6.467 6.559a48.746 48.746 0 01-14.512 22.467c-11.193 9.535-17.785 22.42-17.785 22.42-6.082 9.582-4.668 21-4.668 21 .159 1.54.619 1.546.619 1.546.79.374 3.242-11.706 3.242-11.706 5.305-16.332 19.164-26.41 24.339-30.707s14.84-12.136 14.84-12.136 15.173-13.26 17.022-15.453 10.43-7.77 10.43-7.77c3.28-2.065 12.628-7.82 12.628-7.82a48.2 48.2 0 019.95-3.656c4.726-1.287 11.114-6.674 11.114-6.674s10.324-8.029 11.686-9.01 8.833-9.2 12.919-11.175a51.3 51.3 0 008.479-5.585c3.221-2.1 10.181-.79 10.181-.79.436 6.142 7.764 6.96 7.764 6.96l-.354 1.518 1.328.246a3 3 0 00-.062 2.09l2.663-.334a1.468 1.468 0 01-.746 1.1l.5 2.308c5.568-.252 5.544-1.17 5.544-1.17a21.512 21.512 0 01.715-5.646 1.177 1.177 0 001.1-.783c.327-.66 2.646-1.41 2.646-1.41.586.783 3.844 1.185 4.164.776a1.345 1.345 0 01.875-.429c1.543-.164 5.153-3.432 5.153-3.432-.655 1.261-.209 7.5-.209 7.5-.391 1.164-3.4 8.423-3.4 8.423-1.845 3.781-1.383 5.579-1.383 5.579-.51 3.554 1.55 4.685 1.55 4.685 1.1 2.581 4.525 4.209 4.525 4.209a1.531 1.531 0 00.014 1.279c-.719.239-1.165 1.5-1.165 1.5s-1.09.837.572 1.553 2.694-1.206 2.694-1.206c.558.068 1.351.906 1.351.906l-.5 1.212a4.291 4.291 0 00-.929 2.275 2.777 2.777 0 00-1.89 1.88s-1.117-.184-2.084 1.58.463 1.491.463 1.491l2.288-1.423 2.541-1.349a6.242 6.242 0 00-2.255 2.077c-2.9 1.6-2.165 2.642-2.165 2.642.391.675 1.586-.306 1.586-.306a23.852 23.852 0 003.225-1.962l1.774-1.525a17.091 17.091 0 00-1.859 2.65c-1.668 1.382-1.328 1.907-1.342 2.418s1.328.034 1.328.034l.934-.586.309-.252 2.04-1.628 1.416-1.335c1.39-.32 1.655-2.656 1.655-2.656a2.222 2.222 0 002.112-.654c2.707-2.022 1.791-3.928 1.791-3.928 1.035-.539.531-2.548.531-2.548.8-1.1-.272-2.907-.272-2.907a2.066 2.066 0 00-1.3-2.425c.183-.122.367-.667.36-2.452-.007-3.372-1.961-4.4-1.961-4.4l.3-10.91c.48-.75 2.288-3.357 2.288-3.357a73.77 73.77 0 015.121-5.932c3.007-3.494 2.568-4.365 2.568-4.365l.545.626a.718.718 0 01.984-.388l1.716-2.854 3.579 5.149c-.814.027-.3 1.627-.3 1.627l-.235 3a2.746 2.746 0 00-.089 3.215l-.054 1.988s.231.722 1.661.762a2.09 2.09 0 001.914-.762l.228-6.477c1.662-.974.181-2.806.181-2.806l.034-1.225.667-.027.02-.819-.306-.006-.218-3.031c8.986 10.693 15.4 5.306 15.4 5.306 1.862-.185 7.372-6.3 7.372-6.3l-3.8-5.121.477-.538c2.714 2.853 9.446-5.536 9.446-5.536 3.824-3.848-.552-5.129-.552-5.129l.283-1.852c6.109-2.609-5.176-14.07-5.176-14.07-11.843-8.23-23.658 7.457-23.658 7.457l-1.042-.879c-1.846-5.42-4.185-5.433-4.185-5.433-5.006-7.329-7.992-6.293-7.992-6.293-1.13-1.516-5.21-3.766-5.21-3.766l1.1-.689c1.1-.84-.852-4.358-.852-4.358a9.576 9.576 0 00-2.867.32l-.712-.112s-.4 1.577-.252 0a1.83 1.83 0 00-1.427-1.93s-.3-2.047-1.576-2.084a1.741 1.741 0 00-1.621 1.334c-.088-.664-2.4.137-2.4.137-.558-1.959-2.877-1.049-2.877-1.049l-.5-.477c.633-.749-.119-3.064-.119-3.064a5.574 5.574 0 01.462-1.975C222.567.746 221.512 0 221.512 0l-2.268.8c-1.5.667-.16 4.032-.16 4.032-.851 1.049-.212 3.664-.212 3.664-.272-.92-1.695-1.369-1.695-1.369-3.637-6.789-12.916-5.465-12.916-5.465-.718-1.454-1.746-1.324-1.746-1.324l-4.679 1.095c-1.7.408-1.457 1.287-1.457 1.287L178.2 6.494l-.269-1.233-8.771 1.488c-3.695.565-7.53.916-7.53.916-5.6-.667-6.016 1.512-6.016 1.512-.511 1.723 1.709 6.279 1.709 6.279a7.384 7.384 0 011.791 1.832c-.708 1.464-1.546.419-1.205 4.61s1.655 4.645 1.655 4.645c-.307 3.97 1.232 5.291 1.232 5.291-.388 1.165-1.511 3.168.211 3.631a.7.7 0 00.133.033c1.686.327 3.579-1.464 3.579-1.464 9.037-3.726 12.633-2.758 12.633-2.758l.027-1.022 1.867-.913-1.131 2.268c-19.314 4.25-17.68 11.448-27.084 22.869a59.193 59.193 0 01-22.563 16.263 5.853 5.853 0 01-2.843-.437c-12.384-6.319-27.768-5.379-33.22-4.146S75.5 66.5 75.5 66.5s1.744-2-1.47-5.653-7.205.355-7.205.355-10.1 8.649-29.393 10.351S10 63.181 10 63.181s-.677-1.239-4.426-7.736C1.825 48.963.94 51.338.94 51.338c-2.6 1.662 1.021 5.49 1.021 5.49m253.033-.511a35.268 35.268 0 00.626-4.276c.293-1.342 2.9-.559 5.456-.233s3.088 4.25 3.088 4.25c1.634 3.317 3.64.545 2.959 1.879a3.181 3.181 0 00-.136 2.561l1.73 2.357-.028.77c-5.434 4.331-13.742-5.707-13.742-5.707z" fill="#4674b6"/></g></g></g></g></g></g></svg>