<svg xmlns="http://www.w3.org/2000/svg" width="1920" height="243"><defs><clipPath id="a"><path data-name="Rectangle 4212" fill="#fff" stroke="#707070" d="M0 0h1920v243H0z"/></clipPath><clipPath id="b"><path data-name="Rectangle 4165" fill="none" d="M0 0h42.402v21.873H0z"/></clipPath><clipPath id="c"><path data-name="Rectangle 4165" fill="none" d="M0 0h77.162v39.803H0z"/></clipPath><clipPath id="d"><path data-name="Rectangle 4164" fill="none" d="M0 0h170.082v261.662H0z"/></clipPath><clipPath id="e"><path data-name="Rectangle 4163" fill="none" d="M0 0h117.274v138.345H0z"/></clipPath><clipPath id="f"><path data-name="Rectangle 4173" fill="none" d="M0 0h285.032v186.23H0z"/></clipPath></defs><g clip-path="url(#a)"><g data-name="Group 8247"><g data-name="Group 8228" clip-path="url(#b)" transform="translate(83.25 57.127)" opacity=".801"><path data-name="Path 1869" d="M42.402 10.522c-.073 4.339-7.861 5.447-16.477 5.585l-4.5 5.716c-2.587.534-1.4-3.426-.524-5.731h-.1A24.333 24.333 0 016.29 11.154l-4.714 5.982c-3.633.745.137-7.353.137-7.353s-3.471-8.226.135-7.35l4.494 6.16a24.234 24.234 0 0114.681-4.414c.213 0 .423 0 .638.013-.591-1.792-1.252-4.6.625-4.143l3.138 4.3c8.885.528 17.05 2.268 16.978 6.173" fill="#4674b6"/></g></g><g data-name="Component 11 – 1"><g data-name="Group 8246"><g data-name="Group 8228" clip-path="url(#c)" transform="translate(17.25 8.394)"><path data-name="Path 1869" d="M77.162 19.148c-.132 7.9-14.3 9.912-29.985 10.164l-8.182 10.4c-4.707.971-2.554-6.234-.954-10.429-.054 0-.123.006-.18.006A44.281 44.281 0 0111.454 20.3L2.876 31.189c-6.612 1.355.249-13.381.249-13.381S-3.192 2.839 3.37 4.432l8.172 11.2a44.1 44.1 0 0126.72-8.027c.388 0 .77.01 1.161.023-1.08-3.261-2.282-8.367 1.133-7.539l5.706 7.832c16.172.954 31.032 4.12 30.9 11.227" fill="#4674b6"/></g></g><g data-name="Component 10 – 1"><g data-name="Component 9 – 1"><g data-name="Group 8227"><g data-name="Group 8226" clip-path="url(#d)" transform="translate(366 21.571)"><path data-name="Path 1868" d="M77.341 70.76c-1.672-.885-1.573-.873-3.439-.633a10.9 10.9 0 00-1.2.2c.479-3.027.954-6.095 1.42-9.154.877-5.805 1.722-11.584 2.477-17.02.373.037 1.092.075 1.187.066a3.285 3.285 0 002.015-.778c-.386-.378.187-.305-.853-.6a4.217 4.217 0 00-2.176.042c.53-3.883 1.009-7.572 1.417-10.951 3.662.111 3.571.85 5.485-.034a11.175 11.175 0 00-3.77-1.461 8.512 8.512 0 00-1.509-.239 146.012 146.012 0 001.244-15.021c0-.371 0-.735.016-1.09l1.855-.344c-.194-.315 1.145-1.2-1.217-.958a1.622 1.622 0 00-.552.138 13.038 13.038 0 013.8-8.223C87.311 1.026 92.81.151 95.299 0c1.484-.082 3.484 1.209 5.523 3.073a43.64 43.64 0 017.339 9.13c.392.661.093 2.144-.7 4.332a7.1 7.1 0 00-1.754-.684 5.585 5.585 0 00-3.293-.014l4.6 1.876c-.953 2.427-2.368 5.541-4.042 9.229-.7 1.544-1.446 3.182-2.218 4.913-2.888-1.79-7.453-1.549-9.176.3 2.026.271 2.807-.42 5.03-.106 1.618.227 2.594.717 3.679.851-5.716 12.89-12.788 30.587-15.372 51.38a259.747 259.747 0 01-4.8 28.039c-.087-.067-.185-.139-.293-.221a5.587 5.587 0 00-1.42-.72 11.494 11.494 0 00-3.7-.443l2.72 1.546a24.7 24.7 0 002.45.852 101.222 101.222 0 01-3.148 10.51 48.146 48.146 0 01-8.63 15.216 60.363 60.363 0 00-7.867 12.757 83.814 83.814 0 00-5.746 18.093c-1.909 9.211-1.4 24.745-1.032 36.092.2 6.078.357 10.934.09 12.79a85.977 85.977 0 00-5.04 11.718 1.222 1.222 0 002.329.741 83.034 83.034 0 014.871-11.336c.835.744.8.5 2.1.091-.55-.71.439-.57-1.29-.978-.123-.03-.229-.054-.323-.074a133.91 133.91 0 016.793-11.641c1.95.348 2.814.525 4.368-.222a3.662 3.662 0 00-3.663-.849c1.431-2.153 3-4.39 4.722-6.687a128.464 128.464 0 006.058-8.782 4.214 4.214 0 002.1-.053c-.487-.676-.234-.9-1.309-1.229a78.066 78.066 0 005.857-11.518 49.147 49.147 0 002.6-8.55 3.776 3.776 0 00.551.3c3.206 1.464.971.2 2.118-.319l-2.416-1.327c.132-.772.231-1.46.315-2.065.247-1.775-.248-4.853-.82-8.4-.39-2.419-.817-5.073-1.064-7.6l3.81-.779c-1.307-1.145-2.544-.973-3.874.072-.366-4.318-.129-8.135 1.84-9.538 2.048-1.455 4.4-3.934 7.26-7.837a5.919 5.919 0 004.866.607 4.536 4.536 0 00-4.4-1.249c1.157-1.611 2.4-3.449 3.73-5.542 3.438-5.4 7.527-12.494 12.489-21.74l3.168.206c.135-.168.329-.064.492-.1-1.2-1.117-2.107-1.5-2.986-1.362q2.673-5 5.687-10.842a92.477 92.477 0 007.034-17.6 5.354 5.354 0 004.77 1.092l-2.681-1.594a6.078 6.078 0 00-1.663-.161l-.263.067a78.5 78.5 0 002.682-19.237c2.127.173 2.309.184 3.451-1.572-1.565-.049-2.453-.059-3.429.653q.018-.985.03-1.891c.077-5.117.122-8.219 2.3-9.237a30.212 30.212 0 0113.176-2.6 9.546 9.546 0 012.839.54 1.982 1.982 0 011.122.838.937.937 0 01.077.468 19.527 19.527 0 01-.876 3.654 12.3 12.3 0 00-4.632-.727c.8 1.168 2.1 1.479 4.193 2.134-.209.655-.432 1.345-.662 2.052-.975 3-2.051 6.313-2.656 9.162-1.971 5.452-4.412 14.015-5.066 16.628.056-.125.285-.17.345-.226 1.687-1.559 3.264-6.136 4.495-10.737.465 1.522 1.538 2.285 3.457 1.937 1.955-.356 4.064-1.983 6.206-4.144a5.127 5.127 0 002.226 1.481c2.825 1.016 3.024-.306 3.346-.551-2.985-.637-3.72-1.481-5-1.52 1.6-1.675 3.209-3.609 4.78-5.494 1.441-1.732 2.847-3.42 4.1-4.778-.008.469.2.739 1.918 1.494.243-1.338.057-1.67-1.026-2.426 1.407-1.412 2.557-2.245 3.258-2.021a3.612 3.612 0 01.7.334c1.814 1.075 3.888 3.708 5.327 6.716 1.422 2.959 2.187 6.224 1.422 8.583a4.5 4.5 0 01-.41.907c-.827 1.4-2.781 2.439-5.662 3.973a79.489 79.489 0 00-16.807 11.47c-.42-.685-1.217-1-2.594-.81l1.4 1.889a131.012 131.012 0 00-16.638 18.874c-.831-.721-1.005-.969-2.742-.668.381.491-.984.55 1.588 1.225.254.067.461.117.63.154-.012.015-.023.033-.037.049-9.564 13.069-16.294 24.566-20.418 33.447-1.235-1.676-1.071-1.651-4.013-2.213 2.155 3.487 3.222 3.359 3.708 2.872a75.1 75.1 0 00-3.485 8.917c-.06.2-.12.392-.176.586a1 1 0 01-.287-.485 81.6 81.6 0 00-3.288 12.471c-.582 2.735-2.5 8.755-1.693 11.027l4.186-16.74c.037 2.1.748 3.444 2.1 3.927a3.015 3.015 0 001.086.169c.022 1 .327 1.217 2.778 1.539a14.783 14.783 0 00-1.329-1.831c3.49-1.254 7.08-6.192 10.561-10.98l.085-.115c.075.021.155.044.238.065 1.895.49.069.3 1.481-.378a13.336 13.336 0 00-1.011-.66 56.656 56.656 0 015.16-6.411c.541 1.352.985 1.021 3.225 3.568 1.488 1.7 2.175 3.333 4.307 4.671-.357-2.814-4.015-6.993-6.978-8.757 1.03-.907 1.94-1.369 2.672-1.155 2.491.729 5.19 4.008 7.047 7.957 1.795 3.819 2.749 8.193 1.931 11.455-.914 3.641-5.043 6.6-10.844 10.267a3.96 3.96 0 00-1.857-2.463c-.058 1.922-.267 2.244.67 3.209l-1.445.9c-2.165 1.348-4.5 2.8-6.934 4.417-.091-1.115-.827-1.6-2.507-2.569.295 2.327-.521.623 1.127 2.7.183.23.314.387.424.508a123.801 123.801 0 00-6.286 4.5c-7.543 5.769-17.029 15.832-26.386 28.689q-.634.87-1.265 1.759c-2.838-2.544-3.173-.6-3.179-.6a14.865 14.865 0 001.6.927c.5.15.851.264 1.094.345a227.876 227.876 0 00-20.9 36.191c-.009.014-1.168 2.362-2.681 5.257-2.286-1.386-3.622-2.12-7.165-.926l1.813.782a19.293 19.293 0 014.826 1.147 88.424 88.424 0 01-4.975 8.568q-.039.056-.073.116c-.4.62-5.222 7.6-17.079 3.336a53.751 53.751 0 00-7.362-1.948c-8.224-1.738-13.12-2.773-10.148-26.308.924.711 1.232.541 2.518.2-.5-.636.287-.593-1.325-1.094a32.084 32.084 0 00-1.038-.31q.081-.6.165-1.2.617-4.418 1.044-8.808c.241.04.52.078.844.114a2.03 2.03 0 002.132-1.02l-2.86-.3q.275-2.992.47-5.954c.394.036.28-.232.557-.294-.044-.075.575-1.1-.472-1.066.281-4.7.411-9.32.411-13.83.366.062.737-.219 1.586-.5-.639-.661 1.274-.362-1.516-.869l-.074-.013a226.655 226.655 0 00-.407-12.227 188.763 188.763 0 00-2.515-21.658 28.572 28.572 0 012.735-1.45c1.924-.781 2.582-.328 4.466-1.726a9.766 9.766 0 00-7.471 1.714 100.013 100.013 0 00-4.01-15.263q-.266-.735-.542-1.454c1.2-.149 1.53-.433 2.211-2.074-1.571-.144-1.848.119-2.488 1.348-1.971-5.081-4.1-9.55-5.986-13.5-1.019-2.136-1.963-4.113-2.764-5.943a6.726 6.726 0 002.965-2.22 5.779 5.779 0 00-3.612.695c-1.628-3.986-2.406-7.218-1.535-9.826 1.066-3.19 4.227-6.362 7.794-8.616 3.691-2.329 7.731-3.64 10.222-2.913 2.07.606 2.427 6.528 2.8 12.671.376 6.24.766 12.684 3.387 15.4a3.877 3.877 0 00.918.717c1.731 4.639 3.942 10.248 4.7 10.874.009-1.277-1.157-6.2-2.9-10.544a4.507 4.507 0 002.874-2.262 23.608 23.608 0 002.6-6.413q.6-2.165 1.119-4.882a10.842 10.842 0 005.784-.147c-2.374-1.442-4.166-1.177-5.738-.1 1.557-8.287 2.474-20.262 2.016-35.186a5.9 5.9 0 001.4.37 3.028 3.028 0 001.9-.285 3.164 3.164 0 00-3.335-1.09q-.134-3.86-.392-7.974-.2-3.132-.482-6c.983.261 2.077-.055 2.839-1.642l-2.973.327c-1.647-15.527-5.024-25.274-8.11-31.868 2.3-.1 2.937-.2 4.149-1.435-2.32-.7-2.58-.46-4.167 1.394-1.3-2.77-2.546-4.986-3.59-6.839-1.6-2.845-2.686-4.773-2.633-6.4a4.64 4.64 0 01.141-.981c.622-2.4 3.028-4.737 5.819-6.473 2.832-1.76 6-2.865 8.1-2.794a3.658 3.658 0 01.772.1c1.024.27 1.65 2.9 2.171 6.334a3.775 3.775 0 00-3.209 1.56 7.635 7.635 0 003.408-.184c.144 1.045.283 2.139.422 3.25.759 6 1.565 12.363 4.234 14.837a2.73 2.73 0 003.016.821c-.95 4.015-1.117 8.7.293 10.558.283-3.2.1-5.131.907-8.751.248-1.119.822-2.695 1.2-4.226 1.506-2.6 2.72-6.973 3.779-11.021a4.07 4.07 0 003.47.022c-1.62-1-2.155-1.244-3.173-1.164l.015-.059a43.422 43.422 0 012.162-7.059.962.962 0 01.316-.352 1.994 1.994 0 011.4-.1 9.578 9.578 0 012.68 1.075 30.2 30.2 0 019.7 9.284c1.291 2.032-.339 4.671-3.03 9.023-1.207 1.952-2.6 4.216-4.04 6.9a7.9 7.9 0 00-4.57-2.136c.582 1.517.259 1.213 2.323 2.257.959.484 1.29.724 1.8.734-3.668 7.067-7.461 16.951-8.8 31.5-.757 8.245-1.32 15.388-1.7 21.575a4.291 4.291 0 00-3.324.725 5.343 5.343 0 003.234.754c-.359 6.128-.531 11.283-.536 15.618a95.13 95.13 0 00.507 10.864 1.227 1.227 0 00.032.26 27.385 27.385 0 001.567 6.859c1 2.473-1.359 6.285-4.415 10.092-1.585-.661-2.122.036-2.122.036.5.607.453.939 1.069 1.244a182.087 182.087 0 01-3.535 4.048c-2.393 2.683-4.466 5.011-5.213 6.639a47.73 47.73 0 00-3.766 11.783 70.815 70.815 0 00-1.005 7.657c-1.243-.7-2.3-.653-2.974 1.239l2.906-.326a115.733 115.733 0 00.164 16.458q.3 4.063.372 7.765a1.3 1.3 0 000 .158c.346 17.351-2.6 28.218-2.612 28.255a1.221 1.221 0 102.359.629c.012-.037 3.023-11.142 2.7-28.754q.628-1.537 1.185-3.107c.859.464 1.341.539 2.763-.192-.3-.329.192-.643-1.594-.923-.286-.045-.533-.08-.745-.1a112.487 112.487 0 003.785-14.914c.488.633.226.672 1.84 1.173l2.731.052a4.04 4.04 0 00-4.533-1.421c1-5.274 1.8-10.759 2.629-16.445q.333-2.287.677-4.618l1.838-.148c-.031-.041.553-1.106-1.669-.98.5-3.308 1.029-6.677 1.636-10.1.9-1.028 1.815-2.089 2.689-3.167.737.07.434-.217.365-.457 2.743-3.448 5-7.028 5.125-10.123a9.174 9.174 0 00.919.171c1.61.231 1.672-.369 2.076-.6-1.751-.85-1.937-.956-3.061-.773a5.273 5.273 0 00-.32-1.16 23.975 23.975 0 01-1.357-5.791 62.518 62.518 0 016.866-6.018c1.127-.886 2.155-1.7 3.028-2.478l-.047.314c-.349 2.235-.693 3.9-.155 5.925.137-.144.322-.022.706-1l.938-6.686a7.194 7.194 0 001.032-1.532c.566-1.174 1.715-6.53 3.133-14.19.74-.046 1.112-.324 1.714-1.3a5.992 5.992 0 00-1.426-.269c1.276-6.991 2.743-15.662 4.185-24.742a10.007 10.007 0 004.842-.829m-47.4 88.558c-1.211-1.338-.486-.739-2.339-.869.247.492-1.234 2.666 2.339.869m-5.369 14.181c-1.16-1.52-.624-1.011-2.853-.975.276.587-1.019 2.281 2.853.975m21.644-53.478c-.3-.568.877-2.457-2.27-.571zm41.731-59.451c-2.073-1.525-4.2-.67-5.722.232l6.932 1.519c-.8-1.586 1.294.09-1.209-1.751M63.065 130.95a4.247 4.247 0 01-.868-.216c-1.979-.617-.742.192-1.382.557a4.836 4.836 0 002.164.387c-.3-.682.038-.726.087-.728m-9.746 34.989c-1.511-.066-.692.215-1.381.532 1.232 1.317 1.523.882 2.862.2-.7-.618 1.739-.593-1.481-.736m39.8-14.051c-.674-1.34 2.209-.242-1.326-1.242-1.381-.391-1.252.354-1.349.553zM79.86 60.512c-2.643-.657-1.4-.632-2.9.856 3.067.1 1.332.73 2.9-.856m-59.5 46.946c-2.656-.463-4.351.121-5.4 2.522a16.009 16.009 0 003.239-.989c1.366-.436 1.1.22 2.161-1.533m21.1-42.933c-.288-.425-1.011-.6 0 0m1.162.581c.133.03.039-.058 0 0m.216.657c-.238-.445-.247-.605-.216-.657a2.853 2.853 0 01-.592-.263c-.232-.124-.42-.229-.57-.318.164.241.188.563-.321.872zm-.923 35.683c-.258-.349.712-1.414-2.135-.624.077.122-1 1.762 2.135.624M83.243 14.32c2.521 1.131 1.072.731 2.428-.442-2.238-.308-.935-.631-2.428.442m-2.5 176.3c-1.725-.433-1.087.319-1.208.385 1.34 1.47 1.162 1.083 2.641.77-.62-.931 1.853-.327-1.432-1.155m-51.428 45.91c-.427-.442 1.333-.281-1.582-1.023l-3.99.664c.659.711-1.4.2 1.234.709zM57.431 25.6l2.687.7c-.762-1.454 2.269-.193-1.348-1.237-1.31-.378-1.255.338-1.339.539m46.718 94.658c-.08-.167 1.527-.776-1.853-1.52-1.745-.385-1.452.172-1.921.572zm13.27-28.309c-.974-.982.7-.526-1.221-.814-1.586-.236-1.412.43-1.563.5.742 1.12 1.475.9 2.783.31m21.907-19.654c.253.944-1.008.228.435 1.67 1.58 1.577 1.5.121 1.524.117-.763-1.358-.224-.97-1.96-1.787M43.446 210.881c-1.336-1.216-3.652-1.229-5.273-.906a3.51 3.51 0 002.684 1.367 3.273 3.273 0 002.588-.461M42.292 251.9c-3.511-.919-17.55-3.674-20.262-2.921 1.723 1.753 18.236 4.172 20.262 2.921m-10.969-38.225c-1.126-1.053-1.876-.821-3.438-.449.1.146-.75 1 1.858 1.117 1.77.077 1.4-.551 1.58-.668m62.864-40.153c-1.3-1.436-1.748-1.133-3.335-1.1.761 1.186-.305.784 1.575 1.349 1.191.358.843-.016 1.76-.254m-52.559 53.035c-3.366-.794-1.033-.108-1.921.34 1.576 1.37 2.23 1.337 3.768.942-.674-.835-.357-.931-1.846-1.283m7.087-14.334c-1.861-2.432-1.911-.619-2.3-.474 1.254 1.165 1.512.649 2.3.474m-20.98-12.9c-1.489-2.669-1.951-.693-2.123-.62.945.879-.1 1.214 2.123.62m9.71 37.364c-2.371-.064-2.958.044-4.266 1.55a4.461 4.461 0 002.356.037c2.019-.6.725-.006 1.91-1.587M48.915 254.3c-.655-.57 1.661-.631-1.525-.755-2.032-.078-.376.088-1.331.554.7.7-1.8.608 1.488.733 2.5.094-.107.124 1.368-.532M11.787 118.429c-2.582-.468-1.919-1.03-3.258 1.9 1.53-.285.571.14 1.8-.584 1.744-1.024.43-.334 1.455-1.315m15.953-97.4c2.243.058 1.069.793 2.661-1.03-2.275-.226-1.9-.657-2.661 1.03m93.62 137.7c-1.058-2.481-.03-1.007-1.935-2.51-.116 2.463-.107 2.957 1.935 2.51m35.861-93.238c.195.039.067-.072 0 0m-.977-.4c.064.207-.024.479-.474.8l1.558.2c-.172-.394-.156-.549-.106-.6a3.22 3.22 0 01-.6-.221 8.055 8.055 0 01-.378-.178m0 0c-.159-.514-1.251-.622 0 0m-33.032 83.419c-.084-1.856.048-1.591-1.536-2.7-.568 2.436-.222 2.2 1.536 2.7" fill="#bee4f2" fill-rule="evenodd"/></g></g><g data-name="Group 8225"><g data-name="Group 8224" clip-path="url(#e)" fill="#bee4f2" fill-rule="evenodd" transform="translate(506.226 120)"><path data-name="Path 1703" d="M72.571 42.031a161.772 161.772 0 003.077-3.172 27.353 27.353 0 002-2.312 22.9 22.9 0 002.883-6.416c.72-2.438 1.075-4.829.766-6.132a3.846 3.846 0 00-.268-.745 9.544 9.544 0 00-3.27-3.477 6.252 6.252 0 00-4.571-1.241 3.007 3.007 0 00-.6.209c-2.17 1.025-4.322 5.261-6.633 9.808a183.82 183.82 0 01-2.025 3.912c-1.637 3.043-4.177 7.431-6.376 11.007-1.275 2.072-2.424 3.859-3.2 4.926.021-.452.068-1 .138-1.63a105.1 105.1 0 014.259-18.869c.238-.7.5-1.464.765-2.217 2.843-8.219 5.276-15.237 2.833-20.788-1.457-3.326-3.736-3.719-5.87-3.1a13.568 13.568 0 00-4.539 2.733c-1.257 1.058-1.9 7.277-2.605 14.116-.322 3.127-.659 6.388-1.07 9.379l-.463 3.447c-1.25 9.314-3.018 22.5-5.013 26.666-1.271 2.664-4.532 8.064-7.437 12.864-2.339 3.866-4.448 7.354-5.136 8.782-1.259 2.615-3.367 9.273-4.652 13.358a71.4 71.4 0 011.744-16.211c1.207-4.522 5.363-13.058 8.857-20.232a120.923 120.923 0 005.182-11.366c.693-2.28 1.9-7.423 2.954-12.318 1.079-5.01 2-9.781 2.063-11a7.373 7.373 0 00-.723-3.388 7.486 7.486 0 00-2.153-2.835c-.8-.568-2.107-.294-3.463.461a13.219 13.219 0 00-3.676 3.122c-1.194 1.5-2.469 8.513-3.635 14.928-.747 4.111-1.449 7.974-2.013 9.845a4.063 4.063 0 01-.5 1.184 3.084 3.084 0 01-.387-.745 29.8 29.8 0 01-1.271-9.347c-.038-4.142 1.857-9.523 3.626-14.547 1.587-4.507 3.075-8.734 3.045-11.728a22.727 22.727 0 00-.557-6.127 4.335 4.335 0 00-2.2-2.584l-.031-.022c-1.238-.73-3.317.379-5.37 2.2a29.477 29.477 0 00-5 5.843c-.083.131-.154.247-.213.346-.936 1.586-1.432 5.767-1.66 10.736-.335 7.275-.122 16.358.112 21.23a70.341 70.341 0 001.873 11.235c1.08 4.88 2.092 9.455 1.361 12.194a59.979 59.979 0 01-2.941 7.444c-2 4.542-4.2 9.533-4.373 13.031-.134 2.586-.109 7.521-.086 12.259.025 4.993.049 9.766-.1 11.179a5.367 5.367 0 01-.985-.764c-1.428-1.338-3.141-3.719-3.418-5.465-.287-1.806.56-10.687 1.292-18.361.5-5.271.952-9.979.943-11.546-.012-2.147.413-10.357.765-17.158.249-4.8.46-8.9.456-9.721a5.83 5.83 0 00-1.452-3.174 21.9 21.9 0 00-3.623-3.588 1.594 1.594 0 00-.509-.26c-.889-.272-2.126.213-3.41 1.162a18.478 18.478 0 00-3.483 3.5A14.449 14.449 0 00.216 46.89c-.672 2.189.359 8.021 1.5 14.463 1.222 6.917 2.572 14.552 2.059 18.746a280.526 280.526 0 00-1.408 14.953 71.409 71.409 0 00-.173 9.6 32.428 32.428 0 001.655 6.335c1.007 3.067 2.089 6.367 2 9.175a43.647 43.647 0 01-.726 6.561 48.666 48.666 0 01-.894 3.9 1.064 1.064 0 00.019.579c.217.742 1.585 2.015 3.624 3.25a29.111 29.111 0 007.36 3.141 17.719 17.719 0 009.435.2.7.7 0 00.387-.287 3.141 3.141 0 00.335-1.194c.344-2.078 1.22-7.371 10.012-16.143 5.764-5.752 9.782-6.233 14.162-6.759a27.306 27.306 0 0013.651-4.748c10.529-7.024 20.046-18.311 24.556-23.663.748-.888 1.359-1.612 1.8-2.11a7.815 7.815 0 002.318-4.916 6.58 6.58 0 00-.84-3.22c-.421-.864-2.07-1.458-3.928-1.8a16.993 16.993 0 00-5.923-.2c-.864.292-2.757 3.3-5.224 7.217-2.9 4.611-6.629 10.525-9.983 14.436a64.87 64.87 0 01-7.5 7.7 13.321 13.321 0 01-4.72 2.763c-.114-1.717 2.7-7.916 5.39-13.843.977-2.15 1.936-4.265 2.736-6.13a105.6 105.6 0 003.578-10.73q.347-.117.734-.241.6-.194 1.091-.341c20.229-6.06 31.689-4.93 37.589-4.349 2.3.226 3.8.374 4.786-.022a15.074 15.074 0 004-2.3 11.236 11.236 0 002.644-3.124c.033-.057.058-.1.074-.136.656-1.331.128-3.361-.879-5.214a11.291 11.291 0 00-3.605-4.14 4.608 4.608 0 00-.214-.116c-1.714-.846-12.515 2.223-21 4.635-3.693 1.05-6.941 1.972-8.731 2.385 1.3-1.125 4.516-3.563 8-6.2 5.082-3.848 10.71-8.109 12.2-10.223a18.165 18.165 0 002.847-6.531 22.93 22.93 0 00.52-4.727 1.589 1.589 0 00-.148-.688c-.421-.931-1.842-1.747-3.537-2.316a17.533 17.533 0 00-4.935-.906 5.165 5.165 0 00-2.121.32c-1.019.46-3.794 3.686-6.989 7.754-4.223 5.379-9.26 12.294-11.843 16.108a24.273 24.273 0 01-3.617 4.148 35.5 35.5 0 01-3.2 2.617c1.871-7.47 3.321-14.06 3.494-15.865a11.246 11.246 0 00-.054-2.66m2.059-4.121c-.691.737-1.512 1.585-2.429 2.516a9.167 9.167 0 00-.163-.46 4.809 4.809 0 00-2.65-3.035 10.258 10.258 0 00-5.28 1.046 8.15 8.15 0 00-2.888 2.093c1.465-2.491 2.886-5 3.937-6.951.687-1.278 1.369-2.621 2.038-3.936 2.2-4.328 4.247-8.358 5.985-9.18a1.711 1.711 0 01.325-.112 4.944 4.944 0 013.474 1.046 8.082 8.082 0 012.777 2.91 2.368 2.368 0 01.172.471 13.137 13.137 0 01-.745 5.42 21.459 21.459 0 01-2.679 5.99 26.056 26.056 0 01-1.888 2.18m-15.882 6.288c.565-.919 1.153-1.891 1.742-2.882-.69 1.83-1.66 7.109-2.8 13.5-.607.609-1.15 1.158-1.615 1.632q-.75.763-1.643 1.691a154.708 154.708 0 00-14.232 17.6 27.328 27.328 0 00-1.52 2.48c-.518 1.009-.531 1.7.066 1.982a.858.858 0 00.506.063c.753-.121 1.609-.892 2.884-2.044a42.1 42.1 0 0112.028-8.012l.794-.349c-.6 3.081-1.206 6.018-1.812 8.575-.158.1-.308.192-.451.282a56.6 56.6 0 00-18.123 18.5c-3.6 6.011-4.788 11.055-4.136 12.31l.039.068a2.287 2.287 0 00.8.75 6.447 6.447 0 004.385.23 17.079 17.079 0 005.279-2.211 12.017 12.017 0 004-3.923 68.217 68.217 0 004.48-9.218 117.6 117.6 0 004.7-14.885q.156-.615.311-1.263l.016-.065c1.481-6.187 2.958-14.527 4.247-21.811 1.37-7.736 2.529-14.28 3.2-15.6a5.762 5.762 0 012.8-2.342 8.833 8.833 0 014.337-.964 3.507 3.507 0 011.709 2.186 8.962 8.962 0 01.5 4.09c-.183 1.9-1.839 9.333-3.906 17.445l-.012.044c-.4 1.549-.8 3.122-1.222 4.686a335.984 335.984 0 01-1.851 6.68l-.011.037a106.836 106.836 0 01-3.618 10.9c-.8 1.863-1.753 3.965-2.723 6.1-2.9 6.379-5.931 13.064-5.446 14.947a1.092 1.092 0 001.519.865 14.324 14.324 0 005.414-3.082 66.074 66.074 0 007.664-7.861c3.426-4 7.18-9.956 10.106-14.6 2.314-3.675 4.092-6.5 4.492-6.633a15.8 15.8 0 015.22.247c1.476.268 2.735.633 2.929 1.032a5.383 5.383 0 01.7 2.567 6.5 6.5 0 01-1.964 4.038c-.465.525-1.075 1.25-1.823 2.137-4.466 5.29-13.89 16.47-24.271 23.39a26.093 26.093 0 01-13.043 4.52c-4.633.555-8.882 1.065-14.985 7.155-9.107 9.086-10.035 14.7-10.4 16.9-.033.194-.059.355-.081.469a16.66 16.66 0 01-8.343-.31 27.711 27.711 0 01-7-2.983 9.328 9.328 0 01-2.984-2.383c.2-.746.554-2.1.887-3.891a45.052 45.052 0 00.749-6.776c.1-3.047-1.027-6.47-2.07-9.651a31.693 31.693 0 01-1.594-6.037 70.792 70.792 0 01.18-9.375c.314-4.84.853-10.416 1.4-14.876.541-4.413-.825-12.151-2.059-19.161-1.113-6.272-2.117-11.952-1.545-13.81a13.1 13.1 0 012.164-3.9 17.082 17.082 0 013.207-3.228c.94-.694 1.743-1.081 2.172-.95a.228.228 0 01.067.035 20.35 20.35 0 013.369 3.334 4.665 4.665 0 011.166 2.325c0 .727-.209 4.832-.457 9.642-.352 6.793-.776 15-.764 17.237.008 1.47-.439 6.157-.94 11.406-.739 7.749-1.6 16.716-1.278 18.71.327 2.058 2.249 4.774 3.843 6.267a6.742 6.742 0 001.266.969 1.485 1.485 0 001.434.156 1.055 1.055 0 00.533-.7c.252-.945.225-6.271.2-11.869-.024-4.736-.049-9.669.081-12.181.168-3.251 2.31-8.116 4.258-12.543a61.381 61.381 0 003.014-7.641c.816-3.06-.232-7.8-1.35-12.852a69.572 69.572 0 01-1.844-11c-.233-4.824-.442-13.837-.108-21.1.22-4.771.663-8.729 1.467-10.091.07-.119.134-.225.193-.318a27.971 27.971 0 014.748-5.539c1.625-1.444 3.12-2.411 3.735-2.048l.014.008a3.143 3.143 0 011.6 1.824 21.822 21.822 0 01.492 5.715c.029 2.741-1.422 6.863-2.969 11.256-1.806 5.13-3.741 10.625-3.7 15.019a31.158 31.158 0 001.36 9.857 3.533 3.533 0 00.864 1.373 1.134 1.134 0 001.6.042 4.049 4.049 0 001.059-1.973c.6-1.976 1.3-5.858 2.053-9.993 1.137-6.254 2.38-13.1 3.353-14.314a11.742 11.742 0 013.267-2.773c.9-.5 1.673-.758 1.976-.543a6.052 6.052 0 011.69 2.281 5.974 5.974 0 01.6 2.734c-.057 1.152-.967 5.833-2.031 10.776-1.05 4.87-2.245 9.974-2.926 12.213-.551 1.812-2.667 6.156-5.1 11.161-3.523 7.233-7.713 15.837-8.951 20.478a73.11 73.11 0 00-1.782 16.924 17.5 17.5 0 00.139 2.121c.189 1.217.653 1.62 1.411 1.009a1.556 1.556 0 00.433-.752c.158-.493.374-1.179.626-1.979 1.261-4.008 3.43-10.9 4.685-13.507.664-1.38 2.754-4.835 5.07-8.665 2.926-4.837 6.21-10.268 7.5-12.975 2.086-4.363 3.873-17.675 5.134-27.08.111-.832.212-1.577.467-3.441.4-2.9.742-6.235 1.072-9.428.675-6.546 1.29-12.5 2.117-13.2a12.35 12.35 0 014.031-2.462c1.5-.432 3.122-.127 4.2 2.326 2.215 5.047-.128 11.831-2.885 19.771-.245.707-.492 1.422-.766 2.223A106.728 106.728 0 0053.1 46.613a19.818 19.818 0 00-.152 2.486c.025 1.033.346 1.588 1 1.541a.882.882 0 00.484-.191.679.679 0 00.059-.047 43.88 43.88 0 004.247-6.2m7.2 28.348a381.9 381.9 0 001.5-5.457c.4-1.49.788-2.987 1.166-4.466a39.074 39.074 0 004.669-3.667 25.567 25.567 0 003.821-4.388c2.566-3.787 7.579-10.668 11.79-16.032 3.071-3.911 5.67-6.981 6.465-7.341a3.9 3.9 0 011.523-.2 16.074 16.074 0 014.514.834c1.362.457 2.463 1.025 2.709 1.568a.22.22 0 01.024.092 21.564 21.564 0 01-.482 4.443 16.807 16.807 0 01-2.63 6.035c-1.366 1.945-6.9 6.133-11.892 9.915-4.914 3.721-9.332 7.066-9.142 8.18.1.578.533.824 1.357.683 1.515-.258 5.307-1.336 9.733-2.593 8.258-2.347 18.765-5.333 20-4.722q.088.045.141.075a9.854 9.854 0 013.073 3.6c.813 1.5 1.28 3.053.848 3.93l-.032.063a9.848 9.848 0 01-2.321 2.735 13.712 13.712 0 01-3.631 2.085c-.664.268-2.029.133-4.129-.074-5.987-.59-17.626-1.737-38.12 4.408q-.527.158-.959.295m-8.679-15.32c-.627 3.542-1.3 7.318-1.987 10.958l-.666.3-1 .441a43.376 43.376 0 00-12.4 8.256c-.237.214-.458.413-.661.594q.353-.568.82-1.266a153.119 153.119 0 0114.074-17.41c.443-.46.994-1.025 1.633-1.675zm-4.6 23.168a115.358 115.358 0 01-4.535 14.3 66.807 66.807 0 01-4.386 9.033 10.645 10.645 0 01-3.545 3.446 15.615 15.615 0 01-4.829 2.026 5.206 5.206 0 01-3.388-.072.9.9 0 01-.319-.294c-.518-.867.748-5.284 4.12-10.914a55.184 55.184 0 0116.89-17.532m-22.2 29.164z"/><path data-name="Path 1704" d="M7.635 96.743c-.928 1.17.174 1.144-1.573.8.684-.835.431-.613 1.573-.8"/><path data-name="Path 1705" d="M63.373 62.953c-.051.021-.056 1.19-1.252-.334.433-.214-.148-.289.637-.148 1.019.183.365.22.615.482"/><path data-name="Path 1706" d="M71.903 94.536c2.007-.817.855.2.972.363-.985.183-.318.285-.972-.363"/><path data-name="Path 1707" d="M21.533 131.772c-.568.341.244.283-.6.165-1.8-.252.273.5-.253-.566z"/><path data-name="Path 1708" d="M29.099 70.305s-.436 1.136-1.546-.412c.23-.1-.07-.385.921-.1 1.441.406.123-.047.625.518"/><path data-name="Path 1709" d="M80.922 51.853a1.54 1.54 0 01-2.132-.569 1.481 1.481 0 012.132.569"/><path data-name="Path 1710" d="M48.739 49.004c-.458.188.047.282-.724.147-1.184-.209-.3-.179-.527-.481 1.137-.381.655-.312 1.251.333"/><path data-name="Path 1711" d="M33.588 58.233a1.706 1.706 0 01-2.264-.962 2.266 2.266 0 012.264.962"/><path data-name="Path 1712" d="M77.256 88.441c-1.084-.847-.56-.01-.7-1.214 1.524.71.97.134.7 1.214"/><path data-name="Path 1713" d="M6.131 103.396c-.655 1.1-.512 1.048-1.812.794.615-.8.75-1.09 1.812-.794"/><path data-name="Path 1714" d="M37.935 93.108c-.839.446-.964.494-1.59-.065.266-.159-.27-.362.881-.341.992.017.7.4.71.406"/><path data-name="Path 1715" d="M19.427 87.452c-.408.161-.01.258-.7.135-1.286-.23-.211-.049-.55-.468.907-.317.541-.512 1.245.332"/><path data-name="Path 1716" d="M22.858 90.334c.054-.081.1.153.108.39l-.934-.362c.619-.351-.157-.257.655-.184.035 0 .125.224.17.156"/><path data-name="Path 1717" d="M26.616 21.053c.162-.317.091-.443.481-.684.715-.44.388-.323 1.217-.08-.6.84-.63 1.023-1.7.764"/><path data-name="Path 1718" d="M56.432 34.637c-.879-.627-.921-.044-.8-1.149 1.14.222 1.046-.311.8 1.149"/><path data-name="Path 1719" d="M35.354 53.32c.427-.077-.394-.722.882.087.517.327.2.359.268.578-1.259.214-1.132-.637-1.15-.665"/><path data-name="Path 1720" d="M83.144 65.344c-.506-1.467.224-1.159.334-1.25.272.536.354-.522.139.687-.239 1.342-.008.179-.473.563"/><path data-name="Path 1721" d="M20.461 107.814c-1.03.358-.623.377-1.249-.333.423-.163 0-.261.71-.134 1.214.217.259.115.539.467"/><path data-name="Path 1722" d="M53.889 41.166l-2.462-.989c.208-.13-.32-.974 1.463-.158 1.413.647.868.913 1 1.147"/><path data-name="Path 1723" d="M43.343 30.825c-1.3-.287-1.178-.171-1.7-.931.243-.061-.417-.771.921.017 1.759 1.036.172-.077.783.913"/><path data-name="Path 1724" d="M69.166 103.828a2.3 2.3 0 01-1.787-2.082c1.263.582 1.579.872 1.787 2.082"/><path data-name="Path 1725" d="M9.994 119.016c-.064.033-1.007.725-1.239.825-.679.294-.175.232-1.078.228.417-1.21.988-1.409 2.316-1.053"/><path data-name="Path 1726" d="M7.05 54.783c-.409.426.134.728-1.228.807-.894.052-.665-.131-.921-.344.848-.607.788-.572 2.149-.463"/><path data-name="Path 1727" d="M86.228 52.07c-1.061-.613-1.124-.334-1.23-1.613 1.463.61 1.583.486 1.23 1.613"/><path data-name="Path 1728" d="M57.697 51.374c-1.207.18-.944-.054-1.1-1.289z"/><path data-name="Path 1729" d="M67.195 64.689c-.448.368-.943 1.075-2.073-.553a2.531 2.531 0 012.073.553"/><path data-name="Path 1730" d="M5.641 80.547c.818-.144 1.07.1 1.958.433-.174.136.153.756-1.181.4-.631-.171-.674-.641-.776-.828"/><path data-name="Path 1731" d="M23.394 80.678c-.8 1.162-.361 1.291-1.987.843.72-.8-.149-.257 1.041-.679a2.233 2.233 0 01.946-.164"/><path data-name="Path 1732" d="M7.907 61.783c-.253.124-.105.311-.856.318-1.652.017-.482-.1-.8-.4.915-.553 1-.723 1.652.082"/><path data-name="Path 1733" d="M30.93 19.04l-.809-1.565c1.113.347 1.955.519.809 1.565"/><path data-name="Path 1734" d="M106.945 62.179c.131.187.353.092.343.775-.022 1.474.081.086-.352.6.008-.109-.928-.561.01-1.379"/><path data-name="Path 1735" d="M10.519 90.64c.555-.931.589-.471.735-.546.254.95-.186 1.254-.831 1.77-.058-.171-1 .619.1-1.224"/><path data-name="Path 1736" d="M52.635 78.206c-.957-.42-.9-.912-.916-1.838 1.156.624 1.181.4.916 1.838"/><path data-name="Path 1737" d="M14.729 46.028c-.047.019-.1 1.089-1.668-.445.441-.186.023-.389 1.049-.068.706.221.562.46.618.513"/><path data-name="Path 1738" d="M14.082 51.236c-.7.383-1.016.043-1.474-.686 1.036-.172.854-.127 1.474.686"/><path data-name="Path 1739" d="M23.366 46.103c-.323-.683-1-.258.36-1.117.555 1.05.023.769-.36 1.117"/><path data-name="Path 1740" d="M16.885 104.83c.4-.64.559-.638 1.381-.908 1.969-.65 1.619.123 1.8.4-.9.162-2.306.769-3.177.51"/><path data-name="Path 1741" d="M26.478 76.063c-.4.276.359.292-1.171.434a4.879 4.879 0 01-1.382-.091c.758-1.062 1.562-1.011 2.553-.344"/><path data-name="Path 1742" d="M59.863 58.07c-.967.262-1.525-.229-2.172-.78.525-.265-.6-.893 1.3-.065a1.729 1.729 0 01.869.845"/><path data-name="Path 1743" d="M39.835 48.779a2.147 2.147 0 01-2.613-.7c.322-.135 0-.223.752-.172l1.693.7c.054-.055.112.111.168.167"/><path data-name="Path 1744" d="M37.342 21.933c.341-.249-.038-.286.633-.388.977-.148.312-.068 1.082.157-.686.574-.838.942-1.715.231"/><path data-name="Path 1745" d="M59.907 107.377c-.235-.885-.043-.251-.066-1.032.994.877 1.18.773.413 1.783z"/><path data-name="Path 1746" d="M24.353 97.017c-1.845.909-1.14-.308-1.254-.52 1.043.112.646-.133 1.254.52"/><path data-name="Path 1747" d="M77.055 34.68c-.65.11.536.672-.669 0-.625-.349-.418-.484-.515-.674.555-.2 1.288-.092 1.184.675"/><path data-name="Path 1748" d="M97.676 33.725c-.457.154.1.331-.717.1-.724-.209-.212-.066-.58-.374.613-.319.192-.982 1.3.277"/><path data-name="Path 1749" d="M2.955 47.255l.165-.62c1.113-.4.906-.528 2.223-.389-.738.935-.918 1.143-2.388 1.01"/><path data-name="Path 1750" d="M23.157 37.848c-.16-.283-.945-.186.141-1.473.548-.65.653-.516 1.208-.51z"/><path data-name="Path 1751" d="M49.545 81.14a1.334 1.334 0 01-1.431-.307c-1.047-.967-.452-.176-.237-1.048a3.259 3.259 0 011.668 1.355"/><path data-name="Path 1752" d="M95.44 39.558l-2.783-.98c.279-.171.051-.78 1.592-.275.764.25 1.05.507 1.191 1.254"/><path data-name="Path 1753" d="M78.16 79.059c1.47-.536 2.606.863 2.819 1.89z"/><path data-name="Path 1754" d="M56.403 9.802c-2.731.8-2.161-.2-2.185-.224.2-.077.059-.325 1.038-.321 2.285.011.986.368 1.147.545"/><path data-name="Path 1755" d="M29.009 9.792l.844-2.1c.257.334.991-.655.282 1.192-.464 1.208-.509.706-1.126.912"/><path data-name="Path 1756" d="M13.588 71.336c-.691.749-1.016.772-2.375.844.891-1.018 1.153-1.278 2.375-.844"/><path data-name="Path 1757" d="M34.497 13.177l-2.161-1c.389-.23-.414-1.168 1.337-.068a4.327 4.327 0 01.824 1.067"/><path data-name="Path 1758" d="M27.264 34.858a3.075 3.075 0 01-1.1-1.9c1.235.453 1.491.656 1.1 1.9"/><path data-name="Path 1759" d="M4.938 87.891c-1.255.7-1.549-.221-1.622-.251l.375-1c.5.885.376.45 1.246 1.248"/><path data-name="Path 1760" d="M61.312 18.285c-.025 0-.533 1.059-1.48-.754 1.591-.472 1.343.534 1.48.754"/><path data-name="Path 1761" d="M107.003 67.625c-.1-.35-.281-.422-.152-1 .436-1.948-.083-.363.741-.909.043 1.064.3 1.144-.589 1.908"/><path data-name="Path 1762" d="M11.041 52.217c-.312.135-.089.193-1.046.3a5.268 5.268 0 01-1.02-.033c.9-1.023 1.021-1.07 2.066-.268"/><path data-name="Path 1763" d="M74.008 37.399c-.993-.335-.9-.335-1.417-1.04.026-.008-.166-.729.94.012.561.374.451.5.477 1.029"/><path data-name="Path 1764" d="M71.355 70.428c-.982-.939-.7-.057-.823-1.73 1.148.765 1.032-.066.823 1.73"/><path data-name="Path 1765" d="M58.24 14.833c-.258.157-.326 1.315-1.609-.306.4-.155-.08-.265.678-.119a3.49 3.49 0 01.931.426"/><path data-name="Path 1766" d="M68.936 45.787c-.2.08-.237.655-1.589-.373 0 0 .256-1.157 1.589.373"/><path data-name="Path 1767" d="M32.041 45.556c-.912.841-.042.543-1.629.5.826-.879.142-.844 1.629-.5"/><path data-name="Path 1768" d="M81.832 63.213c-1.459.2-2.6-.54-4.065.213a20.1 20.1 0 01-3.064 1.714c.794-1.9 5.181-4.367 7.128-1.929"/><path data-name="Path 1769" d="M24.722 101.811c-.42-.616-.529-.278-.221-1.859.134-.686.293-1.392.434-2.081a11.853 11.853 0 00.444-3.66c.894.23.775-.054.706 1.3z"/><path data-name="Path 1770" d="M44.837 102.481c.659-.228-1.047-.7 1.118-.079a6.243 6.243 0 01.963.622 1.645 1.645 0 01.47 1.817z"/><path data-name="Path 1771" d="M45.741 84.18c-.341.458.022.783-1.053.96-1.516.251-1.094-.267-1.354-.74z"/><path data-name="Path 1772" d="M84.123 56.292c-.107.043.07 1.221-2.03-.542.678-.32-.952-.708 1.116-.142.73.2.7.47.914.683"/><path data-name="Path 1773" d="M30.717 105.296c-1.06.6-.05.942-2.351 1.014.662-1.085.728-.939 2.351-1.014"/><path data-name="Path 1774" d="M76.45 96.98c-1.124-.36-1.185-.389-1.692-1.221 1.146-.309 1.44.3 1.692 1.221"/><path data-name="Path 1775" d="M75.117 62.789c-.65-.344-.394.034-.779-.561-.581-.9-.209.05-.131-.966 1.258.515.9.14.91 1.526"/><path data-name="Path 1776" d="M52.427 29.903c-.122.049-.064 1.143-1.491-.4.331-.058.08-.94 1.491.4"/><path data-name="Path 1777" d="M5.517 50.78c-.589.753-.581.907-1.65.437.673-.658.509-.689 1.65-.437"/><path data-name="Path 1778" d="M9.868 95.425c.1-.252.538-.384.861-.445l-.68 1.593c-.494-.918-.658.049-.181-1.148"/><path data-name="Path 1779" d="M23.918 29.563l-1.606.062 2.286-2a2.651 2.651 0 01-.68 1.936"/><path data-name="Path 1780" d="M43.308 65.482c-.629-.156-1.023-.078-1.473-.567-.594-.645-.231-.51-.32-1.221 1.9 1.291 1.514 1.1 1.793 1.788"/><path data-name="Path 1781" d="M20.816 96.947c-.433.722.012 1.513-2.71.641l1.632-.462c.374-.051.833-.133 1.078-.179"/><path data-name="Path 1782" d="M22.246 21.983c.723-.986.954-1.215 2.544-.5a4.218 4.218 0 01-2.544.5"/><path data-name="Path 1783" d="M61.225 82.083c-1.89-.8-.616-.364-.971-1 1.25.227 1.494.32 2.087 1.092a1.3 1.3 0 01-1.116-.093"/><path data-name="Path 1784" d="M75.792 30.276c.861-1.181 1.811-1.948 2.764-3.168 1.616-2.067 1.169-2.433 1.829-4.672 1.3 2.825-2.475 7.84-4.593 7.84"/><path data-name="Path 1785" d="M104.402 32.651l-1.4.437c-.967.687-2.484 3.283-4.467 4.018a15.028 15.028 0 012.626-3.209c.948-1.027 2.063-2.575 3.239-1.246"/><path data-name="Path 1786" d="M32.951 80.344c.587-.2-.644-.523.918-.057.746.223 3.7 2.357 4.059 4.346z"/><path data-name="Path 1787" d="M39.219 111.648a1.3 1.3 0 01-.206-.7c-.393-2.9.362-1.817.7-2.078.071 1.02.373 1.849-.494 2.777"/><path data-name="Path 1788" d="M25.648 6.659a3.115 3.115 0 012.927-.9c-.3.719.3.433-.98.8a4.366 4.366 0 01-1.947.095"/><path data-name="Path 1789" d="M53.607 91.551a2.817 2.817 0 01-2.671-.713 2.115 2.115 0 012.494.492c.067-.062.118.147.177.221"/><path data-name="Path 1790" d="M34.017 45.454a2.168 2.168 0 011.352-.607c2.074-.059.812.227 1.1.667a3.718 3.718 0 01-2.448-.06"/><path data-name="Path 1791" d="M63.722 42.242a1.445 1.445 0 01-.989.021c-2.015-.452-.812-.224-1.171-.717.526-.145-.356-.423 1.059-.1 1.568.355.988.6 1.1.8"/><path data-name="Path 1792" d="M95.042 65.661c-.423 1.769-.53.731-.738.877a1.816 1.816 0 01.543-2.036c.228.517.685-.9.195 1.159"/><path data-name="Path 1793" d="M93.567 61.233c-.056-.092-.8.479-.171-1.364.314-.922.371-.554.687-.788a2.308 2.308 0 01-.516 2.153"/><path data-name="Path 1794" d="M90.783 67.467c-1.375-.524-1.533-.758-1.644-1.969 1.185.748 1.307.8 1.644 1.969"/><path data-name="Path 1795" d="M100.415 42.29a1.714 1.714 0 01-.089-1.06c.361-1.093.17-.55.834-1.022a12.307 12.307 0 01-.1 1.249c-.554 1.657-.165.514-.649.833"/><path data-name="Path 1796" d="M54.868 55.347c-.458.168-.3.469-1.3.012-.926-.425-.69-.742-.745-1.178z"/><path data-name="Path 1797" d="M15.733 117.68c-.232-1.088-.229-.929.467-1.752.223.545.718-.86.127 1.146-.467 1.581-.026.18-.594.606"/><path data-name="Path 1798" d="M16.887 119.055c1.018-.286.869-.1 1.844.347-.819.385-.1.512-1.3.222-.9-.218-.525-.55-.539-.568"/><path data-name="Path 1799" d="M25.017 50.892c.334-.16-.436-.594 1.015-.138 1.606.5.114-.046.62.607-1.107.243-.783.181-1.635-.469"/><path data-name="Path 1800" d="M71.079 52.811c-.566.3.966.823-1.111.2-1.763-.527-.112.1-.54-.8z"/><path data-name="Path 1801" d="M29.461 110.932c-1.89.76-1.275-.151-1.4-.373.879-.112.777-.13 1.4.373"/><path data-name="Path 1802" d="M25.353 122.031a4.031 4.031 0 01-3.461-1.282c1.08-.344 2.815.6 3.461 1.282"/><path data-name="Path 1803" d="M60.579 103.723c-.719-.348-.539.346-.774-1.055a6.4 6.4 0 01.025-1.768c.918 1.013.887 1.407.749 2.822"/><path data-name="Path 1804" d="M26.139 133.36a3.438 3.438 0 01-2.7-.965 2.119 2.119 0 012.7.965"/><path data-name="Path 1805" d="M34.316 92.499a2.624 2.624 0 01-2.674-.713c.31-.128.089-.215.772-.2.027 0 .619.079.658.089z"/><path data-name="Path 1806" d="M7.803 109.812c-.678 1.258-.61 1.674-2.062 1.465a2.541 2.541 0 012.062-1.465"/><path data-name="Path 1807" d="M65.487 49.527c-.628.23.878.594-1.066.054a1.8 1.8 0 01-.922-.584c.015-.008.1-1.388 1.988.531"/><path data-name="Path 1808" d="M7.357 42.391c-.607.823-.393 1.254-1.7.741.743-.775.5-.857 1.7-.741"/><path data-name="Path 1809" d="M36.454 75.672c.081-.045.3-1.714 1.657.51z"/><path data-name="Path 1810" d="M52.489 109.797c1.068.766 1.107.575.5 2.013z"/><path data-name="Path 1811" d="M9.798 87.693c.555-1.111.113-.683 1.16-.912-.217 1.088.293.922-1.16.912"/><path data-name="Path 1812" d="M3.745 99.602l1.43.644c-.488.22-.007.462-.948.142-1.033-.351-.23-.057-.482-.786"/><path data-name="Path 1813" d="M12.061 118.844c-1.726 1.028-1.092-.16-1.232-.508z"/><path data-name="Path 1814" d="M10.782 82.663l.422-.446c.442 1.176-.308 1.177-.317 1.188-.236-.581-.275.224-.1-.742"/><path data-name="Path 1815" d="M47.605 65.56s-.888.9-1.013-.4z"/><path data-name="Path 1816" d="M75.49 86.052l-1.04-.418c1.372-.707.5.587.92.022.064-.087.1.177.12.4"/><path data-name="Path 1817" d="M9.314 48.211c-.492-.9-.409-.124-.323-2.533a58.405 58.405 0 00-.427-6.931c1.6 1.02 1.427 7.161.75 9.464"/><path data-name="Path 1818" d="M4.71 58.685c1.051-.368 2.372-.128 3.656-.22 1.479-.106 2.163-.521 3.292-.615.231 1.417.153.1 1.3 1.332-1.165.463-1.075-.037-2.353-.206-1.158-.155-3.547.988-5.9-.291"/><path data-name="Path 1819" d="M68.58 40.295c-.34 1.682-.823 1.865-1.256 2.139.122-1.924 1-3.243.827-5.021-.011-.108-.133-.38-.134-.46 0-1.231.205-.531 1.047-.523z"/><path data-name="Path 1820" d="M91.111 45.246c-1.326.211-4.818-1.657-6.1-2.194.74-.34-.725-.722 1.593-.13a13.227 13.227 0 014.5 2.324"/><path data-name="Path 1821" d="M11.262 127.075c-.439.169.217 1.148-3.008-.819-2.466-1.5-1.709-1.43-1.918-2.057z"/><path data-name="Path 1822" d="M12.366 65.884c-2.34-1.648-3.29-.821-5.717-.8 1.267-1.316 5.328-1.741 5.717.8"/><path data-name="Path 1823" d="M52.236 61.368c-.429.2-.541.769-2.784-.591-1.171-.71-1.3-.834-1.587-2.158 1.541.959 2.643 1.776 4.371 2.749"/><path data-name="Path 1824" d="M101.959 56.114l1.1.492c-.086.078-.034.249-.061.3-.533 1.132-.532-.353-.221 3.049-.7-.818-.156.207-.72-1.04a3.564 3.564 0 01-.1-2.806"/><path data-name="Path 1825" d="M50.489 15.546c.779-1.23 2.207-1.611 3.919-1.742a5.893 5.893 0 01-3.919 1.742"/><path data-name="Path 1826" d="M58.544 82.602c-.321-.634-.175-.065-.336-.869-.016-.076.05-.7.062-.807l-1.88-.751c2.049-1.021 3.052.2 2.153 2.428"/><path data-name="Path 1827" d="M56.898 6.347a6.984 6.984 0 01-3.115-.371c.3-.235.819-1.036 2.519-.16 1.22.629.181.06.6.531"/><path data-name="Path 1828" d="M33.607 101.636c-.376.146.009.158-.688.089-2.209-.218-1.878-1.079-1.975-1.235 1.381.161 1.754.087 2.663 1.146"/><path data-name="Path 1829" d="M76.554 66.302c.033-.068.7-.972.8-1.127 0 .007 1.53.13-.895 2.373-.229-.615-1.047 1.032.1-1.246"/><path data-name="Path 1830" d="M70.825 31.145c.53-1.345 1.055-1.523 2.483-1.464a4 4 0 01-2.483 1.464"/><path data-name="Path 1831" d="M98.394 67.345a2.921 2.921 0 01-.36-2.583c.5.474.558.377.729 1.219.247 1.215-.369 1.363-.369 1.364"/><path data-name="Path 1832" d="M24.568 13.374l2.569.727c-.553.374-.558.531-1.43.308-1.36-.347-.965-.617-1.139-1.035"/><path data-name="Path 1833" d="M110.278 56.621a3.862 3.862 0 01-1.131-2.253c1.249.453 1.294.887 1.131 2.253"/><path data-name="Path 1834" d="M43.582 26.346c-.146.176-.057.578-1.08.347-1.871-.423-.986-.664-1.148-.972z"/><path data-name="Path 1835" d="M40.268 43.098c.624-.264-.049-.007.864-.187-.375 1.4-.451 1.66-1.7.742.332-.259-.052-.177.835-.554"/><path data-name="Path 1836" d="M44.692 68.98l.42-.271c.056-.106.142-.108.28-.148l-.288 1.686-.821-1.072c.056-.023.155-.061.208-.085s.153-.084.2-.11"/><path data-name="Path 1837" d="M42.157 36.538l-1.467-.267c.206-.251-.452-.924.825-.4 1.1.453.045-.252.642.663"/><path data-name="Path 1838" d="M46.669 53.897c1.431.042-.057-.168.317.378-.7.35-.252.3-1.017-.144 1.048-.633-.343-.264.7-.234"/><path data-name="Path 1839" d="M16.077 109.212a3.221 3.221 0 01-2.6 1.43c.94-1.352.625-.438 1.593-1.457.473-.5.648-.931 1.15-1.4a4.526 4.526 0 01.726 2.681c.1 2.038-.138 2.4-.814 2.941z"/><path data-name="Path 1840" d="M96.416 47.459c-.153-2.276-1.125-2.932-1.169-4.74a4.535 4.535 0 011.745 3.339c.144 1.825-.355 1.211-.577 1.4"/><path data-name="Path 1841" d="M59.666 25.914a6.455 6.455 0 01-2.743-1.983 2.674 2.674 0 012.292.891c.853 1.05.174.029.45 1.092"/><path data-name="Path 1842" d="M55.754 98.327c-.764-.273-.228.065-.869-.429a4.425 4.425 0 01-.377-.385c-.634-.733-.3-.55-.421-.814 2.18-.338 1.668 1.627 1.667 1.628"/><path data-name="Path 1843" d="M37.872 39.153c-1.143.857-.331 1.2-2.511.961.673-.944.984-.9 2.511-.961"/><path data-name="Path 1844" d="M31.475 51.319c-.51.381-.339.408-.937.486-2.065.272-1.033-.349-1.1-.418 1.089-.649.791-.7 2.036-.068"/><path data-name="Path 1845" d="M49.502 35.219a22.527 22.527 0 012.323-.4c-.672 1.167-1.377 1.578-2.323.4"/><path data-name="Path 1846" d="M76.128 25.447a3.382 3.382 0 01-1.29-.287c-1.307-.549-.555-.284-.843-.621 1.143-.419 1.791-.207 2.134.908"/><path data-name="Path 1847" d="M36.05 33.73l1.957-.443c-.513.689.027.682-.978.931-1.321.33-.969-.474-.979-.488"/><path data-name="Path 1848" d="M24.08 108.062c-.455.155.669.608-1.116.09-1.644-.477-.129.026-.667-.566.322-.08-.271-.439 1.124-.037s.209.07.658.512"/><path data-name="Path 1849" d="M52.558 21.33c-1.877.255-1.658-.135-2.032-.708 1.89.066 1.615.061 2.032.708"/><path data-name="Path 1850" d="M25.756 42.516c1.825-.5 1.5.235 1.79.64-1.429-.051-1.316-.072-1.79-.64"/><path data-name="Path 1851" d="M7.793 91.909c-.767.776-.368.568-1.69.643.7-1.032.381-1.033 1.69-.643"/><path data-name="Path 1852" d="M32.031 107.315c-.574 2.151-1.7 6.958-3.851 7.192a29.7 29.7 0 002.166-4.392c.811-2.2.938-4.073 2.035-4.576z"/><path data-name="Path 1853" d="M58.614 12.073c-.343-.98 1.08-6.346 1.415-7.073.8-1.723.266-.539.719-.925.155 1.346-1.217 7.053-2.134 8"/><path data-name="Path 1854" d="M117.274 62.627c-1.166.618-2.252.415-3.855.206a13.474 13.474 0 01-4.17-.938c1.093-.5 2.786.03 4.216.183 1.922.205 2.641-.5 3.809.549"/><path data-name="Path 1855" d="M87.256 77.845l1.774-2.761c.444-.5.221-.211.687-.473-.737 2.911-3.069 5.947-5.23 6.109.766-.967 1.79-1.6 2.769-2.875"/><path data-name="Path 1856" d="M42.309 20.03c-.341 1.278-.593 2.822-1.473 3.56l1.6-7.513c.161.279.473.163.365 1.568a14.6 14.6 0 01-.492 2.386"/><path data-name="Path 1857" d="M70.557 36.206c-1.32-.835-1.231-1.222-2.3-2.155-.954-.829-2.108-1.265-2.687-2.085a6.019 6.019 0 014.99 4.239"/><path data-name="Path 1858" d="M54.864 106.012c-1.113 1-1.389.757-3.121.994a10.96 10.96 0 01-3.163.212c.562-.459.075-.213.726-.519.076-.036.655-.184.755-.206z"/><path data-name="Path 1859" d="M31.193 5.924c-.254-.466-.225.173-.277-.629-.038-.583.217-2.779 1.213-3.544a10.26 10.26 0 01-.936 4.174"/><path data-name="Path 1860" d="M32.243 63.58a2.435 2.435 0 01-3.442-1.11z"/><path data-name="Path 1861" d="M33.937 87.633c-.682.311.718 1.183-1.863-.117-.832-.419-.638-.482-.85-.842a4.893 4.893 0 012.714.96"/><path data-name="Path 1862" d="M9.598 104.883c-.374-.7-.277.184-.262-.8a2.433 2.433 0 011.133-2.02 3.981 3.981 0 01-.872 2.822"/><path data-name="Path 1863" d="M13.045 77.15c-.519.666-.038.752-1.171 1.111a1.657 1.657 0 01-1.252-.064 2.761 2.761 0 012.423-1.048"/><path data-name="Path 1864" d="M23.682 12.91l1.628-1.174c-.327 1.945.122 1.988-1.628 1.178"/><path data-name="Path 1865" d="M29.611 25.332c-1.292-.626-1.272-.671-1.652-1.682 1.344.429 1.631.577 1.652 1.682"/><path data-name="Path 1866" d="M89.712 50.8c.046-1.6-.219-1.256.336-1.922a1.293 1.293 0 01.449.974c-.356 2.236.245.258-.785.948"/><path data-name="Path 1867" d="M64.828 36.12c-1.519-.842-.971-.243-1.1-1.547.866.462 1.238.553 1.1 1.547"/></g></g></g><g data-name="Group 8253"><g data-name="Group 8252" clip-path="url(#f)" transform="translate(1634.968 55.003)" opacity=".433"><path data-name="Path 1879" d="M283.071 56.828a7.9 7.9 0 01-4.256 8.233c-17.567 21.732-38.832 15.239-42.02 14.349s-10.126-.729-10.126-.729l-4.178.266-.222-.559C191.378 76.2 172.895 83.4 172.895 83.4l-7.419 2.97c8.039.891 23.788 21.785 23.788 21.785l.3-.313.688.8.119.606c1.137.531 4.893 5.175 4.893 5.175s-.8-1.048 3.456-2.193 6.467 6.559 6.467 6.559a48.746 48.746 0 0014.514 22.467c11.193 9.535 17.785 22.42 17.785 22.42 6.082 9.582 4.668 21 4.668 21-.159 1.54-.619 1.546-.619 1.546-.79.374-3.242-11.706-3.242-11.706-5.305-16.332-19.164-26.41-24.339-30.707s-14.84-12.136-14.84-12.136-15.173-13.26-17.022-15.453-10.43-7.77-10.43-7.77c-3.28-2.065-12.628-7.82-12.628-7.82a48.2 48.2 0 00-9.95-3.656c-4.726-1.287-11.114-6.674-11.114-6.674s-10.324-8.029-11.686-9.01-8.833-9.2-12.919-11.175a51.3 51.3 0 01-8.479-5.585c-3.221-2.1-10.181-.79-10.181-.79-.436 6.142-7.764 6.96-7.764 6.96l.354 1.518-1.328.246a3 3 0 01.062 2.09l-2.663-.334a1.468 1.468 0 00.746 1.1l-.5 2.308c-5.568-.252-5.544-1.17-5.544-1.17a21.513 21.513 0 00-.715-5.646 1.177 1.177 0 01-1.1-.783c-.327-.66-2.646-1.41-2.646-1.41-.586.783-3.844 1.185-4.164.776a1.345 1.345 0 00-.875-.429c-1.543-.164-5.153-3.432-5.153-3.432.655 1.261.209 7.5.209 7.5.391 1.164 3.4 8.423 3.4 8.423 1.845 3.781 1.383 5.579 1.383 5.579.51 3.554-1.55 4.685-1.55 4.685-1.1 2.581-4.525 4.209-4.525 4.209a1.531 1.531 0 01-.014 1.279c.719.239 1.165 1.5 1.165 1.5s1.09.837-.572 1.553-2.694-1.206-2.694-1.206c-.558.068-1.351.906-1.351.906l.5 1.212a4.291 4.291 0 01.929 2.275 2.777 2.777 0 011.89 1.88s1.117-.184 2.084 1.58-.468 1.491-.468 1.491l-2.288-1.423-2.541-1.349a6.242 6.242 0 012.255 2.077c2.9 1.6 2.165 2.642 2.165 2.642-.391.675-1.586-.306-1.586-.306a23.852 23.852 0 01-3.225-1.962l-1.774-1.525a17.091 17.091 0 011.859 2.65c1.668 1.382 1.328 1.907 1.342 2.418s-1.328.034-1.328.034l-.934-.586-.309-.252-2.036-1.628-1.416-1.335c-1.39-.32-1.655-2.656-1.655-2.656a2.222 2.222 0 01-2.112-.654c-2.707-2.022-1.791-3.928-1.791-3.928-1.035-.539-.531-2.548-.531-2.548-.8-1.1.272-2.907.272-2.907a2.066 2.066 0 011.3-2.425c-.183-.122-.367-.667-.36-2.452.007-3.372 1.961-4.4 1.961-4.4l-.3-10.91c-.48-.75-2.288-3.357-2.288-3.357a73.769 73.769 0 00-5.121-5.932c-3.007-3.494-2.568-4.365-2.568-4.365l-.545.626a.718.718 0 00-.984-.388l-1.716-2.854-3.579 5.149c.814.027.3 1.627.3 1.627l.235 3a2.746 2.746 0 01.088 3.219l.054 1.988s-.231.722-1.661.762a2.09 2.09 0 01-1.914-.762l-.228-6.477c-1.662-.974-.181-2.806-.181-2.806l-.034-1.225-.667-.027-.02-.819.306-.006.218-3.031c-8.986 10.693-15.4 5.306-15.4 5.306-1.862-.185-7.372-6.3-7.372-6.3l3.8-5.121-.477-.538C8.301 55.493 1.569 47.1 1.569 47.1c-3.824-3.848.552-5.129.552-5.129l-.283-1.852c-6.109-2.609 5.176-14.07 5.176-14.07 11.843-8.23 23.658 7.457 23.658 7.457l1.042-.879c1.846-5.416 4.187-5.427 4.187-5.427 5.006-7.329 7.992-6.293 7.992-6.293 1.13-1.516 5.21-3.766 5.21-3.766l-1.102-.691c-1.1-.84.852-4.358.852-4.358a9.576 9.576 0 012.867.32l.712-.112s.4 1.577.252 0a1.83 1.83 0 011.427-1.93s.3-2.047 1.576-2.084a1.741 1.741 0 011.621 1.334c.088-.664 2.4.137 2.4.137.558-1.959 2.877-1.049 2.877-1.049l.5-.477c-.633-.749.119-3.064.119-3.064a5.574 5.574 0 00-.462-1.975C62.465.746 63.52 0 63.52 0l2.268.8c1.5.667.16 4.032.16 4.032.851 1.049.212 3.664.212 3.664.272-.92 1.7-1.369 1.7-1.369C71.492.338 80.771 1.662 80.771 1.662 81.489.208 82.517.338 82.517.338l4.679 1.1c1.7.408 1.457 1.287 1.457 1.287l18.179 3.774.269-1.233 8.771 1.488c3.7.565 7.53.916 7.53.916 5.6-.667 6.016 1.512 6.016 1.512.511 1.723-1.709 6.279-1.709 6.279a7.384 7.384 0 00-1.791 1.832c.708 1.464 1.546.419 1.205 4.61s-1.655 4.645-1.655 4.645c.307 3.97-1.232 5.291-1.232 5.291.388 1.165 1.511 3.168-.211 3.631a.7.7 0 01-.133.033c-1.686.327-3.579-1.464-3.579-1.464-9.037-3.726-12.633-2.758-12.633-2.758l-.027-1.022-1.867-.913 1.131 2.268c19.314 4.245 17.684 11.443 27.084 22.864a59.193 59.193 0 0022.563 16.263 5.853 5.853 0 002.843-.437c12.384-6.319 27.768-5.379 33.22-4.146s16.9.342 16.9.342-1.744-2 1.47-5.653 7.205.355 7.205.355 10.1 8.649 29.393 10.351 27.432-8.372 27.432-8.372.677-1.239 4.426-7.736c3.749-6.482 4.634-4.107 4.634-4.107 2.6 1.662-1.021 5.49-1.021 5.49m-253.028-.511a35.262 35.262 0 01-.626-4.276c-.293-1.342-2.9-.559-5.456-.233s-3.088 4.25-3.088 4.25c-1.634 3.317-3.64.545-2.959 1.879a3.181 3.181 0 01.136 2.561l-1.73 2.357.028.77c5.434 4.331 13.742-5.707 13.742-5.707z" fill="#4674b6"/></g></g></g></g></g></svg>