<svg xmlns="http://www.w3.org/2000/svg" width="493" height="262"><defs><clipPath id="a"><path data-name="Rectangle 4214" fill="#fff" stroke="#707070" d="M0 0h493v262H0z"/></clipPath><clipPath id="b"><path data-name="Rectangle 4164" fill="none" d="M0 0h170.082v261.662H0z"/></clipPath><clipPath id="c"><path data-name="Rectangle 4165" fill="rgba(0,151,193,0.43)" d="M0 0h105.606v54.475H0z"/></clipPath><clipPath id="d"><path data-name="Rectangle 4165" fill="#b5e0ed" d="M0 0h105.606v54.475H0z"/></clipPath></defs><g data-name="Component 15 – 2" clip-path="url(#a)"><g data-name="Group 8314"><g data-name="Group 8226" clip-path="url(#b)" transform="translate(389.135)"><path data-name="Path 1868" d="M92.741 70.76c1.672-.885 1.573-.873 3.439-.633a10.9 10.9 0 011.2.2 1611.34 1611.34 0 01-1.42-9.154 1286.782 1286.782 0 01-2.472-17.02c-.373.037-1.092.075-1.187.066a3.285 3.285 0 01-2.015-.778c.386-.378-.187-.305.853-.6a4.217 4.217 0 012.176.042 747.16 747.16 0 01-1.417-10.951c-3.662.111-3.571.85-5.485-.034a11.175 11.175 0 013.77-1.461 8.512 8.512 0 011.509-.239 146.012 146.012 0 01-1.249-15.021c0-.371 0-.735-.016-1.09l-1.855-.344c.194-.315-1.145-1.2 1.217-.958a1.622 1.622 0 01.552.138A13.038 13.038 0 0086.538 4.7C82.772 1.026 77.272.151 74.781 0c-1.481-.087-3.486 1.2-5.523 3.069a43.639 43.639 0 00-7.339 9.13c-.392.661-.093 2.144.7 4.332a7.1 7.1 0 011.754-.684 5.585 5.585 0 013.293-.014l-4.6 1.876c.953 2.427 2.368 5.541 4.042 9.229.7 1.544 1.446 3.182 2.218 4.913 2.888-1.79 7.453-1.549 9.176.3-2.026.271-2.807-.42-5.03-.106-1.618.227-2.594.717-3.679.851C75.508 45.79 82.581 63.487 85.168 84.28a259.746 259.746 0 004.8 28.039c.087-.067.185-.139.293-.221a5.587 5.587 0 011.42-.72 11.494 11.494 0 013.7-.443l-2.72 1.546a24.7 24.7 0 01-2.45.852 101.226 101.226 0 003.148 10.51 48.146 48.146 0 008.63 15.216 60.363 60.363 0 017.867 12.757 83.813 83.813 0 015.746 18.093c1.909 9.211 1.4 24.745 1.032 36.092-.2 6.078-.357 10.934-.09 12.79a85.978 85.978 0 015.044 11.718 1.222 1.222 0 01-2.329.741 83.035 83.035 0 00-4.878-11.336c-.835.744-.8.5-2.1.091.55-.71-.439-.57 1.29-.978.123-.03.229-.054.323-.074a133.9 133.9 0 00-6.793-11.641c-1.95.348-2.814.525-4.368-.222a3.662 3.662 0 013.663-.849c-1.431-2.153-3-4.39-4.722-6.687a128.464 128.464 0 01-6.058-8.782 4.214 4.214 0 01-2.1-.053c.487-.676.234-.9 1.309-1.229a78.068 78.068 0 01-5.857-11.518 49.148 49.148 0 01-2.6-8.55 3.776 3.776 0 01-.551.3c-3.206 1.464-.971.2-2.118-.319l2.416-1.327a65.072 65.072 0 01-.315-2.065c-.247-1.775.248-4.853.82-8.4.39-2.419.817-5.073 1.064-7.6l-3.81-.779c1.307-1.145 2.544-.973 3.874.072.366-4.318.129-8.135-1.84-9.538-2.048-1.455-4.4-3.934-7.26-7.837a5.919 5.919 0 01-4.866.607 4.536 4.536 0 014.4-1.249 118.085 118.085 0 01-3.73-5.542c-3.438-5.4-7.527-12.494-12.489-21.74l-3.168.206c-.135-.168-.329-.064-.492-.1 1.2-1.117 2.107-1.5 2.986-1.362Q58.616 97.742 55.6 91.9a92.478 92.478 0 01-7.034-17.6 5.354 5.354 0 01-4.77 1.092l2.681-1.592a6.078 6.078 0 011.663-.161l.263.067a78.5 78.5 0 01-2.682-19.237c-2.127.173-2.309.184-3.451-1.572 1.565-.049 2.453-.059 3.429.653q-.018-.985-.03-1.891c-.077-5.117-.122-8.219-2.3-9.237a30.212 30.212 0 00-13.176-2.6 9.546 9.546 0 00-2.839.54 1.982 1.982 0 00-1.122.838.937.937 0 00-.077.468 19.527 19.527 0 00.876 3.654 12.3 12.3 0 014.632-.727c-.8 1.168-2.1 1.479-4.193 2.134.209.655.432 1.345.662 2.052.975 3 2.051 6.313 2.656 9.162 1.977 5.445 4.417 14.013 5.071 16.626-.056-.125-.285-.17-.345-.226-1.687-1.559-3.264-6.136-4.495-10.737-.465 1.522-1.538 2.285-3.457 1.937-1.955-.356-4.064-1.983-6.206-4.144a5.127 5.127 0 01-2.226 1.481c-2.825 1.016-3.024-.306-3.346-.551 2.985-.637 3.72-1.481 5-1.52-1.6-1.675-3.209-3.609-4.78-5.494-1.441-1.732-2.847-3.42-4.1-4.778.008.469-.2.739-1.918 1.494-.243-1.331-.057-1.668 1.022-2.424-1.4-1.407-2.553-2.248-3.254-2.023a3.612 3.612 0 00-.7.334c-1.811 1.073-3.885 3.707-5.324 6.716C.308 57.6-.458 60.858.308 63.217a4.5 4.5 0 00.41.907c.827 1.4 2.781 2.439 5.662 3.973a79.489 79.489 0 0116.8 11.477c.42-.685 1.217-1 2.594-.81l-1.4 1.889a131.01 131.01 0 0116.634 18.874c.831-.721 1.005-.969 2.742-.668-.381.491.984.55-1.588 1.225-.254.067-.461.117-.63.154.012.015.023.033.037.049 9.564 13.069 16.294 24.566 20.418 33.447 1.235-1.676 1.071-1.651 4.013-2.213-2.155 3.487-3.222 3.359-3.708 2.872a75.1 75.1 0 013.485 8.917c.06.2.12.392.176.586a1 1 0 00.287-.485 81.6 81.6 0 013.288 12.471c.582 2.735 2.5 8.755 1.693 11.027l-4.186-16.74c-.037 2.1-.748 3.444-2.1 3.927a3.015 3.015 0 01-1.086.169c-.022 1-.327 1.217-2.778 1.539a14.784 14.784 0 011.329-1.831c-3.49-1.254-7.08-6.192-10.561-10.98l-.085-.115c-.075.021-.155.044-.238.065-1.895.49-.069.3-1.481-.378.383-.273.718-.489 1.011-.66a56.658 56.658 0 00-5.16-6.411c-.541 1.352-.985 1.021-3.225 3.568-1.488 1.7-2.175 3.333-4.307 4.671.357-2.814 4.015-6.993 6.978-8.757-1.03-.907-1.94-1.369-2.672-1.155-2.491.729-5.19 4.008-7.047 7.957-1.795 3.819-2.749 8.193-1.931 11.455.914 3.641 5.043 6.6 10.844 10.267a3.96 3.96 0 011.857-2.463c.058 1.922.267 2.244-.67 3.209l1.445.9c2.165 1.348 4.5 2.8 6.934 4.417.091-1.115.827-1.6 2.507-2.569-.295 2.327.521.623-1.127 2.7-.183.23-.314.387-.424.508a123.801 123.801 0 016.286 4.5c7.543 5.769 17.029 15.832 26.386 28.689q.634.87 1.265 1.759c2.838-2.544 3.173-.6 3.179-.6a14.865 14.865 0 01-1.6.927c-.5.15-.851.264-1.094.345a227.873 227.873 0 0120.894 36.188c.009.014 1.168 2.362 2.681 5.257 2.286-1.386 3.622-2.12 7.165-.926l-1.813.782a19.292 19.292 0 00-4.826 1.147 88.43 88.43 0 004.975 8.568q.039.056.073.116c.4.62 5.222 7.6 17.079 3.336a53.742 53.742 0 017.362-1.948c8.222-1.742 13.122-2.774 10.149-26.309-.924.711-1.232.541-2.518.2.5-.636-.287-.593 1.325-1.094.434-.136.773-.237 1.038-.31q-.081-.6-.165-1.2-.617-4.418-1.044-8.808c-.241.04-.52.078-.844.114a2.03 2.03 0 01-2.132-1.02l2.86-.3q-.275-2.992-.47-5.954c-.394.036-.28-.232-.557-.294.044-.075-.575-1.1.472-1.066-.281-4.7-.411-9.32-.411-13.83-.366.062-.737-.219-1.586-.5.639-.661-1.274-.362 1.516-.869l.074-.013c.027-4.193.168-8.281.407-12.227a188.767 188.767 0 012.514-21.662 28.573 28.573 0 00-2.735-1.45c-1.924-.781-2.582-.328-4.466-1.726a9.766 9.766 0 017.471 1.714 100.012 100.012 0 014.01-15.263q.266-.735.542-1.454c-1.2-.149-1.53-.433-2.211-2.074 1.571-.144 1.848.119 2.488 1.348 1.971-5.081 4.1-9.55 5.986-13.5 1.019-2.136 1.963-4.113 2.764-5.943a6.726 6.726 0 01-2.965-2.22 5.779 5.779 0 013.612.695c1.629-4 2.408-7.231 1.536-9.831-1.066-3.19-4.227-6.362-7.794-8.616-3.691-2.329-7.731-3.64-10.222-2.913-2.07.606-2.427 6.528-2.8 12.671-.376 6.24-.766 12.684-3.387 15.4a3.877 3.877 0 01-.918.717c-1.731 4.639-3.942 10.248-4.7 10.874-.009-1.277 1.157-6.2 2.9-10.544a4.507 4.507 0 01-2.874-2.262 23.608 23.608 0 01-2.6-6.413q-.6-2.165-1.119-4.882a10.842 10.842 0 01-5.784-.147c2.374-1.442 4.166-1.177 5.738-.1-1.553-8.29-2.471-20.266-2.013-35.19a5.9 5.9 0 01-1.4.37 3.028 3.028 0 01-1.9-.285 3.164 3.164 0 013.335-1.09q.134-3.86.392-7.974.2-3.132.482-6c-.983.261-2.077-.055-2.839-1.642l2.973.327c1.655-15.532 5.032-25.279 8.118-31.873-2.3-.1-2.937-.2-4.149-1.435 2.32-.7 2.58-.46 4.167 1.394 1.3-2.77 2.546-4.986 3.59-6.839 1.6-2.845 2.686-4.773 2.633-6.4a4.641 4.641 0 00-.141-.981c-.622-2.4-3.028-4.737-5.819-6.473-2.832-1.76-6-2.865-8.1-2.794a3.658 3.658 0 00-.772.1c-1.024.27-1.65 2.9-2.171 6.334a3.775 3.775 0 013.205 1.561 7.635 7.635 0 01-3.408-.184 265.993 265.993 0 00-.422 3.25c-.759 6-1.565 12.363-4.234 14.837a2.73 2.73 0 01-3.016.821c.95 4.015 1.117 8.7-.293 10.558-.283-3.2-.1-5.131-.907-8.751-.248-1.119-.822-2.695-1.2-4.226-1.506-2.6-2.72-6.973-3.779-11.021a4.07 4.07 0 01-3.47.022c1.62-1 2.155-1.244 3.173-1.164l-.015-.059a43.424 43.424 0 00-2.162-7.059.962.962 0 00-.316-.352 1.994 1.994 0 00-1.4-.1 9.579 9.579 0 00-2.68 1.075 30.2 30.2 0 00-9.7 9.284c-1.291 2.032.339 4.671 3.03 9.023 1.207 1.952 2.6 4.216 4.04 6.9a7.9 7.9 0 014.57-2.136c-.582 1.517-.259 1.213-2.323 2.257-.959.484-1.29.724-1.8.734 3.668 7.067 7.461 16.951 8.8 31.5.757 8.245 1.32 15.388 1.7 21.575a4.291 4.291 0 013.324.725 5.343 5.343 0 01-3.234.754c.359 6.128.531 11.283.536 15.618a95.124 95.124 0 01-.507 10.864 1.226 1.226 0 01-.032.26 27.386 27.386 0 01-1.567 6.859c-1 2.473 1.359 6.285 4.415 10.092 1.585-.661 2.122.036 2.122.036-.5.607-.453.939-1.069 1.244a182.087 182.087 0 003.535 4.048c2.393 2.683 4.466 5.011 5.213 6.639a47.73 47.73 0 013.773 11.786 70.811 70.811 0 011.005 7.657c1.243-.7 2.3-.653 2.974 1.239l-2.906-.326a115.731 115.731 0 01-.164 16.458q-.3 4.063-.372 7.765a1.3 1.3 0 010 .158c-.346 17.351 2.6 28.218 2.612 28.255a1.221 1.221 0 11-2.359.629c-.012-.037-3.023-11.142-2.7-28.754q-.628-1.537-1.185-3.107c-.859.464-1.341.539-2.763-.192.3-.329-.192-.643 1.594-.923.286-.045.533-.08.745-.1a112.487 112.487 0 01-3.785-14.914c-.488.633-.226.672-1.84 1.173l-2.731.052a4.04 4.04 0 014.533-1.421c-1-5.274-1.8-10.759-2.629-16.445q-.333-2.287-.677-4.618l-1.838-.148c.031-.041-.553-1.106 1.669-.98-.5-3.308-1.029-6.677-1.636-10.1-.9-1.028-1.815-2.089-2.689-3.167-.737.07-.434-.217-.365-.457-2.743-3.448-5-7.028-5.125-10.123a9.17 9.17 0 01-.919.171c-1.61.231-1.672-.369-2.076-.6 1.751-.85 1.937-.956 3.061-.773a5.273 5.273 0 01.32-1.16 23.974 23.974 0 001.357-5.791 62.519 62.519 0 00-6.866-6.018c-1.127-.886-2.155-1.7-3.028-2.478l.047.314c.349 2.235.693 3.9.155 5.925-.137-.144-.322-.022-.706-1l-.938-6.686a7.194 7.194 0 01-1.032-1.532c-.566-1.174-1.715-6.53-3.133-14.19-.74-.046-1.112-.324-1.714-1.3a5.991 5.991 0 011.426-.269c-1.276-6.991-2.743-15.662-4.187-24.737a10.007 10.007 0 01-4.842-.829m47.4 88.558c1.211-1.338.486-.739 2.339-.869-.247.492 1.234 2.666-2.339.869m5.367 14.184c1.16-1.52.624-1.011 2.853-.975-.276.587 1.019 2.281-2.853.975m-21.644-53.478c.3-.568-.877-2.457 2.27-.571zM82.135 60.581c2.073-1.525 4.2-.67 5.722.232l-6.932 1.519c.8-1.586-1.294.09 1.209-1.751m24.885 70.369a4.247 4.247 0 00.868-.216c1.979-.617.742.192 1.382.557a4.836 4.836 0 01-2.164.387c.3-.682-.038-.726-.087-.728m9.746 34.989c1.511-.066.692.215 1.381.532-1.232 1.317-1.523.882-2.862.2.7-.618-1.739-.593 1.481-.736m-39.8-14.051c.674-1.34-2.209-.242 1.326-1.242 1.381-.391 1.252.354 1.349.553zm13.264-91.368c2.643-.657 1.4-.632 2.9.856-3.067.1-1.332.73-2.9-.856m59.494 46.945c2.656-.463 4.351.121 5.4 2.522a16.009 16.009 0 01-3.239-.989c-1.366-.436-1.1.22-2.161-1.533m-21.1-42.933c.288-.425 1.011-.6 0 0m-1.162.581c-.133.03-.039-.058 0 0m-.216.657c.238-.445.247-.605.216-.657a2.853 2.853 0 00.592-.263c.232-.124.42-.229.57-.318-.164.241-.188.563.321.872zm.923 35.683c.258-.349-.712-1.414 2.135-.624-.077.122 1 1.762-2.135.624M86.839 14.32c-2.521 1.131-1.072.731-2.428-.442 2.238-.308.935-.631 2.428.442m2.5 176.3c1.725-.433 1.087.319 1.208.385-1.34 1.47-1.162 1.083-2.641.77.62-.931-1.853-.327 1.432-1.155m51.428 45.91c.427-.442-1.333-.281 1.582-1.023l3.99.664c-.659.711 1.4.2-1.234.709zM112.651 25.6l-2.687.7c.762-1.454-2.269-.193 1.348-1.237 1.31-.378 1.255.338 1.339.539m-46.718 94.665c.08-.167-1.527-.776 1.853-1.52 1.745-.385 1.452.172 1.921.572zM52.664 91.959c.974-.982-.7-.526 1.221-.814 1.586-.236 1.412.43 1.563.5-.742 1.12-1.475.9-2.783.31M30.759 72.3c-.253.944 1.008.228-.435 1.67-1.58 1.577-1.5.121-1.524.117.763-1.358.224-.97 1.96-1.787m95.876 138.584c1.336-1.216 3.652-1.229 5.273-.906a3.51 3.51 0 01-2.684 1.367 3.273 3.273 0 01-2.588-.461m1.153 41.019c3.511-.919 17.55-3.674 20.262-2.921-1.723 1.753-18.236 4.172-20.262 2.921m10.97-38.225c1.126-1.053 1.876-.821 3.438-.449-.1.146.75 1-1.858 1.117-1.77.077-1.4-.551-1.58-.668m-62.865-40.156c1.3-1.436 1.748-1.133 3.335-1.1-.761 1.186.305.784-1.575 1.349-1.191.358-.843-.016-1.76-.254m52.56 53.04c3.366-.794 1.033-.108 1.921.34-1.576 1.37-2.23 1.337-3.768.942.674-.835.357-.931 1.846-1.283m-7.087-14.334c1.861-2.432 1.911-.619 2.3-.474-1.254 1.165-1.512.649-2.3.474m20.98-12.9c1.489-2.669 1.951-.693 2.123-.62-.945.879.1 1.214-2.123.62m-9.71 37.364c2.371-.064 2.958.044 4.266 1.55a4.461 4.461 0 01-2.356.037c-2.019-.6-.725-.006-1.91-1.587m-11.47 17.614c.655-.57-1.661-.631 1.525-.755 2.032-.078.376.088 1.331.554-.7.7 1.8.608-1.488.733-2.5.094.107.124-1.368-.532m37.128-135.871c2.582-.468 1.919-1.03 3.258 1.9-1.53-.285-.571.14-1.8-.584-1.744-1.024-.43-.334-1.455-1.315m-15.953-97.4c-2.243.058-1.069.793-2.661-1.03 2.275-.226 1.9-.657 2.661 1.03m-93.62 137.7c1.058-2.481.03-1.007 1.936-2.51.116 2.463.107 2.957-1.936 2.51M12.867 65.5c-.2.039-.067-.072 0 0m.977-.4c-.064.207.024.479.474.8l-1.558.2c.172-.394.156-.549.106-.6a3.22 3.22 0 00.6-.221c.144-.064.27-.123.378-.178m0 0c.159-.514 1.251-.622 0 0m33.032 83.419c.084-1.856-.048-1.591 1.536-2.7.568 2.436.222 2.2-1.536 2.7" fill="#bee4f2" fill-rule="evenodd"/></g></g><g data-name="Group 8315" opacity=".671"><g data-name="Group 8248"><g data-name="Group 8228" clip-path="url(#c)" transform="translate(136.481 208.866)"><path data-name="Path 1869" d="M.002 26.206C.183 37.013 19.58 39.772 41.04 40.117l11.2 14.236c6.442 1.329 3.5-8.532 1.306-14.273.074 0 .168.008.246.008a60.6 60.6 0 0036.141-12.3l11.74 14.9c9.049 1.854-.341-18.314-.341-18.314s8.644-20.487-.337-18.306L89.802 21.399a60.356 60.356 0 00-36.557-10.991c-.531 0-1.054.014-1.589.031C53.129 5.976 54.774-1.012 50.102.121L42.284 10.84C20.157 12.146-.18 16.479.002 26.206" fill="rgba(0,151,193,0.43)"/></g></g><g data-name="Group 8250"><g data-name="Group 8228" clip-path="url(#d)" transform="translate(17.135 177.771)"><path data-name="Path 1869" d="M.002 26.206C.183 37.013 19.58 39.772 41.04 40.117l11.2 14.236c6.442 1.329 3.5-8.532 1.306-14.273.074 0 .168.008.246.008a60.6 60.6 0 0036.141-12.3l11.74 14.9c9.049 1.854-.341-18.314-.341-18.314s8.644-20.487-.337-18.306L89.802 21.399a60.356 60.356 0 00-36.557-10.991c-.531 0-1.054.014-1.589.031C53.129 5.976 54.774-1.012 50.102.121L42.284 10.84C20.157 12.146-.18 16.479.002 26.206" fill="#b5e0ed"/></g></g></g></g></svg>