<svg xmlns="http://www.w3.org/2000/svg" xmlns:xlink="http://www.w3.org/1999/xlink" width="1920" height="908"><defs><clipPath id="b"><path data-name="Rectangle 4213" fill="#fff" stroke="#707070" d="M0 0h1920v908H0z"/></clipPath><clipPath id="c"><path data-name="Rectangle 4164" fill="none" d="M0 0h105.695v162.606H0z"/></clipPath><clipPath id="d"><path data-name="Rectangle 4164" fill="none" d="M0 0h170.082v261.662H0z"/></clipPath><clipPath id="e"><path data-name="Path 2545" d="M325.9 122.306l1.759-2.845-1.185-.722.679-1.055 1.154.734a4.988 4.988 0 002.172 4.1 4.01 4.01 0 004.344-.068l1.561.5a50.508 50.508 0 00-5.862 4.023 47.65 47.65 0 00-2.709 2.154 8.659 8.659 0 00-1.913-6.827m28.2-1.018a9.116 9.116 0 003.53-.8c1.574-.728 2.549-2.363 3.092-4.381l.642.241-.364.889a.778.778 0 00.42 1.024l1.987.8c-3.135 1.753-6.739 3.7-10.342 5.461zm-17.735-.845a3.965 3.965 0 00-.679-3.844 12.02 12.02 0 001.839-4.7 23.058 23.058 0 002.888 4.209 3.937 3.937 0 01.673 2.6 6.036 6.036 0 01-1.882 2.647zm25.356-6.757a12.288 12.288 0 01-.327-3.277c3.258-.21 6.109.808 6.85 1.716a1.5 1.5 0 01.222 1.456 1.826 1.826 0 01-1.277 1.154c-.574-.543-.808-1.074-1.247-1.247-.123-.068-2.228-.907-2.228-.907a.78.78 0 00-1.018.438l-.339.919zm-33.261 1.857l.574-.9a1.593 1.593 0 00.561-.549 1.427 1.427 0 00-.074-1.654c.068-1.944.623-3.425 1.567-4.159a1.678 1.678 0 011.481-.383 2.7 2.7 0 011.635 1.549c.512 1.333.086 3.3-1.216 5.671a4.066 4.066 0 00-3.271 1.21c-.074-.043-1.259-.784-1.259-.784m26.343-7.282c-1.29-1.1-1.857-5.467.494-6.294a16.05 16.05 0 015.258-.784 2.7 2.7 0 011.3.253c.808.716 1.222 6.109.438 6.874a5.885 5.885 0 01-.919.154 29.793 29.793 0 01-3.851.3 4.947 4.947 0 01-2.721-.5m-59.95 29.25c-7.535-11.1-4.307-26.473 7.183-34.267a16.718 16.718 0 0118.605-.358 11.663 11.663 0 015.332 11.126l-2.2-1.345c.494-.784.389-1.043.123-1.277-1.308-1.117-2.616-2.252-3.919-3.369-.278-.235-.778-.111-1.123.321a472.81 472.81 0 00-2.45 3.98c-.241.5-.123 1.012.228 1.154 1.561.666 3.153 1.321 4.752 1.987a.674.674 0 00.882-.346c.191-.321 2.728 1.259 2.728 1.259l-.648 1.031-1.185-.716-1.758 2.841a8.589 8.589 0 00-9.337 3.832l-2.758 4.462c-1.253-.179-2.135.012-2.487.574a3 3 0 00.586 2.487c.012.025-7.269 11.768-7.269 11.768a19.827 19.827 0 01-5.288-5.14m112.819-63.525c-3.635 1.691-5.566 1.487-7.59 4.511s-10.157 15.384-10.157 15.384c-1.339 1.321-2.678 2.641-3.8 3.764-13.3 13.292-11.965 14.637-13.354 15.908 0 0-.494.3-1.345.808a4.535 4.535 0 00-.815-4.19 9.2 9.2 0 00-6.492-2.684c.741-3.746-1.043-9.053-1.32-9.083-.228-.012-1.314.1-2.586.241a13.016 13.016 0 00-2.234-2.8 9.213 9.213 0 00-2.265-1.648c-.259-.142-.494-.271-.759-.395a13.9 13.9 0 00-7.7-1.061c-4.826.562-11.879 5.875-11.4 13.527a5.9 5.9 0 00-2.228-1.4 4.817 4.817 0 00-4.443.858 6.277 6.277 0 00-1.592 1.8 15.262 15.262 0 00-5.56-6.708 18.385 18.385 0 00-10.194-3.085 19.522 19.522 0 00-11.219 3.437 28.159 28.159 0 00-7.714 7.788 27.469 27.469 0 00-4.073 9.688 26.911 26.911 0 00-.136 10.416 26.023 26.023 0 009.948 16.013l-2.987 4.813c-1.253-.16-2.123.012-2.481.574s-.117 1.45.58 2.475l-5.221 8.46c-1.623 2.666.284 6.825 4.332 9.33a9.941 9.941 0 007.726 1.481 41.5 41.5 0 00-3.073 3.937c-4.141 6.689-3.135 11.792-3.733 15.014-.666 3.814-10.861 10.558-15.995 26.257-5.56-1.6-15.464-4.369-33.822.426a5.468 5.468 0 01-5.973-2.431c-2.4-3.289-10.719 6.183-11.428 6.776-26.257 22.03-35.112 20.055-35.908 20.8s-3.758 7.751.179 16.439c.784 1.734 31.583-12.508 41.129-28.343 3.252-5.424 13.681-5.961 15.945-6.029 8.67.926 27.769 2.857 34.625 2.678.222-.185.432-.376.6-.537 1.7-1.561 4.659-4.338 8.386-8.133a65.64 65.64 0 00-.111 10.367c-5.8.062-16.032.4-32.039 10.151 0 0-3.715 1.432-6.43-.6-1.839-1.382-4.844 3.684-5.233 4.5-12.459 27.109-34.125 33.28-34.686 34.23-.531.95.339 11.972 6.609 19.148 1.259 1.45 21.333-6.239 32.07-41.141 2.067-6.788 13.946-10.491 13.946-10.491 8.794-1.765 27.146-5.541 33.551-7.664 5.93-6.806 18.352-28.454 25.226-51.767q3.045-3.036 6.436-6.387a113.4 113.4 0 007.387 13.28l4.776-2.888a129.487 129.487 0 01-7.788-12.768c.987-.938 2.617-2.555 4.455-4.468a78.024 78.024 0 003.647 5.609 4.037 4.037 0 00.247 4.264c2.043 2.993 4.3 6.535 4.77 7.288 1.833 2.413 4.721 2.783 6.714 1.24a4.6 4.6 0 00.845-6.442c-.469-.512-.679-.734-.919-1.018a4.056 4.056 0 00-.5-3.857 4.115 4.115 0 00-4.208-1.37c-.16-.16-.358-.383-.549-.574a3.7 3.7 0 00-4.153-1.247q-2.323-3.23-3.912-5.936a101.2 101.2 0 007.6-8.763l32.02-22.021c6.572-4.381 10.472-13.94 15.075-22.308 1.209-2.2 2.524-8.294 4.017-13.2a11.971 11.971 0 003.456-5.251c1.777-5.2-.71-2.69 4.782-8.627 3.338-3.579 3.431-6.337-.043-4.283s-5.449 2.086-7.127 5.264-8.337 16.1-8.337 16.1c-1.185 1.432-2.357 2.882-3.351 4.1-11.792 14.427-7.535 10.318-10.78 13.705 0 0-16.655 11.546-23.246 12.157l20.964-13.449c5.1-4.159 8.541-13.755 14.076-21.728 1.321-1.876 3.449-6.22 5.622-10.1a12.544 12.544 0 004.992-5.56c2.394-5.072-.333-2.832 5.757-8.207 2.919-2.592 3.826-4.875 2.258-4.875a4.552 4.552 0 00-1.74.506" transform="translate(-188.837 -73.477)" fill="none"/></clipPath><clipPath id="g"><path data-name="Path 1626" d="M224.074 109.986c-1.391.544-10.5 3.3-12.419 8.367-1.624 4.363.889 8.515 2.337 10.548l-8.275-5.2a19.042 19.042 0 00.946 9.306 19.477 19.477 0 005.486 7.6s2.732-9.369 3.791-9.793a7.7 7.7 0 003.841 9.249c4.794 2.506 10.59.84 15.384-.974 11.226-4.279 10.922-15.279 14.926-20.157 1.737-2.069 2.619-2.069 2.259-3.036-.36-.946-1-.346-3.678-.777-5-.784-10.541-6.333-18.336-6.333a17.567 17.567 0 00-6.263 1.193" transform="translate(-205.512 -108.786)" fill="none"/></clipPath><clipPath id="h"><path data-name="Path 1629" d="M237.077 116.132c-1.419.53-10.555 3.283-12.447 8.345-1.645 4.37.918 8.529 2.309 10.555l-8.275-5.2a18.25 18.25 0 006.439 16.917s2.725-9.376 3.784-9.793a7.685 7.685 0 003.876 9.235c4.766 2.506 10.612.861 15.349-.981 11.226-4.243 10.915-15.271 14.961-20.136 1.723-2.076 2.591-2.055 2.252-3.036-.353-.932-1.031-.36-3.707-.763-4.992-.784-10.52-6.34-18.286-6.34a17.4 17.4 0 00-6.255 1.2" transform="translate(-218.445 -114.935)" fill="none"/></clipPath><clipPath id="j"><path data-name="Path 1632" d="M242.567 95.047c-1.447.544-10.562 3.29-12.483 8.374-1.673 4.363.918 8.508 2.344 10.541l-8.3-5.2a18.887 18.887 0 001.024 9.291 18.486 18.486 0 005.38 7.6s2.782-9.369 3.848-9.771a7.668 7.668 0 003.841 9.221c4.815 2.535 10.619.854 15.406-.946 11.2-4.286 10.922-15.286 14.9-20.164 1.758-2.083 2.648-2.069 2.259-3.043-.367-.932-1.009-.367-3.707-.77-4.978-.784-10.513-6.34-18.272-6.333a17.305 17.305 0 00-6.241 1.193" transform="translate(-223.943 -93.847)" fill="none"/></clipPath><clipPath id="l"><path data-name="Path 1669" d="M254.115 91.793c-9.63 7.046-17.792 13-17.792 13s5.189 1.172 16.5-8.077a16.812 16.812 0 018.239-3.608c.021 0 8.1-.9 4.321 3.523-3.22 3.735-7.583 6.644-8.211 11.424-.41 2.867 1.44 8.211 5.959 10.7l-11.2-2.93a23.021 23.021 0 0014.064 17.857l-.219-11.614c2.7 4.561 10.308 12.44 12.13 11.021 2.768-2.189 4.2-8.042 6.326-12.236 1.913 2.415 3.622 4.307 3.883 4.109 9.277-7.265 7.569-14.629 9.757-28.037 1.108-3.036 2.111-3.311 1.313-4.349-.791-.981-1.313-.085-4.483.3-7.526.9-15.829-3.05-26.448-4.723a18.286 18.286 0 00-3.227-.3 17.96 17.96 0 00-10.908 3.94" transform="translate(-236.323 -87.853)" fill="none"/></clipPath><clipPath id="n"><path data-name="Path 1673" d="M282.535 82.068a20.283 20.283 0 01-6.255-.219c-4.6-.579-9.976-1.165-15.173 3.333-1.01.868-7.548 5.8-7.6 10.463-.064 4.031 3.276 6.623 5 7.865l-8.232-1.751a15.715 15.715 0 0010.181 11.777s-.53-8.4.212-9.044a6.581 6.581 0 005.839 6.333c4.639.628 8.84-2.457 12.2-5.338 7.809-6.785 4.314-15.61 6.135-20.75.762-2.182 1.462-2.45.911-3.121a.7.7 0 00-.537-.282c-.445 0-1.094.424-2.683.734" transform="translate(-250.275 -81.334)" fill="none"/></clipPath><clipPath id="p"><path data-name="Path 1676" d="M254.886 90.325c-5.451 11.452-2.408 28.114-2.408 28.114l-10.061 5.2s1.363 4.822 5.359 6.778c3.94 1.949 8.592.141 8.592.141l-1.97-11.169s14.417-8.691 19.875-18.145c9.743-16.973 5.521-28.128 1.942-29.837a2.38 2.38 0 00-.981-.169c-3.488 0-13.189 4.137-20.348 19.091" transform="translate(-242.417 -71.236)" fill="none"/></clipPath><linearGradient id="f" x1="-3.561" y1="1.306" x2="-3.541" y2="1.306" gradientUnits="objectBoundingBox"><stop offset="0" stop-color="#2883c0"/><stop offset=".126" stop-color="#1b73aa"/><stop offset=".295" stop-color="#0f6494"/><stop offset=".481" stop-color="#065984"/><stop offset=".695" stop-color="#01527b"/><stop offset="1" stop-color="#005179"/></linearGradient><linearGradient id="a" x1="-27.526" y1="3.117" x2="-27.392" y2="3.117" gradientUnits="objectBoundingBox"><stop offset="0" stop-color="#2883c0"/><stop offset="1" stop-color="#005179"/></linearGradient><linearGradient id="i" x1="-29.278" y1="2.373" x2="-29.144" y2="2.373" xlink:href="#a"/><linearGradient id="k" x1="-29.985" y1="4.927" x2="-29.851" y2="4.927" xlink:href="#a"/><linearGradient id="m" x1="-23.289" y1="4.254" x2="-23.19" y2="4.254" xlink:href="#a"/><linearGradient id="o" x1="-38.129" y1="7.801" x2="-37.976" y2="7.801" xlink:href="#a"/><linearGradient id="q" x1="-23.781" y1="7.315" x2="-23.682" y2="7.315" xlink:href="#a"/></defs><g clip-path="url(#b)"><g data-name="Component 14 – 1"><g data-name="Component 13 – 1"><g data-name="Component 12 – 2"><path data-name="Subtraction 3" d="M1458.101 907.997a128.5 128.5 0 0038.367-5.968 139.093 139.093 0 0035.167-16.742 137.56 137.56 0 0029.153-25.789 125.364 125.364 0 0020.329-33.108c7.671-18.5 11.12-38.811 14.455-58.456v-.041c2.09-12.314 4.251-25.047 7.433-37.149 3.564-13.57 8.067-24.91 13.765-34.667a103.471 103.471 0 0121.253-25.7 116.3 116.3 0 0127.664-17.833 143.951 143.951 0 0132.119-10.39 175.211 175.211 0 0134.618-3.368 195.38 195.38 0 0138.084 3.785 190.351 190.351 0 0136.234 11c19.168 8.037 38.523 18.916 59.171 33.258 18.812 13.066 37.108 27.919 54.076 42.025v-297a133.973 133.973 0 01-27.2-12.815 136.957 136.957 0 01-25.7-20.725 191.611 191.611 0 01-20.886-25.578c-12.678-18.313-23.4-39.146-33.778-59.293-9.992-19.408-20.323-39.472-32.412-57.334a203.192 203.192 0 00-19.817-25.146 139.5 139.5 0 00-49.021-34.4 161.275 161.275 0 01-12.222 22.494 137.37 137.37 0 01-23.5 27.217 151.539 151.539 0 01-29.646 20.673 153.163 153.163 0 01-33.536 13.135 139.879 139.879 0 01-35.166 4.6 120.8 120.8 0 01-33.067-4.5 107.773 107.773 0 01-30.527-14.078c-9.75-6.531-19.319-15.109-29.253-26.224-8.834-9.881-17.084-20.752-25.062-31.266l-.063-.084c-10.507-13.847-21.37-28.163-33.443-40.02a129.045 129.045 0 00-19.356-15.883 94.052 94.052 0 00-22.615-11.051 91.077 91.077 0 00-28.553-4.511 114.019 114.019 0 00-29.648 4.159 168.508 168.508 0 00-29.014 11.032c-16.478 7.954-34 19.079-53.564 34.012a2478.441 2478.441 0 00-5.225 4l-1.226.939-.016.013-.007.005c-18.953 14.522-38.552 29.539-59.3 40.948a169.274 169.274 0 01-32.026 13.876 124.511 124.511 0 01-16.748 3.924 109.792 109.792 0 01-17.294 1.394c-1.36 0-2.715-.025-4.028-.077a108.785 108.785 0 01-19.073-2.441 118.7 118.7 0 01-18.038-5.531 160.432 160.432 0 01-33.552-18.54c-21.438-15.094-41.537-35.126-60.975-54.5l-.1-.1-.007-.006c-9.713-9.679-19.755-19.688-29.8-28.906a297.339 297.339 0 00-30.924-25.224 149.246 149.246 0 00-33.1-17.8 109.37 109.37 0 00-17.733-4.981 100.872 100.872 0 00-18.714-1.763c-2.574 0-5.212.1-7.842.3a101.759 101.759 0 00-18.7 3.211 107.081 107.081 0 00-17.271 6.34 141.434 141.434 0 00-31.08 20.277c-19.443 16.291-37 37.684-53.968 58.373l-.024.029c-12.609 15.374-25.647 31.272-39.4 44.982a226.69 226.69 0 01-35.165 28.56 239 239 0 01-83.458 34.515 224.8 224.8 0 01-44.759 4.573 205.058 205.058 0 01-43.083-4.511 187.76 187.76 0 01-41.157-13.952c-13.993-6.665-27.523-15.164-40.607-23.383l-.02-.014h-.008c-12.229-7.681-24.875-15.623-37.782-21.98a160.385 160.385 0 00-19.791-8.272 111.726 111.726 0 00-36.862-6.107 171.252 171.252 0 00-30.269 3.014c-10.062 1.805-20.29 4.256-30.181 6.627l-.024.006h-.013l-.162.038h-.019c-19.87 4.762-40.415 9.685-60.974 9.685-1.666 0-3.317-.031-4.906-.094a124.086 124.086 0 01-41.877-9.2 151.2 151.2 0 01-37.13-21.974 185.73 185.73 0 01-30.877-31.438 202.669 202.669 0 01-23.112-37.594A271.61 271.61 0 0119.25 92.772 383.071 383.071 0 019.625 50.23C4.561 20.72 2.135-10.001-.004-37.106v743.671a299.1 299.1 0 0131.932-42.219 238.51 238.51 0 0171.173-53.357 210.985 210.985 0 0141.575-15.164 180.98 180.98 0 0143.294-5.4 159.222 159.222 0 0141.455 5.411c13.873 3.747 28.417 9.7 44.466 18.215 14.317 7.591 28.405 16.421 42.03 24.961l.013.008c17.726 11.107 36.055 22.593 54.74 31.235a183.811 183.811 0 0028.667 10.675 133.109 133.109 0 0030.318 4.805c1.647.062 3.3.094 4.9.094a129.2 129.2 0 0021.2-1.767 141.532 141.532 0 0020.3-5 189.293 189.293 0 0038.441-17.847 361.149 361.149 0 0036.416-25.251c11.888-9.217 23.806-19.217 35.331-28.888l.04-.034.066-.055c23.224-19.49 47.239-39.644 72.327-54.567a192.443 192.443 0 0138.873-18.064 144.446 144.446 0 0120.572-5.1 132.4 132.4 0 0121.507-1.863h.427a137.28 137.28 0 0132.654 4.033 192.409 192.409 0 0131.16 10.634c20.388 8.8 40.456 20.747 59.863 32.3h.012c18.744 11.157 38.126 22.7 57.866 31.445a202.977 202.977 0 0030.131 10.824 143.861 143.861 0 0031.54 4.928c1.821.074 3.669.112 5.494.112a148.594 148.594 0 0031.463-3.472 211.306 211.306 0 0030.468-9.139c20.05-7.56 39.888-17.76 59.074-27.624l.01-.006.122-.063.013-.006c10.595-5.446 21.55-11.077 32.344-16.152a255.373 255.373 0 0143.944-16.092 182.737 182.737 0 0145.989-6.369 116.149 116.149 0 0137.854 5.9 87.247 87.247 0 0132.409 19.682 89.184 89.184 0 0116.611 21.843c7.386 12.715 11.852 27.66 13.653 45.688a235.232 235.232 0 01.891 36.987c-.559 12.792-1.782 26.1-2.965 38.97v.012c-2.39 26.05-4.862 52.985-2.31 78.282a157.439 157.439 0 003.708 20.627 124.034 124.034 0 0011.42 28.952 138.748 138.748 0 0044.707 46.96 130.244 130.244 0 0061.153 21.032c2.904.216 5.854.316 8.764.316z" fill="#d2ecf7" stroke="rgba(0,0,0,0)" stroke-miterlimit="10"/><g data-name="Group 8320"><g data-name="Group 8226" clip-path="url(#c)" transform="translate(1484.223 196.408)"><path data-name="Path 1868" d="M57.633 43.973a2.352 2.352 0 012.137-.393 6.774 6.774 0 01.748.127c-.3-1.881-.593-3.788-.882-5.688A808.13 808.13 0 0158.1 27.442a9.612 9.612 0 01-.738.041A2.041 2.041 0 0156.109 27c.24-.235-.116-.19.53-.372a2.62 2.62 0 011.352.026 454.59 454.59 0 01-.88-6.8c-2.276.069-2.219.528-3.409-.021a6.945 6.945 0 012.343-.908 5.29 5.29 0 01.938-.148 90.735 90.735 0 01-.776-9.335c0-.231 0-.457-.01-.677l-1.153-.214c.12-.2-.711-.748.756-.6a1.008 1.008 0 01.343.086 8.1 8.1 0 00-2.365-5.113A11.917 11.917 0 0046.474 0c-.921-.054-2.166.748-3.432 1.907a27.119 27.119 0 00-4.561 5.674c-.243.411-.058 1.333.435 2.692a4.41 4.41 0 011.085-.425 3.471 3.471 0 012.046-.009l-2.858 1.169c.592 1.508 1.471 3.444 2.512 5.735.436.959.9 1.977 1.379 3.053 1.795-1.112 4.631-.963 5.7.189-1.259.168-1.744-.261-3.126-.066-1.005.141-1.612.446-2.286.529 3.55 8.007 7.943 19 9.551 31.927A161.415 161.415 0 0055.907 69.8l.182-.137a3.472 3.472 0 01.882-.448 7.143 7.143 0 012.3-.275l-1.69.961a15.352 15.352 0 01-1.522.529 62.9 62.9 0 001.956 6.532 29.92 29.92 0 005.363 9.456 37.512 37.512 0 014.889 7.927 52.084 52.084 0 013.571 11.244c1.186 5.724.871 15.378.641 22.429a73.144 73.144 0 00-.056 7.948 53.428 53.428 0 013.134 7.282.76.76 0 11-1.447.461 51.6 51.6 0 00-3.032-7.045c-.519.462-.494.31-1.307.057.342-.441-.273-.354.8-.608.076-.018.142-.034.2-.046a83.218 83.218 0 00-4.221-7.234 3.676 3.676 0 01-2.715-.138 2.276 2.276 0 012.276-.528 91.414 91.414 0 00-2.934-4.156 79.811 79.811 0 01-3.765-5.457 2.619 2.619 0 01-1.3-.033c.3-.42.146-.561.814-.764a48.515 48.515 0 01-3.64-7.157 30.542 30.542 0 01-1.616-5.313 2.347 2.347 0 01-.342.188c-1.992.91-.6.128-1.316-.2l1.5-.824c-.082-.48-.144-.907-.2-1.283a22.408 22.408 0 01.51-5.221c.242-1.5.507-3.153.661-4.722l-2.367-.484a1.675 1.675 0 012.408.045c.227-2.683.08-5.055-1.143-5.927a21.656 21.656 0 01-4.511-4.87 3.678 3.678 0 01-3.024.377 2.819 2.819 0 012.734-.776c-.719-1-1.489-2.143-2.318-3.444-2.137-3.353-4.678-7.764-7.761-13.51l-1.968.128c-.084-.1-.2-.04-.306-.064.746-.694 1.309-.935 1.856-.846q-1.661-3.112-3.536-6.74a57.47 57.47 0 01-4.376-10.935 3.327 3.327 0 01-2.964.679l1.666-.991a3.777 3.777 0 011.033-.1l.163.042a48.781 48.781 0 01-1.668-11.954c-1.322.108-1.435.114-2.145-.977a3.015 3.015 0 012.131.406q-.011-.612-.018-1.175c-.048-3.18-.076-5.108-1.431-5.74a18.775 18.775 0 00-8.188-1.617 5.932 5.932 0 00-1.764.335 1.232 1.232 0 00-.7.521.582.582 0 00-.048.291 12.134 12.134 0 00.555 2.271 7.643 7.643 0 012.879-.452c-.5.726-1.3.919-2.606 1.326.13.407.268.836.411 1.275.606 1.863 1.274 3.923 1.651 5.694 1.229 3.384 2.745 8.708 3.152 10.332-.035-.078-.177-.106-.215-.14-1.048-.969-2.028-3.813-2.793-6.672a1.657 1.657 0 01-2.148 1.2 8.312 8.312 0 01-3.857-2.575 3.186 3.186 0 01-1.384.921c-1.755.631-1.879-.19-2.079-.342 1.855-.4 2.312-.921 3.108-.944-.993-1.041-1.994-2.243-2.97-3.414-.9-1.076-1.769-2.125-2.549-2.969 0 .292-.121.459-1.192.928-.151-.831-.036-1.038.638-1.508-.874-.877-1.589-1.4-2.024-1.257a2.245 2.245 0 00-.437.208 10.231 10.231 0 00-3.307 4.173C.19 35.8-.289 37.822.189 39.288a2.8 2.8 0 00.255.563c.514.869 1.728 1.516 3.519 2.469a49.4 49.4 0 0110.445 7.128c.261-.425.756-.624 1.612-.5l-.868 1.174A81.415 81.415 0 0125.487 61.85c.516-.448.625-.6 1.7-.415-.237.305.612.342-.987.761-.158.042-.286.073-.392.1l.023.031a127.633 127.633 0 0112.692 20.78c.768-1.041.665-1.026 2.494-1.375-1.339 2.167-2 2.087-2.3 1.785a46.676 46.676 0 012.166 5.541c.037.123.075.244.109.364a.624.624 0 00.179-.3 50.712 50.712 0 012.043 7.75c.361 1.7 1.557 5.441 1.052 6.852l-2.6-10.4c-.023 1.306-.465 2.14-1.307 2.44a1.874 1.874 0 01-.675.1c-.014.622-.2.756-1.727.957a9.188 9.188 0 01.826-1.138c-2.169-.779-4.4-3.848-6.563-6.824l-.053-.072-.148.041c-1.178.3-.043.185-.92-.235.238-.17.446-.3.628-.41a35.209 35.209 0 00-3.212-3.983c-.336.84-.612.634-2 2.217-.925 1.053-1.352 2.071-2.677 2.9.222-1.749 2.5-4.346 4.336-5.442-.64-.563-1.206-.851-1.66-.718-1.548.453-3.225 2.49-4.379 4.945-1.115 2.373-1.708 5.091-1.2 7.119.568 2.263 3.134 4.1 6.739 6.38a2.461 2.461 0 011.154-1.531c.036 1.195.166 1.395-.416 1.994l.9.56c1.345.838 2.794 1.741 4.309 2.745.057-.693.514-.993 1.558-1.6-.183 1.446.324.387-.7 1.677-.113.143-.195.24-.263.316a77.767 77.767 0 013.906 2.794c4.682 3.592 10.572 9.844 16.392 17.835q.394.541.786 1.093c1.763-1.581 1.972-.373 1.976-.371a9.235 9.235 0 01-1 .576c-.31.093-.529.164-.68.214a141.612 141.612 0 0112.985 22.491c.006.009.726 1.468 1.666 3.267a4.262 4.262 0 014.452-.576l-1.127.486a11.99 11.99 0 00-3 .713 54.956 54.956 0 003.092 5.324.711.711 0 01.045.072c.249.385 3.245 4.724 10.614 2.073a33.4 33.4 0 014.575-1.211c5.111-1.08 8.153-1.723 6.307-16.348-.574.442-.766.336-1.565.123.308-.4-.179-.369.823-.68.27-.084.48-.148.645-.193a62.584 62.584 0 01-.1-.749q-.383-2.745-.649-5.474c-.15.025-.323.049-.524.071a1.262 1.262 0 01-1.325-.634l1.777-.189q-.171-1.859-.292-3.7c-.245.022-.174-.144-.346-.183.027-.046-.357-.687.294-.663a143.708 143.708 0 01-.255-8.594c-.227.038-.458-.136-.985-.311.4-.411-.792-.225.942-.54l.049-.007c.017-2.605.1-5.146.253-7.6a117.305 117.305 0 011.563-13.459 17.755 17.755 0 00-1.7-.9c-1.2-.485-1.6-.2-2.775-1.073a6.069 6.069 0 014.643 1.065 62.151 62.151 0 012.492-9.485q.166-.457.337-.9c-.748-.093-.951-.269-1.374-1.289.976-.089 1.149.074 1.546.838 1.225-3.158 2.549-5.935 3.72-8.388a127.88 127.88 0 001.718-3.693 4.18 4.18 0 01-1.845-1.387 3.591 3.591 0 012.245.432c1.011-2.472 1.5-4.481.953-6.1-.663-1.983-2.627-3.954-4.843-5.354-2.294-1.447-4.8-2.262-6.352-1.81-1.286.377-1.508 4.057-1.739 7.874-.234 3.878-.476 7.883-2.1 9.571a2.409 2.409 0 01-.57.445c-1.076 2.883-2.45 6.368-2.923 6.758a26.728 26.728 0 011.805-6.552 2.8 2.8 0 01-1.786-1.406 14.671 14.671 0 01-1.617-3.985q-.372-1.345-.7-3.034a6.738 6.738 0 01-3.595-.092 2.983 2.983 0 013.566-.059 105.859 105.859 0 01-1.252-21.868 3.669 3.669 0 01-.873.23 1.882 1.882 0 01-1.179-.177 1.966 1.966 0 012.072-.673q.083-2.4.243-4.955.124-1.946.3-3.728c-.611.162-1.291-.034-1.764-1.021l1.848.2c1.028-9.652 3.127-15.709 5.045-19.807-1.427-.063-1.825-.123-2.578-.892 1.442-.432 1.6-.286 2.589.866.808-1.722 1.582-3.1 2.231-4.25 1-1.768 1.669-2.966 1.636-3.975a2.884 2.884 0 00-.088-.61c-.386-1.493-1.881-2.944-3.616-4.023a10.231 10.231 0 00-5.036-1.736 2.273 2.273 0 00-.48.06c-.636.168-1.025 1.8-1.349 3.936a2.346 2.346 0 011.994.969 4.745 4.745 0 01-2.118-.115c-.089.649-.176 1.329-.263 2.02-.477 3.726-.977 7.683-2.631 9.221a1.7 1.7 0 01-1.874.51c.59 2.5.694 5.409-.182 6.561a33.781 33.781 0 00-.563-5.438c-.154-.7-.511-1.675-.744-2.626a31.369 31.369 0 01-2.348-6.849 2.529 2.529 0 01-2.156.014c1.007-.623 1.339-.773 1.972-.723l-.009-.037a26.984 26.984 0 00-1.342-4.387.6.6 0 00-.2-.219 1.239 1.239 0 00-.87-.064 5.952 5.952 0 00-1.666.668 18.765 18.765 0 00-6.031 5.769c-.8 1.263.211 2.9 1.883 5.607.75 1.213 1.619 2.62 2.51 4.289a4.894 4.894 0 012.84-1.327c-.361.943-.161.754-1.443 1.4-.6.3-.8.45-1.117.456a51.4 51.4 0 015.468 19.577c.471 5.123.82 9.563 1.059 13.408a2.666 2.666 0 012.066.45 3.32 3.32 0 01-2.01.468c.223 3.808.33 7.011.333 9.705a59.116 59.116 0 01-.315 6.751.761.761 0 01-.02.161 17.019 17.019 0 01-.974 4.262c-.622 1.537.844 3.906 2.743 6.272.985-.411 1.319.022 1.319.022-.311.377-.281.583-.665.773.727.865 1.486 1.718 2.2 2.515a22.442 22.442 0 013.24 4.126 29.661 29.661 0 012.34 7.322 44.007 44.007 0 01.625 4.759c.773-.432 1.43-.406 1.848.77l-1.806-.2a71.919 71.919 0 01-.1 10.228c-.126 1.684-.2 3.3-.231 4.826a.81.81 0 010 .1 68.233 68.233 0 001.623 17.559.759.759 0 11-1.466.391 69.733 69.733 0 01-1.683-17.869q-.391-.955-.736-1.931c-.534.288-.834.335-1.717-.12.189-.2-.119-.4.99-.574.178-.028.331-.049.463-.065a69.9 69.9 0 01-2.352-9.268c-.3.393-.14.417-1.143.729l-1.7.033a2.511 2.511 0 012.817-.883c-.623-3.277-1.119-6.686-1.634-10.22q-.207-1.421-.421-2.87l-1.142-.092c.019-.025-.344-.687 1.037-.609-.31-2.056-.639-4.149-1.017-6.278a68.386 68.386 0 01-1.671-1.968c-.458.044-.27-.135-.227-.284-1.7-2.142-3.107-4.367-3.185-6.291a5.7 5.7 0 01-.571.106c-1 .144-1.039-.229-1.29-.372 1.088-.528 1.2-.594 1.9-.48a3.277 3.277 0 01.2-.721 14.9 14.9 0 00.843-3.6 38.852 38.852 0 00-4.267-3.74c-.7-.551-1.339-1.053-1.881-1.54l.029.195a8.35 8.35 0 01.1 3.682c-.085-.09-.2-.014-.439-.62l-.578-4.159a4.47 4.47 0 01-.642-.952 68.575 68.575 0 01-1.947-8.818c-.46-.029-.691-.2-1.065-.806a3.723 3.723 0 01.886-.167c-.793-4.345-1.7-9.733-2.6-15.372a6.219 6.219 0 01-3.009-.515m29.456 55.037c.753-.831.3-.46 1.454-.54-.153.306.767 1.656-1.454.54m3.336 8.813c.721-.945.388-.628 1.773-.606-.171.365.634 1.417-1.773.606m-13.45-33.234c.184-.353-.545-1.527 1.411-.355zM51.042 37.647a3.053 3.053 0 013.556.144l-4.308.944c.5-.986-.8.056.752-1.088m15.459 43.73a2.639 2.639 0 00.539-.134c1.23-.383.461.119.859.346a3 3 0 01-1.344.24c.186-.424-.024-.451-.054-.452m6.057 21.743c.939-.041.43.133.858.331-.766.819-.946.548-1.779.126.436-.384-1.08-.368.921-.457m-24.727-8.732c.419-.833-1.373-.15.824-.772.858-.243.778.22.838.344zm8.24-56.782c1.643-.409.871-.393 1.8.532-1.906.064-.827.453-1.8-.532M93.043 66.78c1.651-.288 2.7.075 3.356 1.567a9.949 9.949 0 01-2.013-.615c-.849-.271-.684.137-1.343-.953M79.93 40.1c.179-.264.628-.373 0 0m-.722.361c-.083.018-.024-.036 0 0m-.134.408c.148-.276.154-.376.134-.408a1.772 1.772 0 00.368-.163c.144-.077.261-.142.354-.2-.1.15-.117.35.2.542zm.574 22.175c.16-.217-.443-.878 1.327-.388-.048.076.619 1.1-1.327.388M53.965 8.9c-1.566.7-.666.454-1.509-.274 1.391-.191.581-.392 1.509.274m1.553 109.561c1.072-.269.675.2.751.239-.833.914-.722.673-1.641.479.385-.579-1.152-.2.89-.718m31.959 28.53c.265-.274-.828-.175.983-.636l2.479.413c-.41.442.868.127-.767.441zM70.001 15.906l-1.67.434c.473-.9-1.41-.12.838-.769.814-.235.78.21.832.335M40.973 74.734c.049-.1-.949-.482 1.151-.944 1.084-.239.9.107 1.194.355zm-8.246-17.592c.605-.61-.434-.327.759-.506.985-.147.878.267.971.313-.461.7-.917.558-1.73.192M19.114 44.926c-.157.587.626.142-.271 1.038-.982.98-.932.075-.947.073.474-.844.139-.6 1.218-1.111m59.58 86.123a3.972 3.972 0 013.277-.563 2.181 2.181 0 01-1.668.85 2.034 2.034 0 01-1.609-.287m.717 25.491c2.182-.571 10.906-2.283 12.592-1.815-1.071 1.09-11.332 2.592-12.592 1.815m6.817-23.755c.7-.654 1.166-.51 2.137-.279-.063.091.466.624-1.155.694-1.1.048-.871-.342-.982-.415m-39.064-24.952c.809-.892 1.086-.7 2.073-.681-.473.737.19.487-.979.839-.74.223-.524-.01-1.094-.158m32.662 32.958c2.092-.494.642-.067 1.194.211a2.021 2.021 0 01-2.341.586c.419-.519.222-.579 1.147-.8m-4.4-8.908c1.157-1.511 1.187-.385 1.428-.294-.779.724-.939.4-1.428.294m13.038-8.017c.925-1.659 1.212-.431 1.32-.385-.587.547.062.754-1.32.385m-6.034 23.219c1.473-.04 1.838.027 2.651.963a2.772 2.772 0 01-1.464.023c-1.255-.372-.45 0-1.187-.986m-7.136 10.949c.407-.354-1.033-.392.948-.469 1.263-.048.234.054.827.344-.435.432 1.122.378-.925.455-1.554.059.066.077-.85-.33M98.37 73.6c1.6-.291 1.192-.64 2.024 1.18-.951-.177-.355.087-1.12-.363-1.084-.636-.267-.208-.9-.817M88.46 13.072c-1.394.036-.664.493-1.654-.64 1.414-.14 1.179-.408 1.654.64M30.277 98.637c.657-1.542.019-.626 1.2-1.56.072 1.53.066 1.838-1.2 1.56M7.994 40.7c-.121.024-.042-.045 0 0m.607-.248c-.04.129.015.3.295.5l-.968.126c.107-.245.1-.341.066-.374a2 2 0 00.372-.137c.09-.04.168-.077.235-.11m0 0c.1-.319.777-.386 0 0m20.527 51.834c.052-1.153-.03-.989.954-1.675.353 1.514.138 1.37-.954 1.675" fill="#bee4f2" fill-rule="evenodd"/></g></g></g><g data-name="Group 8319"><g data-name="Group 8226" clip-path="url(#d)" transform="translate(1589.918 83.353)"><path data-name="Path 1868" d="M92.741 70.76c1.672-.885 1.573-.873 3.439-.633a10.9 10.9 0 011.2.2 1611.34 1611.34 0 01-1.42-9.154 1286.782 1286.782 0 01-2.472-17.02c-.373.037-1.092.075-1.187.066a3.285 3.285 0 01-2.015-.778c.386-.378-.187-.305.853-.6a4.217 4.217 0 012.176.042 747.16 747.16 0 01-1.417-10.951c-3.662.111-3.571.85-5.485-.034a11.175 11.175 0 013.77-1.461 8.512 8.512 0 011.509-.239 146.012 146.012 0 01-1.249-15.021c0-.371 0-.735-.016-1.09l-1.855-.344c.194-.315-1.145-1.2 1.217-.958a1.622 1.622 0 01.552.138A13.038 13.038 0 0086.538 4.7C82.772 1.026 77.272.151 74.781 0c-1.481-.087-3.486 1.2-5.523 3.069a43.639 43.639 0 00-7.339 9.13c-.392.661-.093 2.144.7 4.332a7.1 7.1 0 011.754-.684 5.585 5.585 0 013.293-.014l-4.6 1.876c.953 2.427 2.368 5.541 4.042 9.229.7 1.544 1.446 3.182 2.218 4.913 2.888-1.79 7.453-1.549 9.176.3-2.026.271-2.807-.42-5.03-.106-1.618.227-2.594.717-3.679.851C75.508 45.79 82.581 63.487 85.168 84.28a259.746 259.746 0 004.8 28.039c.087-.067.185-.139.293-.221a5.587 5.587 0 011.42-.72 11.494 11.494 0 013.7-.443l-2.72 1.546a24.7 24.7 0 01-2.45.852 101.226 101.226 0 003.148 10.51 48.146 48.146 0 008.63 15.216 60.363 60.363 0 017.867 12.757 83.813 83.813 0 015.746 18.093c1.909 9.211 1.4 24.745 1.032 36.092-.2 6.078-.357 10.934-.09 12.79a85.978 85.978 0 015.044 11.718 1.222 1.222 0 01-2.329.741 83.035 83.035 0 00-4.878-11.336c-.835.744-.8.5-2.1.091.55-.71-.439-.57 1.29-.978.123-.03.229-.054.323-.074a133.9 133.9 0 00-6.793-11.641c-1.95.348-2.814.525-4.368-.222a3.662 3.662 0 013.663-.849c-1.431-2.153-3-4.39-4.722-6.687a128.464 128.464 0 01-6.058-8.782 4.214 4.214 0 01-2.1-.053c.487-.676.234-.9 1.309-1.229a78.068 78.068 0 01-5.857-11.518 49.148 49.148 0 01-2.6-8.55 3.776 3.776 0 01-.551.3c-3.206 1.464-.971.2-2.118-.319l2.416-1.327a65.072 65.072 0 01-.315-2.065c-.247-1.775.248-4.853.82-8.4.39-2.419.817-5.073 1.064-7.6l-3.81-.779c1.307-1.145 2.544-.973 3.874.072.366-4.318.129-8.135-1.84-9.538-2.048-1.455-4.4-3.934-7.26-7.837a5.919 5.919 0 01-4.866.607 4.536 4.536 0 014.4-1.249 118.085 118.085 0 01-3.73-5.542c-3.438-5.4-7.527-12.494-12.489-21.74l-3.168.206c-.135-.168-.329-.064-.492-.1 1.2-1.117 2.107-1.5 2.986-1.362Q58.616 97.742 55.6 91.9a92.478 92.478 0 01-7.034-17.6 5.354 5.354 0 01-4.77 1.092l2.681-1.592a6.078 6.078 0 011.663-.161l.263.067a78.5 78.5 0 01-2.682-19.237c-2.127.173-2.309.184-3.451-1.572 1.565-.049 2.453-.059 3.429.653q-.018-.985-.03-1.891c-.077-5.117-.122-8.219-2.3-9.237a30.212 30.212 0 00-13.176-2.6 9.546 9.546 0 00-2.839.54 1.982 1.982 0 00-1.122.838.937.937 0 00-.077.468 19.527 19.527 0 00.876 3.654 12.3 12.3 0 014.632-.727c-.8 1.168-2.1 1.479-4.193 2.134.209.655.432 1.345.662 2.052.975 3 2.051 6.313 2.656 9.162 1.977 5.445 4.417 14.013 5.071 16.626-.056-.125-.285-.17-.345-.226-1.687-1.559-3.264-6.136-4.495-10.737-.465 1.522-1.538 2.285-3.457 1.937-1.955-.356-4.064-1.983-6.206-4.144a5.127 5.127 0 01-2.226 1.481c-2.825 1.016-3.024-.306-3.346-.551 2.985-.637 3.72-1.481 5-1.52-1.6-1.675-3.209-3.609-4.78-5.494-1.441-1.732-2.847-3.42-4.1-4.778.008.469-.2.739-1.918 1.494-.243-1.331-.057-1.668 1.022-2.424-1.4-1.407-2.553-2.248-3.254-2.023a3.612 3.612 0 00-.7.334c-1.811 1.073-3.885 3.707-5.324 6.716C.308 57.6-.458 60.858.308 63.217a4.5 4.5 0 00.41.907c.827 1.4 2.781 2.439 5.662 3.973a79.489 79.489 0 0116.8 11.477c.42-.685 1.217-1 2.594-.81l-1.4 1.889a131.01 131.01 0 0116.634 18.874c.831-.721 1.005-.969 2.742-.668-.381.491.984.55-1.588 1.225-.254.067-.461.117-.63.154.012.015.023.033.037.049 9.564 13.069 16.294 24.566 20.418 33.447 1.235-1.676 1.071-1.651 4.013-2.213-2.155 3.487-3.222 3.359-3.708 2.872a75.1 75.1 0 013.485 8.917c.06.2.12.392.176.586a1 1 0 00.287-.485 81.6 81.6 0 013.288 12.471c.582 2.735 2.5 8.755 1.693 11.027l-4.186-16.74c-.037 2.1-.748 3.444-2.1 3.927a3.015 3.015 0 01-1.086.169c-.022 1-.327 1.217-2.778 1.539a14.784 14.784 0 011.329-1.831c-3.49-1.254-7.08-6.192-10.561-10.98l-.085-.115c-.075.021-.155.044-.238.065-1.895.49-.069.3-1.481-.378.383-.273.718-.489 1.011-.66a56.658 56.658 0 00-5.16-6.411c-.541 1.352-.985 1.021-3.225 3.568-1.488 1.7-2.175 3.333-4.307 4.671.357-2.814 4.015-6.993 6.978-8.757-1.03-.907-1.94-1.369-2.672-1.155-2.491.729-5.19 4.008-7.047 7.957-1.795 3.819-2.749 8.193-1.931 11.455.914 3.641 5.043 6.6 10.844 10.267a3.96 3.96 0 011.857-2.463c.058 1.922.267 2.244-.67 3.209l1.445.9c2.165 1.348 4.5 2.8 6.934 4.417.091-1.115.827-1.6 2.507-2.569-.295 2.327.521.623-1.127 2.7-.183.23-.314.387-.424.508a123.801 123.801 0 016.286 4.5c7.543 5.769 17.029 15.832 26.386 28.689q.634.87 1.265 1.759c2.838-2.544 3.173-.6 3.179-.6a14.865 14.865 0 01-1.6.927c-.5.15-.851.264-1.094.345a227.873 227.873 0 0120.894 36.188c.009.014 1.168 2.362 2.681 5.257 2.286-1.386 3.622-2.12 7.165-.926l-1.813.782a19.292 19.292 0 00-4.826 1.147 88.43 88.43 0 004.975 8.568q.039.056.073.116c.4.62 5.222 7.6 17.079 3.336a53.742 53.742 0 017.362-1.948c8.222-1.742 13.122-2.774 10.149-26.309-.924.711-1.232.541-2.518.2.5-.636-.287-.593 1.325-1.094.434-.136.773-.237 1.038-.31q-.081-.6-.165-1.2-.617-4.418-1.044-8.808c-.241.04-.52.078-.844.114a2.03 2.03 0 01-2.132-1.02l2.86-.3q-.275-2.992-.47-5.954c-.394.036-.28-.232-.557-.294.044-.075-.575-1.1.472-1.066-.281-4.7-.411-9.32-.411-13.83-.366.062-.737-.219-1.586-.5.639-.661-1.274-.362 1.516-.869l.074-.013c.027-4.193.168-8.281.407-12.227a188.767 188.767 0 012.514-21.662 28.573 28.573 0 00-2.735-1.45c-1.924-.781-2.582-.328-4.466-1.726a9.766 9.766 0 017.471 1.714 100.012 100.012 0 014.01-15.263q.266-.735.542-1.454c-1.2-.149-1.53-.433-2.211-2.074 1.571-.144 1.848.119 2.488 1.348 1.971-5.081 4.1-9.55 5.986-13.5 1.019-2.136 1.963-4.113 2.764-5.943a6.726 6.726 0 01-2.965-2.22 5.779 5.779 0 013.612.695c1.629-4 2.408-7.231 1.536-9.831-1.066-3.19-4.227-6.362-7.794-8.616-3.691-2.329-7.731-3.64-10.222-2.913-2.07.606-2.427 6.528-2.8 12.671-.376 6.24-.766 12.684-3.387 15.4a3.877 3.877 0 01-.918.717c-1.731 4.639-3.942 10.248-4.7 10.874-.009-1.277 1.157-6.2 2.9-10.544a4.507 4.507 0 01-2.874-2.262 23.608 23.608 0 01-2.6-6.413q-.6-2.165-1.119-4.882a10.842 10.842 0 01-5.784-.147c2.374-1.442 4.166-1.177 5.738-.1-1.553-8.29-2.471-20.266-2.013-35.19a5.9 5.9 0 01-1.4.37 3.028 3.028 0 01-1.9-.285 3.164 3.164 0 013.335-1.09q.134-3.86.392-7.974.2-3.132.482-6c-.983.261-2.077-.055-2.839-1.642l2.973.327c1.655-15.532 5.032-25.279 8.118-31.873-2.3-.1-2.937-.2-4.149-1.435 2.32-.7 2.58-.46 4.167 1.394 1.3-2.77 2.546-4.986 3.59-6.839 1.6-2.845 2.686-4.773 2.633-6.4a4.641 4.641 0 00-.141-.981c-.622-2.4-3.028-4.737-5.819-6.473-2.832-1.76-6-2.865-8.1-2.794a3.658 3.658 0 00-.772.1c-1.024.27-1.65 2.9-2.171 6.334a3.775 3.775 0 013.205 1.561 7.635 7.635 0 01-3.408-.184 265.993 265.993 0 00-.422 3.25c-.759 6-1.565 12.363-4.234 14.837a2.73 2.73 0 01-3.016.821c.95 4.015 1.117 8.7-.293 10.558-.283-3.2-.1-5.131-.907-8.751-.248-1.119-.822-2.695-1.2-4.226-1.506-2.6-2.72-6.973-3.779-11.021a4.07 4.07 0 01-3.47.022c1.62-1 2.155-1.244 3.173-1.164l-.015-.059a43.424 43.424 0 00-2.162-7.059.962.962 0 00-.316-.352 1.994 1.994 0 00-1.4-.1 9.579 9.579 0 00-2.68 1.075 30.2 30.2 0 00-9.7 9.284c-1.291 2.032.339 4.671 3.03 9.023 1.207 1.952 2.6 4.216 4.04 6.9a7.9 7.9 0 014.57-2.136c-.582 1.517-.259 1.213-2.323 2.257-.959.484-1.29.724-1.8.734 3.668 7.067 7.461 16.951 8.8 31.5.757 8.245 1.32 15.388 1.7 21.575a4.291 4.291 0 013.324.725 5.343 5.343 0 01-3.234.754c.359 6.128.531 11.283.536 15.618a95.124 95.124 0 01-.507 10.864 1.226 1.226 0 01-.032.26 27.386 27.386 0 01-1.567 6.859c-1 2.473 1.359 6.285 4.415 10.092 1.585-.661 2.122.036 2.122.036-.5.607-.453.939-1.069 1.244a182.087 182.087 0 003.535 4.048c2.393 2.683 4.466 5.011 5.213 6.639a47.73 47.73 0 013.773 11.786 70.811 70.811 0 011.005 7.657c1.243-.7 2.3-.653 2.974 1.239l-2.906-.326a115.731 115.731 0 01-.164 16.458q-.3 4.063-.372 7.765a1.3 1.3 0 010 .158c-.346 17.351 2.6 28.218 2.612 28.255a1.221 1.221 0 11-2.359.629c-.012-.037-3.023-11.142-2.7-28.754q-.628-1.537-1.185-3.107c-.859.464-1.341.539-2.763-.192.3-.329-.192-.643 1.594-.923.286-.045.533-.08.745-.1a112.487 112.487 0 01-3.785-14.914c-.488.633-.226.672-1.84 1.173l-2.731.052a4.04 4.04 0 014.533-1.421c-1-5.274-1.8-10.759-2.629-16.445q-.333-2.287-.677-4.618l-1.838-.148c.031-.041-.553-1.106 1.669-.98-.5-3.308-1.029-6.677-1.636-10.1-.9-1.028-1.815-2.089-2.689-3.167-.737.07-.434-.217-.365-.457-2.743-3.448-5-7.028-5.125-10.123a9.17 9.17 0 01-.919.171c-1.61.231-1.672-.369-2.076-.6 1.751-.85 1.937-.956 3.061-.773a5.273 5.273 0 01.32-1.16 23.974 23.974 0 001.357-5.791 62.519 62.519 0 00-6.866-6.018c-1.127-.886-2.155-1.7-3.028-2.478l.047.314c.349 2.235.693 3.9.155 5.925-.137-.144-.322-.022-.706-1l-.938-6.686a7.194 7.194 0 01-1.032-1.532c-.566-1.174-1.715-6.53-3.133-14.19-.74-.046-1.112-.324-1.714-1.3a5.991 5.991 0 011.426-.269c-1.276-6.991-2.743-15.662-4.187-24.737a10.007 10.007 0 01-4.842-.829m47.4 88.558c1.211-1.338.486-.739 2.339-.869-.247.492 1.234 2.666-2.339.869m5.367 14.184c1.16-1.52.624-1.011 2.853-.975-.276.587 1.019 2.281-2.853.975m-21.644-53.478c.3-.568-.877-2.457 2.27-.571zM82.135 60.581c2.073-1.525 4.2-.67 5.722.232l-6.932 1.519c.8-1.586-1.294.09 1.209-1.751m24.885 70.369a4.247 4.247 0 00.868-.216c1.979-.617.742.192 1.382.557a4.836 4.836 0 01-2.164.387c.3-.682-.038-.726-.087-.728m9.746 34.989c1.511-.066.692.215 1.381.532-1.232 1.317-1.523.882-2.862.2.7-.618-1.739-.593 1.481-.736m-39.8-14.051c.674-1.34-2.209-.242 1.326-1.242 1.381-.391 1.252.354 1.349.553zm13.264-91.368c2.643-.657 1.4-.632 2.9.856-3.067.1-1.332.73-2.9-.856m59.494 46.945c2.656-.463 4.351.121 5.4 2.522a16.009 16.009 0 01-3.239-.989c-1.366-.436-1.1.22-2.161-1.533m-21.1-42.933c.288-.425 1.011-.6 0 0m-1.162.581c-.133.03-.039-.058 0 0m-.216.657c.238-.445.247-.605.216-.657a2.853 2.853 0 00.592-.263c.232-.124.42-.229.57-.318-.164.241-.188.563.321.872zm.923 35.683c.258-.349-.712-1.414 2.135-.624-.077.122 1 1.762-2.135.624M86.839 14.32c-2.521 1.131-1.072.731-2.428-.442 2.238-.308.935-.631 2.428.442m2.5 176.3c1.725-.433 1.087.319 1.208.385-1.34 1.47-1.162 1.083-2.641.77.62-.931-1.853-.327 1.432-1.155m51.428 45.91c.427-.442-1.333-.281 1.582-1.023l3.99.664c-.659.711 1.4.2-1.234.709zM112.651 25.6l-2.687.7c.762-1.454-2.269-.193 1.348-1.237 1.31-.378 1.255.338 1.339.539m-46.718 94.665c.08-.167-1.527-.776 1.853-1.52 1.745-.385 1.452.172 1.921.572zM52.664 91.959c.974-.982-.7-.526 1.221-.814 1.586-.236 1.412.43 1.563.5-.742 1.12-1.475.9-2.783.31M30.759 72.3c-.253.944 1.008.228-.435 1.67-1.58 1.577-1.5.121-1.524.117.763-1.358.224-.97 1.96-1.787m95.876 138.584c1.336-1.216 3.652-1.229 5.273-.906a3.51 3.51 0 01-2.684 1.367 3.273 3.273 0 01-2.588-.461m1.153 41.019c3.511-.919 17.55-3.674 20.262-2.921-1.723 1.753-18.236 4.172-20.262 2.921m10.97-38.225c1.126-1.053 1.876-.821 3.438-.449-.1.146.75 1-1.858 1.117-1.77.077-1.4-.551-1.58-.668m-62.865-40.156c1.3-1.436 1.748-1.133 3.335-1.1-.761 1.186.305.784-1.575 1.349-1.191.358-.843-.016-1.76-.254m52.56 53.04c3.366-.794 1.033-.108 1.921.34-1.576 1.37-2.23 1.337-3.768.942.674-.835.357-.931 1.846-1.283m-7.087-14.334c1.861-2.432 1.911-.619 2.3-.474-1.254 1.165-1.512.649-2.3.474m20.98-12.9c1.489-2.669 1.951-.693 2.123-.62-.945.879.1 1.214-2.123.62m-9.71 37.364c2.371-.064 2.958.044 4.266 1.55a4.461 4.461 0 01-2.356.037c-2.019-.6-.725-.006-1.91-1.587m-11.47 17.614c.655-.57-1.661-.631 1.525-.755 2.032-.078.376.088 1.331.554-.7.7 1.8.608-1.488.733-2.5.094.107.124-1.368-.532m37.128-135.871c2.582-.468 1.919-1.03 3.258 1.9-1.53-.285-.571.14-1.8-.584-1.744-1.024-.43-.334-1.455-1.315m-15.953-97.4c-2.243.058-1.069.793-2.661-1.03 2.275-.226 1.9-.657 2.661 1.03m-93.62 137.7c1.058-2.481.03-1.007 1.936-2.51.116 2.463.107 2.957-1.936 2.51M12.867 65.5c-.2.039-.067-.072 0 0m.977-.4c-.064.207.024.479.474.8l-1.558.2c.172-.394.156-.549.106-.6a3.22 3.22 0 00.6-.221c.144-.064.27-.123.378-.178m0 0c.159-.514 1.251-.622 0 0m33.032 83.419c.084-1.856-.048-1.591 1.536-2.7.568 2.436.222 2.2-1.536 2.7" fill="#bee4f2" fill-rule="evenodd"/></g></g></g><g data-name="Group 8316" transform="translate(47.844 -.005)" opacity=".357" clip-path="url(#e)"><path data-name="Rectangle 4202" transform="rotate(-53.98 90.018 180.381)" fill="url(#f)" d="M0 0h314.214v314.288H0z"/></g></g><g data-name="Group 8317" opacity=".183"><g data-name="Group 8088"><g data-name="Group 8087" clip-path="url(#g)" transform="translate(388 308.827)"><path data-name="Rectangle 4096" transform="rotate(-61.324 14.498 25.555)" fill="url(#a)" d="M0 0h52.603v58.197H0z"/></g></g><g data-name="Group 8094"><g data-name="Group 8093" clip-path="url(#h)" transform="translate(479.275 352.181)"><path data-name="Rectangle 4099" transform="rotate(-61.324 14.502 25.498)" fill="url(#i)" d="M0 0h52.575v58.168H0z"/></g></g><g data-name="Group 8100"><g data-name="Group 8099" clip-path="url(#j)" transform="translate(518.123 203.353)"><path data-name="Rectangle 4102" transform="rotate(-61.324 14.502 25.556)" fill="url(#k)" d="M0 0h52.629v58.228H0z"/></g></g><g data-name="Group 8148"><g data-name="Group 8147" clip-path="url(#l)" transform="translate(605.557 160.991)"><path data-name="Rectangle 4126" transform="rotate(-61.307 20.481 34.498)" fill="url(#m)" d="M0 0h71.461v78.218H0z"/></g></g><g data-name="Group 8156"><g data-name="Group 8155" clip-path="url(#n)" transform="translate(704.026 114.965)"><path data-name="Rectangle 4130" transform="rotate(-61.324 13.864 23.981)" fill="url(#o)" d="M0 0h46.213v47.56H0z"/></g></g><g data-name="Group 8161" transform="translate(648.554 43.658)" clip-path="url(#p)"><path data-name="Rectangle 4133" transform="rotate(-70.984 28.894 40.522)" fill="url(#q)" d="M0 0h71.347v59.247H0z"/></g></g></g></svg>