<svg xmlns="http://www.w3.org/2000/svg" xmlns:xlink="http://www.w3.org/1999/xlink" width="445" height="124"><defs><clipPath id="b"><path data-name="Rectangle 4217" transform="translate(566 742)" fill="#fff" stroke="#707070" d="M0 0h445v124H0z"/></clipPath><clipPath id="c"><path data-name="Path 1626" d="M233.868 109.986c1.391.544 10.5 3.3 12.419 8.367 1.624 4.363-.889 8.515-2.337 10.548l8.275-5.2a19.042 19.042 0 01-.946 9.306 19.477 19.477 0 01-5.486 7.6s-2.732-9.369-3.791-9.793a7.7 7.7 0 01-3.841 9.249c-4.794 2.506-10.59.84-15.384-.974-11.226-4.279-10.922-15.279-14.926-20.157-1.737-2.069-2.619-2.069-2.259-3.036.36-.946 1-.346 3.678-.777 5-.784 10.541-6.333 18.336-6.333a17.567 17.567 0 016.263 1.193" transform="translate(-205.512 -108.793)" fill="none"/></clipPath><clipPath id="d"><path data-name="Path 1629" d="M246.765 116.132c1.419.53 10.555 3.283 12.447 8.345 1.645 4.37-.918 8.529-2.309 10.555l8.275-5.2a18.25 18.25 0 01-6.439 16.917s-2.725-9.376-3.784-9.793a7.685 7.685 0 01-3.876 9.235c-4.766 2.506-10.612.861-15.349-.981-11.226-4.243-10.915-15.271-14.961-20.136-1.723-2.076-2.591-2.055-2.252-3.036.353-.932 1.031-.36 3.707-.763 4.992-.784 10.52-6.34 18.286-6.34a17.4 17.4 0 016.255 1.2" transform="translate(-218.444 -114.932)" fill="none"/></clipPath><clipPath id="f"><path data-name="Path 1632" d="M252.252 95.047c1.447.544 10.562 3.29 12.483 8.374 1.673 4.363-.918 8.508-2.344 10.541l8.3-5.2a18.887 18.887 0 01-1.024 9.291 18.486 18.486 0 01-5.38 7.6s-2.782-9.369-3.848-9.771a7.668 7.668 0 01-3.841 9.221c-4.815 2.535-10.619.854-15.406-.946-11.2-4.286-10.922-15.286-14.9-20.164-1.758-2.083-2.648-2.069-2.259-3.043.367-.932 1.009-.367 3.707-.77 4.978-.784 10.513-6.34 18.272-6.333a17.305 17.305 0 016.241 1.193" transform="translate(-223.942 -93.854)" fill="none"/></clipPath><clipPath id="h"><path data-name="Path 1669" d="M281.68 91.793c9.63 7.046 17.792 13 17.792 13s-5.189 1.172-16.5-8.077a16.812 16.812 0 00-8.239-3.608c-.021 0-8.1-.9-4.321 3.523 3.22 3.735 7.583 6.644 8.211 11.424.41 2.867-1.44 8.211-5.959 10.7l11.2-2.93a23.021 23.021 0 01-14.064 17.857l.219-11.614c-2.7 4.561-10.308 12.44-12.13 11.021-2.768-2.189-4.2-8.042-6.326-12.236-1.913 2.415-3.622 4.307-3.883 4.109-9.277-7.265-7.569-14.629-9.757-28.037-1.108-3.036-2.111-3.311-1.313-4.349.791-.981 1.313-.085 4.483.3 7.526.9 15.829-3.05 26.448-4.723a18.286 18.286 0 013.227-.3 17.96 17.96 0 0110.908 3.94" transform="translate(-236.326 -87.853)" fill="none"/></clipPath><clipPath id="j"><path data-name="Path 1673" d="M253.69 82.068a20.283 20.283 0 006.255-.219c4.6-.579 9.976-1.165 15.173 3.333 1.01.868 7.548 5.8 7.6 10.463.064 4.031-3.276 6.623-5 7.865l8.232-1.751a15.715 15.715 0 01-10.181 11.777s.53-8.4-.212-9.044a6.581 6.581 0 01-5.839 6.333c-4.639.628-8.84-2.457-12.2-5.338-7.809-6.785-4.314-15.61-6.135-20.75-.762-2.182-1.462-2.45-.911-3.121a.7.7 0 01.537-.282c.445 0 1.094.424 2.683.734" transform="translate(-250.273 -81.334)" fill="none"/></clipPath><clipPath id="l"><path data-name="Path 1676" d="M267.806 90.325c5.451 11.452 2.408 28.114 2.408 28.114l10.061 5.2s-1.363 4.822-5.359 6.778c-3.94 1.949-8.592.141-8.592.141l1.97-11.169s-14.417-8.691-19.875-18.145c-9.743-16.973-5.521-28.128-1.942-29.837a2.38 2.38 0 01.981-.169c3.488 0 13.189 4.137 20.348 19.091" transform="translate(-242.416 -71.234)" fill="none"/></clipPath><linearGradient id="a" x1="-27.526" y1="-2.117" x2="-27.392" y2="-2.117" gradientUnits="objectBoundingBox"><stop offset="0" stop-color="#2883c0"/><stop offset="1" stop-color="#005179"/></linearGradient><linearGradient id="e" x1="-29.278" y1="-1.373" x2="-29.144" y2="-1.373" xlink:href="#a"/><linearGradient id="g" x1="-29.985" y1="-3.927" x2="-29.851" y2="-3.927" xlink:href="#a"/><linearGradient id="i" x1="-23.289" y1="-3.254" x2="-23.19" y2="-3.254" xlink:href="#a"/><linearGradient id="k" x1="-38.129" y1="-6.801" x2="-37.976" y2="-6.801" xlink:href="#a"/><linearGradient id="m" x1="-23.781" y1="-6.315" x2="-23.682" y2="-6.315" xlink:href="#a"/></defs><g transform="translate(-566 -742)" clip-path="url(#b)"><g data-name="bgpopup" opacity=".183"><g data-name="Group 8088"><g data-name="Group 8087" transform="rotate(-37 1685.343 -987.36)" clip-path="url(#c)"><path data-name="Rectangle 4096" transform="rotate(-118.676 21.356 23.782)" fill="url(#a)" d="M0 0h52.603v58.197H0z"/></g></g><g data-name="Group 8094"><g data-name="Group 8093" transform="rotate(-37 1795.777 -872.565)" clip-path="url(#d)"><path data-name="Rectangle 4099" transform="rotate(-118.676 21.352 23.764)" fill="url(#e)" d="M0 0h52.575v58.168H0z"/></g></g><g data-name="Group 8100"><g data-name="Group 8099" transform="rotate(-37 1592.78 -740.126)" clip-path="url(#f)"><path data-name="Rectangle 4102" transform="rotate(-118.676 21.356 23.795)" fill="url(#g)" d="M0 0h52.629v58.228H0z"/></g></g><g data-name="Group 8148"><g data-name="Group 8147" transform="rotate(-37 1581.281 -564.042)" clip-path="url(#h)"><path data-name="Rectangle 4126" transform="rotate(-118.69 28.841 32.54)" fill="url(#i)" d="M0 0h71.478v78.236H0z"/></g></g><g data-name="Group 8156"><g data-name="Group 8155" transform="rotate(-37 1547.995 -434.918)" clip-path="url(#j)"><path data-name="Rectangle 4130" transform="rotate(-118.676 17.958 21.424)" fill="url(#k)" d="M0 0h46.213v47.56H0z"/></g></g><g data-name="Group 8161" transform="rotate(-37 1414.777 -478.906)" clip-path="url(#l)"><path data-name="Rectangle 4133" transform="rotate(-109.016 26.702 36.73)" fill="url(#m)" d="M0 0h71.347v59.247H0z"/></g></g></g></svg>