<svg xmlns="http://www.w3.org/2000/svg" width="299.602" height="36.234"><g data-name="Group 7821"><path data-name="Path 1423" d="M297.709 16.734c-7.3 0-10.929-3.621-14.436-7.122-3.248-3.243-6.315-6.306-12.462-6.306s-9.213 3.063-12.461 6.306c-3.508 3.5-7.134 7.122-14.436 7.122s-10.927-3.621-14.434-7.122c-3.247-3.243-6.314-6.306-12.459-6.306s-9.213 3.063-12.46 6.306c-3.507 3.5-7.132 7.122-14.433 7.122s-10.926-3.621-14.433-7.122c-3.247-3.243-6.314-6.306-12.46-6.306s-9.212 3.063-12.459 6.305c-3.507 3.5-7.132 7.123-14.433 7.123s-10.934-3.621-14.434-7.122c-3.246-3.243-6.313-6.306-12.457-6.306s-9.212 3.063-12.458 6.306c-3.506 3.5-7.132 7.122-14.43 7.122s-10.924-3.621-14.43-7.122c-3.246-3.243-6.312-6.306-12.456-6.306S46.466 6.369 43.22 9.612c-3.506 3.5-7.132 7.122-14.431 7.122s-10.924-3.621-14.43-7.122C11.113 6.369 8.047 3.306 1.903 3.306a1.403 1.403 0 010-2.806c7.3 0 10.923 3.621 14.429 7.122 3.246 3.243 6.312 6.306 12.457 6.306S38 10.865 41.246 7.622C44.752 4.122 48.378.5 55.678.5s10.923 3.621 14.429 7.122c3.246 3.243 6.312 6.306 12.457 6.306s9.211-3.063 12.457-6.305C98.527 4.123 102.153.5 109.453.5s10.925 3.621 14.431 7.123c3.246 3.242 6.312 6.305 12.457 6.305s9.212-3.063 12.459-6.306C152.307 4.122 155.932.5 163.233.5s10.927 3.621 14.434 7.122c3.247 3.243 6.314 6.306 12.459 6.306s9.212-3.063 12.459-6.305C206.092 4.123 209.717.5 217.019.5s10.926 3.621 14.433 7.122c3.247 3.243 6.314 6.306 12.46 6.306s9.215-3.063 12.464-6.306C259.883 4.122 263.509.5 270.81.5s10.928 3.621 14.435 7.122c3.248 3.243 6.316 6.306 12.464 6.306a1.403 1.403 0 010 2.806" fill="#47b6c8" stroke="rgba(0,0,0,0)" stroke-miterlimit="10"/></g><g data-name="Group 7822"><path data-name="Path 1423" d="M297.709 35.734c-7.3 0-10.929-3.621-14.436-7.122-3.248-3.243-6.315-6.306-12.462-6.306s-9.213 3.063-12.461 6.306c-3.508 3.5-7.134 7.122-14.436 7.122s-10.927-3.621-14.434-7.122c-3.247-3.243-6.314-6.306-12.459-6.306s-9.213 3.063-12.46 6.306c-3.507 3.5-7.132 7.122-14.433 7.122s-10.926-3.621-14.433-7.122c-3.247-3.243-6.314-6.306-12.46-6.306s-9.212 3.063-12.459 6.305c-3.507 3.5-7.132 7.123-14.433 7.123s-10.934-3.621-14.434-7.122c-3.246-3.243-6.313-6.306-12.457-6.306s-9.212 3.063-12.458 6.306c-3.506 3.5-7.132 7.122-14.43 7.122s-10.924-3.621-14.43-7.122c-3.246-3.243-6.312-6.306-12.456-6.306s-9.212 3.063-12.458 6.306c-3.506 3.5-7.132 7.122-14.431 7.122s-10.924-3.621-14.43-7.122c-3.246-3.243-6.312-6.306-12.456-6.306a1.403 1.403 0 010-2.806c7.3 0 10.923 3.621 14.429 7.122 3.246 3.243 6.312 6.306 12.457 6.306S38 29.865 41.246 26.622c3.506-3.5 7.132-7.122 14.432-7.122s10.923 3.621 14.429 7.122c3.246 3.243 6.312 6.306 12.457 6.306s9.211-3.063 12.457-6.305c3.506-3.5 7.132-7.123 14.432-7.123s10.925 3.621 14.431 7.123c3.246 3.242 6.312 6.305 12.457 6.305s9.212-3.063 12.459-6.306c3.507-3.5 7.132-7.122 14.433-7.122s10.927 3.621 14.434 7.122c3.247 3.243 6.314 6.306 12.459 6.306s9.212-3.063 12.459-6.305c3.507-3.5 7.132-7.123 14.434-7.123s10.926 3.621 14.433 7.122c3.247 3.243 6.314 6.306 12.46 6.306s9.215-3.063 12.464-6.306c3.507-3.5 7.133-7.122 14.434-7.122s10.928 3.621 14.435 7.122c3.248 3.243 6.316 6.306 12.464 6.306a1.403 1.403 0 010 2.806" fill="#47b6c8" stroke="rgba(0,0,0,0)" stroke-miterlimit="10"/></g></svg>