<svg xmlns="http://www.w3.org/2000/svg" width="285.425" height="238.509"><defs><clipPath id="a"><path data-name="Rectangle 4199" fill="none" d="M0 0h285.425v238.509H0z"/></clipPath><clipPath id="b"><path data-name="Rectangle 4198" fill="none" d="M0 0h285.425v238.51H0z"/></clipPath><clipPath id="c"><path data-name="Rectangle 4183" fill="none" d="M0 0h274.629v238.51H0z"/></clipPath><clipPath id="d"><path data-name="Rectangle 4184" fill="none" d="M0 0h215.14v186.845H0z"/></clipPath><clipPath id="e"><path data-name="Rectangle 4185" fill="none" d="M0 0h17.674v17.674H0z"/></clipPath><clipPath id="f"><path data-name="Rectangle 4186" fill="none" d="M0 0h20.495v20.494H0z"/></clipPath><clipPath id="g"><path data-name="Rectangle 4187" fill="none" d="M0 0h26.469v26.469H0z"/></clipPath><clipPath id="h"><path data-name="Rectangle 4191" fill="none" d="M0 0h62.219v16.806H0z"/></clipPath><clipPath id="i"><path data-name="Rectangle 4192" fill="none" d="M0 0h98.397v73.025H0z"/></clipPath><clipPath id="j"><path data-name="Rectangle 4193" fill="none" d="M0 0h98.025v42.258H0z"/></clipPath><clipPath id="k"><path data-name="Rectangle 4194" fill="none" d="M0 0h83.205v49.903H0z"/></clipPath><clipPath id="l"><path data-name="Rectangle 4195" fill="none" d="M0 0h61.105v33.961H0z"/></clipPath></defs><g data-name="Group 8310"><g data-name="Group 8309" clip-path="url(#a)"><g data-name="Group 8308" clip-path="url(#b)" transform="translate(0 -.001)"><g data-name="Group 8280"><g data-name="Group 8279"><g data-name="Group 8278" clip-path="url(#c)" transform="translate(10.796)" opacity=".41"><path data-name="Path 2472" d="M274.49 152.224a82.123 82.123 0 00-.376-13.981c-2.469-21.786-13.646-42.331-30.1-56.827-5.868-5.171-12.546-9.8-16.367-16.63-6.431-11.5-5.945-24.708-13.929-36.059a67.523 67.523 0 00-32.771-24.779c-39.163-13.57-93.991 8.526-89.056 55.711.018.169.037.415.058.727a17.177 17.177 0 01-16.828 18.275c-36.133.858-67.236 28.716-73.892 64.006-4.279 22.693 2.727 47.569 19.327 63.623 12.4 11.985 29.022 18.569 45.656 23.092 33.353 9.07 68.452 10.972 102.842 7.5 32.192-3.247 66.147-12.5 86.966-37.268a81.33 81.33 0 0018.47-47.394" fill="#c5d9ff"/></g></g></g><g data-name="Group 8283"><g data-name="Group 8282"><g data-name="Group 8281" clip-path="url(#d)" transform="translate(40.541 35.198)" opacity=".88"><path data-name="Path 2473" d="M215.031 119.25a64.23 64.23 0 00-.294-10.953 70.791 70.791 0 00-23.578-44.517c-4.6-4.052-9.829-7.681-12.822-13.029-5.038-9.006-4.657-19.355-10.911-28.248a52.9 52.9 0 00-25.675-19.41C111.072-7.538 68.118 9.771 71.985 46.734c.014.132.03.324.046.569a13.456 13.456 0 01-13.182 14.316c-28.306.671-52.672 22.5-57.886 50.14-3.352 17.778 2.138 37.265 15.143 49.842 9.708 9.389 22.733 14.546 35.764 18.09 26.128 7.105 53.623 8.6 80.564 5.878 25.218-2.544 51.819-9.794 68.128-29.2a63.707 63.707 0 0014.469-37.127" fill="#c5d9ff"/></g></g></g><g data-name="Group 8286"><g data-name="Group 8285"><g data-name="Group 8284" clip-path="url(#e)" transform="translate(259.858 26.361)" opacity=".31"><path data-name="Path 2474" d="M17.674 8.836A8.837 8.837 0 118.837-.001a8.837 8.837 0 018.837 8.837" fill="#c5d9ff"/></g></g></g><g data-name="Group 8289"><g data-name="Group 8288"><g data-name="Group 8287" clip-path="url(#f)" transform="translate(64.357 14.703)" opacity=".31"><path data-name="Path 2475" d="M20.494 10.247A10.247 10.247 0 1110.247-.002a10.247 10.247 0 0110.247 10.249" fill="#c5d9ff"/></g></g></g><g data-name="Group 8292"><g data-name="Group 8291"><g data-name="Group 8290" clip-path="url(#g)" transform="translate(0 208.555)" opacity=".31"><path data-name="Path 2476" d="M26.47 13.234A13.235 13.235 0 1113.235-.001 13.235 13.235 0 0126.47 13.234" fill="#c5d9ff"/></g></g></g><path data-name="Path 2477" d="M164.569 70.457a46.907 46.907 0 11-46.907-46.907 46.907 46.907 0 0146.907 46.907" fill="#af9cda"/><path data-name="Path 2478" d="M150.232 104.236a.448.448 0 01-.317-.765 46.458 46.458 0 10-65.7-65.7.448.448 0 01-.634-.634 47.355 47.355 0 1166.97 66.97.45.45 0 01-.317.131" fill="#243762"/><path data-name="Path 2479" d="M153.356 70.457a35.695 35.695 0 11-35.7-35.7 35.7 35.7 0 0135.7 35.7" fill="#fff"/><path data-name="Path 2480" d="M117.661 106.6a36.142 36.142 0 010-72.285.45.45 0 110 .9 35.246 35.246 0 000 70.492.45.45 0 110 .9" fill="#243762"/><path data-name="Path 2481" d="M126.909 77.279h-9.71a3.617 3.617 0 01-3.612-3.612V60.203a3.138 3.138 0 116.275 0v10.8h7.048a3.138 3.138 0 110 6.275" fill="#243762"/><path data-name="Path 2482" d="M44.837 86.75l50.53 50.53a25.309 25.309 0 0035.793 0l6.041-6.042a5.84 5.84 0 000-8.26l-20.618-20.619a5.841 5.841 0 00-8.261 0l-10.309 10.309a2.066 2.066 0 01-2.921 0l-25-25a2.038 2.038 0 010-2.883l10.162-10.17a5.843 5.843 0 000-8.26L59.073 45.176a5.84 5.84 0 00-8.187-.071l-5.738 5.54a25.309 25.309 0 00-.314 36.1" fill="#243762"/><path data-name="Path 2483" d="M46.418 51.665l28.393 28.393.969-.974 4.469-4.468a5.84 5.84 0 000-8.26L59.08 45.176a5.84 5.84 0 00-8.187-.072l-5.738 5.54z" fill="#ecf1f7"/><path data-name="Path 2484" d="M74.811 80.692L46.119 51.999l-1.645-1.322 6.1-5.894a6.319 6.319 0 018.816.077l21.18 21.179a6.294 6.294 0 010 8.893zM45.828 50.615l.907.732 28.076 28.079 5.125-5.125a5.389 5.389 0 000-7.625L58.758 45.494a5.418 5.418 0 00-7.56-.065z" fill="#243762"/><path data-name="Path 2485" d="M104.177 108.45l28.392 28.392.973-.973 4.469-4.468a5.84 5.84 0 000-8.26l-21.178-21.178a5.84 5.84 0 00-8.187-.072l-5.738 5.54z" fill="#ecf1f7"/><path data-name="Path 2486" d="M132.57 137.477l-28.69-28.693-1.647-1.323 6.1-5.894a6.32 6.32 0 018.816.077l21.178 21.178a6.291 6.291 0 010 8.894zm-28.983-30.076l.907.732 28.075 28.076 5.126-5.125a5.395 5.395 0 000-7.626l-21.178-21.178a5.419 5.419 0 00-7.56-.066z" fill="#243762"/><path data-name="Line 16" fill="#ecf1f7" d="M48.593 48.317l17.301 17.301"/><path data-name="Path 2487" d="M65.894 66.067a.45.45 0 01-.317-.131l-17.3-17.3a.448.448 0 01.634-.634l17.3 17.3a.448.448 0 01-.316.765" fill="#243762"/><path data-name="Line 17" fill="#ecf1f7" d="M117.409 117.133l17.301 17.3"/><path data-name="Path 2488" d="M134.709 134.88a.45.45 0 01-.317-.131l-17.3-17.3a.448.448 0 11.634-.634l17.3 17.3a.448.448 0 01-.317.765" fill="#243762"/><path data-name="Path 2489" d="M210.627 223.316l-66.24-9.8a13.709 13.709 0 01-11.555-15.568l23.757-160.611a13.709 13.709 0 0115.571-11.554l66.24 9.8a13.708 13.708 0 0111.555 15.568l-23.76 160.61a13.708 13.708 0 01-15.567 11.556" fill="#243762"/><path data-name="Rectangle 4188" fill="#ecf1f7" d="M139.328 192.449l22.435-151.672 82.24 12.165-22.435 151.672z"/><path data-name="Rectangle 4189" fill="#af9cda" d="M160.079 52.159l1.683-11.381 82.24 12.164-1.684 11.382z"/><path data-name="Path 2490" d="M179.059 213.317a5.368 5.368 0 115.306-4.583 5.356 5.356 0 01-5.306 4.583m-.014-9.84a4.486 4.486 0 10.665.049 4.632 4.632 0 00-.665-.049" fill="#ecf1f7"/><path data-name="Path 2491" d="M190.942 39.329a1.745 1.745 0 01-.254-.019 1.726 1.726 0 111.961-1.457 1.729 1.729 0 01-1.707 1.473m0-2.556a.828.828 0 10.124.009.981.981 0 00-.124-.009" fill="#ecf1f7"/><path data-name="Path 2492" d="M217.661 43.279a1.653 1.653 0 01-.256-.019l-20.981-3.1a1.726 1.726 0 11.5-3.415l20.981 3.1a1.726 1.726 0 01-.248 3.433m-20.986-5.659a.83.83 0 00-.121 1.65l20.981 3.1a.83.83 0 10.243-1.641l-20.981-3.1a.806.806 0 00-.122-.009" fill="#ecf1f7"/><path data-name="Path 2493" d="M221.908 158.208l-57.369-8.486a1.71 1.71 0 00-1.942 1.441l-2.2 14.883a1.71 1.71 0 001.441 1.942l49.047 7.255 5.054 6.969.9-6.089 2.368.35a1.71 1.71 0 001.942-1.441l2.2-14.883a1.71 1.71 0 00-1.441-1.942" fill="#c5d9ff"/><path data-name="Path 2494" d="M210.886 175.691a.412.412 0 01-.066-.005l-49.047-7.255a2.156 2.156 0 01-1.82-2.45l2.2-14.883a2.151 2.151 0 012.451-1.819l13.258 1.962a.448.448 0 11-.132.886l-13.257-1.962a1.267 1.267 0 00-1.432 1.065l-2.2 14.882a1.262 1.262 0 001.064 1.432l49.048 7.256a.448.448 0 01-.065.891" fill="#243762"/><path data-name="Path 2495" d="M231.03 96.537l-57.369-8.486a1.71 1.71 0 00-1.942 1.441l-2.2 14.883a1.71 1.71 0 001.441 1.942l49.048 7.255 5.053 6.969.9-6.089 2.368.35a1.71 1.71 0 001.942-1.441l2.2-14.883a1.71 1.71 0 00-1.441-1.942" fill="#c5d9ff"/><path data-name="Path 2496" d="M225.342 121.691l-5.587-7.7-48.862-7.226a2.161 2.161 0 01-1.819-2.451.452.452 0 01.509-.377.447.447 0 01.377.508 1.264 1.264 0 001.063 1.433l49.235 7.282 4.519 6.232.8-5.445 2.812.416a1.261 1.261 0 001.432-1.063l1.465-9.9a.448.448 0 01.886.131l-1.464 9.9a2.158 2.158 0 01-2.451 1.819l-1.924-.284z" fill="#243762"/><path data-name="Path 2497" d="M158.414 115.714l57.369 8.486a1.71 1.71 0 011.441 1.942l-2.2 14.883a1.71 1.71 0 01-1.942 1.441l-49.048-7.255-6.854 5.208.9-6.088-2.368-.35a1.71 1.71 0 01-1.441-1.942l2.2-14.883a1.71 1.71 0 011.942-1.441" fill="#af9cda"/><path data-name="Path 2498" d="M213.336 142.932a2.156 2.156 0 01-.321-.024l-30.617-4.528a.448.448 0 01.131-.886l30.618 4.528a1.262 1.262 0 001.432-1.063l2.2-14.884a1.264 1.264 0 00-1.064-1.432.448.448 0 11.132-.887 2.161 2.161 0 011.819 2.451l-2.2 14.883a2.16 2.16 0 01-2.13 1.843" fill="#243762"/><path data-name="Rectangle 4190" fill="#fff" d="M139.329 192.449l2.064-13.954 82.24 12.164-2.065 13.955z"/><path data-name="Path 2499" d="M153.529 187.295a5 5 0 11-4.217-5.68 5 5 0 014.217 5.68" fill="#c5d9ff"/><g data-name="Group 8295"><g data-name="Group 8294"><g data-name="Group 8293" clip-path="url(#h)" transform="translate(156.421 184.046)" opacity=".33"><path data-name="Path 2500" d="M57.762 16.806a4.386 4.386 0 01-.655-.049l-53.3-7.884A4.46 4.46 0 115.112.05l53.3 7.884a4.46 4.46 0 01-.65 8.872m-.524-.935a3.564 3.564 0 003.383-5.651 3.537 3.537 0 00-2.34-1.4L4.981.936a3.564 3.564 0 10-1.042 7.051z" fill="#af9cda"/></g></g></g><path data-name="Path 2501" d="M166.878 48.959a1.8 1.8 0 01-.257-.019 1.754 1.754 0 01-.789-3.145 1.736 1.736 0 011.3-.327 1.755 1.755 0 01-.256 3.491m0-2.614a.859.859 0 00-.124 1.708.861.861 0 00.975-.724.859.859 0 00-.723-.974.891.891 0 00-.128-.01" fill="#fff"/><path data-name="Path 2502" d="M171.733 49.676a1.823 1.823 0 01-.261-.019 1.754 1.754 0 11.261.019m0-2.614a.858.858 0 00-.125 1.708.86.86 0 10.252-1.7.865.865 0 00-.126-.009" fill="#fff"/><path data-name="Path 2503" d="M176.488 50.382a1.805 1.805 0 01-.258-.019 1.756 1.756 0 11.258.019m0-2.615a.859.859 0 00-.124 1.708.859.859 0 10.124-1.708" fill="#fff"/><path data-name="Path 2504" d="M243.434 64.937a.563.563 0 01-.066 0l-76.126-11.26a.448.448 0 11.131-.887l76.126 11.259a.448.448 0 01-.065.892" fill="#243762"/><path data-name="Path 2505" d="M211.698 161.636a.422.422 0 01-.066-.005l-40.618-6.007a.447.447 0 01-.377-.508.441.441 0 01.509-.377l40.618 6.007a.448.448 0 01-.065.891" fill="#fff"/><path data-name="Path 2506" d="M187.655 163.031a.422.422 0 01-.066-.005l-17.287-2.556a.448.448 0 11.131-.887l17.288 2.557a.448.448 0 01-.065.891" fill="#fff"/><path data-name="Path 2507" d="M181.826 166.805a.42.42 0 01-.066-.005l-12.133-1.795a.448.448 0 11.132-.886l12.133 1.795a.448.448 0 01-.065.891" fill="#fff"/><path data-name="Path 2508" d="M210.981 166.481a.42.42 0 01-.066-.005l-17.866-2.642a.448.448 0 11.132-.886l17.866 2.642a.448.448 0 01-.065.891" fill="#fff"/><path data-name="Path 2509" d="M206.739 127.929a.424.424 0 01-.066-.005l-40.618-6.007a.448.448 0 01-.378-.508.442.442 0 01.509-.377l40.619 6.007a.448.448 0 01-.065.891" fill="#fff"/><path data-name="Path 2510" d="M182.691 129.324a.422.422 0 01-.066-.005l-17.287-2.556a.448.448 0 11.131-.887l17.288 2.557a.448.448 0 01-.065.891" fill="#fff"/><path data-name="Path 2511" d="M200.655 136.617a.457.457 0 01-.069-.005l-35.055-5.438a.448.448 0 11.137-.886l35.055 5.438a.448.448 0 01-.068.891" fill="#fff"/><path data-name="Path 2512" d="M206.022 132.776a.422.422 0 01-.066-.005l-17.866-2.642a.448.448 0 11.132-.886l17.866 2.642a.448.448 0 01-.065.891" fill="#fff"/><path data-name="Path 2513" d="M165.781 59.763l57.369 8.486a1.71 1.71 0 011.441 1.942l-2.2 14.883a1.71 1.71 0 01-1.942 1.441l-49.048-7.255-6.854 5.208.9-6.088-2.367-.35a1.71 1.71 0 01-1.441-1.942l2.2-14.883a1.71 1.71 0 011.942-1.441" fill="#af9cda"/><path data-name="Path 2514" d="M222.39 85.521a.562.562 0 01-.066 0 .448.448 0 01-.377-.509l2.2-14.883a1.261 1.261 0 00-1.064-1.432l-35.619-5.269a.447.447 0 01-.377-.509.454.454 0 01.509-.377l35.619 5.268a2.159 2.159 0 011.819 2.451l-2.2 14.883a.448.448 0 01-.443.383" fill="#243762"/><path data-name="Path 2515" d="M214.107 71.977a.561.561 0 01-.066 0l-40.618-6.008a.448.448 0 11.131-.887l40.619 6.007a.448.448 0 01-.065.892" fill="#fff"/><path data-name="Path 2516" d="M190.059 73.374a.563.563 0 01-.066 0l-17.287-2.557a.448.448 0 11.131-.886l17.288 2.556a.448.448 0 01-.065.892" fill="#fff"/><path data-name="Path 2517" d="M208.023 80.666a.46.46 0 01-.07-.005l-35.055-5.438a.448.448 0 01.137-.886l35.055 5.438a.448.448 0 01-.067.891" fill="#fff"/><path data-name="Path 2518" d="M213.389 76.828a.56.56 0 01-.066 0l-17.866-2.643a.448.448 0 01.132-.887l17.866 2.63a.448.448 0 01-.065.892" fill="#fff"/><path data-name="Path 2519" d="M220.856 100.536a.563.563 0 01-.066 0l-40.618-6.008a.448.448 0 11.131-.886l40.619 6.007a.448.448 0 01-.065.892" fill="#fff"/><path data-name="Path 2520" d="M196.809 101.931a.562.562 0 01-.066 0l-17.287-2.557a.449.449 0 01.131-.887l17.288 2.557a.448.448 0 01-.065.892" fill="#fff"/><path data-name="Path 2521" d="M190.984 105.703a.417.417 0 01-.066 0l-12.133-1.795a.449.449 0 01.132-.888l12.133 1.795a.448.448 0 01-.065.892" fill="#fff"/><path data-name="Path 2522" d="M220.139 105.381a.563.563 0 01-.066 0l-17.866-2.643a.448.448 0 01.132-.887l17.866 2.642a.448.448 0 01-.065.892" fill="#fff"/><path data-name="Path 2523" d="M138.263 209.542l-92.017 10.367a3.22 3.22 0 01-3.56-2.84l-6.642-58.95a.17.17 0 01.15-.187l98.058-11.048a.169.169 0 01.187.15l6.645 58.969a3.2 3.2 0 01-2.821 3.537" fill="#f7a9b4"/><path data-name="Path 2524" d="M45.885 220.378a3.675 3.675 0 01-3.644-3.259l-6.642-58.948a.62.62 0 01.545-.684l98.058-11.048a.614.614 0 01.683.544l6.645 58.971a3.646 3.646 0 01-3.215 4.032l-92.018 10.37a3.769 3.769 0 01-.412.022m-9.363-62.03l6.611 58.672a2.768 2.768 0 003.065 2.445l92.016-10.368.05.445-.05-.445a2.75 2.75 0 002.426-3.04l-6.612-58.694z" fill="#243762"/><g data-name="Group 8298"><g data-name="Group 8297"><g data-name="Group 8296" clip-path="url(#i)" transform="translate(36.043 146.885)" opacity=".29"><path data-name="Path 2525" d="M97.908 62.657l-83.2 10.367c-1.768.2 25.783-35.14 25.584-36.908L.002 11.234a.17.17 0 01.15-.187L98.21-.001a.169.169 0 01.187.15l-33.545 33.2c.2 1.755 34.811 29.109 33.056 29.308" fill="#243762"/></g></g></g><path data-name="Path 2526" d="M36.194 157.933l40.55-40.1a7.363 7.363 0 019.06-1.034l48.2 29.933a.1.1 0 01-.042.188l-97.937 11.032" fill="#f7a9b4"/><path data-name="Path 2527" d="M36.075 158.397l-.074-.66-.123-.124.1-.1v-.012h.014l40.44-39.993a7.792 7.792 0 019.611-1.1l48.2 29.935a.55.55 0 01-.226 1.014zm45.851-42.26a6.9 6.9 0 00-4.867 2.011l-39.631 39.195 95.491-10.758-47.352-29.408a6.9 6.9 0 00-3.641-1.04" fill="#243762"/><g data-name="Group 8301"><g data-name="Group 8300"><g data-name="Group 8299" clip-path="url(#j)" transform="translate(36.025 115.695)" opacity=".29"><path data-name="Path 2528" d="M.169 42.238l40.55-40.1a7.363 7.363 0 019.06-1.034l48.2 29.933a.1.1 0 01-.042.188L0 42.257" fill="#243762"/></g></g></g><path data-name="Path 2529" d="M81.228 176.821l-30.482 42.41 83.205-9.374-39.154-34.565a9.207 9.207 0 00-13.569 1.529" fill="#f7a9b4"/><path data-name="Path 2530" d="M49.793 219.788l31.071-43.23.364.262-.364-.262a9.656 9.656 0 0114.23-1.6l39.911 35.233zM88.7 173.435a8.753 8.753 0 00-7.108 3.646L51.7 218.671l81.2-9.148-38.4-33.9a8.776 8.776 0 00-5.8-2.192" fill="#243762"/><path data-name="Path 2531" d="M41.143 128.882l64.09-7.221c4.2-.473 7.94 2.1 8.351 5.746l4.119 36.561-17.822 16.381-23.551 2.653-23.263-14.55-3.991-35.422z" fill="#fff"/><path data-name="Path 2532" d="M76.226 183.465l-23.579-14.748-3.989-35.4-6.1-5.047 62.629-7.056a8.681 8.681 0 015.9 1.4 6.634 6.634 0 012.945 4.737l4.145 36.786-18.097 16.64zm-22.737-15.279l22.947 14.353 23.251-2.62 17.547-16.126-4.094-36.334a5.749 5.749 0 00-2.563-4.1 7.789 7.789 0 00-5.292-1.251l-62.635 7.055 6.846 3.58z" fill="#243762"/><g data-name="Group 8304"><g data-name="Group 8303"><g data-name="Group 8302" clip-path="url(#k)" transform="translate(50.746 169.328)" opacity=".29"><path data-name="Path 2533" d="M30.482 3.834L0 49.902l83.205-9.374L44.051 2.305a9.206 9.206 0 00-13.569 1.528" fill="#243762"/></g></g></g><path data-name="Path 2534" d="M81.228 176.821l-30.482 42.41 83.205-9.374-39.154-34.565a9.207 9.207 0 00-13.569 1.529" fill="#f7a9b4"/><path data-name="Path 2535" d="M49.793 219.788l31.071-43.23.364.262-.364-.262a9.656 9.656 0 0114.23-1.6l39.911 35.233zM88.7 173.435a8.753 8.753 0 00-7.108 3.646L51.7 218.671l81.2-9.148-38.4-33.9a8.776 8.776 0 00-5.8-2.192" fill="#243762"/><g data-name="Group 8307"><g data-name="Group 8306"><g data-name="Group 8305" clip-path="url(#l)" transform="translate(61.796 183.391)" opacity=".35"><path data-name="Path 2536" d="M22.386 2.815L0 33.961l61.105-6.885L32.351 1.692a6.761 6.761 0 00-9.965 1.123" fill="#ecf1f7"/></g></g></g><path data-name="Line 18" fill="#f7a9b4" d="M36.23 158.013l40.101 24.988"/><path data-name="Rectangle 4196" fill="#243762" d="M35.992 158.394l.474-.761 40.101 24.987-.474.762z"/><path data-name="Line 19" fill="#f7a9b4" d="M134.43 146.949l-33.535 33.285"/><path data-name="Rectangle 4197" fill="#243762" d="M100.582 179.92l33.528-33.292.632.636-33.529 33.292z"/><path data-name="Path 2537" d="M50.852 149.354l-11.185 1.26-1.8-15.958a5.372 5.372 0 014.736-5.94l.509-.057a5.372 5.372 0 015.939 4.737z" fill="#ecf1f7"/><path data-name="Path 2538" d="M39.271 151.11l-1.847-16.4a5.819 5.819 0 015.132-6.434l.509-.057a5.821 5.821 0 016.435 5.133l1.847 16.4zm4.455-22.036a5.128 5.128 0 00-.561.031l-.509.057a4.921 4.921 0 00-4.341 5.444l1.747 15.513 10.295-1.16-1.748-15.513a4.924 4.924 0 00-4.883-4.372" fill="#243762"/><path data-name="Path 2539" d="M58.445 141.045a.448.448 0 01-.05-.894l46.436-5.232a.448.448 0 11.1.891l-46.437 5.233h-.051" fill="#243762"/><path data-name="Path 2540" d="M60.225 156.833a.448.448 0 01-.05-.894l46.436-5.231a.448.448 0 01.1.891l-46.435 5.231h-.051" fill="#243762"/><path data-name="Path 2541" d="M59.325 148.848a.448.448 0 01-.05-.894l20.067-2.262a.449.449 0 01.1.892l-20.066 2.261h-.051" fill="#243762"/><path data-name="Path 2542" d="M84.645 145.994a.448.448 0 01-.05-.894l21.116-2.378a.448.448 0 11.1.891l-21.116 2.378h-.051" fill="#243762"/><path data-name="Path 2543" d="M61.233 165.784a.448.448 0 01-.05-.894l20.067-2.261a.448.448 0 11.1.891l-20.066 2.261h-.051" fill="#243762"/></g></g></g></svg>