<svg xmlns="http://www.w3.org/2000/svg" width="178.804" height="61.941"><defs><clipPath id="a"><path data-name="Rectangle 3965" fill="none" d="M0 0h178.804v61.941H0z"/></clipPath></defs><g data-name="Group 7827" clip-path="url(#a)"><path data-name="Path 1424" d="M30.97 0a30.97 30.97 0 1030.97 30.97A31.006 31.006 0 0030.97 0" fill="#fff"/><path data-name="Path 1425" d="M54.335 12.777a20.341 20.341 0 013.771 6.243s.568 1.434-.982 1.435h-5.84a1.458 1.458 0 01-1.591-1.179 22.7 22.7 0 00-3.245-6.38s-.81-1.069.892-1.069h4.093a4.207 4.207 0 012.9.95m-37.6 36.214a2.315 2.315 0 001.83 1.123h5.07c1.166-.005.587-1.113.587-1.113a48.322 48.322 0 01-1.975-6.332 1.521 1.521 0 00-1.4-1.183h-6.658c-1.252-.043-.721 1.193-.721 1.193a31.208 31.208 0 003.272 6.312m6.895-37.164h-5.064a2.315 2.315 0 00-1.83 1.122c-.18.266-.345.544-.517.816a1.766 1.766 0 01.342.467l.222.443c.151.016.215.01.384.027.742.073 1.536-1.524 1.536-1.524s1.679 2.04 1 3.534a2.41 2.41 0 01-2.109 1.559 1.457 1.457 0 00-.265.049 3.4 3.4 0 01-.6.38 3.392 3.392 0 01-.556 1.756h4.671a1.522 1.522 0 001.4-1.184 48.349 48.349 0 011.973-6.332s.579-1.108-.587-1.113M13.67 40.294h7a.818.818 0 00.881-1.077c-.043-.264-.078-.532-.116-.8a14.368 14.368 0 01-2.371-.75 16.085 16.085 0 00-2.732-.854c-2.395-.5-3.372-.826-3.728-1.554-.045 0-.355 0-.47-.012a3.041 3.041 0 01-.513-.094 32.109 32.109 0 00.742 4.048 1.28 1.28 0 001.308 1.091m13.465 9.819h7.673a2.04 2.04 0 001.769-1.288l1.761-5.783a13.845 13.845 0 01-4.415 1.916 7.5 7.5 0 01-1.485.159 4.6 4.6 0 01-3.795-1.758c-.014-.017-.7-.928-1.4-1.871h-2.739a.993.993 0 00-.971 1.327l1.832 6.013a2.041 2.041 0 001.769 1.288m21.137-28.468h-7a.819.819 0 00-.882 1.077 49.5 49.5 0 01.6 5.9 4.953 4.953 0 012.06-.473 2.169 2.169 0 001.478-.291 1.751 1.751 0 01.723-.709l.059-.191a2.369 2.369 0 011.875-1.575 2.565 2.565 0 01.449-.04 2.983 2.983 0 011.945.841l.746.587a32.123 32.123 0 00-.742-4.04 1.279 1.279 0 00-1.308-1.091m1.308 17.557a32.092 32.092 0 00.751-4.113 6.446 6.446 0 00-1.721-3.045l-.315-.276a5.321 5.321 0 00-2.84.187c-1.045.428-1.551.7-4.57 3.064-.036.468-.077.934-.125 1.4a6.335 6.335 0 013.332 1.41 11.28 11.28 0 004.942 2.242 1.316 1.316 0 00.543-.86M38.313 50.114h5.064a2.315 2.315 0 001.83-1.123 31.191 31.191 0 003.036-5.751 25.19 25.19 0 01-5.554-1.36l-.191.05a12.257 12.257 0 01-2.649.389h-.018a1.768 1.768 0 00-.134.349A48.411 48.411 0 0137.721 49s-.579 1.108.588 1.113m-17.64-28.467h-5.741c-.089.055-.169.114-.266.167a5.2 5.2 0 01-2.218.636 1.355 1.355 0 00-.082.288 32.12 32.12 0 00-.694 3.654l.039.159a2.89 2.89 0 00.683 1.316c.111.13.233.267.361.411a2.517 2.517 0 01.666-.719 1.7 1.7 0 01-.095-2.076l.907-1.3a1.93 1.93 0 012.545-.559 2.106 2.106 0 01.239-.253 2.876 2.876 0 011.977-.642 5.937 5.937 0 012.131.421 3.007 3.007 0 01.345.165c.03-.2.055-.4.087-.591a.818.818 0 00-.881-1.077m30.964 0c-1.025 0-.769 1.069-.769 1.069a33.048 33.048 0 01.847 5.145c.642.5 1.254.973 1.55 1.19a10.233 10.233 0 011.318 1.25h4.8a1.2 1.2 0 001.242-1.379 26.978 26.978 0 00-1-5.964 1.815 1.815 0 00-1.83-1.312zM33.561 38.54a7.785 7.785 0 01.325.956 3.314 3.314 0 011.868-.584c.094 0 1.07.052 1.327.073 1.348.108 1.522-.68 1.522-.68a3.934 3.934 0 01.742-1.237l.091-.967a15.347 15.347 0 01-5.875 2.439m14.195-18.085c1.252.043.72-1.193.72-1.193a31.181 31.181 0 00-3.272-6.313 2.315 2.315 0 00-1.83-1.122h-5.061c-1.167 0-.588 1.113-.588 1.113a48.438 48.438 0 011.976 6.332 1.522 1.522 0 001.4 1.184zM24.272 40.292h2.083c-.22-.3-.4-.548-.517-.7l-.583-.81a55.17 55.17 0 01-2.513-.162l.03.317a1.591 1.591 0 001.5 1.36m10.536-28.469h-7.673a2.04 2.04 0 00-1.769 1.288l-1.832 6.013a.993.993 0 00.971 1.327h12.932a.993.993 0 00.971-1.327l-1.832-6.013a2.039 2.039 0 00-1.769-1.288m4.362 11.181a1.592 1.592 0 00-1.5-1.36h-13.4a1.591 1.591 0 00-1.5 1.36l-.125 1.33a4.628 4.628 0 01.847 1.626 2.853 2.853 0 011.208-.256 4.041 4.041 0 011.382.262c.61.223 9.076 3.85 10.228 4.344h2.171a1.2 1.2 0 00.578-.152 1.451 1.451 0 00.1-.112 4.426 4.426 0 01.448-.49 1.36 1.36 0 00.122-.621zM10.943 10.811h4.552a3.534 3.534 0 002.542-1.2 27.487 27.487 0 019.91-7.725c1.658-.752-.706-.448-2.276-.184A29.759 29.759 0 0010.252 9.64c-1.015 1.188.69 1.173.69 1.173m23.359 40.316h-6.66c-.721 0-1.04.572-.71 1.269a53.444 53.444 0 002.882 6.09c.525.9.645 1.008 1.163 1.008s.637-.111 1.162-1.008a53.385 53.385 0 002.875-6.089c.33-.7.011-1.269-.71-1.269m-8.661 1.2a1.828 1.828 0 00-1.611-1.2h-4.384c-1.509-.005-.222 1.236-.222 1.236a28.123 28.123 0 008.9 7.139c1.277.559 1.431.55.911-.271-.741-1.142-2.785-5.131-3.6-6.907m16.877.038s1.286-1.241-.222-1.236h-4.378a1.828 1.828 0 00-1.612 1.2c-.813 1.776-2.857 5.765-3.6 6.907-.52.821-.365.83.911.271a28.121 28.121 0 008.9-7.139m-14.57 7.691a27.488 27.488 0 01-9.91-7.725 3.535 3.535 0 00-2.542-1.2h-4.547s-1.7-.016-.69 1.172a29.755 29.755 0 0015.418 7.934c1.57.264 3.934.568 2.276-.184M51 51.129h-4.553a3.535 3.535 0 00-2.542 1.2 27.49 27.49 0 01-9.91 7.725c-1.658.751.706.448 2.276.184A29.759 29.759 0 0051.69 52.3c1.014-1.188-.691-1.172-.691-1.172m8.384-19.488H55.72a21.97 21.97 0 012.765 4.158l.2.45a.706.706 0 01-.441.96l-.469.142a4.075 4.075 0 00-1.292.863 2.764 2.764 0 01-1.9.784 3.413 3.413 0 01-1.481-.381 11.212 11.212 0 00-1.188-.093h-.894c-.053.235-.1.473-.157.706 0 0-.256 1.069.769 1.068h6.158a1.815 1.815 0 001.83-1.312 26.978 26.978 0 001-5.963 1.2 1.2 0 00-1.237-1.382m-2.259 9.847h-1.047a1.5 1.5 0 01.232.807c0 1.373-1.6 1.373-2.776 1.373a37.6 37.6 0 01-4.1-.27 22.118 22.118 0 01-2.986 5.643s-.81 1.069.892 1.069h4.094a4.209 4.209 0 002.9-.95 20.327 20.327 0 003.771-6.243s.568-1.434-.982-1.435M4.819 20.456h2.063c.014-.052.027-.105.04-.173a5.941 5.941 0 01.437-1.478l-.135-.4a3.462 3.462 0 01.8-3.278 3.147 3.147 0 012.463-1.076c.73.011 1.569.462 2.342.411a.738.738 0 00.357-.094 2.719 2.719 0 011.927-1.062c.033 0 .063 0 .1.006.095-.138.184-.272.285-.415 0 0 .81-1.069-.892-1.069h-4.093a4.205 4.205 0 00-2.9.95 20.341 20.341 0 00-3.771 6.243s-.568 1.434.983 1.435m14.6-10.881s-1.286 1.241.222 1.236h4.381a1.828 1.828 0 001.611-1.2c.813-1.775 2.857-5.765 3.6-6.907.521-.821.366-.83-.911-.27a28.107 28.107 0 00-8.9 7.139m8.215 1.236h6.661c.721 0 1.04-.572.71-1.27a53.4 53.4 0 00-2.881-6.086c-.525-.9-.645-1.008-1.162-1.008s-.637.111-1.163 1.008a53.457 53.457 0 00-2.877 6.087c-.33.7-.011 1.27.71 1.27m8.661-1.2a1.828 1.828 0 001.612 1.2h4.381c1.509 0 .222-1.236.222-1.236a28.105 28.105 0 00-8.904-7.134c-1.277-.56-1.431-.55-.911.27.741 1.142 2.785 5.131 3.6 6.907M10.513 50.113h4.09c1.7 0 .892-1.069.892-1.069a22.683 22.683 0 01-3.245-6.38 1.458 1.458 0 00-1.591-1.179h-5.84c-1.55 0-.983 1.435-.983 1.435a20.327 20.327 0 003.771 6.243 4.207 4.207 0 002.9.95M33.995 1.885a27.489 27.489 0 019.91 7.725 3.534 3.534 0 002.542 1.2h4.552s1.7.015.691-1.173a29.763 29.763 0 00-15.419-7.936c-1.57-.264-3.934-.568-2.276.184M10.313 40.292c1.025 0 .77-1.068.77-1.068a32.965 32.965 0 01-.818-4.76 4.385 4.385 0 01-1.632-2.824H2.56a1.2 1.2 0 00-1.247 1.377 27.012 27.012 0 001 5.963 1.814 1.814 0 001.83 1.312zm-7.75-9.989h5.93a5.068 5.068 0 00-.765-2.193c-.828-1.534-.825-2.4-1.279-3.112l-.316-.573a2.959 2.959 0 01-.055-2.491c.043-.1.087-.2.131-.286H4.153a1.814 1.814 0 00-1.83 1.312 27.011 27.011 0 00-1 5.964 1.2 1.2 0 001.242 1.379" fill="#0060af"/><path data-name="Path 1426" d="M7.144 23.868a1.8 1.8 0 010-1.49c.353-.849.732-.906.914-1.883a2.915 2.915 0 012.45-2.731c1.95-.408 3.3 2.436 5.042.6a2.366 2.366 0 01-1.434 2.435 3.8 3.8 0 01-3.516.155c-.512-.195-1.451-1-1.756.04-.287.975 1.624.668 1.209 2.364a2.2 2.2 0 00-2.907.513m6.092-6.565a3.321 3.321 0 001.121-1.471c.453-1.049 1.173-1.088 1.173-1.088-.288-.574-.924-.217-1.5.4s-1.86.4-2.344.26a2.588 2.588 0 00-2.8.48 2.283 2.283 0 00-.569 2.142 4.6 4.6 0 014.917-.733m3.375.115c.7-.561 1.493.077 2.037-1.169a1.514 1.514 0 000-1.357c-.736 1.11-1.221 1.02-2.334.893s-1.184.332-1.707 1.046a2.818 2.818 0 01-.911.894c.62.562 2.213.255 2.915-.307m-8.085 6.461a1.5 1.5 0 101.754 1.019 1.438 1.438 0 00-1.754-1.019m1.225 7.474a3.048 3.048 0 002.478 2.753c1.047.091 1.642-.4 1.612-1.736s-1.49-2.762-2.332-3.745a3.954 3.954 0 01-.951-1.915 1.643 1.643 0 01-2.006.6c.907.933 1.024 2.443 1.2 4.041m5.129-3.109a1.344 1.344 0 101.343 1.344 1.344 1.344 0 00-1.343-1.344m3.436.479l.8-1.369a.783.783 0 00-.256-1.045l-2.648-1.665a.774.774 0 00-1.035.209l-.908 1.3a.55.55 0 00.154.779l3.082 1.989a.577.577 0 00.812-.195m-1.767 2.127a1.3 1.3 0 01-.737.349c1.985.665.89-.043 2.756-.126s3.006-.58 3.725-2.653a3.345 3.345 0 00-1.606-4.192c-1.071-.424-2.375-.482-2.905 0a.419.419 0 00.1.761s1.05.652 1.709 1.152a.957.957 0 01.346 1.163s-.757 1.371-1.205 2-1.482.478-1.482.478-.506.8-.7 1.071m.014 4.84c2.8.588 3.647 1.533 6.236 1.777s6.379.256 6.379.256a28.613 28.613 0 01-.194-3.053c-2.8-.464-3.866-.614-4.764-1.707s.173-2.721.173-2.721a2.458 2.458 0 00-1.636-.7 4.573 4.573 0 01-3.86 2.249 1.289 1.289 0 00-1.181.27c-.4.271-.848.217-1.9-.2s-1.123.256-1.123.256c-.136 2.327-.726 2.127-1 2.4-.3.3.178.6 2.875 1.171m15.856-4.29a4.379 4.379 0 003.742.777.491.491 0 00-.271-.781s-9.6-4.115-10.208-4.337a1.994 1.994 0 00-2.116.24 1.9 1.9 0 00-.486 1.519c1.624.3 2.012 1.109 2.012 1.109a14.029 14.029 0 017.327 1.472m-2.79 2.711c-.059.437.235 4.377.235 4.377a1.993 1.993 0 001.659.244c.48-1.189 1.1-5.467.83-6.261s-.7-.97-2.846-1.443a12.858 12.858 0 00-4.085-.457 1.283 1.283 0 00-.749 1.519c.184.843 1.372 1.234 1.372 1.234a31.336 31.336 0 003.584.786m1.265 7.339a.967.967 0 00.765-1.458 1.418 1.418 0 00-1.659-.652c-.507.147-.616.8-.616.8-.287 1.11.77 1.4 1.51 1.31m2.221-8.784a19.78 19.78 0 01-.586 4.851 13.643 13.643 0 007.068-2.958c3.545-2.789 4.136-3.215 5.465-3.693a5.854 5.854 0 012.76-.341c.626.041 1.167.344 1.431-.126s-1.367-1.829-2.331-2.125-1.253-.15-1.434.238a2.913 2.913 0 01-2.3.807 3.91 3.91 0 00-3.116 1.441 7.185 7.185 0 01-6.96 1.905m17.031-2.45c.2.637-.772.962-.772.962 2.315 2.03 2.543 6.2 2.543 6.2a7.144 7.144 0 011.55.146 1.807 1.807 0 002.229-.146 4.98 4.98 0 011.727-1.119 24.437 24.437 0 00-4.848-6.265c-1.225-.9-2.908-2.272-3.45-2.678s-.969-.914-1.742-.778a1.232 1.232 0 00-.971.778 7.608 7.608 0 013.734 2.9M29.429 42.496c.337.367 1.324 1.926 4.265 1.327s4.964-2.7 5.993-2.662a10.761 10.761 0 002.519-.348c-.694-1.478-3.026-1.678-3.026-1.678-.537.826-1.569.9-3.265.795a2.171 2.171 0 00-2.217 1.021s-.526-.014-.734-.92a1.978 1.978 0 00-.731-1.232.641.641 0 00-.157.954 1.552 1.552 0 01.123 1.473 1.862 1.862 0 01-2.6.512c-1.358-.839-.411-2.837-.411-2.837-.65.018-2.407.01-2.407.01s2.315 3.216 2.652 3.583m13.518-1.759c4.08 1.735 12.2 2.058 12.2 1.553 0-.392-.486-.375-.486-.375-7.362-.284-10.019-2.171-11.3-3.2a7.322 7.322 0 00-2.866-1.325c-.715.087-1 .974-1 .974a4.369 4.369 0 013.452 2.373" fill="#e50019"/><path data-name="Path 1427" d="M114.258 11.826l13.112 38.272H90.884l7.368-22.862h9.55l-4.436 13.769h11.259l-9.853-29.179zm62.5.275a1.755 1.755 0 00-1.749 1.757 1.713 1.713 0 00.508 1.25 1.747 1.747 0 002.482 0 1.709 1.709 0 00.51-1.25 1.754 1.754 0 00-1.751-1.757m2.042 1.757a2.046 2.046 0 01-2.042 2.048 1.953 1.953 0 01-1.441-.6 1.982 1.982 0 01-.591-1.448 2.037 2.037 0 014.074 0m-1.504-.443a.341.341 0 00-.149-.327 1.008 1.008 0 00-.476-.083h-.335v.81h.355a1.111 1.111 0 00.376-.05.346.346 0 00.231-.351m-1.356-.68h.782a1.716 1.716 0 01.611.081.556.556 0 01.347.566.485.485 0 01-.22.442.875.875 0 01-.324.108.541.541 0 01.385.219.611.611 0 01.123.347v.163c0 .052 0 .108.006.167a.329.329 0 00.019.116l.014.028h-.369v-.022a.109.109 0 01-.006-.025l-.008-.072v-.178a.548.548 0 00-.212-.514.94.94 0 00-.439-.073h-.315v.883h-.4zm-29.03-.907h-17.04v9.088h11.908v.04a10.01 10.01 0 11-.164 20.014h-2.648V27.237h-9.093v22.862h17.039c8.74-.795 15.046-9.757 15.046-19.1s-6.969-18.377-15.046-19.172M95.998 23.898a12.323 12.323 0 00-12.12-12.071H69.693v9.088h12.949a3.006 3.006 0 012.954 2.979 3.329 3.329 0 01-3.036 3.339H69.693v22.86h9.092V36.149l5.129-.021a12.49 12.49 0 0012.085-12.231m77.325-12.071h-9.088v38.273h9.092z" fill="#fff"/></g></svg>