<svg xmlns="http://www.w3.org/2000/svg" width="183.401" height="60.127"><defs><clipPath id="a"><path data-name="Rectangle 24" fill="none" d="M0 0h183.401v60.127H0z"/></clipPath></defs><g data-name="Group 11"><g data-name="Group 10" clip-path="url(#a)"><path data-name="Path 277" d="M67.179 20.32a35.045 35.045 0 009.831 2.4 8.837 8.837 0 01-.571-3.6V0H65.971v18.01c0 .658.021 1.288.06 1.9.387.138.768.276 1.148.415" fill="#006395"/><path data-name="Path 278" d="M37.039 20.32c1.5-.547 3.025-1.1 4.809-1.566a22.428 22.428 0 01-.087-2.06c0-6.012 2.162-9.082 5.752-9.082 3.2 0 5.233 1.86 5.536 5.1h9.688C61.915 4.714 56.596 0 47.081 0c-8.693 0-15.526 6.271-15.526 16.348a20.554 20.554 0 00.712 5.516 48.4 48.4 0 004.772-1.544" fill="#006395"/><path data-name="Path 279" d="M95.501 20.32c.383-.139.767-.279 1.156-.418q.056-.891.056-1.847V0h-10.47v19.12a8.3 8.3 0 01-.654 3.6 35 35 0 009.912-2.4" fill="#006395"/><path data-name="Path 280" d="M110.57 17.581a38.116 38.116 0 0115.071 2.739c1.333.485 2.639.96 4.105 1.367a7.15 7.15 0 00-5.384-6.3 8.63 8.63 0 004.28-7.149c0-6.511-5.874-8.241-13.25-8.241H99.729v18.914a38.791 38.791 0 0110.841-1.33m-.1-9.932h3.779c2.277 0 4.371.045 4.371 2.6 0 1.913-1.548 2.868-3.688 2.868h-4.462z" fill="#006395"/><path data-name="Path 281" d="M139.803 22.901a35.843 35.843 0 0010.269-1.271h-3.432l3.324-11.749 3.164 10.743.837-.3a40.012 40.012 0 018.032-2.238L155.522.001h-10.931l-8.169 22.789c1.031.07 2.149.108 3.379.108" fill="#006395"/><path data-name="Path 282" d="M124.733 22.818a46.573 46.573 0 00-5.029-1.609 3.707 3.707 0 01.106.919c0 2.459-2 3.005-4.644 3.005h-4.69v-4.889a35.176 35.176 0 00-10.745 1.439v11.1h15.982c7.891 0 13.275-2.193 14.022-8.349a50.694 50.694 0 01-5-1.615" fill="#006395"/><path data-name="Path 283" d="M18.535 22.714c1.288.118 2.718.184 4.343.184a44.393 44.393 0 005.65-.327c0-.128.01-.255.01-.385 0-11.4-18.01-8.483-18.01-13.182 0-1.131 1-1.783 3.263-1.783a5.685 5.685 0 012.654.565 2.755 2.755 0 011.479 2.132h9.745c-.741-5.481-4.7-9.917-13.4-9.917C6.438.001.696 3.35.696 10.001c0 11.283 16.018 9.023 17.839 12.708" fill="#006395"/><path data-name="Path 284" d="M81.339 25.557a37.959 37.959 0 01-14.922-2.685c1.489 7.277 6.684 9.911 14.947 9.911 8.764 0 13.524-3.066 14.912-9.916a37.975 37.975 0 01-14.936 2.69" fill="#006395"/><path data-name="Path 285" d="M154.873 22.819a38.112 38.112 0 01-15.071 2.738c-1.591 0-3.015-.062-4.308-.173l-2.651 7.4h10.518l1.227-4.327h10.7l1.275 4.326h10.7l-4.353-12.152a36.722 36.722 0 00-8.037 2.188" fill="#006395"/><path data-name="Path 286" d="M22.878 25.557a47.883 47.883 0 01-5.561-.3 7.231 7.231 0 01-2.874.495 5.632 5.632 0 01-2.915-.783 3.51 3.51 0 01-1.263-1.286c-.849-.281-1.656-.575-2.457-.866l-.9-.327H0c.218 5.656 5.612 10.488 13.877 10.488 7.279 0 12.724-2.517 14.237-7.681a48.532 48.532 0 01-5.237.263" fill="#006395"/><path data-name="Path 287" d="M53.08 20.249c-.465 2.808-2.022 4.922-5.178 4.922-3.209 0-4.8-1.572-5.541-3.8-1.593.426-2.988.932-4.413 1.451-1.488.541-3 1.09-4.76 1.553 2.482 5.319 7.689 8.412 14.888 8.412 7.619 0 13.115-4.166 14.6-11.185a34.459 34.459 0 00-9.6-1.349" fill="#006395"/><path data-name="Path 288" d="M183.331 20.238c-.182-.045-.543.208-.665.3a.16.16 0 01-.1.03h-.058a.154.154 0 01-.089-.277 1.1 1.1 0 01.1-.072.141.141 0 00.077-.118.153.153 0 00-.191-.15c-.213.052-.649.156-.747.159a4.537 4.537 0 00-1.187-.39.663.663 0 00-.6.259.153.153 0 01-.09.064c-.272.07-1.36.35-1.807.437-.866.168-1.915.114-2.585.193-.324.038-.54-.541-.975-1.423a4.9 4.9 0 01-.258-.626 1.8 1.8 0 001.082-.533 4.351 4.351 0 00.7-1.342.156.156 0 00.113-.063 2.773 2.773 0 00.27-.548 1.843 1.843 0 00.054-.732.153.153 0 00-.1-.13l-.29-.109a.154.154 0 01-.1-.145v-.248a.153.153 0 01.1-.145c.132-.045.342-.133.336-.223a5.991 5.991 0 00-.456-1.612c-.031-.088-.224-.1-.342-.1a.153.153 0 01-.134-.079 1.684 1.684 0 00-2.276-.641 2.083 2.083 0 00-1.181 2.023c.03.148.053.286.068.382a.153.153 0 01-.108.171 2.96 2.96 0 01-.708.157 2.156 2.156 0 00-.71-.074 2.17 2.17 0 00-.107.025.6.6 0 00.014-.6l-.325-.6.079.137a.272.272 0 10.47-.272l-.3-.528a.272.272 0 00-.5.193l-.233-.428a.607.607 0 00-.822-.242l-8.088 4.365a.6.6 0 00-.242.821l.815 1.494a.606.606 0 00.56.316c-.309.331-1.029 1.135-1.262 1.122a13.99 13.99 0 00-2.582.451c-.371.146-1.266.526-1.589.665a.155.155 0 01-.191-.06 5.826 5.826 0 01-.363-.657 17.459 17.459 0 00-1.284-2.534 18.877 18.877 0 00-2.651-2.87c-1.5-1.285-2.9-1.8-3.226-2.3-.268-.41-.127-.852-.558-1.187-.625-.488-1.289-.308-2.231-.651a8.863 8.863 0 01-1.529-.715l-.014-.008a1.085 1.085 0 01-.15-.092 42.953 42.953 0 00-3.079-4.925 37.41 37.41 0 00-4.168-4.795 1.638 1.638 0 00-1.581.613 13.592 13.592 0 00-1.406 2.2.153.153 0 00.024.178c.391.409 2.212 2.3 4 3.883 1.622 1.443 3.009 2.407 3.652 2.913a9.136 9.136 0 001.215 1.329l.052.077.02-.016a2.04 2.04 0 00.583.373c.4.134 2.951 1.323 3.207 1.439a10.531 10.531 0 011.546.92c.164.146 2.018 2.239 2.143 2.419-.2-.091-.607-.3-.683-.342a8.378 8.378 0 00-.972-.414 10.275 10.275 0 01-2.061-.947c-.3-.217-.4-.514-.637-.707s-.419-.416-.831-.193a2.848 2.848 0 00-.8 1.041.143.143 0 01-.039.05.13.13 0 01-.021.014 43.016 43.016 0 00-5.229 3.239 37.4 37.4 0 00-4.794 4.168 1.638 1.638 0 00.613 1.581 13.589 13.589 0 002.195 1.406.154.154 0 00.178-.024c.409-.391 2.3-2.212 3.883-4 1.791-2.013 2.844-3.664 3.2-3.979a10.856 10.856 0 011.123-.936.622.622 0 01.347-.133c.972.137 2.071.991 3.548 2.253a52.668 52.668 0 005.147 4.082.159.159 0 01.07.1 1.854 1.854 0 00.353.845c.281.3.943.257 1.272.2a69.837 69.837 0 007.762-1.654 18.828 18.828 0 004.035-1.481.155.155 0 01.228.144.694.694 0 00.054.325 1.17 1.17 0 00.9.556c.4.02 1.985-.049 3.309-.17a5.445 5.445 0 001.632-.33.154.154 0 01.156.018l.485.366a.154.154 0 00.11.03 16.207 16.207 0 002.632-.533c1.438-.44 2.3-.8 2.483-.872a.168.168 0 01.074-.011 4.4 4.4 0 011.238.313 1.986 1.986 0 001.672-.26c.188-.3.549-.554.328-.607m-40.395-8.744a.044.044 0 00-.007-.007l-.011-.011-.013-.013-.048-.046-.051-.05-.01-.009-.04-.039-.2-.193a.337.337 0 00-.029-.028 65.659 65.659 0 00-1.084-1.019l-.182-.166c-.091-.082-.18-.163-.267-.239l-.036-.031c-.146-.13-.285-.249-.409-.35l-.079-.065c-1.607-1.293-4.732-3.742-5.973-5.686-.164-.255.329-.9.6-.89.057.044.114.09.171.137l.175.145.177.151.169.149.011.01c.061.053.121.108.183.165s.123.112.185.171c.9.839 1.877 1.882 2.846 2.94.774.843 1.542 1.7 2.261 2.463a26.154 26.154 0 011.8 2.171 2.563 2.563 0 00-.128.347m.338-.682s-.742-.924-1.216-1.518c-.356-.448-2.172-2.532-2.654-3.131-.034-.043-.071-.088-.112-.135s-.083-.1-.13-.151c-.07-.081-.148-.168-.232-.259q-.035-.04-.073-.079a23.354 23.354 0 00-.407-.431l-.15-.155a34.897 34.897 0 00-.434-.44l-.173-.173-.1-.1-.154-.152a45.723 45.723 0 00-.8-.77c-1.147-1.092-1.243-1.17-1.018-1.526a1.929 1.929 0 01.728-.54c.147-.051.27.084.658.38s1.181 1.249 1.973 2.099a4.126 4.126 0 01.296.362c.055.071.113.149.175.233l.114.156c.059.08.12.166.183.256l.2.281.178.256.182.262c.188.273.385.562.585.858l.4.587.3.447c.033.05.065.1.1.149.148.221.292.44.433.652l.093.141.312.472.084.128.082.125a99.773 99.773 0 01.466.711l.06.092.344.529.018.028.018.028.005.008zm-7.941 13.488a1.926 1.926 0 01-.54-.728c-.051-.147.084-.27.38-.658s1.247-1.191 2.092-1.982 6.761-4.625 6.761-4.625l.326.343s-.924.742-1.518 1.216c-.448.357-2.532 2.172-3.131 2.655a38.269 38.269 0 00-2.845 2.762c-1.092 1.147-1.17 1.243-1.526 1.018m7.43-4.84c-1.292 1.607-3.742 4.732-5.686 5.973-.255.164-.9-.329-.89-.6a70.855 70.855 0 016.33-6.18 26.156 26.156 0 012.171-1.8 2.578 2.578 0 00.347.129s-1.606 1.645-2.271 2.472m22.187-.51a4.313 4.313 0 00-1.546-.392l-.095.008 1.621-.875a2 2 0 00-.059.649 1.12 1.12 0 00.246.507c-.067.064-.126.106-.167.1m2.389-2.554c-.138.148-1.271 1.369-1.653 1.791a.736.736 0 01-.094-.346 2.333 2.333 0 01.112-.566l1.633-.875a.1.1 0 00-.01.01m8.337-3.107a.192.192 0 01.232.139l.155.622a.19.19 0 01-.139.232.169.169 0 01-.046.006.191.191 0 01-.185-.146l-.156-.622a.191.191 0 01.138-.231m-4.685 7.42c-.341.022-.842 0-.842 0a1.307 1.307 0 01.706-.728 2.3 2.3 0 001.046-.989 5.287 5.287 0 00.479 1.026 4.88 4.88 0 00.707.845s-1.939-.164-2.095-.154m3.045-2.534a4.245 4.245 0 00-.379-1.034 2.279 2.279 0 00-.775-.8.154.154 0 01.051-.28l.3-.066a.155.155 0 01.11.017 6.93 6.93 0 001.6.724 1.6 1.6 0 00.427-.1.148.148 0 01.09 0l.118.029a3.952 3.952 0 01-.676 1.2 1.134 1.134 0 01-.861.32" fill="#47b6c8"/><path data-name="Path 289" d="M177.731 15.315a.563.563 0 11-.563-.563.563.563 0 01.563.563" fill="#47b6c8"/><path data-name="Path 290" d="M178.068 13.36a.337.337 0 11-.337-.337.337.337 0 01.337.337" fill="#47b6c8"/><path data-name="Path 291" d="M178.684 14.539a.213.213 0 11-.213-.213.213.213 0 01.213.213" fill="#47b6c8"/><path data-name="Path 292" d="M178.684 12.18a.213.213 0 11-.213-.213.213.213 0 01.213.213" fill="#47b6c8"/><path data-name="Path 293" d="M0 58.008V39.169h6.175v14.444h8.477v4.4z" fill="#47b6c8"/><path data-name="Rectangle 23" fill="#47b6c8" d="M17.451 39.169h6.175v18.839h-6.175z"/><path data-name="Path 294" d="M27.576 58.008V39.169h14.653v4.4h-8.478v3.427h6.751v4.4h-6.751v6.62z" fill="#47b6c8"/><path data-name="Path 295" d="M45.079 58.008V39.169h15.359v4.4h-9.184v2.695h7.771v4.4h-7.771v2.957h9.55v4.4z" fill="#47b6c8"/><path data-name="Path 296" d="M88.826 60.127l-2.564-2.59a11.246 11.246 0 01-4.683.968c-5.992 0-9.864-3.741-9.864-10.074 0-5.913 4-9.76 9.864-9.76 6.175 0 9.891 4.344 9.891 9.812a10.9 10.9 0 01-2.2 6.724l2.146 2.172zM83.017 48.85l2.015 2.041a8.64 8.64 0 00.262-2.407c0-3.218-1.439-5.207-3.768-5.207-2.8 0-3.637 2.826-3.637 5.207 0 2.407.733 5.416 3.689 5.416a2.74 2.74 0 00.942-.183l-2.12-2.119z" fill="#47b6c8"/><path data-name="Path 297" d="M92.776 58.008l6.751-18.839h6.28l6.751 18.839h-6.149l-.732-2.486h-6.15l-.707 2.486zm9.838-13.161l-1.91 6.751h3.9z" fill="#47b6c8"/><path data-name="Path 298" d="M111.248 39.169h17.272v4.946h-5.55v13.893h-6.175V44.114h-5.547z" fill="#47b6c8"/><path data-name="Path 299" d="M127.678 58.008l6.751-18.839h6.28l6.751 18.839h-6.149l-.732-2.486h-6.149l-.707 2.486zm9.838-13.161l-1.91 6.751h3.9z" fill="#47b6c8"/><path data-name="Path 300" d="M155.517 51.441v6.567h-6.175V39.169h8.9c6.28 0 8.347 1.7 8.347 5.364 0 2.172-.968 4-3.166 4.605 1.989.732 3.192 1.2 3.192 5 0 2.459-.078 3.3.654 3.3v.576h-6.254a12.32 12.32 0 01-.313-3.3c0-2.459-.419-3.271-3.3-3.271zm0-4.134h2.433c1.911 0 2.931-.471 2.931-1.779 0-1.335-1.046-1.962-2.486-1.962h-2.878z" fill="#47b6c8"/></g></g></svg>