<svg xmlns="http://www.w3.org/2000/svg" width="250.836" height="104.498"><defs><clipPath id="a"><path data-name="Rectangle 4001" fill="none" d="M0 0h250.836v104.498H0z"/></clipPath></defs><g data-name="Group 7914" clip-path="url(#a)"><path data-name="Path 1467" d="M77.852 55.03a38.606 38.606 0 00-3.456-14.643 37.552 37.552 0 00-1.813-3.5 38.053 38.053 0 00-2.353-3.556 38.872 38.872 0 00-7.992-8 38.406 38.406 0 00-2.878-1.948h-.006a15.01 15.01 0 00-.575-.352 38.583 38.583 0 00-12.2-4.643 3.168 3.168 0 01-6.3-.478c0-.079 0-.154.009-.229a37.981 37.981 0 00-1.219-.019A38.785 38.785 0 00.259 56.469q0 1.041.057 2.067a38.691 38.691 0 001.279 8.055q.25.943.553 1.866v.006a37.91 37.91 0 001.992 4.92c.053.119.113.239.173.358.072-.025.145-.05.214-.079s.151-.057.22-.085a1.19 1.19 0 00.132-.057l.123-.057a.8.8 0 00.116-.057c.091-.047.182-.094.27-.145s.16-.091.236-.141a.106.106 0 00.035-.022c.079-.05.154-.1.229-.157s.154-.113.226-.173.145-.119.214-.182.135-.126.2-.192.126-.132.185-.2.113-.132.167-.2a.374.374 0 00.047-.057c.041-.053.082-.107.123-.163s.1-.135.141-.2c.013-.019.028-.038.041-.06a.239.239 0 00.038-.06c.025-.038.047-.075.069-.116a6.156 6.156 0 00.245-.455c.025-.047.047-.1.072-.148s.05-.11.072-.167.053-.129.079-.195l.094-.261c.031-.088.057-.17.082-.258.016-.05.031-.1.044-.151.019-.066.038-.132.053-.195.009-.035.019-.069.025-.1a.885.885 0 00.022-.1l.019-.082q.028-.118.047-.236c.022-.11.041-.217.057-.327s.031-.214.044-.317c.009-.082.019-.163.025-.242.013-.126.022-.251.028-.374s.013-.239.016-.355c.006-.2.006-.386 0-.562v-.2c0-.031 0-.094-.006-.138s-.006-.11-.009-.163l-.009-.148a16.007 16.007 0 01-.022-.254c-.006-.041-.009-.075-.013-.11s-.013-.085-.016-.123l-.025-.176a1.866 1.866 0 01.126.506 43.964 43.964 0 001.64 7.279 1.147 1.147 0 01.066.361.7.7 0 01-.009.116v.009a.488.488 0 01-.022.1v.006a.2.2 0 01-.025.06.747.747 0 01-.173.232l-.066.057c-.022.019-.047.035-.072.053s-.053.035-.082.05a5.735 5.735 0 01-.229.135q-.207.123-.424.236l-.254.132a7.46 7.46 0 01-.405.185l-.21.085c-.06.025-.123.05-.185.072-.047.019-.1.035-.148.053-.1.035-.2.069-.308.1-.088.028-.179.053-.27.079-.05.013-.1.028-.154.041a4.613 4.613 0 01-.226.053l-.223.047-.267.047c-.1.016-.2.031-.311.044-.072.009-.145.019-.22.025-.145.016-.289.028-.44.038.308.55.638 1.087.977 1.621a39.01 39.01 0 006.984 8.178q.8.712 1.637 1.376a38.881 38.881 0 006.695 4.276 38.4 38.4 0 006.337 2.513q1.555.462 3.167.795a2.058 2.058 0 01.3-.773 8.677 8.677 0 00.616-1.244c.085-.21.16-.421.229-.635a9.93 9.93 0 00.405-1.923l.028-.286c.009-.098.016-.189.022-.28 0-.123.009-.242.016-.364s.006-.27.006-.408a15.31 15.31 0 00-.063-1.344 21.34 21.34 0 00-.167-1.338.327.327 0 01.013.031.153.153 0 01.009.022l.025.06a1.265 1.265 0 01.057.135c.016.038.031.082.053.132l.019.041.041.1.05.119c.025.069.057.141.091.226l.028.063.025.063c.038.091.079.189.123.3.025.057.05.113.075.176s.047.11.069.17c.047.116.1.239.157.374.016.044.035.088.057.135s.031.075.047.116q.042.094.085.2c.041.1.079.195.119.3.06.141.119.286.185.443s.129.314.2.487q.123.287.254.613c.047.116.1.229.154.339a2.052 2.052 0 00.11.22c.044.091.094.182.148.27.019.035.038.066.06.1a.813.813 0 00.06.1 5.56 5.56 0 00.333.485 5.597 5.597 0 00.336.41 5.251 5.251 0 00.361.39c.063.063.126.123.188.182a.12.12 0 00.028.028c.119.11.239.214.361.317q.287.24.594.452c.1.072.2.138.308.2s.207.132.311.192c.05.031.107.063.16.091s.107.063.16.091c.248.132.5.254.748.368.113.05.226.1.339.145s.2.079.3.116a11.427 11.427 0 001.916.528q1.013-.057 2.011-.17c.38-.038.754-.085 1.128-.138a36.307 36.307 0 001.665-.267 38.121 38.121 0 004.643-1.153 38.823 38.823 0 0027.112-36.999c0-.481-.009-.961-.025-1.439M7.413 42.684a29.064 29.064 0 00-.71 3.211 16.42 16.42 0 00-.1.691c-.013.1-.028.192-.038.289a20.07 20.07 0 00-.1.88 33.908 33.908 0 00-.141 4.709c.019.465-.038.927-.06 1.395-1.32-1.876-.977-4.018-.754-6.032a28.7 28.7 0 015.416-13.861.179.179 0 01.022-.025.145.145 0 00.022-.022v-.006l.006-.006a8.531 8.531 0 011.282-1.7 5.39 5.39 0 011.228-1.144 1.686 1.686 0 01.138-.129.8.8 0 01.11-.085 1.262 1.262 0 01.361-.2v.006a.061.061 0 01.009.031.385.385 0 01-.05.151 2.923 2.923 0 01-.393.506l-2.149 2.774a.626.626 0 01-.06.075.274.274 0 01-.025.031l-.019.022c-.006.006-.031.035-.05.05a.12.12 0 00-.016.019c-.025.022-.053.05-.079.075l-.006.009-.006.006-.129.176-.009.009a28.8 28.8 0 00-3.7 8.087m27.323-22.39a2.041 2.041 0 11-2.042 2.042 2.041 2.041 0 012.042-2.042" fill="#0097c1"/><path data-name="Path 1468" d="M44.66 64.298zm-5.988-13.283zm0 0zm5.988 13.283zm-5.988-13.283zm0 0zm5.988 13.283zm-5.988-13.283zm24.2 11.326a45.587 45.587 0 0010.475-17.063 9.356 9.356 0 00.346-4.9 7.886 7.886 0 00-.565-1.671 5.429 5.429 0 01-.544-1.813 3.677 3.677 0 01-.009-.7 2.5 2.5 0 00-1.9-2.711l-.446-.148c-.883-.292-1.778-.55-2.661-.842a1.621 1.621 0 01-1.3-1.637 6.945 6.945 0 00-.776-2.815 5.794 5.794 0 00-1.9-2.08 4.382 4.382 0 00-1.354-.628 2.726 2.726 0 00-2.928 1.106c-.528.666-.93.55-1.58.352a31.035 31.035 0 00-8.153-1.36 41.313 41.313 0 00-11.323 1.241c-.628.157-1.25.33-1.872.515q-1.9.57-3.773 1.316c-.151.06-.3.129-.446.179a.918.918 0 01-1.068-.27 11.016 11.016 0 00-8.382-3.336 14.275 14.275 0 00-6.865 2.224C9.86 30.989 6.275 36.483 4.173 43.047a21.26 21.26 0 00-.971 9.12c.393 3.236 1.894 4.354 4.923 3.626-.031.229-.06.459-.085.691a30.261 30.261 0 00-.173 6.029c.079.983-.223 1.147-1.153 1.269a7.725 7.725 0 00-5.121 2.809 7.281 7.281 0 00-1.511 3.475 7.61 7.61 0 00.28 3.424 6.856 6.856 0 00.55 1.3 4.951 4.951 0 005.426 2.542 8.718 8.718 0 002.912-1.1c1.15-.666 1.376-.393 1.806.663a35.912 35.912 0 004.474 8.027c.069.094.141.189.21.28a32.371 32.371 0 005.916 5.957 34.689 34.689 0 004.735 3.091c.581.317 1.14.66 1.687 1.03a41.333 41.333 0 012.454 1.784c.289.223.578.449.864.672 1.646 1.285 3.28 2.592 4.97 3.817a14.692 14.692 0 002.755 1.574h.006a17.639 17.639 0 005.071 1.319 3.338 3.338 0 004.018-4.562 22.882 22.882 0 00-1.587-4.062c-.179-.4-.355-.792-.518-1.191a21.4 21.4 0 01-.726-1.979 11.582 11.582 0 01-.465-5.429 14.785 14.785 0 00-.091-5.306c-.716-3.6-2.626-4.458-5.866-2.639a39.671 39.671 0 00-4.276 3.167 3.777 3.777 0 01-1.753.757 3.048 3.048 0 01-2.981-1.32 3.974 3.974 0 01-.65-1.693 5.066 5.066 0 01.019-1.69c.022-.11.05-.22.079-.327a4.087 4.087 0 01.148-.43 4.746 4.746 0 011.03-1.565 7.637 7.637 0 011.662-1.307c.053-.031.107-.063.16-.091a9.138 9.138 0 012.231-.87c3.767-.946 7.637-1.442 11.514-2.623-.035.167-.069.33-.1.493a17.066 17.066 0 00-.77 4.392c.1 2.664 1.492 4.615 3.814 4.813a11.215 11.215 0 008.888-3.1c.782-.732.82-2 1.389-2.689.512-.622 2 .041 3-.55a8.226 8.226 0 003.528-4.807c1.191-3.547.647-4.958-2.542-6.07a14.658 14.658 0 00-.66-.217 8.43 8.43 0 01-.484-.17c-.119-.044-.254-.094-.427-.154.069-.057.138-.107.2-.16a6.8 6.8 0 00.892-.726m-2.763-33.953c.006-.123.019-.239.031-.355l.019-.129c.009-.06.022-.119.035-.179a2.915 2.915 0 01.11-.368 2.1 2.1 0 01.116-.239v-.006a1.42 1.42 0 01.082-.126c.016-.025.035-.05.053-.075a.988.988 0 01.075-.094c.035-.041.075-.082.116-.123a1.241 1.241 0 01.135-.116 2.224 2.224 0 01.317-.21c.035-.019.069-.035.1-.05a1.349 1.349 0 01.2-.082.934.934 0 01.1-.028.4.4 0 01.1-.025l.1-.019a.479.479 0 01.094-.009 1.146 1.146 0 01.232 0c.047.006.094.013.138.022a1.52 1.52 0 01.515.207c.053.031.1.066.154.1a.494.494 0 01.082.06 3.791 3.791 0 01.446.4l.057.057c.123.126.239.254.352.383a4.318 4.318 0 01.239 5.9c0-.666.041-1.288-.016-1.907 0-.025 0-.05-.006-.075s0-.05-.006-.072a.087.087 0 000-.028c0-.025-.006-.053-.009-.079a.087.087 0 000-.028 1.072 1.072 0 00-.025-.116.533.533 0 00-.031-.085.21.21 0 01-.022-.035.248.248 0 00-.038-.047.053.053 0 00-.019-.019.224.224 0 00-.069-.047l-.041-.019-.06-.019a.452.452 0 00-.069-.013 1.434 1.434 0 00-.314-.006c-.05 0-.107.009-.167.016a1.827 1.827 0 01-.251.019.464.464 0 01-.066 0 .186.186 0 01-.06 0 .361.361 0 01-.1-.013.339.339 0 01-.085-.016.15.15 0 01-.057-.016.707.707 0 01-.075-.025.047.047 0 01-.035-.013.168.168 0 00-.035-.016.44.44 0 01-.094-.047.261.261 0 00-.038-.025l-.1-.075a1.025 1.025 0 01-.195-.223.9.9 0 01-.088-.151 5.155 5.155 0 01-.057-.126 2.08 2.08 0 01-.1-.289c-.019-.069-.038-.138-.053-.207s-.028-.126-.041-.192l-.019-.1c-.009-.05-.019-.1-.025-.148 0-.016-.006-.035-.009-.05-.009-.066-.022-.129-.035-.195a10.553 10.553 0 00-.072-.383.923.923 0 00-.342.066.564.564 0 00-.123.063.04.04 0 00-.022.013 1.18 1.18 0 00-.254.217l-.072.075a3.589 3.589 0 01-.393.4c-.038.031-.075.06-.116.088-.025.019-.053.035-.082.053a14.905 14.905 0 01-.016-.625c0-.126 0-.251.009-.371m-21.26 1.059c.05-.041.1-.082.154-.119s.129-.1.195-.141a1.75 1.75 0 00.116-.082.977.977 0 01.119-.079c.082-.053.163-.107.245-.157a.127.127 0 01.028-.016c.063-.041.123-.079.188-.113a.094.094 0 01.035-.019 10.399 10.399 0 01.863-.443c3.823-1.725 7.838-1.467 11.854-1.09.88.082 1.74.333 2.611.484a11.593 11.593 0 011.646.374c.126.041.251.085.374.135l.179.075c.116.053.232.11.342.173a3.165 3.165 0 011.609 2.714 3.51 3.51 0 001.115 2.1 7.346 7.346 0 001.184.946 3.27 3.27 0 002.2.613c.035-.006.072-.016.107-.025s.094-.028.141-.044a1.291 1.291 0 00.361-.192 1.091 1.091 0 00.116-.094 1.128 1.128 0 00.123-.123c.035-.038.069-.075.1-.113a2.926 2.926 0 01.471-.4 1.863 1.863 0 01.374-.192 1.275 1.275 0 01.185-.06 2.731 2.731 0 011.5.141l.352.113c.079.028.157.053.239.075s.157.05.239.072a4 4 0 01.917.377c.116.063.236.135.361.22h.001a1.782 1.782 0 00-.182 0 6.035 6.035 0 00-1.272.091c-.123.025-.245.05-.361.082a5.054 5.054 0 00-.342.107 3.93 3.93 0 00-.427.176 4.557 4.557 0 00-.581.33 4.984 4.984 0 00-.675.553 15.221 15.221 0 00-2.488 3.977 8.8 8.8 0 01-1.632 2.205 8.627 8.627 0 01-1.109.927c-.2.135-.4.267-.6.39s-.418.239-.635.346a11.67 11.67 0 01-1.351.569c-.189.063-.377.126-.569.185a16.746 16.746 0 01-1.781.427 1.806 1.806 0 01-.776.013.566.566 0 01-.066-.025.666.666 0 01-.113-.066.336.336 0 01-.05-.044c-.163-.167-.207-.471-.063-.986a2.822 2.822 0 00-.3.123 2.605 2.605 0 00-.264.141l-.126.079a1.994 1.994 0 00-.314.264 1.624 1.624 0 00-.484 1.291 1.757 1.757 0 00.525 1.156 1.965 1.965 0 00.245.21 1.9 1.9 0 00.229.148 1.176 1.176 0 00.141.069.044.044 0 00.031.016.51.51 0 00.072.035.024.024 0 00.016.006 1.79 1.79 0 00.195.075c.085.028.173.053.261.075.082-.079.163-.157.242-.239a72.283 72.283 0 01-.657-.911c-.041-.057-.085-.116-.129-.179 1.819.069 3.575.088 5.3-.019q1.041-.061 2.07-.188a26.6 26.6 0 002.052-.342c3-.628 5.969-1.31 8.64-3.189a7.182 7.182 0 01-.537 3.792c-.063.2-.132.405-.2.6s-.138.4-.21.6c-.047.132-.1.264-.148.4-.1.261-.2.518-.311.776s-.217.509-.33.76q-.2.429-.405.848-.212.419-.434.829c-.113.2-.229.408-.346.609a23.269 23.269 0 01-2.806 3.864c-.069.079-.138.154-.207.229a.272.272 0 01-.041.044 22.754 22.754 0 01-1.38 1.373c-.108.094-.2.189-.311.28-.116.107-.236.21-.358.308-.094.082-.188.16-.283.239a14.4 14.4 0 01-.333.267c-.057.047-.11.091-.167.132l-.17.132c-.094.072-.189.141-.283.21s-.176.129-.264.189c-.119.085-.239.163-.358.242-.154.1-.308.2-.462.289s-.283.167-.424.248c-.05.028-.1.057-.154.082q-.137.075-.273.141a5.827 5.827 0 01-.415.2q-.137.066-.273.123a.762.762 0 01-.116.05c-.1.047-.21.091-.314.132-.239.094-.478.179-.716.261s-.478.148-.719.21c-.126.031-.248.063-.374.088-.038.009-.072.019-.11.025s-.1.022-.148.031l-.1.019c-.094.019-.185.038-.28.05-.06.013-.116.019-.173.028a12.869 12.869 0 01-.704.082.567.567 0 00-.069.006h-.069c-.049.005-.1.007-.151.01a7.57 7.57 0 01-.5.022h-.22c-.094 0-.185 0-.276-.006a9.3 9.3 0 01-1.225-.119 2.047 2.047 0 01-.21-.038c-.157-.025-.317-.06-.474-.094s-.311-.082-.465-.126a6.686 6.686 0 01-.324-.1.87.87 0 01-.085-.025c-.091-.031-.182-.066-.273-.1a1.47 1.47 0 01-.151-.057c-.063-.025-.129-.047-.189-.075a.01.01 0 01-.006 0l-.094-.038c-.031-.013-.063-.025-.094-.041s-.063-.028-.094-.044a.133.133 0 01-.044-.019 4.653 4.653 0 01-.276-.132c-.035-.016-.069-.035-.1-.05s-.041-.022-.063-.031l-.189-.1-.1-.057a8.16 8.16 0 01-.763-.481c-.038-.025-.075-.053-.113-.079a.419.419 0 01-.06-.044c-.019-.016-.038-.028-.057-.044s-.038-.028-.06-.044c-.063-.047-.126-.094-.185-.145s-.126-.1-.185-.148l-.028-.022a.083.083 0 01-.019-.016 6.037 6.037 0 01-.317-.28 4.466 4.466 0 01-.273-.261c-.053-.053-.1-.1-.154-.157q-.009 0-.009-.009a1.785 1.785 0 01-.167-.179.1.1 0 01-.035-.038l-.075-.085a8.924 8.924 0 01-.732-.933 5.684 5.684 0 01-.163-.242c-.1-.157-.2-.314-.289-.474a11.268 11.268 0 01-.613-1.231c-.025-.05-.044-.1-.066-.151q-.071-.17-.132-.339l-.113-.311q-.061-.17-.113-.339-.066-.2-.123-.405a13.06 13.06 0 01-.132-.49c-.038-.141-.069-.283-.1-.424s-.063-.276-.1-.412a4.063 4.063 0 00-.075-.289c-.044-.167-.094-.33-.145-.49-.044-.135-.088-.27-.138-.4-.019-.053-.038-.11-.06-.163a10.696 10.696 0 00-.446-1.053q-.108-.226-.226-.443a12.047 12.047 0 00-.276-.487 10.579 10.579 0 00-.616-.93c-.11-.151-.223-.3-.342-.443s-.236-.292-.361-.434a8.52 8.52 0 00-.468-.506 15.14 15.14 0 00-.794-.764 10.964 10.964 0 00-.393-.336 14.156 14.156 0 00-.465-.377 12.572 12.572 0 01-1.345-1.2q-.24-.25-.462-.509c-.088-.107-.179-.214-.261-.324a3.584 3.584 0 01-.138-.179c-.079-.1-.151-.2-.223-.3a13.903 13.903 0 01-.267-.4l-.019-.031a13.808 13.808 0 01-.232-.39q-.221-.391-.405-.792c-.035-.072-.066-.148-.1-.22a8.927 8.927 0 01-.346-.924 15.015 15.015 0 01-.204-.693c-.006-.035-.016-.069-.022-.1a.135.135 0 000-.016v-.006a.365.365 0 01-.013-.057 7.43 7.43 0 01-.109-.502c-.041-.21-.079-.424-.107-.641s-.057-.43-.075-.65a15.89 15.89 0 01-.06-1.329c0-.163 0-.33.009-.5v-.151c.006-.148.016-.292.025-.44.019-.289.044-.581.079-.877.013-.123.028-.245.044-.368.013-.1.025-.2.041-.3.016-.116.038-.232.063-.346 0-.016.006-.035.009-.05.016-.075.035-.148.053-.22a4.56 4.56 0 01.173-.55.629.629 0 01.031-.082c.025-.066.05-.126.079-.189a.984.984 0 01.047-.1c.019-.044.038-.085.06-.129s.047-.1.072-.145c.063-.119.132-.239.2-.355.057-.088.116-.179.179-.264s.1-.141.157-.21a4.1 4.1 0 01.283-.336l.138-.151c.047-.051.1-.1.148-.148.085-.082.176-.167.267-.245s.182-.157.28-.232M67.28 43.5a2.768 2.768 0 01-.587.311 3.936 3.936 0 01-.484.148 4.87 4.87 0 01-.528.1c-.27.044-.544.072-.814.1-.182.019-.364.038-.54.063-.06 0-.119.006-.182.006h-.37a.613.613 0 01-.075-.006.287.287 0 00-.053 0c-.016 0-.035 0-.05-.006-.041 0-.079-.009-.116-.016s-.075-.013-.11-.022a1.22 1.22 0 01-.236-.079c-.038-.016-.069-.035-.1-.05a.639.639 0 01-.082-.057.682.682 0 01-.145-.141.935.935 0 01-.063-.091c-.38-.638.324-1.015.7-1.4a5.3 5.3 0 00.745-1.005c.336-.578.6-1.194.949-1.762a1.958 1.958 0 01.578-.65.85.85 0 01.2-.107c.412-.151.861.028 1.326.562a5.492 5.492 0 01.669.927 1.329 1.329 0 01.069.132 2.77 2.77 0 01.245.663 1.273 1.273 0 01.028.151c.009.057.016.116.022.173a.33.33 0 010 .079 1.625 1.625 0 010 .276.31.31 0 01-.009.075c0 .022-.006.044-.009.069a.451.451 0 01-.013.069q-.019.1-.047.2a.94.94 0 01-.031.1l-.038.1c-.016.038-.031.079-.05.116a2.432 2.432 0 01-.493.713 2.087 2.087 0 01-.3.254M8.107 53.993a1.778 1.778 0 01-.276.116h-.006a1.535 1.535 0 01-.3.057 2.286 2.286 0 01-1.272-.308c-1.32-1.876-.977-4.018-.754-6.032a28.7 28.7 0 015.416-13.861.179.179 0 01.022-.025.173.173 0 01.022-.028l.006-.006a8.531 8.531 0 011.282-1.7 5.39 5.39 0 011.228-1.144 1.687 1.687 0 01.138-.129v-.006a.2.2 0 01.1-.079h.006a1.262 1.262 0 01.361-.2 17.488 17.488 0 011.511-1.326c.116-.091.236-.182.355-.267.044-.035.091-.069.138-.1.135-.1.273-.195.415-.286.16-.11.327-.214.493-.317.11-.066.223-.135.339-.2 0 0 .006-.006.009 0q.108-.066.217-.123.184-.1.377-.2a16.73 16.73 0 011.077-.487c.154-.06.3-.116.462-.17.176-.063.355-.123.537-.176s.364-.107.55-.151c.374-.094.754-.173 1.144-.236.254-.041.506-.072.754-.091a.014.014 0 00.016 0 8.219 8.219 0 011.037-.025 7.168 7.168 0 01.745.057 8.774 8.774 0 01.936.166c.126.028.251.06.377.1.107.031.214.063.32.1a10.185 10.185 0 01.65.235 10.635 10.635 0 011.872 1.012 12.248 12.248 0 01.716.518l.17.132q.509.4 1.008.864a115.32 115.32 0 00-3.189 1.697 53.89 53.89 0 00-1.03.584c-.17.094-.336.195-.5.292s-.339.2-.506.308a38.815 38.815 0 00-1.163.732c-.047.028-.091.06-.135.088-.113.075-.223.148-.333.223-.273.182-.544.368-.811.559-.16.11-.317.223-.474.339-.195.145-.39.289-.581.44s-.383.3-.572.443c-.1.075-.192.151-.286.226-.17.135-.336.27-.5.408a.333.333 0 00-.038.031q-.339.278-.669.566c-.223.189-.443.383-.66.578s-.43.393-.641.591c-.1.094-.2.192-.3.289l-.3.292a.535.535 0 00-.075.072c-.163.16-.32.32-.481.484-.116.116-.229.232-.339.352s-.226.232-.333.352l-.3.33c-.145.163-.289.324-.43.487s-.273.317-.405.478-.261.314-.39.474a.688.688 0 00-.063.079 29.127 29.127 0 00-.99 1.301c-.075.1-.151.207-.223.311-.05.069-.1.138-.145.21-.088.123-.173.251-.258.377a23.702 23.702 0 00-.588.914l-.3.493c-.079.132-.157.261-.229.4-.179.308-.352.619-.515.933-.085.157-.167.314-.245.474s-.16.32-.239.481c-.094.192-.185.386-.273.581-.057.116-.11.236-.16.355-.031.066-.06.132-.088.2q-.264.6-.5 1.225c-.088.226-.17.449-.251.679-.088.248-.173.5-.258.751q-.217.66-.405 1.338a2.457 2.457 0 01-.075.229v.006a2.732 2.732 0 01-.339.685 1.116 1.116 0 01-.072.1 1.278 1.278 0 01-.173.195 1.105 1.105 0 01-.06.057.459.459 0 01-.06.05 1.191 1.191 0 01-.126.094c-.041.028-.085.053-.129.079m16.4-12.934c.009.063.019.123.031.185a9.33 9.33 0 00.075.349l.044.167c.047.16.1.317.157.478l.06.145c.022.051.05.126.079.189a9.329 9.329 0 001.957 2.721c.063.06.123.123.185.182s.135.132.2.195l.21.2.446.4c.075.069.154.135.232.2s.138.119.21.179c.035.031.069.06.107.088s.072.057.11.088c.188.151.377.3.566.456.713.569 1.429 1.134 2.117 1.731.088.075.173.151.261.229.019.016.038.031.057.05.1.088.2.173.3.264a22.56 22.56 0 011.078 1.062l.047.047c.016.016.035.031.053.05.057.053.119.107.179.163a.355.355 0 01.035.035.179.179 0 01.035.035l.066.066a.055.055 0 01.013.016.659.659 0 01.044.053l.047.066a.691.691 0 01.072.145.748.748 0 01.044.355c-2.243.148-4.618-.716-6.893-.154a7.97 7.97 0 00-.358.1c-.06.019-.119.038-.179.06l-.179.066a4.9 4.9 0 00-.584.27 6.282 6.282 0 00-.725.465c-.05.038-.1.079-.154.119a6.4 6.4 0 00-.459.4c-.057.053-.113.11-.17.167q-.085-.471-.189-.924c-.006-.038-.016-.072-.025-.11a5.627 5.627 0 00-.06-.248c-.006-.031-.016-.06-.022-.091a14.405 14.405 0 00-.4-1.354c-.038-.113-.079-.226-.119-.336s-.072-.2-.113-.3a10.827 10.827 0 00-.566-1.216c-.053-.1-.11-.195-.167-.292s-.107-.176-.163-.261a2.2 2.2 0 00-.138-.21 5.086 5.086 0 00-.345-.471 6.387 6.387 0 00-.544-.615 5.179 5.179 0 00-.242-.229c-.05-.047-.1-.094-.154-.138a3.403 3.403 0 00-.236-.192c-.066-.053-.132-.1-.2-.151a.555.555 0 00-.075-.053l-.126-.088a1.511 1.511 0 00-.129-.085.017.017 0 00-.013-.009 5.571 5.571 0 00-.264-.157c-.038-.022-.075-.044-.116-.066a3.174 3.174 0 00-.292-.148 4.196 4.196 0 00-.355-.157c-.138-.06-.276-.113-.421-.16s-.289-.094-.44-.135a4.53 4.53 0 00-.289-.075c-.041-.013-.085-.022-.129-.031-.072-.016-.148-.031-.223-.044s-.145-.031-.22-.041-.16-.028-.245-.038a.737.737 0 00-.116-.016 4.916 4.916 0 00-.374-.041.427.427 0 00-.091-.009c-.069-.006-.145-.013-.217-.013a4.472 4.472 0 00-.283-.016 12.881 12.881 0 00-1.816.06l.151-.217.151-.217q.226-.325.462-.641c.154-.214.308-.421.468-.628s.317-.412.478-.613.324-.4.487-.6q.49-.589 1-1.15c.17-.189.342-.374.515-.556s.346-.364.522-.54c.116-.123.236-.242.355-.355q.712-.7 1.455-1.36t1.521-1.276c.261-.21.522-.415.785-.609s.531-.4.8-.591.544-.39.82-.575.553-.377.836-.556.566-.368.851-.544c.006-.006.016-.009.022-.016.443-.273.9-.54 1.351-.8a2.5 2.5 0 01-.653 1.64c-1.517 2.617-2.165 4.7-1.872 6.591M10.08 73.767v.009a.488.488 0 01-.022.1v.006a.2.2 0 01-.025.06.747.747 0 01-.173.232l-.066.057c-.022.019-.047.035-.072.053s-.053.035-.082.05a5.735 5.735 0 01-.229.135q-.207.123-.424.236l-.254.132a7.46 7.46 0 01-.405.185l-.21.085c-.06.025-.123.05-.185.072-.047.019-.1.035-.148.053-.1.035-.2.069-.308.1-.088.028-.179.053-.27.079-.05.013-.1.028-.154.041a4.613 4.613 0 01-.226.053l-.223.047-.267.047c-.1.016-.2.031-.311.044-.072.009-.145.019-.22.025-.145.016-.289.028-.44.038l-.1.006a2.06 2.06 0 01-1.411-.7 2.68 2.68 0 01-.2-.217c-.066-.079-.132-.157-.195-.245a6.025 6.025 0 01-.333-.515l-.038-.066c-.05-.091-.1-.182-.148-.276a6.161 6.161 0 01-.195-.427c-.044-.1-.085-.2-.123-.308q-.047-.113-.085-.236c-.035-.1-.069-.195-.1-.3a7.817 7.817 0 01-.151-.544c-.013-.053-.025-.1-.035-.157a.262.262 0 01-.013-.047c-.031-.145-.06-.292-.085-.44 0-.009 0-.022-.006-.035l-.047-.3-.019-.173c-.009-.075-.019-.151-.025-.226l-.013-.182v-.044c-.006-.107-.013-.214-.013-.317-.006-.176 0-.349.006-.515 0-.091.009-.182.016-.273l.009-.094c.013-.1.025-.2.041-.3s.038-.2.057-.3v-.006a3.6 3.6 0 01.195-.638 2.466 2.466 0 01.132-.276 3.617 3.617 0 01.581-.779c.079-.082.16-.16.248-.239s.173-.154.267-.226.176-.135.267-.2a5.867 5.867 0 01.66-.4c.06-.031.119-.063.179-.091a5.386 5.386 0 01.556-.239c.066-.025.129-.05.195-.072a5.882 5.882 0 01.707-.189 1.721 1.721 0 01.176-.031c.16-.025.324-.041.481-.05.069 0 .135-.006.2-.006H7a3.333 3.333 0 01.358.019 3.051 3.051 0 01.346.057.641.641 0 01.11.035.312.312 0 01.094.038.219.219 0 01.072.035.628.628 0 01.141.11.377.377 0 01.035.038l.028.041a.551.551 0 01.063.11 1.866 1.866 0 01.126.506 43.965 43.965 0 001.64 7.279 1.147 1.147 0 01.066.361.7.7 0 01-.009.116m6.393 5.564c-.028.041-.06.085-.088.129-.05.072-.1.145-.145.223-.06.1-.116.2-.173.3s-.107.2-.16.314-.1.22-.151.336c-.044.094-.085.195-.123.3s-.082.207-.119.317c-.028.072-.053.145-.079.22-.022.06-.044.123-.063.185-.031.091-.06.185-.091.28-.094-.141-.182-.286-.27-.427a56.11 56.11 0 01-.518-.861 42.116 42.116 0 01-.487-.874 34.911 34.911 0 01-1.759-3.779c-.06-.148-.116-.3-.173-.443-.163-.43-.32-.864-.468-1.3a.489.489 0 01-.025-.072 20.345 20.345 0 01-.251-.77 21.843 21.843 0 01-.269-.889c-.025-.082-.05-.163-.069-.245-.082-.276-.157-.556-.232-.836a27.826 27.826 0 01-.242-.946 49.109 49.109 0 01-.635-2.912q-.071-.349-.132-.7a11.33 11.33 0 00.54.528 8.549 8.549 0 00.789.638c.088.066.176.129.267.189s.182.119.273.176.182.113.273.167.185.1.276.154.185.1.28.145l.283.135c.094.044.189.085.283.126.135.057.267.11.4.163s.27.1.405.148c.157.05.311.1.468.148s.311.091.468.135a21.84 21.84 0 001.19.28c.556.113 1.118.214 1.681.311l.06.009.581.1.32.057c.214.038.424.075.638.116.107.019.214.038.317.06a20.155 20.155 0 018.407 3.585 1.147 1.147 0 01.1.082 4.43 4.43 0 01.368.319.465.465 0 01.079.079 2.015 2.015 0 01.132.154 1.288 1.288 0 01.11.157c.009.016.022.035.031.053a1.031 1.031 0 01.126.339.6.6 0 01.009.079.943.943 0 010 .21.715.715 0 01-.028.16.967.967 0 01-.025.088.817.817 0 01-.041.113c-.009.028-.022.053-.035.082a.948.948 0 01-.057.113 2.944 2.944 0 01-.258.386 1.34 1.34 0 00-.094.138c-.019.028-.031.053-.047.082l-.019.041a2.57 2.57 0 00-.123.3.787.787 0 00-.028.079l-.025.085c-.009.028-.022.066-.031.1a.5.5 0 00-.016.066l-.135.493c-.013.044-.025.085-.041.129a.1.1 0 00-.006.025 1.483 1.483 0 01-.05.141.961.961 0 01-.041.1.765.765 0 01-.044.088.785.785 0 01-.066.11l-.057.063a.137.137 0 00-.019.022.262.262 0 01-.066.05.664.664 0 01-.066.035c-.562.226-1.492-.5-2.278-.767a13.044 13.044 0 00-5.1-.493 6.864 6.864 0 00-.933.119c-.066.013-.129.025-.192.041l-.16.038a4.27 4.27 0 00-.82.286c-.053.025-.107.05-.16.079a.079.079 0 00-.022.013 1.016 1.016 0 00-.113.063 1.722 1.722 0 00-.163.1 4.493 4.493 0 00-.195.135 3.463 3.463 0 00-.292.239 2.93 2.93 0 00-.138.135 3.736 3.736 0 00-.358.412c-.031.038-.06.079-.088.116m16.301 8.544q-.014-.335-.047-.669a21.34 21.34 0 00-.167-1.338c0-.006 0-.013-.006-.016v-.009a2.34 2.34 0 01-.053-.622.488.488 0 01.013-.066.377.377 0 01.094-.182.252.252 0 01.041-.041.536.536 0 01.163-.1.987.987 0 01.239-.069 1.728 1.728 0 01.21-.035l.107-.013a.342.342 0 00.079-.013.8.8 0 00.085-.016c.019 0 .038-.009.06-.013s.06-.009.091-.019a.126.126 0 00.047-.009l.091-.025c.028-.009.06-.016.091-.025s.06-.022.088-.031.035-.009.05-.013l.047-.019c.038-.013.075-.025.113-.041h.006c.035-.013.072-.028.107-.044.085-.035.167-.075.245-.113s.148-.075.217-.116c.05-.028.1-.057.148-.088.066-.038.129-.079.192-.119.119-.075.236-.157.352-.245a7.42 7.42 0 00.446-.342c.358-.289.7-.594 1.059-.877a14.413 14.413 0 013.924-2.52 2.811 2.811 0 01.43-.123 1.933 1.933 0 01.32-.038 1.424 1.424 0 01.232.009h.044l.047.009a.4.4 0 01.088.019.6.6 0 01.107.031.514.514 0 01.1.044.571.571 0 01.1.05c.035.022.069.044.1.069a.972.972 0 01.123.1.653.653 0 01.066.066 1.418 1.418 0 01.135.167 1.056 1.056 0 01.066.1 2 2 0 01.066.116 1 1 0 01.05.1l.066.148c.022.048.041.1.06.151a12.789 12.789 0 01.537 3.55c-.192 2.79-.594 5.438.05 8.077a.088.088 0 000 .019 15.226 15.226 0 00.76 2.205c.374.9.8 1.778 1.162 2.68q.118.292.207.566c.057.182.107.358.148.528a4.187 4.187 0 01.116.939c0 .069 0 .138-.009.2a.062.062 0 010 .035v.053a2.094 2.094 0 01-.028.2 1.355 1.355 0 01-.047.195.572.572 0 01-.022.079.737.737 0 01-.044.116 1.2 1.2 0 01-.066.145v.009a.285.285 0 01-.035.069.006.006 0 01-.006.006l-.038.066a1.114 1.114 0 01-.11.16 1.047 1.047 0 01-.113.126.125.125 0 01-.035.038.605.605 0 01-.094.085.219.219 0 01-.05.044.724.724 0 01-.05.038 1.445 1.445 0 01-.2.132.932.932 0 01-.157.082.238.238 0 01-.057.028 1.862 1.862 0 01-.176.072 3.28 3.28 0 01-.6.16c-.057.009-.113.019-.173.025a.04.04 0 01-.019 0l-.173.019c-.119.009-.245.019-.374.022a7.864 7.864 0 01-.924-.031c-.107-.009-.214-.022-.317-.031a14.769 14.769 0 01-1.536-.264 4.003 4.003 0 01-.258-.06 13.414 13.414 0 01-.71-.201c-.126-.041-.254-.082-.38-.126-.11-.038-.214-.072-.32-.116a14.201 14.201 0 01-1.31-.569l-.258-.132c-.254-.129-.5-.267-.741-.412-.066-.038-.132-.075-.195-.116-.141-.085-.283-.173-.421-.267s-.292-.195-.437-.3c-.088-.06-.173-.123-.258-.182s-.176-.129-.261-.192a16.595 16.595 0 01-1-.8c-.151-.129-.3-.258-.449-.39l-.038-.035c-.16-.145-.32-.292-.478-.44s-.317-.3-.471-.452q-.259-.254-.518-.518c-.17-.176-.339-.352-.509-.531a1.417 1.417 0 01-.446-1.2 2.058 2.058 0 01.3-.773 8.677 8.677 0 00.616-1.244c.085-.21.16-.421.229-.635a9.93 9.93 0 00.405-1.923l.028-.286c.009-.097.016-.189.022-.28 0-.123.009-.242.016-.364s.006-.27.006-.408c0-.223-.006-.449-.016-.675M29.257 83.3a2.327 2.327 0 00.179.173l.079.069a1.541 1.541 0 00.163.129c.028.022.057.041.085.06a.542.542 0 00.088.06c.028.019.06.038.091.057.072.044.145.088.21.135s.135.091.2.141l.167.126c.072.06.141.119.207.182l.069.066c.044.044.088.085.126.129.082.082.157.17.229.258.053.069.107.138.154.207a2.451 2.451 0 01.145.223 1 1 0 01.06.1 1.147 1.147 0 01.057.107l.066.129c.031.063.063.129.088.195a1.529 1.529 0 01.066.167.194.194 0 01.022.06c.019.05.035.1.05.154a.247.247 0 01.025.082c.016.05.031.1.044.154a1.624 1.624 0 01.05.214c.019.085.035.173.05.261a6.587 6.587 0 01.079 1.285 13.252 13.252 0 01-.738 3.962c-.022.06-.047.119-.072.176a2.269 2.269 0 01-.138.276c-.025.044-.05.088-.079.129a1.68 1.68 0 01-.138.195c-.019.025-.041.05-.063.075a.522.522 0 01-.041.044c-.047.047-.094.094-.141.135a1.123 1.123 0 01-.154.119 1.261 1.261 0 01-.138.085.065.065 0 01-.031.019 1.9 1.9 0 01-.349.145 3.714 3.714 0 01-.195.044 1.177 1.177 0 01-.207.028 3.024 3.024 0 01-.839-.057 5.362 5.362 0 01-.358-.082 5.541 5.541 0 01-.647-.207 1.413 1.413 0 01-.148-.057c-.066-.025-.132-.05-.195-.082-.085-.035-.167-.075-.251-.116s-.195-.1-.289-.148c-.254-.138-.509-.28-.76-.424a26.014 26.014 0 01-1.116-.666q-.226-.141-.452-.292c-.126-.082-.251-.163-.374-.248a28.755 28.755 0 01-2.73-2.074 8.031 8.031 0 01-.437-.383 30.95 30.95 0 01-1.04-.977 26.84 26.84 0 01-1.935-2.114c-.182-.226-.364-.452-.544-.685a3.627 3.627 0 01-.276-.412 3.441 3.441 0 01-.17-.317 1.571 1.571 0 01-.066-.151.786.786 0 01-.047-.119.928.928 0 01-.05-.138 1.482 1.482 0 01-.035-.107.493.493 0 01-.025-.091 3.117 3.117 0 01-.075-.33 2.849 2.849 0 01-.031-.192 1.885 1.885 0 01-.019-.192c-.006-.063-.009-.126-.013-.192v-.091a3.733 3.733 0 01.025-.591.571.571 0 01.009-.1 5.943 5.943 0 01.179-.889 2.75 2.75 0 01.079-.27c.022-.066.041-.132.066-.2l.009-.028a7.063 7.063 0 01.242-.603s0-.006.006-.013c.031-.066.066-.132.1-.195 0-.006.006-.013.009-.019.028-.05.057-.1.088-.145a1.341 1.341 0 01.094-.138.12.12 0 01.028-.041 1.687 1.687 0 01.11-.141s0-.006.006-.009a2.65 2.65 0 01.167-.182 1.733 1.733 0 01.135-.129c0-.006.006-.009.009-.006.022-.022.044-.041.066-.06 0-.006.006-.006.009-.009a1.224 1.224 0 01.16-.126 1.857 1.857 0 01.192-.129l.047-.028a1.644 1.644 0 01.179-.1l.019-.009a2.023 2.023 0 01.223-.1 1.716 1.716 0 01.242-.088 2.315 2.315 0 01.251-.075 4.383 4.383 0 011.093-.129c.207 0 .415 0 .619.013.1 0 .207 0 .308.009a12.411 12.411 0 01.906.072l.327.038c.088.013.173.022.258.038a.4.4 0 01.06.013c.088.013.176.028.264.044l.1.019.041.009c.019 0 .038.009.057.013.11.022.223.047.333.075.094.019.185.044.276.069a5.144 5.144 0 01.54.17.051.051 0 00.028.009l.031.009c.138.05.276.107.412.163a5.556 5.556 0 01.553.267 5.862 5.862 0 01.424.248.676.676 0 01.06.041c.06.038.116.075.176.116a.055.055 0 01.016.013q.132.094.254.188s.006 0 .009.006c.028.022.057.047.085.072.069.057.135.113.2.173.05.044.1.088.151.138s.091.085.135.132a.69.69 0 01.053.057 6.646 6.646 0 01.471.544c.079.1.154.2.223.308a7.932 7.932 0 01.431.697l.16.3c.038.075.079.151.119.226a1.548 1.548 0 00.082.135 2.6 2.6 0 00.123.192 3.387 3.387 0 00.421.525m4.508-12.683q0 .1-.019.207c-.006.066-.016.132-.025.2v.009a4.744 4.744 0 01-.163.685 2.678 2.678 0 01-.1.28l-.019.044q-.057.132-.123.254a.01.01 0 010 .006 3.412 3.412 0 01-.296.465c-.022.031-.047.06-.072.091a2.649 2.649 0 01-.179.2c-.066.069-.135.135-.207.2s-.145.126-.223.189a.1.1 0 01-.022.016c-.066.047-.132.1-.2.145s-.145.1-.223.141-.163.094-.248.138-.173.088-.261.129-.179.079-.273.116c-.075.031-.151.06-.229.088-.05.019-.1.035-.145.05a5.606 5.606 0 01-.346.11.931.931 0 01-.119.028.136.136 0 01-.05 0 .5.5 0 01-.424-.16 1.5 1.5 0 01-.167-.2 9.437 9.437 0 00-.713-.839 4.545 4.545 0 00-.207-.21 2.527 2.527 0 00-.185-.182 6.317 6.317 0 00-.258-.236 9.3 9.3 0 00-1.605-1.131 5.928 5.928 0 00-.22-.119 10.836 10.836 0 00-1.008-.465 7.614 7.614 0 00-.682-.248 13.6 13.6 0 00-.949-.273c-.088-.022-.173-.044-.261-.063a16.967 16.967 0 00-1.048-.211c-.069-.01-.16-.028-.242-.041-.123-.022-.245-.038-.368-.057q-.372-.052-.745-.094c-.189-.019-.374-.038-.562-.053s-.374-.035-.566-.05c-.276-.022-.556-.041-.836-.06l-.3-.019a10.362 10.362 0 01-7.128-2.881 4.928 4.928 0 01-.251-.276c-.053-.06-.1-.119-.151-.182-.006 0-.009 0-.006-.006-.013-.006-.016-.016-.022-.025-.053-.06-.1-.123-.148-.185a6.122 6.122 0 01-.261-.361c-.069-.1-.135-.2-.195-.3a.211.211 0 00-.022-.035c-.031-.053-.066-.107-.094-.163a2.573 2.573 0 01-.135-.239c-.057-.1-.11-.21-.16-.317-.035-.066-.066-.135-.1-.2a.012.012 0 010-.009 8.074 8.074 0 01-.348-.876q-.052-.141-.094-.292v-.006a2.943 2.943 0 01-.066-.232.1.1 0 01-.013-.041 3.879 3.879 0 01-.072-.267.092.092 0 01-.006-.028 10.465 10.465 0 01-.2-1 14.36 14.36 0 01-.167-2.2q0-.537.028-1.074c.006-.119.013-.236.022-.355q.014-.236.038-.471a20.356 20.356 0 01.163-1.314q.038-.259.085-.518c.013-.072.025-.145.041-.217a.04.04 0 000-.019.65.65 0 00.013-.069c.013-.079.022-.119.022-.119.028-.148.06-.3.091-.443q.071-.325.151-.65c.05-.22.107-.443.167-.663l.132-.481c.044-.157.091-.32.141-.481.069-.236.145-.468.22-.7s.157-.468.239-.7a18.735 18.735 0 01.33-.895l.151-.364.188-.434c.063-.141.126-.286.192-.427.192-.427.386-.855.562-1.288.057-.138.113-.276.163-.415.041-.11.085-.214.129-.311l.057-.119a3.16 3.16 0 01.066-.129 2.832 2.832 0 01.192-.317 2.347 2.347 0 01.3-.349.644.644 0 01.085-.079.127.127 0 01.031-.028.763.763 0 01.1-.075 1.437 1.437 0 01.195-.123.78.78 0 01.138-.063.849.849 0 01.141-.05 1.269 1.269 0 01.148-.038.826.826 0 01.154-.022 1.991 1.991 0 01.751.079c.251 0 .493.013.732.028l.349.028c.116.009.229.019.342.038q.434.052.839.141c.063.013.129.025.192.041.082.019.16.038.239.063a6.724 6.724 0 01.748.245 1.91 1.91 0 01.185.075.012.012 0 01.009 0 1.817 1.817 0 01.179.079c.006 0 .009 0 .016.006.082.038.163.075.242.119.129.066.254.135.377.21.057.035.113.066.167.1.113.072.22.148.327.229.047.035.094.069.138.107s.107.085.16.132c.069.06.141.123.207.189.041.038.082.075.123.119s.079.079.119.119c.085.088.17.179.248.276q.071.08.132.16c.057.069.11.138.16.21.044.057.088.116.129.179s.091.132.135.2c.057.085.11.176.163.267a9.956 9.956 0 01.421.807c.031.066.063.132.091.2.044.1.088.2.129.311.075.182.148.374.214.569.145.418.264.842.371 1.266q.042.156.075.311c.038.16.075.32.107.481.025.1.044.2.063.3.035.16.063.32.091.481.06.324.113.647.167.974.047.283.091.569.138.855.113.713.232 1.423.38 2.127a20.136 20.136 0 00.318 1.301c.044.151.085.3.132.446.041.129.082.258.126.386.031.1.069.2.107.308.041.119.085.239.132.355.028.075.057.151.088.226s.069.167.1.248l.069.16c.022.053.041.094.063.141.035.079.069.154.107.229.019.044.041.088.063.129.053.113.11.226.17.336s.11.207.17.308.119.217.185.32.129.214.195.314c.091.148.189.289.289.43s.188.261.286.39q.108.141.226.283t.226.264c.05.06.1.119.157.176.069.079.141.154.214.226a10.819 10.819 0 001.188 1.049c.072.057.145.11.22.16s.129.094.195.138a.4.4 0 00.06.041c.132.088.267.176.405.261a.313.313 0 00.06.038c.154.091.311.182.471.27s.352.185.534.27c.342.163.7.314 1.068.449.192.069.383.135.581.2.1.031.195.063.3.091l.3.085.094.028a.572.572 0 01.079.025.891.891 0 01.1.035c.057.022.11.047.16.072.025.013.05.025.075.041a.712.712 0 01.082.05.615.615 0 01.072.053.334.334 0 01.038.031.127.127 0 01.031.028 1.205 1.205 0 01.088.091.963.963 0 01.145.21c.025.05.05.1.072.157a1.392 1.392 0 01.057.173c.016.06.031.119.044.185v.016c.013.063.022.132.031.2a6.859 6.859 0 01.035 1.282m12.856-1.109q-.269.1-.528.189c-.525.182-1.04.342-1.546.493-.254.072-.506.145-.754.21s-.5.129-.745.192c-.276.069-.553.135-.823.195-.459.107-.911.2-1.36.3-.716.154-1.423.3-2.13.459-.908.2-1.857.251-2.74.522a1.7 1.7 0 01-.606.094c-.025-.006-.05-.009-.075-.016a.659.659 0 01-.126-.057.286.286 0 01-.066-.057.459.459 0 01-.107-.2.841.841 0 01-.022-.085 1.382 1.382 0 01-.028-.242 2.914 2.914 0 010-.324 7.727 7.727 0 00-.135-2.633.714.714 0 01-.057-.471.106.106 0 01.019-.038.248.248 0 01.038-.047.483.483 0 01.107-.069l.05-.019a5.2 5.2 0 00.8-.336l.1-.057a.634.634 0 00.1-.057c.066-.038.132-.079.2-.119s.126-.085.188-.126c.126-.088.248-.182.364-.276.06-.05.116-.1.173-.148s.113-.1.17-.154.11-.107.163-.16a7.587 7.587 0 00.515-.568c.022-.025.044-.05.063-.075s.038-.05.06-.075c.041-.05.082-.1.123-.154.079-.1.157-.207.232-.314s.154-.214.229-.324c.226-.327.443-.669.663-1.015.075.116.151.232.229.346.019.028.038.057.06.085.028.044.057.088.088.129l.2.28c.065.091.123.16.185.239a.173.173 0 00.022.028c.072.094.151.188.229.283a.94.94 0 00.075.088c.1.116.195.229.3.339.138.151.283.3.43.443l.141.135c0 .009.006.013.013.013a1.067 1.067 0 00.107.1.042.042 0 00.022.019c.063.063.132.119.2.182a2.551 2.551 0 00.2.173c.072.06.141.119.217.179.088.075.179.148.273.214s.207.157.314.232c.138.1.283.195.424.292a.751.751 0 00.066.041c.163.1.33.2.5.3s.346.2.525.292.358.185.544.273c0 .006 0 0 0 0a.043.043 0 00.028.016 1.253 1.253 0 00.132.063.028.028 0 00.022.009l.189.085c.251.11.509.22.773.324.11.041.22.082.33.126.075.028.154.057.232.082s.163.06.245.085c.06.022.116.041.176.06zm10.6 7.044a3.982 3.982 0 01-.782.776c-.05.041-.1.082-.16.119-.075.057-.154.11-.236.167-.123.082-.251.16-.386.239a13.309 13.309 0 01-.678.358q-.363.174-.745.32c-.254.1-.515.192-.779.273q-.226.071-.452.132a11.463 11.463 0 01-1.351.276 8.944 8.944 0 01-.54.057 6.531 6.531 0 01-1.2-.019 3.781 3.781 0 01-.6-.126 4.145 4.145 0 01-.367-.132 3.238 3.238 0 01-.478-.245c-.047-.031-.094-.063-.141-.1s-.082-.06-.119-.091a.1.1 0 01-.028-.025c-.038-.031-.072-.063-.107-.094a.961.961 0 01-.113-.113.9.9 0 01-.072-.082.989.989 0 01-.075-.094 1.62 1.62 0 01-.163-.242.608.608 0 01-.06-.107 1.132 1.132 0 01-.063-.123 1.776 1.776 0 01-.107-.251 1.8 1.8 0 01-.072-.22 1.177 1.177 0 01-.038-.141.011.011 0 010-.006.724.724 0 01-.019-.088.021.021 0 010-.019 2.723 2.723 0 01-.047-.242 3.401 3.401 0 01-.041-.314 19.176 19.176 0 01.377-4.489 9.87 9.87 0 00.088-.958c.003-.104.009-.207.009-.311v-.16c0-.138 0-.28-.013-.415s-.019-.276-.031-.415c-.013-.116-.025-.232-.047-.349a.028.028 0 000-.016c-.009-.085-.025-.167-.041-.251V69a2.65 2.65 0 00-.035-.173.019.019 0 000-.013 2.37 2.37 0 00-.035-.163v-.013c-.016-.066-.031-.135-.05-.2 0-.009 0-.016-.006-.025a1.041 1.041 0 00-.038-.132.074.074 0 00-.006-.025 6.333 6.333 0 00-.248-.71 4.3 4.3 0 00-.129-.3.193.193 0 00-.016-.038c-.035-.075-.072-.151-.11-.226s-.066-.123-.1-.185-.06-.107-.091-.16-.053-.091-.082-.135a3.347 3.347 0 00-.141-.229 8.6 8.6 0 00-.71-.943c-.044-.05-.088-.1-.138-.154l-.141-.154a4.228 4.228 0 00-.163-.167.563.563 0 00-.06-.063.535.535 0 00-.06-.06c-.066-.066-.135-.132-.2-.195q-.141-.132-.292-.264a.011.011 0 000-.006 2.989 2.989 0 00.041.452 1.126 1.126 0 00.028.141 3.772 3.772 0 00.12.421c.016.047.031.094.05.138.123.333.283.66.437 1 .031.066.06.129.088.195.047.1.091.207.132.317.031.072.057.148.085.223q.061.17.113.349a1.338 1.338 0 01.035.132c.016.06.031.119.044.182-.1-.035-.2-.072-.3-.11s-.2-.075-.3-.116c-.148-.057-.289-.119-.43-.188s-.28-.135-.415-.207c-.091-.047-.182-.1-.27-.148s-.173-.1-.261-.151c-.129-.079-.254-.16-.38-.242s-.248-.17-.368-.258a1.062 1.062 0 01-.119-.088 1.555 1.555 0 01-.119-.091q-.236-.184-.462-.377l-.226-.2a16.815 16.815 0 01-1.543-1.603c-1.254-1.477-.606-3.11-.606-4.735 0-.079 0-.157-.006-.236s-.006-.16-.016-.239a4.177 4.177 0 00-.022-.192c0-.041-.013-.085-.019-.126s-.019-.1-.031-.157a2.747 2.747 0 00-.072-.276c-.013-.044-.025-.085-.041-.126s-.031-.088-.05-.132a39.826 39.826 0 01-1.451 4.779 8.98 8.98 0 01-.236.512q-.08.174-.17.339l-.075.141c-.041.079-.082.154-.126.229s-.082.148-.126.217-.069.116-.1.17c-.094.154-.192.3-.292.44-.066.1-.135.189-.2.28a6.184 6.184 0 01-.735.811c-.044.038-.085.075-.126.113s-.088.072-.129.107q-.085.071-.17.132c-.05.038-.1.072-.151.107s-.129.088-.195.126-.116.069-.176.1a3.84 3.84 0 01-.723.3 4.008 4.008 0 01-.468.1c-.079.009-.154.019-.232.025a4.047 4.047 0 01-.616-.013 3.619 3.619 0 01-.4-.063c-.072-.016-.141-.031-.21-.05a.351.351 0 01-.072-.019l-.123-.038a1.038 1.038 0 01-.119-.038l-.132-.047a5.493 5.493 0 01-.672-.308 3.773 3.773 0 01-.248-.141 4.11 4.11 0 01-.3-.188 3.752 3.752 0 01-.248-.17l-.138-.1a1.81 1.81 0 01-.107-.082.4.4 0 01-.063-.05c-.066-.05-.135-.1-.2-.163a.333.333 0 01-.038-.031 5.974 5.974 0 01-.276-.242c-.082-.069-.16-.145-.242-.223-.22-.211-.44-.437-.663-.682a13.809 13.809 0 01-3.679-8.417 5.828 5.828 0 01-.009-.807c.006-.1.016-.207.028-.3q.014-.123.038-.236l.009-.057c.019-.094.041-.185.066-.27a1.988 1.988 0 01.082-.242 2.115 2.115 0 01.355-.609 1.607 1.607 0 01.141-.151.337.337 0 01.06-.057l.013-.013a.031.031 0 01.016-.013.583.583 0 01.085-.069c.006-.006.009-.013.016-.009a.418.418 0 01.06-.044.314.314 0 01.06-.038s.006-.009.009-.006a.012.012 0 01.009 0s.009-.009.013-.009h.012a.075.075 0 01.041-.022.33.33 0 01.1-.053.338.338 0 01.091-.041.044.044 0 01.035-.016c.035-.016.069-.028.1-.041h.006a1.272 1.272 0 01.185-.06 1.791 1.791 0 01.232-.053.028.028 0 01.016 0c.038-.006.075-.013.116-.016a.046.046 0 01.035-.006 1.477 1.477 0 01.17-.019c.1-.009.207-.013.317-.013a5.754 5.754 0 01.964.088q.584.1 1.169.17c.39.044.779.079 1.169.1h.006a15.579 15.579 0 005.85-.726c.185-.063.377-.116.566-.192.041-.016.079-.031.119-.05s.1-.047.154-.075a1.748 1.748 0 00.264-.167c.019-.016.041-.031.063-.05s.072-.06.107-.094a1.867 1.867 0 00.3-.361 1.619 1.619 0 00.091-.145h-.006a6.513 6.513 0 01-.644.342 5.681 5.681 0 01-.666.261 5.216 5.216 0 01-.39.1 2.577 2.577 0 01-.368.05 2.617 2.617 0 01-.65-.022.808.808 0 01-.126-.025H35.8a.7.7 0 01-.094-.022c-.06-.016-.119-.031-.176-.05s-.129-.044-.192-.069c-.041-.019-.085-.035-.126-.057s-.094-.044-.138-.069a1.7 1.7 0 01-.163-.094c-.079-.047-.154-.1-.229-.151a3.55 3.55 0 01-.446-.37 3.629 3.629 0 01-.292-.288c-.009-.006-.016-.016-.025-.022l-.157-.176-.179-.214c-.06-.073-.116-.145-.176-.22-.041-.057-.085-.113-.129-.17-.057-.075-.113-.154-.17-.232-.132-.182-.264-.374-.4-.566a12.7 12.7 0 00-1.588-1.863 1.528 1.528 0 00-.1-.094c-.107-.107-.217-.21-.327-.317-.047-.047-.1-.094-.148-.141q-.287-.273-.584-.547c-.195-.182-.39-.361-.584-.547s-.386-.364-.575-.55c-.1-.1-.2-.2-.292-.3s-.185-.2-.273-.3a9.378 9.378 0 01-.2-.236.314.314 0 01-.037-.027l-.2-.245c-.2-.251-.383-.506-.553-.76a13.226 13.226 0 01-.239-.38l-.019-.031c-.06-.107-.123-.214-.179-.324a.666.666 0 01-.035-.066 6.27 6.27 0 01-.182-.368 6.065 6.065 0 01-.21-.49c-.028-.066-.05-.132-.075-.2a3.702 3.702 0 01-.085-.251 4.734 4.734 0 01-.094-.314.18.18 0 01-.013-.044 3.253 3.253 0 01-.057-.214.135.135 0 010-.016c-.013-.047-.022-.1-.031-.148a.126.126 0 01-.009-.047 3.244 3.244 0 01-.053-.264.134.134 0 010-.016 4.029 4.029 0 01-.05-.352.469.469 0 01-.006-.066 2.8 2.8 0 01-.025-.28.515.515 0 01-.006-.072.053.053 0 010-.031.153.153 0 010-.038c-.006-.113-.009-.232-.009-.346s0-.22.009-.333v-.1q.009-.16.028-.32c.006-.082.019-.163.031-.245.006-.057.016-.116.025-.173a6.309 6.309 0 01.17-.751c.016-.06.035-.119.053-.176a1.491 1.491 0 01.044-.145c.025-.072.047-.145.075-.214a2.527 2.527 0 01.091-.242c.022-.053.041-.107.066-.157s.044-.107.069-.16c.047-.107.1-.21.151-.317a8.286 8.286 0 01.335-.604q.207-.344.452-.679a14.707 14.707 0 01.373-.481c.1-.119.2-.239.308-.358.047-.053.094-.107.145-.16l.151-.16c.06-.063.123-.129.189-.189.126-.126.258-.251.393-.374q.1-.1.207-.188c.088-.075.179-.154.273-.229l.116-.091a7.21 7.21 0 01.261-.2q.189-.137.386-.273c.116-.075.236-.154.358-.229.053-.035.11-.072.17-.107a.475.475 0 01.053-.031c.1-.063.207-.123.314-.185.025-.016.053-.031.082-.047l.242-.132.267-.141c.138-.072.28-.145.424-.214l.217-.1c.141-.066.283-.132.427-.195.126-.057.254-.113.383-.167.019-.006.035-.016.053-.022.173-.072.346-.141.525-.21a.419.419 0 01.057-.022c.126-.047.251-.1.377-.138a.348.348 0 01.091-.031q.118-.047.236-.085c.16-.06.32-.113.484-.163.214-.069.43-.135.644-.2.069-.022.141-.041.21-.06a20.713 20.713 0 011.284-.32l.025-.006c.179-.041.358-.075.537-.11.223-.044.446-.085.672-.119-.132.135-.258.267-.383.4a7.577 7.577 0 00-.229.258q-.16.179-.3.358c-.1.119-.192.239-.28.361a10.18 10.18 0 00-.757 1.146 6.112 6.112 0 00-.179.327 8.72 8.72 0 00-.324.682 1.743 1.743 0 00-.075.176 6.71 6.71 0 00-.132.342c-.022.057-.041.116-.06.173a1.785 1.785 0 00-.057.17c-.038.11-.072.223-.1.336s-.06.223-.088.336q-.094.382-.151.773l-.028.211a8.536 8.536 0 00-.069.773c0 .079-.006.16-.009.242 0 .132-.006.264 0 .4a.152.152 0 000 .053q0 .165.009.33c.006.176.022.352.038.531a23.775 23.775 0 00.235 1.734q.047.269.1.528c.009.05.019.1.031.145.013.072.028.141.047.21.022.107.047.21.075.314q.047.2.1.386c.05.185.107.364.163.547.053.16.107.324.167.481q.184.514.415 1.008c.072.154.148.3.226.456.041.079.082.154.126.232q.061.118.132.236c.091.16.185.317.286.471.057.088.116.179.176.267.16.232.33.459.506.682l.113.135.129.151c.044.051.085.1.132.151l.148.16c.075.082.148.16.232.242l.242.236c.167.157.336.311.515.462.141.116.276.236.408.361s.264.242.39.371q.141.141.273.283c.091.094.179.189.264.289s.173.195.254.292c.2.236.383.474.562.723q.156.207.292.424.264.405.5.829c.176.317.339.644.493.98q.212.471.4.971c.063.167.119.333.176.5.113.339.217.685.308 1.04.041.154.085.308.129.459.019.072.041.141.063.21.148.481.311.946.5 1.389.063.167.135.327.207.487a11.566 11.566 0 00.349.72c.069.135.141.27.217.4a.017.017 0 00.009.016c.066.123.138.242.21.361.113.189.232.374.358.553.06.1.126.192.195.283.082.116.167.226.251.336.066.085.132.167.2.248.135.167.273.327.418.484.05.053.1.107.154.16 0 .006 0 .009.009.013s.006.006.013.009c.075.082.151.157.236.236.1.1.2.2.311.3a9.818 9.818 0 00.77.635c.107.085.217.163.33.239a8.883 8.883 0 00.785.493 4.753 4.753 0 00.198.109c.075.044.154.085.229.119a.333.333 0 00.066.035c.063.035.126.063.189.091a.027.027 0 00.019.009c.1.047.2.094.3.138s.2.085.3.126c.053.022.1.041.157.06a10.552 10.552 0 001.181.377c.041.013.082.022.126.031l.035.009c.019.006.038.009.057.016l.176.038.047.009.182.038c.066.013.135.028.2.038l.185.031c.123.022.245.038.371.053.06.009.119.016.182.022.138.019.276.031.415.041s.254.019.383.025h.022c.05 0 .1.006.151.006.207.009.415.013.625.006h.167c.11 0 .223-.006.336-.013l.17-.009c.085 0 .17-.009.258-.019s.17-.013.258-.022a14.418 14.418 0 00.971-.129 15.766 15.766 0 00.763-.148c.094-.019.188-.041.283-.063.173-.041.342-.082.515-.129.1-.028.207-.057.311-.088.075-.019.148-.041.223-.066s.16-.047.242-.075c.053-.016.11-.031.163-.05.471-.154.917-.528 1.561-.358a.628.628 0 01-.044.05 12.392 12.392 0 01-.675.718l-.138.135c-.079.075-.154.151-.232.226-.1.1-.2.195-.3.286q-.118.108-.236.207t-.236.207c-.123.107-.245.21-.371.311l-.157.129q-.16.132-.32.254c-.041.035-.082.066-.126.1q-.254.2-.509.386c-.176.132-.355.261-.537.39l-.462.324c-.242.17-.484.333-.729.5s-.49.33-.738.493c-.355.236-.606.276-.811.185a.49.49 0 01-.088-.05.043.043 0 01-.013-.009.658.658 0 01-.088-.075.413.413 0 01-.063-.066.486.486 0 01-.06-.075 2.951 2.951 0 01-.214-.327 1.761 1.761 0 01-.085-.173c-.05-.116-.094-.239-.138-.361a3.4 3.4 0 00-.167-.4.8.8 0 00-.041-.069 1.052 1.052 0 00-.135-.182.337.337 0 00-.06-.057.943.943 0 00-.119-.1 6.024 6.024 0 00-.107.836c0 .044-.006.085-.006.126a5.639 5.639 0 00.038.98c.016.119.031.239.057.358s.047.236.075.352a5.925 5.925 0 00.192.65c0 .009 0 .019.009.025.038.11.079.22.126.33v.006c.041.1.085.2.132.3.05.116.107.229.17.342s.113.214.173.32c.047.079.094.157.141.239.063.1.129.2.195.3.474.716.986 1.407 1.464 2.121a13.209 13.209 0 011.184 2.1 2.713 2.713 0 01-.3 2.922m5.341-12.07c.232.1.462.2.694.276.035.013.066.022.1.038.053.019.107.041.157.063a2.444 2.444 0 01.258.126 1.51 1.51 0 01.17.1c.031.022.063.041.091.063a1.676 1.676 0 01.148.113.335.335 0 01.038.031c.05.044.1.088.145.135s.1.107.141.16.088.116.129.176a2.362 2.362 0 01.3.682 2.062 2.062 0 01.053.21c.016.069.028.141.038.214.006.047.013.1.016.145l.013.151c-.094.474-.192.952-.314 1.426q-.038.165-.085.33l-.075.264a3.068 3.068 0 01-.088.283c-.082.251-.17.5-.27.745-.041.1-.082.195-.126.292s-.1.223-.16.33c-.022.041-.041.082-.063.119-.035.066-.069.132-.11.2a5.378 5.378 0 01-.317.503c-.053.079-.11.154-.17.232a.343.343 0 01-.041.053c-.038.05-.079.1-.119.148a5.938 5.938 0 01-.512.547c-.041.035-.079.072-.119.11s-.082.072-.123.107a2.474 2.474 0 01-2.56.5 2.017 2.017 0 01-.223-.1c-.053-.028-.11-.057-.163-.091s-.116-.072-.176-.113c-.044-.031-.088-.063-.132-.1s-.088-.069-.129-.107a8.95 8.95 0 01-.619-.581 7.386 7.386 0 01-.264-.27c-.006-.006-.009-.013-.016-.013a18.065 18.065 0 01-.515-.6 8.87 8.87 0 01-.434-.562 14.965 14.965 0 01-.299-.415c-.33-.468-.641-.955-.943-1.445a1.324 1.324 0 01-.242-.691.513.513 0 01.019-.141.24.24 0 01.019-.063.446.446 0 01.025-.057.07.07 0 01.016-.035.343.343 0 01.025-.047.84.84 0 01.044-.066.49.49 0 01.05-.063 1.2 1.2 0 01.15-.135c.035-.035.075-.066.116-.1s.085-.069.132-.1c.456-.336.914-.672 1.367-1.015l.452-.342c.261-.2.522-.405.776-.616a22.876 22.876 0 00.965-.826 2.184 2.184 0 01.17-.138 2.017 2.017 0 01.167-.119 1.457 1.457 0 01.16-.1.947.947 0 01.163-.075.919.919 0 01.163-.057 1.453 1.453 0 01.148-.038h.009c.053-.009.107-.016.16-.022h.016a3.423 3.423 0 011.593.4m-23.88-13.481zm0 0zm5.988 13.283zm-5.988-13.283zm0 0zm5.988 13.283zm-5.988-13.283z" fill="#0f2450"/><path data-name="Path 1469" d="M57.615 24.421c1-2.505 5.3-2.871 7.383-.506-2.614-.115-5.17-1.715-7.383.506" fill="#0f2450"/><path data-name="Path 1470" d="M59.398 46.154c-1.722.107-3.475.088-5.294.019q.066.094.132.179c.289.405.471.66.657.911.082.123.371.179.292.349a.29.29 0 01-.044.063c-.132.151-.38.05-.49-.173a2.285 2.285 0 01-.261-.079 1.789 1.789 0 01-.195-.075.024.024 0 01-.016-.006.306.306 0 01-.072-.035.044.044 0 01-.031-.016 1.177 1.177 0 01-.141-.069 1.905 1.905 0 01-.229-.148 1.968 1.968 0 01-.245-.21 1.757 1.757 0 01-.525-1.156 1.624 1.624 0 01.484-1.291 2.181 2.181 0 01.314-.264l.126-.079a2.6 2.6 0 01.264-.141 2.812 2.812 0 01.3-.119c-.145.515-.1.82.063.986a.336.336 0 00.05.044.667.667 0 00.113.066.57.57 0 00.066.025 1.752 1.752 0 00.776-.009 16.024 16.024 0 001.781-.43c.192-.06.38-.123.569-.185a11.668 11.668 0 001.351-.569 9.5 9.5 0 001.235-.736 8.628 8.628 0 001.109-.927 8.8 8.8 0 001.624-2.212 15.221 15.221 0 012.488-3.977 4.983 4.983 0 01.675-.553 4.556 4.556 0 01.581-.33 3.933 3.933 0 01.427-.176c.11-.038.226-.075.342-.107.116-.031.239-.057.361-.082a6.034 6.034 0 011.272-.091c.063 0 .126 0 .188.006h-.006a6.243 6.243 0 00-.355-.22 4.341 4.341 0 00-.917-.374c-.082-.022-.16-.047-.239-.075s-.16-.047-.239-.075l-.352-.113a2.731 2.731 0 00-1.5-.141 1.822 1.822 0 00-.185.06 1.951 1.951 0 00-.185.082c-.063.035-.126.069-.188.11a2.926 2.926 0 00-.471.4c-.031.038-.066.075-.1.113a1.129 1.129 0 01-.123.123 1.092 1.092 0 01-.111.096 1.292 1.292 0 01-.361.192.737.737 0 01-.141.044 1.064 1.064 0 01-.107.025 3.212 3.212 0 01-2.2-.609 7.069 7.069 0 01-1.191-.952 3.51 3.51 0 01-1.115-2.1 3.165 3.165 0 00-1.609-2.714 4.561 4.561 0 00-.342-.173l-.179-.075a7.912 7.912 0 00-.374-.135 12.529 12.529 0 00-1.646-.371c-.87-.151-1.731-.4-2.611-.484-4.015-.377-8.03-.635-11.854 1.09a8.794 8.794 0 00-.863.443.094.094 0 00-.035.019q-.094.052-.188.113a.127.127 0 00-.028.016c-.082.05-.163.1-.245.157a.978.978 0 00-.119.079 3.592 3.592 0 01-.116.082c-.066.044-.132.091-.195.141s-.1.079-.154.119c-.1.075-.189.154-.28.232s-.182.163-.267.245c-.05.047-.1.1-.148.148s-.091.1-.138.151a4.106 4.106 0 00-.283.336c-.053.069-.107.138-.157.21s-.123.176-.179.264a4.326 4.326 0 00-.2.355c-.025.047-.05.094-.072.145s-.041.085-.06.129a.984.984 0 00-.047.1 5.294 5.294 0 00-.079.188.627.627 0 00-.031.082 4.56 4.56 0 00-.173.55 3.718 3.718 0 00-.053.22c0 .016-.006.035-.009.05a4.31 4.31 0 00-.063.346c-.016.1-.028.2-.041.3-.016.123-.031.245-.044.368-.035.3-.06.587-.079.877-.009.148-.019.292-.025.44v.151a13.897 13.897 0 00.007 1.169c.01.22.022.443.044.66s.044.437.075.65a13.813 13.813 0 00.207 1.115s0 .013.009.031a.367.367 0 00.013.057v.006a.136.136 0 010 .016.382.382 0 00.016.044c.013.044.031.094.05.154.022.06.047.129.082.207l.072.16a6.852 6.852 0 00.468.848c.028.044.06.088.091.135.075.116.163.242.264.371.057.079.116.157.182.239.113.141.236.289.371.44.05.057.1.116.157.173.107.116.22.232.339.352l.123.119c.041.04.085.082.126.119l.132.123.135.123c.088.079.182.16.276.239l.028.025c.094.079.188.157.286.232.053.044.107.085.16.126.163.129.333.254.509.38.06.044.123.085.182.129q.735.514 1.653 1.027c.151.082.3.167.465.251s.324.167.493.251c5.972 2.956 4.936 6.8 4.936 6.8s10.424 8.184 21.957-6.588zM46.03 29.588a5.422 5.422 0 00-.6.512 3.625 3.625 0 00-.189.185l-.044.044c-.047.05-.094.1-.138.151a9.049 9.049 0 00-.527.641c-.075.1-.151.2-.223.3-.286.405-.7 1.052-1.156.807-.685-.371-.135-1.04.088-1.492a5.005 5.005 0 014.826-2.538c.063 0 .129.009.192.019s.129.013.195.025.148.022.22.038a1.478 1.478 0 01.16.038c.06.013.123.028.185.047a4.509 4.509 0 01.679.248 6.516 6.516 0 00-.924-.009.716.716 0 00-.085.006q-.189.014-.368.038l-.167.028c-.041.006-.079.013-.116.022s-.085.016-.126.025-.085.019-.126.031l-.179.047-.173.053c-.113.041-.226.082-.333.126s-.185.079-.273.123-.176.091-.261.138q-.094.052-.188.113a2.04 2.04 0 00-.173.113c-.06.038-.116.079-.173.119m4.543 12.611c-2.953-1.662-4.9-5.884-4.128-8.938a4.292 4.292 0 011.027-1.938q.1-.1.207-.2a3.209 3.209 0 01.449-.327 3.145 3.145 0 012.356-.342 4.921 4.921 0 01.484.141 4.81 4.81 0 01.789.371c2.689 1.558 3.685 4.109 3.871 7.069a6.032 6.032 0 01-.415 2.46 3.009 3.009 0 01-4.64 1.7" fill="#e54c16"/><path data-name="Path 1471" d="M39.775 57.857a39.878 39.878 0 01-1.451 4.782c-2.2 5.033-5.624 5.642-9.306 1.593a13.809 13.809 0 01-3.679-8.417 5.828 5.828 0 01-.009-.807c.006-.1.016-.207.028-.3q.014-.123.038-.236l.009-.057c.019-.094.041-.185.066-.27a1.988 1.988 0 01.082-.242 2.115 2.115 0 01.355-.609 1.606 1.606 0 01.141-.151.336.336 0 01.06-.057.068.068 0 01.028-.025.584.584 0 01.085-.069c.006-.006.009-.013.016-.009a.417.417 0 01.06-.044.312.312 0 01.06-.038.023.023 0 01.019-.013c.009-.009.016-.016.025-.016a.075.075 0 01.041-.022.33.33 0 01.1-.053.338.338 0 01.091-.041.044.044 0 01.035-.016c.035-.016.069-.028.1-.041 0 0 0-.006.006 0a1.276 1.276 0 01.185-.06 1.791 1.791 0 01.232-.053.028.028 0 01.016 0c.038-.006.075-.013.116-.016a.046.046 0 01.035-.006 1.47 1.47 0 01.17-.019c.1-.009.207-.013.317-.013a5.756 5.756 0 01.965.088 21.045 21.045 0 002.337.27s-5.35 2.507-.823 6.745 9.45-1.769 9.45-1.769" fill="#e0e1e1"/><path data-name="Path 1472" d="M61.571 61.299c-.1.119-.21.236-.317.352-.179.192-.358.377-.544.556-.079.075-.154.151-.232.226-.1.1-.2.195-.3.286q-.118.108-.236.207t-.236.207c-.123.107-.245.21-.371.311l-.157.129q-.16.132-.32.254c-.041.035-.082.066-.126.1q-.254.2-.509.386c-.176.132-.355.261-.537.39l-.462.324c-.242.17-.484.333-.729.5s-.49.33-.738.493c-.707.468-1 .167-1.335-.421a1.759 1.759 0 01-.085-.173c-.05-.116-.094-.239-.138-.361a3.394 3.394 0 00-.167-.4.8.8 0 00-.041-.069 1.05 1.05 0 00-.135-.182.533.533 0 00-.06-.06.945.945 0 00-.119-.1c-.06-.983-.644-.49-.911-.245-2.008 1.86-4.122 1.3-6.334.468-.5-.188-1.118-.864-1.769-.176.006 1.241.883 2.18 1.172 3.556a11.656 11.656 0 01-5.193-3.779c-1.64-1.929-.028-4.131-.864-6.221 0 0 8.731 6.78 16.243 4.587h.006c.085 0 .17-.009.258-.019s.17-.013.258-.022a14.418 14.418 0 00.971-.129 15.766 15.766 0 001.046-.211c.173-.041.342-.082.515-.129.1-.028.207-.057.311-.088.075-.019.148-.041.223-.066s.16-.047.242-.075c.053-.016.11-.031.163-.05.471-.154.917-.528 1.561-.358" fill="#e0e1e1"/><path data-name="Path 1473" d="M38.675 51.014l-2.865.71h-.006a.7.7 0 01-.094-.022c-.06-.016-.119-.031-.176-.05s-.129-.044-.192-.069c-.041-.019-.085-.035-.126-.057s-.094-.044-.138-.069a1.691 1.691 0 01-.163-.094c-.079-.047-.154-.1-.229-.151a3.55 3.55 0 01-.446-.37 2.447 2.447 0 00-.107-.1c-.063-.063-.126-.126-.185-.192a.19.19 0 01-.025-.025l-.157-.176-.179-.214c-.06-.073-.116-.145-.176-.22-.041-.057-.085-.113-.129-.17-.057-.075-.113-.154-.17-.232-.132-.182-.264-.374-.4-.566a12.7 12.7 0 00-1.593-1.857c-.185-.189-.377-.371-.572-.553s-.386-.364-.584-.547-.39-.361-.584-.547-.386-.364-.575-.55c-4.068-4.018-3.908-8.957.427-12.746.088-.075.179-.154.273-.229l.116-.091a7.21 7.21 0 01.261-.2q.189-.137.386-.273c.116-.075.236-.154.358-.229.053-.035.11-.072.17-.107a11.227 11.227 0 00-.471 9.623c3.346 7.625 8.351 10.374 8.351 10.374" fill="#e0e1e1"/><path data-name="Path 1474" d="M35.81 51.724l2.865-.71a6.111 6.111 0 01-.653.349 4.613 4.613 0 01-.666.261 5.216 5.216 0 01-.39.1 2.573 2.573 0 01-.368.05 2.615 2.615 0 01-.65-.022.976.976 0 01-.138-.025" fill="#fff"/><path data-name="Path 1475" d="M56.017 62.443c-7.512 2.193-16.243-4.587-16.243-4.587s-4.923 6-9.45 1.769.823-6.745.823-6.745h.006a15.58 15.58 0 005.85-.726c.185-.063.377-.116.566-.192.041-.016.079-.031.119-.05s.1-.047.154-.075a1.746 1.746 0 00.264-.167c.019-.016.041-.031.063-.05a2.052 2.052 0 00.412-.459c.031-.047.063-.094.094-.148 0 0-5-2.749-8.351-10.374a11.227 11.227 0 01.471-9.623.473.473 0 01.053-.031c.1-.063.207-.123.314-.185.025-.016.053-.031.082-.047l.242-.132.267-.141c.138-.072.28-.145.424-.214l.217-.1c.141-.066.283-.132.427-.195.126-.057.254-.113.383-.167.019-.006.035-.016.053-.022.173-.072.346-.141.525-.21a.419.419 0 01.057-.022c.123-.047.251-.094.377-.138a.349.349 0 01.091-.031q.118-.047.236-.085c.16-.06.32-.113.484-.163.214-.069.43-.135.644-.2.069-.022.141-.041.21-.06a20.713 20.713 0 011.284-.32l.025-.006c.179-.041.358-.075.537-.11.223-.044.446-.085.672-.119q-.2.2-.386.405a7.577 7.577 0 00-.229.258q-.16.179-.3.358c-.1.119-.192.239-.28.361a10.18 10.18 0 00-.757 1.146 6.112 6.112 0 00-.179.327 8.72 8.72 0 00-.324.682 1.742 1.742 0 00-.075.176 6.71 6.71 0 00-.132.342c-.022.057-.041.116-.06.173s-.041.113-.057.17c-.038.11-.072.223-.1.336s-.06.223-.088.336q-.094.382-.151.773l-.028.21a8.536 8.536 0 00-.069.773c0 .079-.006.16-.009.242 0 .132-.006.264 0 .4a.152.152 0 000 .053q0 .165.009.33c.006.176.022.352.038.531a23.775 23.775 0 00.235 1.734q.047.269.1.528c.009.05.019.1.031.145.013.072.028.141.047.21.022.107.047.21.075.314q.047.2.1.386c.05.185.107.364.163.547.053.16.107.324.167.481q.184.514.415 1.008c.072.154.145.308.226.459.038.079.082.157.126.236s.085.157.132.236c.091.16.185.317.286.471.057.088.116.179.176.267.16.232.33.459.506.682l.113.135.129.151c.044.051.085.1.132.151l.148.16c.075.082.151.163.232.245s.16.157.242.236c.167.157.336.311.515.462a13.255 13.255 0 014.317 7.063c.041.154.085.308.129.459.019.072.041.141.063.21.148.481.311.946.5 1.389.063.167.135.327.207.487a11.566 11.566 0 00.349.72c.069.135.141.27.217.4a.017.017 0 00.009.016c.066.123.138.242.211.361.113.188.232.374.358.553.06.1.126.192.195.283.082.116.167.226.251.336.066.085.132.167.2.248.135.167.273.327.418.484.05.053.1.107.154.16s.013.016.022.025c.075.082.154.16.236.239.1.1.2.2.311.3a9.82 9.82 0 00.77.635c.107.085.217.163.33.239a8.88 8.88 0 00.785.493 1.749 1.749 0 00.182.1 2.503 2.503 0 00.245.128.334.334 0 00.066.035c.063.035.126.063.188.091a.027.027 0 00.019.009c.1.05.2.094.3.138s.2.085.3.126c.053.022.1.041.157.06a10.555 10.555 0 001.181.377c.041.013.082.022.126.031l.035.009c.075.019.154.038.232.053l.047.009.182.038c.066.013.135.028.2.038l.185.031c.123.022.245.038.371.053.06.009.119.016.182.022.138.019.276.031.415.041s.254.019.383.025h.022c.05 0 .1.006.151.006.207.009.415.013.625.006h.167c.11 0 .223-.006.336-.013.053 0 .11 0 .163-.006" fill="#fff"/><path data-name="Path 1476" d="M33.759 70.628q0 .1-.019.207c-.006.066-.016.132-.025.2v.009a4.744 4.744 0 01-.075.374 3.231 3.231 0 01-.088.311 2.677 2.677 0 01-.1.28l-.019.044q-.057.132-.123.254a.01.01 0 010 .006 3.412 3.412 0 01-.296.465c-.022.031-.047.06-.072.091-.057.069-.116.138-.179.2s-.135.135-.207.2-.145.126-.223.189a.1.1 0 01-.022.016s-12.608-8.728-18.2-10.8a6.373 6.373 0 01-4.489-7.132c.013-.079.022-.119.022-.119.028-.148.06-.3.091-.443q.071-.325.151-.65c.05-.22.107-.443.167-.663l.132-.481c.044-.157.091-.32.141-.481a39.434 39.434 0 01.648-1.931c.044-.123.091-.242.141-.364l.151-.364.188-.434c.063-.141.126-.286.192-.427.192-.427.386-.855.562-1.288.057-.138.113-.276.163-.415.49-1.313 1.307-1.957 2.485-1.621 4.009.038 6.28 1.681 7.512 5.256.145.418.264.842.371 1.266q.042.155.075.311c.038.16.075.32.107.481.022.1.044.2.063.3.035.16.063.32.091.481.06.324.113.647.167.974.047.283.091.569.138.855.113.713.232 1.423.38 2.127.06.283.123.562.195.842 1.172 4.628 3.852 7.911 8.611 9.189l.094.028a.574.574 0 01.079.025.887.887 0 01.1.035c.057.022.11.047.16.072.025.013.05.025.075.041a.712.712 0 01.082.05.613.613 0 01.072.053.429.429 0 01.069.06 1.2 1.2 0 01.088.091.963.963 0 01.145.21c.025.05.05.1.072.157a1.392 1.392 0 01.057.173c.016.06.031.119.044.185v.016c.013.063.022.132.031.2a6.86 6.86 0 01.035 1.282" fill="#fff"/><path data-name="Path 1477" d="M44.447 94.906c-.374.053-.748.1-1.128.138a.853.853 0 01-.408.232 4.5 4.5 0 01-1.6-.063c-2.158-.38-5.63-1.791-6.971-5.036l-1.791-4.326v-.009c-.1-.657-.179-1.012.707-1.109 1.524-.163 2.582-1.276 3.717-2.183a14.413 14.413 0 013.924-2.52 1.5 1.5 0 012.194 1.023 12.79 12.79 0 01.537 3.55c-.192 2.79-.594 5.438.05 8.077a.088.088 0 000 .019 15.266 15.266 0 00.76 2.209" fill="#e54c16"/><path data-name="Path 1478" d="M23.815 30.999a17.408 17.408 0 00-1.164.682l-.21.135a20.35 20.35 0 00-.901.619c-.179.126-.361.261-.544.4-.1.075-.2.154-.3.232s-.2.157-.3.239c-.2.16-.405.327-.613.5-.1.082-.2.17-.308.261s-.2.173-.308.267c-.327.286-.653.581-.98.892-.182.167-.361.339-.54.515-.217.21-.43.424-.644.644s-.408.424-.609.638-.405.437-.6.66-.4.449-.594.675c-.148.173-.292.346-.437.522s-.286.352-.427.528q-.283.353-.556.716c-.182.239-.361.484-.537.729-.132.182-.261.368-.39.553-.236.339-.462.685-.682 1.034-.1.157-.2.314-.292.474s-.192.317-.283.478c-.167.286-.327.575-.481.864a.848.848 0 00-.05.1q-.127.24-.245.481a23.234 23.234 0 00-.623 1.361c-.138.336-.267.672-.383 1.005-.129.364-.242.729-.342 1.093l-.085.33c-.028.116-.057.232-.082.349-.075.339-.138.679-.188 1.015a7.145 7.145 0 00-.047.383c-.013.113-.022.223-.031.333s-.019.229-.022.342-.009.226-.013.339v.217a10.192 10.192 0 00.072 1.131v.006a2.732 2.732 0 01-.339.685 1.116 1.116 0 01-.072.1 1.277 1.277 0 01-.173.195 1.105 1.105 0 01-.06.057.459.459 0 01-.06.05 1.189 1.189 0 01-.126.094c-.041.028-.085.053-.129.079a1.325 1.325 0 01-.276.116h-.006a1.145 1.145 0 01-.3.057 2.2 2.2 0 01-1.272-.3c.022-.468.079-.93.06-1.395a33.908 33.908 0 01.141-4.709c.031-.292.063-.588.1-.88.009-.1.025-.192.038-.289.031-.229.066-.462.1-.691a29.064 29.064 0 01.71-3.211 28.8 28.8 0 013.7-8.087l.009-.009.129-.176.006-.006.006-.009c.025-.025.053-.053.079-.075a.119.119 0 01.016-.019c.019-.016.035-.035.05-.05s.013-.016.019-.022a.275.275 0 00.025-.031.626.626 0 00.06-.075l2.149-2.774a2.923 2.923 0 00.393-.506.385.385 0 00.05-.151.061.061 0 00-.009-.031 17.483 17.483 0 011.511-1.326 27.433 27.433 0 01.493-.367c.135-.1.273-.195.415-.286.16-.11.327-.214.493-.317.11-.066.223-.135.339-.2 0 0 .006-.006.009 0q.108-.066.217-.123a9.568 9.568 0 01.76-.382 16.73 16.73 0 01.694-.302q.226-.09.462-.17c.176-.063.355-.123.537-.176s.364-.1.55-.151c.374-.094.754-.173 1.144-.236q.382-.061.754-.094a.014.014 0 00.016 0 9.6 9.6 0 011.037-.025c.1.006.195.009.289.016 0 0 5.818 1.414 0 4.483" fill="#e54c16"/><path data-name="Path 1479" d="M28.506 82.233s-.87 8.536-10.217 3.619q-.127-.066-.245-.123c-.182-.226-.364-.452-.544-.685a4.641 4.641 0 01-.311-4.763 3.333 3.333 0 013.349-2.121c3.33.006 6.315.729 7.967 4.072" fill="#fff"/><path data-name="Path 1480" d="M33.624 51.639c-2.243.148-4.618-.716-6.893-.154-.468-4.709-5.85-5.994-8.011-8.5-2.1-2.441 6.462-8.97 6.94-9.334.006-.006.016-.009.022-.016.443-.273.9-.54 1.351-.8a2.5 2.5 0 01-.653 1.64c-1.517 2.617-2.165 4.7-1.872 6.591.009.063.019.123.031.185a9.33 9.33 0 00.075.349l.044.167c.047.16.1.317.157.478l.06.145c.022.051.05.126.079.188a9.624 9.624 0 002.143 2.906c.066.066.135.132.2.195l.21.2a39.464 39.464 0 00.678.6c.138.119.28.236.427.355a40.831 40.831 0 014.373 3.789c.267.286.691.5.635 1.034" fill="#e54c16"/><path data-name="Path 1481" d="M28.905 75.724c-.355.075-15.526 3.239-18.816-7.867l-.21-.273q-.071-.349-.132-.7c2.84 3 6.415 3.1 9.8 3.786a20.154 20.154 0 018.407 3.585c.591.449 1.018.886.955 1.467" fill="#e54c16"/><path data-name="Path 1482" d="M28.905 75.723a.715.715 0 01-.028.16.967.967 0 01-.025.088.817.817 0 01-.041.113c-.009.028-.022.053-.035.082a.951.951 0 01-.057.113 2.943 2.943 0 01-.258.386c-.487.619-.452 1.942-.974 2.155-.562.226-1.492-.5-2.278-.767a13.044 13.044 0 00-5.1-.493c-2.661.189-3.867 1.3-4.826 4.38a35.726 35.726 0 01-1.276-2.165 34.911 34.911 0 01-1.759-3.779c-.06-.148-.116-.3-.173-.443-.163-.43-.32-.864-.468-1.3a.487.487 0 01-.025-.072 20.345 20.345 0 01-.251-.77 21.843 21.843 0 01-.269-.889c-.025-.082-.05-.163-.069-.245-.082-.276-.157-.556-.232-.836a27.826 27.826 0 01-.242-.946 49.109 49.109 0 01-.635-2.912l.21.273c3.289 11.106 18.461 7.942 18.816 7.867" fill="#bc3d1b"/><path data-name="Path 1483" d="M57.214 76.562c-1.329 1.806-5.73 3.233-7.908 2.576a2.825 2.825 0 01-2.117-2.73 19.177 19.177 0 01.377-4.489 9.87 9.87 0 00.088-.958c.003-.103.009-.207.009-.311v-.16c0-.138 0-.28-.013-.415s-.019-.276-.031-.415c-.013-.116-.025-.232-.047-.349a2.211 2.211 0 00-.047-.283 2.65 2.65 0 00-.035-.173 1.349 1.349 0 00-.041-.189c-.016-.066-.031-.135-.05-.2s-.031-.123-.05-.182a6.333 6.333 0 00-.248-.71 4.3 4.3 0 00-.129-.3.191.191 0 00-.016-.038c-.035-.075-.072-.151-.11-.226s-.066-.122-.1-.185-.06-.107-.091-.16-.053-.091-.082-.135a3.347 3.347 0 00-.141-.229 8.6 8.6 0 00-.71-.943c-.044-.05-.088-.1-.138-.154l-.141-.154a4.228 4.228 0 00-.163-.167 1.433 1.433 0 00-.119-.119c-.066-.066-.135-.132-.2-.195-.1-.091-.2-.182-.3-.27 0 0 3.8 1.492 4.609 9.73 0 0 4.153 4.156 7.066-2.488a13.208 13.208 0 011.184 2.1 2.713 2.713 0 01-.3 2.922" fill="#bc3d1b"/><path data-name="Path 1484" d="M56.335 71.542c-2.912 6.645-7.066 2.488-7.066 2.488-.814-8.238-4.609-9.73-4.609-9.73.65-.688 1.269-.013 1.769.176 2.212.833 4.326 1.392 6.334-.468.267-.245.851-.738.911.245a6.023 6.023 0 00-.107.836c0 .044-.006.085-.006.126a5.64 5.64 0 00.038.98c.016.119.031.239.057.358a3.4 3.4 0 00.075.355 5.922 5.922 0 00.192.65c0 .009 0 .019.009.025.038.11.079.22.126.33v.006c.041.1.085.2.132.3.05.116.107.229.17.342s.113.214.173.32c.047.079.094.157.141.239.063.1.129.2.195.3.474.716.986 1.407 1.464 2.121" fill="#e54c16"/><path data-name="Path 1485" d="M4.311 73.747a7.477 7.477 0 01-1.2.283l-.038-.066c-.05-.091-.1-.182-.148-.276a8.57 8.57 0 01-.65-1.81c-.013-.053-.025-.1-.035-.157a.261.261 0 01-.013-.047c-.031-.145-.06-.292-.085-.44 0-.009 0-.022-.006-.035l-.047-.3-.019-.173c-.009-.075-.019-.151-.025-.226l-.013-.182a7.606 7.606 0 01-.01-.879c0-.091.009-.182.016-.273l.009-.094c.013-.1.025-.2.041-.3s.038-.2.057-.3v-.006a3.629 3.629 0 01.195-.641 5.388 5.388 0 015.369-2.721.711.711 0 01.547.405c.06.38 1 6.607-3.946 8.244" fill="#e54c16"/><path data-name="Path 1486" d="M65.05 67.175c-.405 2.064-.914 4.172-2.692 5.693a2.476 2.476 0 01-3.384-.013 8.95 8.95 0 01-.619-.581q-.137-.137-.264-.273c-.006-.006-.009-.013-.016-.016a18.065 18.065 0 01-.515-.6 8.87 8.87 0 01-.434-.562 14.965 14.965 0 01-.299-.415c-.33-.468-.641-.955-.943-1.445a1.324 1.324 0 01-.242-.691c6.946 4.361 6.8-2.039 6.912-3.776.232.1.462.2.694.276a2.487 2.487 0 011.8 2.4" fill="#bc3d1b"/><path data-name="Path 1487" d="M46.438 69.459q-.17.028-.358.066c-8 1.558-10.311-1.942-10.311-1.942a9.368 9.368 0 003.346-3.625 13.17 13.17 0 007.323 5.5" fill="#e54c16"/><path data-name="Path 1488" d="M63.351 44.177c.046.012.094.022.143.03h-.015a1.259 1.259 0 01-.11-.022l-.018-.006" fill="#fff"/><path data-name="Path 1489" d="M63.192 44.124a1.316 1.316 0 00.159.053 1.315 1.315 0 01-.159-.053" fill="#fff"/><path data-name="Path 1490" d="M63.697 44.23c.034 0 .067.006.1.007h-.025l-.077-.007" fill="#fff"/><path data-name="Path 1491" d="M63.592 44.221l.1.009a2.033 2.033 0 01-.2-.023c.033.005.066.011.1.014" fill="#fff"/><path data-name="Path 1492" d="M63.933 44.239h.212-.212" fill="#fff"/><path data-name="Path 1493" d="M63.799 44.237h.134-.134" fill="#fff"/><path data-name="Path 1494" d="M63.033 44.054a1.038 1.038 0 00.16.07c-.019-.008-.04-.011-.059-.019-.038-.016-.069-.035-.1-.05" fill="#fff"/><path data-name="Path 1495" d="M64.327 44.23c.176-.025.358-.044.54-.063-.182.022-.364.041-.54.066a1.747 1.747 0 01-.182 0c.063 0 .123 0 .182-.006" fill="#fff"/><path data-name="Path 1496" d="M68.195 42.213a.946.946 0 01-.031.1l-.038.1c-.016.038-.031.079-.05.116a2.432 2.432 0 01-.493.713 1.9 1.9 0 01-.3.254 2.768 2.768 0 01-.588.311c.189-1.951-1.6-2.369-2.51-2.454.336-.578.6-1.194.949-1.762a1.958 1.958 0 01.578-.65 1.155 1.155 0 01.2-.107c.412-.151.861.028 1.326.562a5.489 5.489 0 01.669.927c.025.044.047.088.069.132a2.77 2.77 0 01.245.663 1.272 1.272 0 01.028.151c.009.057.016.116.022.173a2.016 2.016 0 01-.079.767" fill="#fff"/><path data-name="Path 1497" d="M61.522 28.411c-.71.013-.8.606-1.406.974-.046-1.276-.042-2.4 1.089-3.019 1.164-.632 1.981.248 2.668 1.018a4.322 4.322 0 01.237 5.906c0-.664.041-1.29-.013-1.908-.043-.482-.028-.782-.883-.671-1.492.193-1.466-1.253-1.691-2.3" fill="#fff"/><path data-name="Path 1498" d="M55.628 38.036c-.185-2.959-1.181-5.511-3.871-7.069a4.811 4.811 0 00-.789-.371 3.645 3.645 0 00-.484-.141 3.145 3.145 0 00-2.356.342 3.209 3.209 0 00-.449.327q-.108.094-.207.2a4.292 4.292 0 00-1.027 1.938c-.776 3.054 1.175 7.276 4.128 8.938a3.009 3.009 0 004.64-1.7 6.032 6.032 0 00.415-2.46m-1.342 1.539a2.512 2.512 0 01-1.439 1.759 6.11 6.11 0 00.308-2.787 4.378 4.378 0 00-1.115-2.51c-.236.713.028 1.879-1.084 1.665-1.649-.314-1.552-1.8-1.665-3.1-1.112.276-1.034 1.36-1.681 2.356a8.348 8.348 0 01.019-3.355c.587-2.039 2.24-2.608 4-1.414a7.457 7.457 0 012.661 7.386" fill="#0f2450"/><path data-name="Path 1499" d="M49.693 28.614c-2.578-.2-4.13 1.034-5.387 2.809-.287.406-.7 1.052-1.156.807-.687-.369-.136-1.038.086-1.492a5.078 5.078 0 016.457-2.123" fill="#0f2450"/><path data-name="Path 1500" d="M54.895 47.263c.092.14.443.191.248.412-.133.15-.38.05-.489-.173l.241-.239" fill="#0f2450"/><path data-name="Path 1501" d="M49.289 34.604c-1.112.277-1.031 1.358-1.68 2.357a8.365 8.365 0 01.02-3.356c.588-2.041 2.238-2.609 4-1.416a7.462 7.462 0 012.661 7.389 2.522 2.522 0 01-1.439 1.758 6.141 6.141 0 00.308-2.786 4.366 4.366 0 00-1.118-2.512c-.235.714.03 1.88-1.083 1.668-1.65-.315-1.551-1.8-1.666-3.1" fill="#fff"/><path data-name="Path 1502" d="M42.473 101.799c-4.562-.408-7.886-2.956-10.867-6.129a1.417 1.417 0 01-.446-1.2 2.071 2.071 0 01.3-.776 11.308 11.308 0 001.087-7.842l1.791 4.326c1.341 3.245 4.813 4.656 6.971 5.036a4.5 4.5 0 001.6.063.852.852 0 00.408-.232c.38-.038.754-.085 1.128-.138.374.9.8 1.778 1.162 2.68 1.213 2.991.053 4.5-3.135 4.213" fill="#bc3d1b"/><path data-name="Path 1503" d="M32.1 88.227a13.252 13.252 0 01-.738 3.962 2.054 2.054 0 01-2.586 1.417 5.362 5.362 0 01-.358-.082 5.551 5.551 0 01-.647-.207 1.2 1.2 0 01-.148-.057c-.066-.025-.132-.05-.195-.082-.085-.035-.167-.075-.251-.116s-.195-.1-.289-.148a29.385 29.385 0 01-8.844-7.185q.118.057.245.123c9.347 4.917 10.217-3.619 10.217-3.619a3.823 3.823 0 001.429 1.627c.072.044.145.088.21.135s.135.091.2.141l.167.126c.072.06.141.119.207.182s.135.126.195.192c.082.082.157.17.229.258.053.069.107.138.154.207a2.452 2.452 0 01.145.223 1.007 1.007 0 01.06.1 1.154 1.154 0 01.057.107l.066.129c.031.063.063.129.088.195a1.531 1.531 0 01.066.167.2.2 0 01.022.06c.019.05.035.1.05.154a.247.247 0 01.025.082c.016.05.031.1.044.154a1.622 1.622 0 01.05.214c.019.085.035.173.05.261a6.589 6.589 0 01.079 1.285" fill="#e0e1e1"/><path data-name="Path 1504" d="M9.634 74.334a5.735 5.735 0 01-.229.135q-.207.123-.424.236a9.205 9.205 0 01-1.056.474c-.047.019-.1.035-.148.053-.1.035-.2.069-.308.1-.088.028-.179.053-.27.079-.05.013-.1.028-.154.041a4.613 4.613 0 01-.226.053l-.223.047-.267.047c-.1.016-.2.031-.311.044-.072.009-.145.019-.22.025-.145.016-.289.028-.44.038l-.1.006a2.06 2.06 0 01-1.411-.7c-.069-.069-.138-.141-.2-.22s-.132-.157-.195-.245a5.014 5.014 0 01-.336-.515 7.475 7.475 0 001.2-.283c4.948-1.637 4.006-7.864 3.946-8.244a1.866 1.866 0 01.126.506 43.965 43.965 0 001.64 7.279.784.784 0 01-.39 1.046" fill="#bc3d1b"/><path data-name="Path 1505" d="M30.325 29.688a58.678 58.678 0 00-8.146 4.822c-6.258 4.618-10.914 10.374-13.038 17.989a2.521 2.521 0 01-.075.232c-1.005-8.118 8.935-18.662 14.75-21.734s0-4.483 0-4.483a10.563 10.563 0 016.51 3.173" fill="#bc3d1b"/><path data-name="Path 1506" d="M26.73 51.485a5.777 5.777 0 00-2.809 1.649 21.084 21.084 0 00-.188-.927c-.031-.151-.069-.3-.107-.449a14.405 14.405 0 00-.4-1.354c-.038-.113-.079-.226-.119-.336s-.072-.2-.113-.3a10.83 10.83 0 00-.564-1.211c-.053-.1-.11-.2-.167-.3s-.107-.176-.163-.261a2.205 2.205 0 00-.138-.21 5.086 5.086 0 00-.345-.471 6.387 6.387 0 00-.544-.615 4.93 4.93 0 00-.242-.229c-.05-.047-.1-.094-.154-.138a3.403 3.403 0 00-.236-.192c-.066-.053-.132-.1-.2-.151a.557.557 0 00-.075-.053 3.518 3.518 0 00-.258-.173.017.017 0 00-.013-.009 5.571 5.571 0 00-.264-.157l-.116-.066a3.182 3.182 0 00-.292-.148 4.196 4.196 0 00-.355-.157 6.164 6.164 0 00-.861-.3 4.53 4.53 0 00-.289-.075c-.041-.013-.085-.022-.129-.031-.072-.016-.148-.031-.223-.044s-.145-.031-.22-.041-.16-.028-.245-.038a.737.737 0 00-.116-.016 5.09 5.09 0 00-.374-.041.426.426 0 00-.091-.009c-.072-.006-.145-.013-.217-.013a4.31 4.31 0 00-.283-.016 12.927 12.927 0 00-1.819.06A37.643 37.643 0 0125.66 33.649c-.478.364-9.042 6.893-6.94 9.334 2.161 2.51 7.543 3.8 8.011 8.5" fill="#bc3d1b"/><path data-name="Path 1507" d="M46.615 69.518a56.951 56.951 0 01-7.892 2.042c-.908.2-1.857.251-2.74.522-.955.3-1.049-.113-1.034-.889a7.727 7.727 0 00-.135-2.633c-.088-.264-.176-.534.157-.641a5.2 5.2 0 00.8-.336s2.312 3.5 10.311 1.942q.189-.038.358-.066c.06.022.116.041.176.06" fill="#bc3d1b"/><path data-name="Path 1508" d="M62.556 64.498c-.116 1.737.035 8.137-6.912 3.776.006-.32.232-.556.6-.829.456-.336.914-.672 1.367-1.015l.452-.342c.261-.2.522-.405.776-.616a22.876 22.876 0 00.965-.826c.986-.9 1.879-.525 2.752-.148" fill="#ed4e15"/><path data-name="Path 1509" d="M71.621 46.228a24.33 24.33 0 01-8.439 12.3c-.094.072-.188.141-.283.21s-.176.129-.264.188c-.119.085-.239.163-.358.242-.154.1-.308.2-.462.289s-.283.167-.424.248c-.05.028-.1.057-.154.082q-.137.075-.273.141a5.827 5.827 0 01-.415.2q-.137.066-.273.123a.765.765 0 01-.116.05c-.1.047-.21.091-.314.132a12.358 12.358 0 01-1.436.471c-.123.031-.248.063-.374.088a3.51 3.51 0 01-.361.075c-.094.019-.185.038-.28.05a1.644 1.644 0 01-.173.028 12.869 12.869 0 01-.704.082 1.024 1.024 0 01-.138.009 10.212 10.212 0 01-2.369-.1 2.117 2.117 0 01-.211-.038 8 8 0 01-.939-.22 6.686 6.686 0 01-.324-.1.868.868 0 01-.085-.025c-.091-.031-.182-.066-.273-.1a1.472 1.472 0 01-.151-.057c-.063-.025-.129-.047-.189-.075a.01.01 0 01-.006 0q-.141-.057-.283-.123a.133.133 0 01-.044-.019l-.276-.132c-.035-.016-.069-.035-.1-.05a9.58 9.58 0 01-.349-.192 8.163 8.163 0 01-.763-.481c-.075-.053-.154-.107-.229-.167l-.06-.044c-.063-.047-.126-.094-.185-.145s-.126-.1-.185-.148a11.142 11.142 0 01-3.654-6.39 12.678 12.678 0 00-4.907-7.521 12.259 12.259 0 01-1.345-1.2q-.24-.25-.462-.509c-.088-.107-.179-.214-.261-.324a3.584 3.584 0 01-.138-.179c-.079-.1-.151-.2-.223-.3a13.903 13.903 0 01-.267-.4l-.019-.031a13.808 13.808 0 01-.232-.39q-.221-.391-.405-.792c-.035-.072-.066-.148-.1-.22A8.927 8.927 0 0137 39.84a15.015 15.015 0 01-.204-.693l-.028-.126c.16.55 1.26 3.61 6.67 6.293 5.972 2.956 4.936 6.8 4.936 6.8s10.424 8.184 21.957-6.588l-10.939.635a28.4 28.4 0 004.122-.531c3-.628 5.969-1.31 8.64-3.189a7.182 7.182 0 01-.537 3.792" fill="#bc3d1b"/><path data-name="Path 1510" d="M32.307 73.477l-.2.148c-.065.048-.145.1-.223.141s-.163.094-.248.138-.173.088-.261.129-.179.079-.273.116c-.075.031-.151.06-.229.088-.05.019-.1.035-.145.05a5.606 5.606 0 01-.346.11c-.412.119-.575-.082-.76-.33-2.721-3.588-6.7-4.112-10.754-4.348-6.167-.361-9.629-3.946-9.642-10.132q0-.537.028-1.074c.006-.119.013-.236.022-.355q.014-.236.038-.471a20.356 20.356 0 01.163-1.314q.038-.259.085-.518l.057-.308a6.373 6.373 0 004.489 7.132c5.6 2.07 18.2 10.8 18.2 10.8" fill="#e0e1e1"/><path data-name="Path 1511" d="M66.693 43.814a3.932 3.932 0 01-.484.148 4.87 4.87 0 01-.528.1c-.27.044-.544.072-.814.1-.182.019-.364.038-.54.063-.06 0-.119.006-.182.006h-.37c-.059 0-.119-.009-.179-.016-.041 0-.079-.009-.116-.016s-.075-.013-.11-.022a1.221 1.221 0 01-.236-.079c-.038-.016-.069-.035-.1-.05a.637.637 0 01-.082-.057.683.683 0 01-.145-.141.928.928 0 01-.063-.091c-.38-.638.324-1.015.7-1.4a5.3 5.3 0 00.745-1.005c.914.085 2.7.5 2.51 2.454" fill="#d3667b"/><path data-name="Path 1512" d="M36.316 11.703a3.623 3.623 0 11-3.623-3.623 3.623 3.623 0 013.623 3.623" fill="#0097c1"/><path data-name="Path 1513" d="M43.467 12.375a2.363 2.363 0 11-2.363-2.363 2.363 2.363 0 012.363 2.363" fill="#0097c1"/><path data-name="Path 1514" d="M43.467 2.363A2.363 2.363 0 1141.104 0a2.363 2.363 0 012.363 2.363" fill="#0097c1"/><path data-name="Path 1515" d="M114.618 47.854l-3.123-2.919-2.3 2.413.493.075a43.94 43.94 0 003.434.358c.484.035.98.057 1.5.075zm-7.32-25.416c-4.336 0-15.284 1.75-16.689 15.416-.013.135-.028.273-.038.408a45.131 45.131 0 017.207 2.623v-.437c.16-9.444 5.621-11.81 9.516-11.81 3.949 0 9.516 2.438 9.516 12.249a20.37 20.37 0 01-.339 3.836c-.028.138-.057.276-.088.405h.3a47.493 47.493 0 007.207-.5c.019-.135.038-.276.05-.418a28.275 28.275 0 00.185-3.321c0-16.453-12.2-18.451-16.833-18.451m7.32 25.416l-3.123-2.919-2.3 2.413.493.075a43.94 43.94 0 003.434.358c.484.035.98.057 1.5.075z" fill="#fff"/><path data-name="Path 1516" d="M152.878 36.651l-4.681-13.283h-8.445l-6.444 18.074-.182.518c.7-.3 1.379-.594 2.052-.889a54.055 54.055 0 016.29-2.432l.151-.465 2.237-6.9h.1l1.866 5.95.119.39a46.1 46.1 0 017.085-.556z" fill="#fff"/><path data-name="Path 1517" d="M160.545 58.406h-7.953l-2.246-7.222h-12.937l-2.44 7.222h-7.711l4.54-12.74.178-.5c1.046-.416 2.044-.856 3.029-1.288 1.721-.751 3.466-1.519 5.465-2.177l-.154.477-.957 2.96h8.933l-1.41-4.5-.121-.388a48.4 48.4 0 016.733-.432h.5l.141.4z" fill="#fff"/><path data-name="Path 1518" d="M157.811 23.368v6.2h10.588v10.064c1.194.465 2.312.955 3.418 1.439 1.26.553 2.529 1.109 3.905 1.627V29.563h10.591v-6.2z" fill="#fff"/><path data-name="Path 1519" d="M175.725 45.441v12.963h-7.323V42.371c1.252.481 2.419.994 3.579 1.5 1.208.529 2.428 1.066 3.744 1.567" fill="#fff"/><path data-name="Path 1520" d="M210.321 39.969l-5.85-16.6h-8.445l-7.606 21.32-.141.4q.976.038 2.026.038a51.208 51.208 0 005.422-.27l.135-.421 4.263-13.167h.1l3.569 11.389.122.39c1.756-.609 3.327-1.3 4.876-1.979.547-.242 1.1-.481 1.662-.723z" fill="#fff"/><path data-name="Path 1521" d="M216.818 58.406h-7.957l-2.246-7.222h-12.933l-2.44 7.222h-7.711l3.636-10.187.141-.4a54.44 54.44 0 003 .081 39.508 39.508 0 0018.321-4.023c.872-.38 1.753-.768 2.666-1.143l.137.384z" fill="#fff"/><path data-name="Path 1522" d="M239.221 23.368h-17.716v13.977a50.008 50.008 0 015.611-.292c.537 0 1.056.006 1.561.019v-7.653h9.123c4.3 0 5.127 2.733 5.127 4.587 0 2.51-.974 3.9-2.956 4.464a6.351 6.351 0 01-.8.176 53.561 53.561 0 016.261 2.425c.119.053.236.1.352.154.154-.079.3-.157.449-.242a8.65 8.65 0 004.015-7.713c0-3.025-1.709-9.9-11.03-9.9" fill="#fff"/><path data-name="Path 1523" d="M250.836 57.477v.925h-8.1a23.3 23.3 0 01-.78-7.077c0-4.782-.295-6.636-5.711-6.636h-7.565v13.713h-7.176v-18.3a50.774 50.774 0 015.61-.291 39.927 39.927 0 0118.487 4.055c.986.432 1.983.872 3.029 1.289.052.157.105.319.149.493a18.426 18.426 0 01.493 4.847c0 5.126 0 6.394 1.563 6.98" fill="#fff"/><path data-name="Path 1524" d="M99.048 67.857v-2.949h-8.589v20.66h3.245v-8.53h4.191v-2.953h-4.191v-6.227z" fill="#fff"/><path data-name="Path 1525" d="M115.929 64.908v15.935c0 1.477-.65 2.008-1.684 2.008s-1.681-.531-1.681-2.008V64.908h-3.245v15.73c0 3.305 1.653 5.193 4.838 5.193s4.841-1.888 4.841-5.193v-15.73z" fill="#fff"/><path data-name="Path 1526" d="M137.443 64.908v12.366l-3.333-12.366h-4.077v20.66h2.922V70.603l4.043 14.964h3.335V64.908z" fill="#fff"/><path data-name="Path 1527" d="M170.085 64.908h-5.133v20.66h5.133c3.248 0 4.841-1.8 4.841-5.108V70.008c0-3.305-1.593-5.105-4.841-5.105m1.6 15.7c0 1.477-.622 2.008-1.652 2.008h-1.832V67.857h1.832c1.03 0 1.652.531 1.652 2.008z" fill="#fff"/><path data-name="Rectangle 4000" fill="#fff" d="M185.847 64.907h3.245v20.66h-3.245z"/><path data-name="Path 1528" d="M207.684 64.908l-2.479 16.852-2.478-16.852h-3.277l3.189 20.66h4.841l3.186-20.66z" fill="#fff"/><path data-name="Path 1529" d="M229.881 67.857v-2.949h-8.853v20.66h8.853v-2.953h-5.608v-6.051h4.455v-2.956h-4.455v-5.756z" fill="#fff"/><path data-name="Path 1530" d="M250.481 83.057v-3.189c0-2.152-.531-3.717-2.155-4.4 1.448-.679 2.127-2.067 2.127-4.191v-1.624c0-3.186-1.448-4.75-4.813-4.75h-4.9v20.66h3.245V77.15h1.122c1.477 0 2.127.71 2.127 2.626v3.249a6.331 6.331 0 00.3 2.538h3.305a6.065 6.065 0 01-.355-2.51m-3.277-11.037c0 1.653-.738 2.183-1.948 2.183h-1.269v-6.346h1.565c1.153 0 1.652.65 1.652 2.127z" fill="#fff"/><path data-name="Path 1531" d="M120.474 53.382a16.021 16.021 0 002.746-5.485c.04-.137.077-.279.117-.42a48.62 48.62 0 01-6.648.42c-.365 0-.719 0-1.069-.01l-1.026-.032a43.26 43.26 0 01-5.393-.508l-.335.352-1.131 1.191 3.514 3.32a8.646 8.646 0 01-3.95.925c-3.47 0-8.183-1.878-9.286-8.975-.02-.153-.045-.307-.065-.468a45.215 45.215 0 00-7.489-2.7v.416c.254 15.971 12.247 17.93 16.835 17.93a18.275 18.275 0 008.979-2.343l4.148 3.954 3.857-3.954z" fill="#fff"/></g></svg>